G04 #@! TF.GenerationSoftware,KiCad,Pcbnew,(5.1.6-0-10_14)*
G04 #@! TF.CreationDate,2020-06-01T10:41:06-07:00*
G04 #@! TF.ProjectId,Clock_MiniM4_Pelican,436c6f63-6b5f-44d6-996e-694d345f5065,v01*
G04 #@! TF.SameCoordinates,Original*
G04 #@! TF.FileFunction,Soldermask,Bot*
G04 #@! TF.FilePolarity,Negative*
%FSLAX46Y46*%
G04 Gerber Fmt 4.6, Leading zero omitted, Abs format (unit mm)*
G04 Created by KiCad (PCBNEW (5.1.6-0-10_14)) date 2020-06-01 10:41:06*
%MOMM*%
%LPD*%
G01*
G04 APERTURE LIST*
%ADD10C,3.101600*%
%ADD11R,1.625600X1.625600*%
%ADD12C,1.625600*%
%ADD13C,2.801600*%
%ADD14C,1.901600*%
%ADD15C,1.801600*%
%ADD16C,2.601600*%
%ADD17O,1.801600X1.801600*%
%ADD18R,1.801600X1.801600*%
%ADD19C,2.101600*%
%ADD20R,2.901600X3.701600*%
G04 APERTURE END LIST*
D10*
X96139000Y-68580000D03*
X208661000Y-68580000D03*
D11*
X157480000Y-68580000D03*
D12*
X154940000Y-68580000D03*
X149860000Y-68580000D03*
X147320000Y-68580000D03*
X152400000Y-68580000D03*
D13*
X224790000Y-60960000D03*
X224790000Y-43180000D03*
D14*
X147320000Y-43180000D03*
X144780000Y-43180000D03*
X142240000Y-43180000D03*
X139700000Y-43180000D03*
X137160000Y-43180000D03*
X134620000Y-43180000D03*
X134620000Y-53340000D03*
X137160000Y-53340000D03*
X139700000Y-53340000D03*
X142240000Y-53340000D03*
X144780000Y-53340000D03*
X147320000Y-53340000D03*
D15*
X158750000Y-62230000D03*
X161290000Y-62230000D03*
X163830000Y-62230000D03*
X166370000Y-62230000D03*
X168910000Y-62230000D03*
X171450000Y-62230000D03*
X173990000Y-62230000D03*
X176530000Y-62230000D03*
X179070000Y-62230000D03*
X181610000Y-62230000D03*
X184150000Y-62230000D03*
X186690000Y-62230000D03*
X189230000Y-62230000D03*
X191770000Y-62230000D03*
X194310000Y-62230000D03*
X196850000Y-62230000D03*
X168910000Y-41910000D03*
X171450000Y-41910000D03*
X173990000Y-41910000D03*
X176530000Y-41910000D03*
X179070000Y-41910000D03*
X181610000Y-41910000D03*
X184150000Y-41910000D03*
X186690000Y-41910000D03*
X189230000Y-41910000D03*
X191770000Y-41910000D03*
X194310000Y-41910000D03*
X196850000Y-41910000D03*
D16*
X200660000Y-43180000D03*
X200660000Y-60960000D03*
D10*
X154940000Y-60960000D03*
X154940000Y-43180000D03*
D17*
X143510000Y-59690000D03*
D18*
X138430000Y-59690000D03*
D17*
X220980000Y-68580000D03*
D18*
X218440000Y-68580000D03*
D19*
X216915000Y-59870000D03*
X214415000Y-59870000D03*
X211915000Y-59870000D03*
X216915000Y-45370000D03*
X211915000Y-45370000D03*
D20*
X220115000Y-52370000D03*
X208715000Y-52370000D03*
D15*
X85090000Y-62230000D03*
X87630000Y-62230000D03*
X90170000Y-62230000D03*
X92710000Y-62230000D03*
X95250000Y-62230000D03*
X97790000Y-62230000D03*
X100330000Y-62230000D03*
X102870000Y-62230000D03*
X105410000Y-62230000D03*
X107950000Y-62230000D03*
X110490000Y-62230000D03*
X113030000Y-62230000D03*
X115570000Y-62230000D03*
X118110000Y-62230000D03*
X120650000Y-62230000D03*
X123190000Y-62230000D03*
X95250000Y-41910000D03*
X97790000Y-41910000D03*
X100330000Y-41910000D03*
X102870000Y-41910000D03*
X105410000Y-41910000D03*
X107950000Y-41910000D03*
X110490000Y-41910000D03*
X113030000Y-41910000D03*
X115570000Y-41910000D03*
X118110000Y-41910000D03*
X120650000Y-41910000D03*
X123190000Y-41910000D03*
D16*
X127000000Y-43180000D03*
X127000000Y-60960000D03*
D10*
X81280000Y-60960000D03*
X81280000Y-43180000D03*
M02*
