G04 #@! TF.GenerationSoftware,KiCad,Pcbnew,(5.1.6-0-10_14)*
G04 #@! TF.CreationDate,2020-05-31T18:28:27-07:00*
G04 #@! TF.ProjectId,Clock_MiniM4_Pelican,436c6f63-6b5f-44d6-996e-694d345f5065,v01*
G04 #@! TF.SameCoordinates,Original*
G04 #@! TF.FileFunction,Copper,L2,Bot*
G04 #@! TF.FilePolarity,Positive*
%FSLAX46Y46*%
G04 Gerber Fmt 4.6, Leading zero omitted, Abs format (unit mm)*
G04 Created by KiCad (PCBNEW (5.1.6-0-10_14)) date 2020-05-31 18:28:27*
%MOMM*%
%LPD*%
G01*
G04 APERTURE LIST*
G04 #@! TA.AperFunction,WasherPad*
%ADD10C,3.000000*%
G04 #@! TD*
G04 #@! TA.AperFunction,ComponentPad*
%ADD11R,1.524000X1.524000*%
G04 #@! TD*
G04 #@! TA.AperFunction,ComponentPad*
%ADD12C,1.524000*%
G04 #@! TD*
G04 #@! TA.AperFunction,ComponentPad*
%ADD13C,1.800000*%
G04 #@! TD*
G04 #@! TA.AperFunction,ComponentPad*
%ADD14C,1.700000*%
G04 #@! TD*
G04 #@! TA.AperFunction,ComponentPad*
%ADD15C,3.000000*%
G04 #@! TD*
G04 #@! TA.AperFunction,ComponentPad*
%ADD16O,1.700000X1.700000*%
G04 #@! TD*
G04 #@! TA.AperFunction,ComponentPad*
%ADD17R,1.700000X1.700000*%
G04 #@! TD*
G04 #@! TA.AperFunction,ComponentPad*
%ADD18C,2.000000*%
G04 #@! TD*
G04 #@! TA.AperFunction,ComponentPad*
%ADD19R,2.800000X3.600000*%
G04 #@! TD*
G04 #@! TA.AperFunction,ViaPad*
%ADD20C,0.685800*%
G04 #@! TD*
G04 #@! TA.AperFunction,ViaPad*
%ADD21C,1.016000*%
G04 #@! TD*
G04 #@! TA.AperFunction,Conductor*
%ADD22C,0.254000*%
G04 #@! TD*
G04 APERTURE END LIST*
D10*
X96139000Y-68580000D03*
X208661000Y-68580000D03*
D11*
X157480000Y-68580000D03*
D12*
X154940000Y-68580000D03*
X149860000Y-68580000D03*
X147320000Y-68580000D03*
X152400000Y-68580000D03*
D13*
X146491666Y-43180000D03*
X143951666Y-43180000D03*
X141411666Y-43180000D03*
X138871666Y-43180000D03*
X136331666Y-43180000D03*
X133791666Y-43180000D03*
X133791666Y-53340000D03*
X136331666Y-53340000D03*
X138871666Y-53340000D03*
X141411666Y-53340000D03*
X143951666Y-53340000D03*
X146491666Y-53340000D03*
D14*
X157480000Y-62230000D03*
X160020000Y-62230000D03*
X162560000Y-62230000D03*
X165100000Y-62230000D03*
X167640000Y-62230000D03*
X170180000Y-62230000D03*
X172720000Y-62230000D03*
X175260000Y-62230000D03*
X177800000Y-62230000D03*
X180340000Y-62230000D03*
X182880000Y-62230000D03*
X185420000Y-62230000D03*
X187960000Y-62230000D03*
X190500000Y-62230000D03*
X193040000Y-62230000D03*
X195580000Y-62230000D03*
X167640000Y-41910000D03*
X170180000Y-41910000D03*
X172720000Y-41910000D03*
X175260000Y-41910000D03*
X177800000Y-41910000D03*
X180340000Y-41910000D03*
X182880000Y-41910000D03*
X185420000Y-41910000D03*
X187960000Y-41910000D03*
X190500000Y-41910000D03*
X193040000Y-41910000D03*
X195580000Y-41910000D03*
D15*
X153670000Y-60960000D03*
X153670000Y-43180000D03*
D16*
X142875000Y-59690000D03*
D17*
X137795000Y-59690000D03*
D16*
X220980000Y-68580000D03*
D17*
X218440000Y-68580000D03*
D18*
X217550000Y-59870000D03*
X215050000Y-59870000D03*
X212550000Y-59870000D03*
X217550000Y-45370000D03*
X212550000Y-45370000D03*
D19*
X220750000Y-52370000D03*
X209350000Y-52370000D03*
D14*
X85090000Y-62230000D03*
X87630000Y-62230000D03*
X90170000Y-62230000D03*
X92710000Y-62230000D03*
X95250000Y-62230000D03*
X97790000Y-62230000D03*
X100330000Y-62230000D03*
X102870000Y-62230000D03*
X105410000Y-62230000D03*
X107950000Y-62230000D03*
X110490000Y-62230000D03*
X113030000Y-62230000D03*
X115570000Y-62230000D03*
X118110000Y-62230000D03*
X120650000Y-62230000D03*
X123190000Y-62230000D03*
X95250000Y-41910000D03*
X97790000Y-41910000D03*
X100330000Y-41910000D03*
X102870000Y-41910000D03*
X105410000Y-41910000D03*
X107950000Y-41910000D03*
X110490000Y-41910000D03*
X113030000Y-41910000D03*
X115570000Y-41910000D03*
X118110000Y-41910000D03*
X120650000Y-41910000D03*
X123190000Y-41910000D03*
D15*
X81280000Y-60960000D03*
X81280000Y-43180000D03*
D20*
X161290000Y-43180000D03*
X92710000Y-54610000D03*
X161290000Y-57150000D03*
X88900000Y-43180000D03*
X148590000Y-65405000D03*
X203835000Y-43180000D03*
D21*
X99060000Y-49530000D03*
X101600000Y-49530000D03*
D22*
X146491666Y-45526666D02*
X146491666Y-43180000D01*
X160020000Y-62230000D02*
X160020000Y-64770000D01*
X160020000Y-64770000D02*
X159385000Y-65405000D01*
X150495000Y-65405000D02*
X149860000Y-64770000D01*
X159385000Y-65405000D02*
X150495000Y-65405000D01*
X146491666Y-45526666D02*
X146491666Y-45913334D01*
X149860000Y-64770000D02*
X149860000Y-52070000D01*
X145415000Y-49530000D02*
X101600000Y-49530000D01*
X98425000Y-56515000D02*
X99060000Y-55880000D01*
X99060000Y-55880000D02*
X99060000Y-49530000D01*
X88265000Y-56515000D02*
X98425000Y-56515000D01*
X87630000Y-57150000D02*
X88265000Y-56515000D01*
X87630000Y-62230000D02*
X87630000Y-57150000D01*
X146050000Y-49530000D02*
X146491666Y-49088334D01*
X146491666Y-49088334D02*
X146491666Y-43180000D01*
X145415000Y-49530000D02*
X146050000Y-49530000D01*
X146933332Y-49530000D02*
X146491666Y-49088334D01*
X149225000Y-49530000D02*
X146933332Y-49530000D01*
X149860000Y-50165000D02*
X149225000Y-49530000D01*
X149860000Y-52070000D02*
X149860000Y-50165000D01*
X100330000Y-41910000D02*
X100330000Y-55880000D01*
X100330000Y-55880000D02*
X100965000Y-56515000D01*
X100965000Y-56515000D02*
X146050000Y-56515000D01*
X146491666Y-56073334D02*
X146491666Y-53340000D01*
X146050000Y-56515000D02*
X146491666Y-56073334D01*
X147320000Y-67310000D02*
X147320000Y-68580000D01*
X146685000Y-57150000D02*
X146685000Y-66675000D01*
X146050000Y-56515000D02*
X146685000Y-57150000D01*
X146685000Y-66675000D02*
X147320000Y-67310000D01*
X147320000Y-68580000D02*
X149860000Y-68580000D01*
X147320000Y-67310000D02*
X147955000Y-66675000D01*
X147955000Y-66675000D02*
X217805000Y-66675000D01*
X217805000Y-66675000D02*
X218440000Y-67310000D01*
X218440000Y-67310000D02*
X218440000Y-68580000D01*
G36*
X226469238Y-38573193D02*
G01*
X226862893Y-38692044D01*
X227225957Y-38885089D01*
X227544615Y-39144979D01*
X227806728Y-39461820D01*
X228002303Y-39823528D01*
X228123899Y-40216343D01*
X228169001Y-40645456D01*
X228169000Y-68558921D01*
X228126807Y-68989237D01*
X228007957Y-69382889D01*
X227814911Y-69745957D01*
X227555018Y-70064617D01*
X227238183Y-70326726D01*
X226876472Y-70522303D01*
X226483658Y-70643899D01*
X226054554Y-70689000D01*
X78761079Y-70689000D01*
X78330763Y-70646807D01*
X77937111Y-70527957D01*
X77574043Y-70334911D01*
X77255383Y-70075018D01*
X76993274Y-69758183D01*
X76797697Y-69396472D01*
X76676101Y-69003658D01*
X76631000Y-68574554D01*
X76631000Y-68394738D01*
X94258000Y-68394738D01*
X94258000Y-68765262D01*
X94330286Y-69128667D01*
X94472080Y-69470987D01*
X94677932Y-69779067D01*
X94939933Y-70041068D01*
X95248013Y-70246920D01*
X95590333Y-70388714D01*
X95953738Y-70461000D01*
X96324262Y-70461000D01*
X96687667Y-70388714D01*
X97029987Y-70246920D01*
X97338067Y-70041068D01*
X97600068Y-69779067D01*
X97805920Y-69470987D01*
X97947714Y-69128667D01*
X98020000Y-68765262D01*
X98020000Y-68394738D01*
X97947714Y-68031333D01*
X97805920Y-67689013D01*
X97600068Y-67380933D01*
X97338067Y-67118932D01*
X97029987Y-66913080D01*
X96687667Y-66771286D01*
X96324262Y-66699000D01*
X95953738Y-66699000D01*
X95590333Y-66771286D01*
X95248013Y-66913080D01*
X94939933Y-67118932D01*
X94677932Y-67380933D01*
X94472080Y-67689013D01*
X94330286Y-68031333D01*
X94258000Y-68394738D01*
X76631000Y-68394738D01*
X76631000Y-60774738D01*
X79399000Y-60774738D01*
X79399000Y-61145262D01*
X79471286Y-61508667D01*
X79613080Y-61850987D01*
X79818932Y-62159067D01*
X80080933Y-62421068D01*
X80389013Y-62626920D01*
X80731333Y-62768714D01*
X81094738Y-62841000D01*
X81465262Y-62841000D01*
X81828667Y-62768714D01*
X82170987Y-62626920D01*
X82479067Y-62421068D01*
X82741068Y-62159067D01*
X82774683Y-62108757D01*
X83859000Y-62108757D01*
X83859000Y-62351243D01*
X83906307Y-62589069D01*
X83999102Y-62813097D01*
X84133820Y-63014717D01*
X84305283Y-63186180D01*
X84506903Y-63320898D01*
X84730931Y-63413693D01*
X84968757Y-63461000D01*
X85211243Y-63461000D01*
X85449069Y-63413693D01*
X85673097Y-63320898D01*
X85874717Y-63186180D01*
X86046180Y-63014717D01*
X86180898Y-62813097D01*
X86273693Y-62589069D01*
X86321000Y-62351243D01*
X86321000Y-62108757D01*
X86399000Y-62108757D01*
X86399000Y-62351243D01*
X86446307Y-62589069D01*
X86539102Y-62813097D01*
X86673820Y-63014717D01*
X86845283Y-63186180D01*
X87046903Y-63320898D01*
X87270931Y-63413693D01*
X87508757Y-63461000D01*
X87751243Y-63461000D01*
X87989069Y-63413693D01*
X88213097Y-63320898D01*
X88414717Y-63186180D01*
X88586180Y-63014717D01*
X88720898Y-62813097D01*
X88813693Y-62589069D01*
X88861000Y-62351243D01*
X88861000Y-62108757D01*
X88939000Y-62108757D01*
X88939000Y-62351243D01*
X88986307Y-62589069D01*
X89079102Y-62813097D01*
X89213820Y-63014717D01*
X89385283Y-63186180D01*
X89586903Y-63320898D01*
X89810931Y-63413693D01*
X90048757Y-63461000D01*
X90291243Y-63461000D01*
X90529069Y-63413693D01*
X90753097Y-63320898D01*
X90846636Y-63258397D01*
X91861208Y-63258397D01*
X91938843Y-63507472D01*
X92202883Y-63633371D01*
X92486411Y-63705339D01*
X92778531Y-63720611D01*
X93068019Y-63678599D01*
X93343747Y-63580919D01*
X93481157Y-63507472D01*
X93558792Y-63258397D01*
X92710000Y-62409605D01*
X91861208Y-63258397D01*
X90846636Y-63258397D01*
X90954717Y-63186180D01*
X91126180Y-63014717D01*
X91260898Y-62813097D01*
X91304148Y-62708683D01*
X91359081Y-62863747D01*
X91432528Y-63001157D01*
X91681603Y-63078792D01*
X92530395Y-62230000D01*
X92889605Y-62230000D01*
X93738397Y-63078792D01*
X93987472Y-63001157D01*
X94113371Y-62737117D01*
X94118789Y-62715772D01*
X94159102Y-62813097D01*
X94293820Y-63014717D01*
X94465283Y-63186180D01*
X94666903Y-63320898D01*
X94890931Y-63413693D01*
X95128757Y-63461000D01*
X95371243Y-63461000D01*
X95609069Y-63413693D01*
X95833097Y-63320898D01*
X96034717Y-63186180D01*
X96206180Y-63014717D01*
X96340898Y-62813097D01*
X96433693Y-62589069D01*
X96481000Y-62351243D01*
X96481000Y-62108757D01*
X96559000Y-62108757D01*
X96559000Y-62351243D01*
X96606307Y-62589069D01*
X96699102Y-62813097D01*
X96833820Y-63014717D01*
X97005283Y-63186180D01*
X97206903Y-63320898D01*
X97430931Y-63413693D01*
X97668757Y-63461000D01*
X97911243Y-63461000D01*
X98149069Y-63413693D01*
X98373097Y-63320898D01*
X98574717Y-63186180D01*
X98746180Y-63014717D01*
X98880898Y-62813097D01*
X98973693Y-62589069D01*
X99021000Y-62351243D01*
X99021000Y-62108757D01*
X99099000Y-62108757D01*
X99099000Y-62351243D01*
X99146307Y-62589069D01*
X99239102Y-62813097D01*
X99373820Y-63014717D01*
X99545283Y-63186180D01*
X99746903Y-63320898D01*
X99970931Y-63413693D01*
X100208757Y-63461000D01*
X100451243Y-63461000D01*
X100689069Y-63413693D01*
X100913097Y-63320898D01*
X101114717Y-63186180D01*
X101286180Y-63014717D01*
X101420898Y-62813097D01*
X101513693Y-62589069D01*
X101561000Y-62351243D01*
X101561000Y-62108757D01*
X101639000Y-62108757D01*
X101639000Y-62351243D01*
X101686307Y-62589069D01*
X101779102Y-62813097D01*
X101913820Y-63014717D01*
X102085283Y-63186180D01*
X102286903Y-63320898D01*
X102510931Y-63413693D01*
X102748757Y-63461000D01*
X102991243Y-63461000D01*
X103229069Y-63413693D01*
X103453097Y-63320898D01*
X103654717Y-63186180D01*
X103826180Y-63014717D01*
X103960898Y-62813097D01*
X104053693Y-62589069D01*
X104101000Y-62351243D01*
X104101000Y-62108757D01*
X104179000Y-62108757D01*
X104179000Y-62351243D01*
X104226307Y-62589069D01*
X104319102Y-62813097D01*
X104453820Y-63014717D01*
X104625283Y-63186180D01*
X104826903Y-63320898D01*
X105050931Y-63413693D01*
X105288757Y-63461000D01*
X105531243Y-63461000D01*
X105769069Y-63413693D01*
X105993097Y-63320898D01*
X106194717Y-63186180D01*
X106366180Y-63014717D01*
X106500898Y-62813097D01*
X106593693Y-62589069D01*
X106641000Y-62351243D01*
X106641000Y-62108757D01*
X106719000Y-62108757D01*
X106719000Y-62351243D01*
X106766307Y-62589069D01*
X106859102Y-62813097D01*
X106993820Y-63014717D01*
X107165283Y-63186180D01*
X107366903Y-63320898D01*
X107590931Y-63413693D01*
X107828757Y-63461000D01*
X108071243Y-63461000D01*
X108309069Y-63413693D01*
X108533097Y-63320898D01*
X108734717Y-63186180D01*
X108906180Y-63014717D01*
X109040898Y-62813097D01*
X109133693Y-62589069D01*
X109181000Y-62351243D01*
X109181000Y-62108757D01*
X109259000Y-62108757D01*
X109259000Y-62351243D01*
X109306307Y-62589069D01*
X109399102Y-62813097D01*
X109533820Y-63014717D01*
X109705283Y-63186180D01*
X109906903Y-63320898D01*
X110130931Y-63413693D01*
X110368757Y-63461000D01*
X110611243Y-63461000D01*
X110849069Y-63413693D01*
X111073097Y-63320898D01*
X111274717Y-63186180D01*
X111446180Y-63014717D01*
X111580898Y-62813097D01*
X111673693Y-62589069D01*
X111721000Y-62351243D01*
X111721000Y-62108757D01*
X111799000Y-62108757D01*
X111799000Y-62351243D01*
X111846307Y-62589069D01*
X111939102Y-62813097D01*
X112073820Y-63014717D01*
X112245283Y-63186180D01*
X112446903Y-63320898D01*
X112670931Y-63413693D01*
X112908757Y-63461000D01*
X113151243Y-63461000D01*
X113389069Y-63413693D01*
X113613097Y-63320898D01*
X113814717Y-63186180D01*
X113986180Y-63014717D01*
X114120898Y-62813097D01*
X114213693Y-62589069D01*
X114261000Y-62351243D01*
X114261000Y-62108757D01*
X114339000Y-62108757D01*
X114339000Y-62351243D01*
X114386307Y-62589069D01*
X114479102Y-62813097D01*
X114613820Y-63014717D01*
X114785283Y-63186180D01*
X114986903Y-63320898D01*
X115210931Y-63413693D01*
X115448757Y-63461000D01*
X115691243Y-63461000D01*
X115929069Y-63413693D01*
X116153097Y-63320898D01*
X116354717Y-63186180D01*
X116526180Y-63014717D01*
X116660898Y-62813097D01*
X116753693Y-62589069D01*
X116801000Y-62351243D01*
X116801000Y-62108757D01*
X116879000Y-62108757D01*
X116879000Y-62351243D01*
X116926307Y-62589069D01*
X117019102Y-62813097D01*
X117153820Y-63014717D01*
X117325283Y-63186180D01*
X117526903Y-63320898D01*
X117750931Y-63413693D01*
X117988757Y-63461000D01*
X118231243Y-63461000D01*
X118469069Y-63413693D01*
X118693097Y-63320898D01*
X118894717Y-63186180D01*
X119066180Y-63014717D01*
X119200898Y-62813097D01*
X119293693Y-62589069D01*
X119341000Y-62351243D01*
X119341000Y-62108757D01*
X119419000Y-62108757D01*
X119419000Y-62351243D01*
X119466307Y-62589069D01*
X119559102Y-62813097D01*
X119693820Y-63014717D01*
X119865283Y-63186180D01*
X120066903Y-63320898D01*
X120290931Y-63413693D01*
X120528757Y-63461000D01*
X120771243Y-63461000D01*
X121009069Y-63413693D01*
X121233097Y-63320898D01*
X121434717Y-63186180D01*
X121606180Y-63014717D01*
X121740898Y-62813097D01*
X121833693Y-62589069D01*
X121881000Y-62351243D01*
X121881000Y-62108757D01*
X121959000Y-62108757D01*
X121959000Y-62351243D01*
X122006307Y-62589069D01*
X122099102Y-62813097D01*
X122233820Y-63014717D01*
X122405283Y-63186180D01*
X122606903Y-63320898D01*
X122830931Y-63413693D01*
X123068757Y-63461000D01*
X123311243Y-63461000D01*
X123549069Y-63413693D01*
X123773097Y-63320898D01*
X123974717Y-63186180D01*
X124146180Y-63014717D01*
X124280898Y-62813097D01*
X124373693Y-62589069D01*
X124421000Y-62351243D01*
X124421000Y-62108757D01*
X124373693Y-61870931D01*
X124280898Y-61646903D01*
X124146180Y-61445283D01*
X123974717Y-61273820D01*
X123773097Y-61139102D01*
X123549069Y-61046307D01*
X123311243Y-60999000D01*
X123068757Y-60999000D01*
X122830931Y-61046307D01*
X122606903Y-61139102D01*
X122405283Y-61273820D01*
X122233820Y-61445283D01*
X122099102Y-61646903D01*
X122006307Y-61870931D01*
X121959000Y-62108757D01*
X121881000Y-62108757D01*
X121833693Y-61870931D01*
X121740898Y-61646903D01*
X121606180Y-61445283D01*
X121434717Y-61273820D01*
X121233097Y-61139102D01*
X121009069Y-61046307D01*
X120771243Y-60999000D01*
X120528757Y-60999000D01*
X120290931Y-61046307D01*
X120066903Y-61139102D01*
X119865283Y-61273820D01*
X119693820Y-61445283D01*
X119559102Y-61646903D01*
X119466307Y-61870931D01*
X119419000Y-62108757D01*
X119341000Y-62108757D01*
X119293693Y-61870931D01*
X119200898Y-61646903D01*
X119066180Y-61445283D01*
X118894717Y-61273820D01*
X118693097Y-61139102D01*
X118469069Y-61046307D01*
X118231243Y-60999000D01*
X117988757Y-60999000D01*
X117750931Y-61046307D01*
X117526903Y-61139102D01*
X117325283Y-61273820D01*
X117153820Y-61445283D01*
X117019102Y-61646903D01*
X116926307Y-61870931D01*
X116879000Y-62108757D01*
X116801000Y-62108757D01*
X116753693Y-61870931D01*
X116660898Y-61646903D01*
X116526180Y-61445283D01*
X116354717Y-61273820D01*
X116153097Y-61139102D01*
X115929069Y-61046307D01*
X115691243Y-60999000D01*
X115448757Y-60999000D01*
X115210931Y-61046307D01*
X114986903Y-61139102D01*
X114785283Y-61273820D01*
X114613820Y-61445283D01*
X114479102Y-61646903D01*
X114386307Y-61870931D01*
X114339000Y-62108757D01*
X114261000Y-62108757D01*
X114213693Y-61870931D01*
X114120898Y-61646903D01*
X113986180Y-61445283D01*
X113814717Y-61273820D01*
X113613097Y-61139102D01*
X113389069Y-61046307D01*
X113151243Y-60999000D01*
X112908757Y-60999000D01*
X112670931Y-61046307D01*
X112446903Y-61139102D01*
X112245283Y-61273820D01*
X112073820Y-61445283D01*
X111939102Y-61646903D01*
X111846307Y-61870931D01*
X111799000Y-62108757D01*
X111721000Y-62108757D01*
X111673693Y-61870931D01*
X111580898Y-61646903D01*
X111446180Y-61445283D01*
X111274717Y-61273820D01*
X111073097Y-61139102D01*
X110849069Y-61046307D01*
X110611243Y-60999000D01*
X110368757Y-60999000D01*
X110130931Y-61046307D01*
X109906903Y-61139102D01*
X109705283Y-61273820D01*
X109533820Y-61445283D01*
X109399102Y-61646903D01*
X109306307Y-61870931D01*
X109259000Y-62108757D01*
X109181000Y-62108757D01*
X109133693Y-61870931D01*
X109040898Y-61646903D01*
X108906180Y-61445283D01*
X108734717Y-61273820D01*
X108533097Y-61139102D01*
X108309069Y-61046307D01*
X108071243Y-60999000D01*
X107828757Y-60999000D01*
X107590931Y-61046307D01*
X107366903Y-61139102D01*
X107165283Y-61273820D01*
X106993820Y-61445283D01*
X106859102Y-61646903D01*
X106766307Y-61870931D01*
X106719000Y-62108757D01*
X106641000Y-62108757D01*
X106593693Y-61870931D01*
X106500898Y-61646903D01*
X106366180Y-61445283D01*
X106194717Y-61273820D01*
X105993097Y-61139102D01*
X105769069Y-61046307D01*
X105531243Y-60999000D01*
X105288757Y-60999000D01*
X105050931Y-61046307D01*
X104826903Y-61139102D01*
X104625283Y-61273820D01*
X104453820Y-61445283D01*
X104319102Y-61646903D01*
X104226307Y-61870931D01*
X104179000Y-62108757D01*
X104101000Y-62108757D01*
X104053693Y-61870931D01*
X103960898Y-61646903D01*
X103826180Y-61445283D01*
X103654717Y-61273820D01*
X103453097Y-61139102D01*
X103229069Y-61046307D01*
X102991243Y-60999000D01*
X102748757Y-60999000D01*
X102510931Y-61046307D01*
X102286903Y-61139102D01*
X102085283Y-61273820D01*
X101913820Y-61445283D01*
X101779102Y-61646903D01*
X101686307Y-61870931D01*
X101639000Y-62108757D01*
X101561000Y-62108757D01*
X101513693Y-61870931D01*
X101420898Y-61646903D01*
X101286180Y-61445283D01*
X101114717Y-61273820D01*
X100913097Y-61139102D01*
X100689069Y-61046307D01*
X100451243Y-60999000D01*
X100208757Y-60999000D01*
X99970931Y-61046307D01*
X99746903Y-61139102D01*
X99545283Y-61273820D01*
X99373820Y-61445283D01*
X99239102Y-61646903D01*
X99146307Y-61870931D01*
X99099000Y-62108757D01*
X99021000Y-62108757D01*
X98973693Y-61870931D01*
X98880898Y-61646903D01*
X98746180Y-61445283D01*
X98574717Y-61273820D01*
X98373097Y-61139102D01*
X98149069Y-61046307D01*
X97911243Y-60999000D01*
X97668757Y-60999000D01*
X97430931Y-61046307D01*
X97206903Y-61139102D01*
X97005283Y-61273820D01*
X96833820Y-61445283D01*
X96699102Y-61646903D01*
X96606307Y-61870931D01*
X96559000Y-62108757D01*
X96481000Y-62108757D01*
X96433693Y-61870931D01*
X96340898Y-61646903D01*
X96206180Y-61445283D01*
X96034717Y-61273820D01*
X95833097Y-61139102D01*
X95609069Y-61046307D01*
X95371243Y-60999000D01*
X95128757Y-60999000D01*
X94890931Y-61046307D01*
X94666903Y-61139102D01*
X94465283Y-61273820D01*
X94293820Y-61445283D01*
X94159102Y-61646903D01*
X94115852Y-61751317D01*
X94060919Y-61596253D01*
X93987472Y-61458843D01*
X93738397Y-61381208D01*
X92889605Y-62230000D01*
X92530395Y-62230000D01*
X91681603Y-61381208D01*
X91432528Y-61458843D01*
X91306629Y-61722883D01*
X91301211Y-61744228D01*
X91260898Y-61646903D01*
X91126180Y-61445283D01*
X90954717Y-61273820D01*
X90846637Y-61201603D01*
X91861208Y-61201603D01*
X92710000Y-62050395D01*
X93558792Y-61201603D01*
X93481157Y-60952528D01*
X93217117Y-60826629D01*
X93109687Y-60799360D01*
X125369000Y-60799360D01*
X125369000Y-61120640D01*
X125431678Y-61435745D01*
X125554626Y-61732568D01*
X125733119Y-61999702D01*
X125960298Y-62226881D01*
X126227432Y-62405374D01*
X126524255Y-62528322D01*
X126839360Y-62591000D01*
X127160640Y-62591000D01*
X127475745Y-62528322D01*
X127772568Y-62405374D01*
X128039702Y-62226881D01*
X128266881Y-61999702D01*
X128445374Y-61732568D01*
X128568322Y-61435745D01*
X128631000Y-61120640D01*
X128631000Y-60799360D01*
X128568322Y-60484255D01*
X128445374Y-60187432D01*
X128266881Y-59920298D01*
X128039702Y-59693119D01*
X127772568Y-59514626D01*
X127475745Y-59391678D01*
X127160640Y-59329000D01*
X126839360Y-59329000D01*
X126524255Y-59391678D01*
X126227432Y-59514626D01*
X125960298Y-59693119D01*
X125733119Y-59920298D01*
X125554626Y-60187432D01*
X125431678Y-60484255D01*
X125369000Y-60799360D01*
X93109687Y-60799360D01*
X92933589Y-60754661D01*
X92641469Y-60739389D01*
X92351981Y-60781401D01*
X92076253Y-60879081D01*
X91938843Y-60952528D01*
X91861208Y-61201603D01*
X90846637Y-61201603D01*
X90753097Y-61139102D01*
X90529069Y-61046307D01*
X90291243Y-60999000D01*
X90048757Y-60999000D01*
X89810931Y-61046307D01*
X89586903Y-61139102D01*
X89385283Y-61273820D01*
X89213820Y-61445283D01*
X89079102Y-61646903D01*
X88986307Y-61870931D01*
X88939000Y-62108757D01*
X88861000Y-62108757D01*
X88813693Y-61870931D01*
X88720898Y-61646903D01*
X88586180Y-61445283D01*
X88414717Y-61273820D01*
X88213097Y-61139102D01*
X88138000Y-61107996D01*
X88138000Y-58840000D01*
X136562157Y-58840000D01*
X136562157Y-60540000D01*
X136569513Y-60614689D01*
X136591299Y-60686508D01*
X136626678Y-60752696D01*
X136674289Y-60810711D01*
X136732304Y-60858322D01*
X136798492Y-60893701D01*
X136870311Y-60915487D01*
X136945000Y-60922843D01*
X138645000Y-60922843D01*
X138719689Y-60915487D01*
X138791508Y-60893701D01*
X138857696Y-60858322D01*
X138915711Y-60810711D01*
X138963322Y-60752696D01*
X138998701Y-60686508D01*
X139020487Y-60614689D01*
X139027843Y-60540000D01*
X139027843Y-60046891D01*
X141433519Y-60046891D01*
X141530843Y-60321252D01*
X141679822Y-60571355D01*
X141874731Y-60787588D01*
X142108080Y-60961641D01*
X142370901Y-61086825D01*
X142518110Y-61131476D01*
X142748000Y-61010155D01*
X142748000Y-59817000D01*
X143002000Y-59817000D01*
X143002000Y-61010155D01*
X143231890Y-61131476D01*
X143379099Y-61086825D01*
X143641920Y-60961641D01*
X143875269Y-60787588D01*
X144070178Y-60571355D01*
X144219157Y-60321252D01*
X144316481Y-60046891D01*
X144195814Y-59817000D01*
X143002000Y-59817000D01*
X142748000Y-59817000D01*
X141554186Y-59817000D01*
X141433519Y-60046891D01*
X139027843Y-60046891D01*
X139027843Y-59333109D01*
X141433519Y-59333109D01*
X141554186Y-59563000D01*
X142748000Y-59563000D01*
X142748000Y-58369845D01*
X143002000Y-58369845D01*
X143002000Y-59563000D01*
X144195814Y-59563000D01*
X144316481Y-59333109D01*
X144219157Y-59058748D01*
X144070178Y-58808645D01*
X143875269Y-58592412D01*
X143641920Y-58418359D01*
X143379099Y-58293175D01*
X143231890Y-58248524D01*
X143002000Y-58369845D01*
X142748000Y-58369845D01*
X142518110Y-58248524D01*
X142370901Y-58293175D01*
X142108080Y-58418359D01*
X141874731Y-58592412D01*
X141679822Y-58808645D01*
X141530843Y-59058748D01*
X141433519Y-59333109D01*
X139027843Y-59333109D01*
X139027843Y-58840000D01*
X139020487Y-58765311D01*
X138998701Y-58693492D01*
X138963322Y-58627304D01*
X138915711Y-58569289D01*
X138857696Y-58521678D01*
X138791508Y-58486299D01*
X138719689Y-58464513D01*
X138645000Y-58457157D01*
X136945000Y-58457157D01*
X136870311Y-58464513D01*
X136798492Y-58486299D01*
X136732304Y-58521678D01*
X136674289Y-58569289D01*
X136626678Y-58627304D01*
X136591299Y-58693492D01*
X136569513Y-58765311D01*
X136562157Y-58840000D01*
X88138000Y-58840000D01*
X88138000Y-57360420D01*
X88475420Y-57023000D01*
X98400056Y-57023000D01*
X98425000Y-57025457D01*
X98449944Y-57023000D01*
X98449947Y-57023000D01*
X98524585Y-57015649D01*
X98620343Y-56986601D01*
X98708595Y-56939429D01*
X98785948Y-56875948D01*
X98801855Y-56856565D01*
X99401565Y-56256855D01*
X99420948Y-56240948D01*
X99484429Y-56163595D01*
X99531601Y-56075343D01*
X99560649Y-55979585D01*
X99568000Y-55904947D01*
X99568000Y-55904944D01*
X99570457Y-55880000D01*
X99568000Y-55855056D01*
X99568000Y-50259756D01*
X99626704Y-50220531D01*
X99750531Y-50096704D01*
X99822001Y-49989742D01*
X99822001Y-55855046D01*
X99819543Y-55880000D01*
X99828474Y-55970674D01*
X99829352Y-55979585D01*
X99839898Y-56014351D01*
X99858400Y-56075343D01*
X99905571Y-56163595D01*
X99953150Y-56221570D01*
X99969053Y-56240948D01*
X99988430Y-56256850D01*
X100588145Y-56856565D01*
X100604052Y-56875948D01*
X100681405Y-56939429D01*
X100769657Y-56986601D01*
X100865415Y-57015649D01*
X100940053Y-57023000D01*
X100940056Y-57023000D01*
X100965000Y-57025457D01*
X100989944Y-57023000D01*
X145839580Y-57023000D01*
X146177000Y-57360420D01*
X146177001Y-66650046D01*
X146174543Y-66675000D01*
X146184352Y-66774584D01*
X146213400Y-66870343D01*
X146260571Y-66958595D01*
X146308150Y-67016570D01*
X146324053Y-67035948D01*
X146343430Y-67051850D01*
X146812000Y-67520420D01*
X146812000Y-67553247D01*
X146778587Y-67567087D01*
X146591380Y-67692174D01*
X146432174Y-67851380D01*
X146307087Y-68038587D01*
X146220925Y-68246599D01*
X146177000Y-68467424D01*
X146177000Y-68692576D01*
X146220925Y-68913401D01*
X146307087Y-69121413D01*
X146432174Y-69308620D01*
X146591380Y-69467826D01*
X146778587Y-69592913D01*
X146986599Y-69679075D01*
X147207424Y-69723000D01*
X147432576Y-69723000D01*
X147653401Y-69679075D01*
X147861413Y-69592913D01*
X148048620Y-69467826D01*
X148207826Y-69308620D01*
X148332913Y-69121413D01*
X148346753Y-69088000D01*
X148833247Y-69088000D01*
X148847087Y-69121413D01*
X148972174Y-69308620D01*
X149131380Y-69467826D01*
X149318587Y-69592913D01*
X149526599Y-69679075D01*
X149747424Y-69723000D01*
X149972576Y-69723000D01*
X150193401Y-69679075D01*
X150401413Y-69592913D01*
X150472274Y-69545565D01*
X151614040Y-69545565D01*
X151681020Y-69785656D01*
X151930048Y-69902756D01*
X152197135Y-69969023D01*
X152472017Y-69981910D01*
X152744133Y-69940922D01*
X153003023Y-69847636D01*
X153118980Y-69785656D01*
X153185960Y-69545565D01*
X152400000Y-68759605D01*
X151614040Y-69545565D01*
X150472274Y-69545565D01*
X150588620Y-69467826D01*
X150747826Y-69308620D01*
X150872913Y-69121413D01*
X150959075Y-68913401D01*
X151003000Y-68692576D01*
X151003000Y-68684614D01*
X151039078Y-68924133D01*
X151132364Y-69183023D01*
X151194344Y-69298980D01*
X151434435Y-69365960D01*
X152220395Y-68580000D01*
X152579605Y-68580000D01*
X153365565Y-69365960D01*
X153605656Y-69298980D01*
X153722756Y-69049952D01*
X153789023Y-68782865D01*
X153797000Y-68612714D01*
X153797000Y-68692576D01*
X153840925Y-68913401D01*
X153927087Y-69121413D01*
X154052174Y-69308620D01*
X154211380Y-69467826D01*
X154398587Y-69592913D01*
X154606599Y-69679075D01*
X154827424Y-69723000D01*
X155052576Y-69723000D01*
X155273401Y-69679075D01*
X155481413Y-69592913D01*
X155668620Y-69467826D01*
X155827826Y-69308620D01*
X155952913Y-69121413D01*
X156039075Y-68913401D01*
X156083000Y-68692576D01*
X156083000Y-68467424D01*
X156039075Y-68246599D01*
X155952913Y-68038587D01*
X155827826Y-67851380D01*
X155794446Y-67818000D01*
X156335157Y-67818000D01*
X156335157Y-69342000D01*
X156342513Y-69416689D01*
X156364299Y-69488508D01*
X156399678Y-69554696D01*
X156447289Y-69612711D01*
X156505304Y-69660322D01*
X156571492Y-69695701D01*
X156643311Y-69717487D01*
X156718000Y-69724843D01*
X158242000Y-69724843D01*
X158316689Y-69717487D01*
X158388508Y-69695701D01*
X158454696Y-69660322D01*
X158512711Y-69612711D01*
X158560322Y-69554696D01*
X158595701Y-69488508D01*
X158617487Y-69416689D01*
X158624843Y-69342000D01*
X158624843Y-67818000D01*
X158617487Y-67743311D01*
X158595701Y-67671492D01*
X158560322Y-67605304D01*
X158512711Y-67547289D01*
X158454696Y-67499678D01*
X158388508Y-67464299D01*
X158316689Y-67442513D01*
X158242000Y-67435157D01*
X156718000Y-67435157D01*
X156643311Y-67442513D01*
X156571492Y-67464299D01*
X156505304Y-67499678D01*
X156447289Y-67547289D01*
X156399678Y-67605304D01*
X156364299Y-67671492D01*
X156342513Y-67743311D01*
X156335157Y-67818000D01*
X155794446Y-67818000D01*
X155668620Y-67692174D01*
X155481413Y-67567087D01*
X155273401Y-67480925D01*
X155052576Y-67437000D01*
X154827424Y-67437000D01*
X154606599Y-67480925D01*
X154398587Y-67567087D01*
X154211380Y-67692174D01*
X154052174Y-67851380D01*
X153927087Y-68038587D01*
X153840925Y-68246599D01*
X153797000Y-68467424D01*
X153797000Y-68475386D01*
X153760922Y-68235867D01*
X153667636Y-67976977D01*
X153605656Y-67861020D01*
X153365565Y-67794040D01*
X152579605Y-68580000D01*
X152220395Y-68580000D01*
X151434435Y-67794040D01*
X151194344Y-67861020D01*
X151077244Y-68110048D01*
X151010977Y-68377135D01*
X151003000Y-68547286D01*
X151003000Y-68467424D01*
X150959075Y-68246599D01*
X150872913Y-68038587D01*
X150747826Y-67851380D01*
X150588620Y-67692174D01*
X150401413Y-67567087D01*
X150193401Y-67480925D01*
X149972576Y-67437000D01*
X149747424Y-67437000D01*
X149526599Y-67480925D01*
X149318587Y-67567087D01*
X149131380Y-67692174D01*
X148972174Y-67851380D01*
X148847087Y-68038587D01*
X148833247Y-68072000D01*
X148346753Y-68072000D01*
X148332913Y-68038587D01*
X148207826Y-67851380D01*
X148048620Y-67692174D01*
X147861413Y-67567087D01*
X147828000Y-67553247D01*
X147828000Y-67520420D01*
X148165420Y-67183000D01*
X152295386Y-67183000D01*
X152055867Y-67219078D01*
X151796977Y-67312364D01*
X151681020Y-67374344D01*
X151614040Y-67614435D01*
X152400000Y-68400395D01*
X153185960Y-67614435D01*
X153118980Y-67374344D01*
X152869952Y-67257244D01*
X152602865Y-67190977D01*
X152432714Y-67183000D01*
X207397865Y-67183000D01*
X207199932Y-67380933D01*
X206994080Y-67689013D01*
X206852286Y-68031333D01*
X206780000Y-68394738D01*
X206780000Y-68765262D01*
X206852286Y-69128667D01*
X206994080Y-69470987D01*
X207199932Y-69779067D01*
X207461933Y-70041068D01*
X207770013Y-70246920D01*
X208112333Y-70388714D01*
X208475738Y-70461000D01*
X208846262Y-70461000D01*
X209209667Y-70388714D01*
X209551987Y-70246920D01*
X209860067Y-70041068D01*
X210122068Y-69779067D01*
X210327920Y-69470987D01*
X210469714Y-69128667D01*
X210542000Y-68765262D01*
X210542000Y-68394738D01*
X210469714Y-68031333D01*
X210327920Y-67689013D01*
X210122068Y-67380933D01*
X209924135Y-67183000D01*
X217594580Y-67183000D01*
X217758737Y-67347157D01*
X217590000Y-67347157D01*
X217515311Y-67354513D01*
X217443492Y-67376299D01*
X217377304Y-67411678D01*
X217319289Y-67459289D01*
X217271678Y-67517304D01*
X217236299Y-67583492D01*
X217214513Y-67655311D01*
X217207157Y-67730000D01*
X217207157Y-69430000D01*
X217214513Y-69504689D01*
X217236299Y-69576508D01*
X217271678Y-69642696D01*
X217319289Y-69700711D01*
X217377304Y-69748322D01*
X217443492Y-69783701D01*
X217515311Y-69805487D01*
X217590000Y-69812843D01*
X219290000Y-69812843D01*
X219364689Y-69805487D01*
X219436508Y-69783701D01*
X219502696Y-69748322D01*
X219560711Y-69700711D01*
X219608322Y-69642696D01*
X219643701Y-69576508D01*
X219665487Y-69504689D01*
X219672843Y-69430000D01*
X219672843Y-69273367D01*
X219784822Y-69461355D01*
X219979731Y-69677588D01*
X220213080Y-69851641D01*
X220475901Y-69976825D01*
X220623110Y-70021476D01*
X220853000Y-69900155D01*
X220853000Y-68707000D01*
X221107000Y-68707000D01*
X221107000Y-69900155D01*
X221336890Y-70021476D01*
X221484099Y-69976825D01*
X221746920Y-69851641D01*
X221980269Y-69677588D01*
X222175178Y-69461355D01*
X222324157Y-69211252D01*
X222421481Y-68936891D01*
X222300814Y-68707000D01*
X221107000Y-68707000D01*
X220853000Y-68707000D01*
X220833000Y-68707000D01*
X220833000Y-68453000D01*
X220853000Y-68453000D01*
X220853000Y-67259845D01*
X221107000Y-67259845D01*
X221107000Y-68453000D01*
X222300814Y-68453000D01*
X222421481Y-68223109D01*
X222324157Y-67948748D01*
X222175178Y-67698645D01*
X221980269Y-67482412D01*
X221746920Y-67308359D01*
X221484099Y-67183175D01*
X221336890Y-67138524D01*
X221107000Y-67259845D01*
X220853000Y-67259845D01*
X220623110Y-67138524D01*
X220475901Y-67183175D01*
X220213080Y-67308359D01*
X219979731Y-67482412D01*
X219784822Y-67698645D01*
X219672843Y-67886633D01*
X219672843Y-67730000D01*
X219665487Y-67655311D01*
X219643701Y-67583492D01*
X219608322Y-67517304D01*
X219560711Y-67459289D01*
X219502696Y-67411678D01*
X219436508Y-67376299D01*
X219364689Y-67354513D01*
X219290000Y-67347157D01*
X218948000Y-67347157D01*
X218948000Y-67334944D01*
X218950457Y-67310000D01*
X218945261Y-67257244D01*
X218940649Y-67210415D01*
X218911601Y-67114657D01*
X218864429Y-67026405D01*
X218800948Y-66949052D01*
X218781565Y-66933145D01*
X218181855Y-66333435D01*
X218165948Y-66314052D01*
X218088595Y-66250571D01*
X218000343Y-66203399D01*
X217904585Y-66174351D01*
X217829947Y-66167000D01*
X217829944Y-66167000D01*
X217805000Y-66164543D01*
X217780056Y-66167000D01*
X147979944Y-66167000D01*
X147955000Y-66164543D01*
X147930056Y-66167000D01*
X147930053Y-66167000D01*
X147855415Y-66174351D01*
X147759657Y-66203399D01*
X147671405Y-66250571D01*
X147594052Y-66314052D01*
X147578145Y-66333435D01*
X147320000Y-66591580D01*
X147193000Y-66464580D01*
X147193000Y-57174944D01*
X147195457Y-57150000D01*
X147193000Y-57125053D01*
X147185649Y-57050415D01*
X147156601Y-56954657D01*
X147109429Y-56866405D01*
X147045948Y-56789052D01*
X147026565Y-56773145D01*
X146768420Y-56515000D01*
X146833236Y-56450185D01*
X146852614Y-56434282D01*
X146896629Y-56380649D01*
X146916095Y-56356930D01*
X146963266Y-56268678D01*
X146963267Y-56268677D01*
X146992315Y-56172919D01*
X146999666Y-56098281D01*
X146999666Y-56098279D01*
X147002123Y-56073335D01*
X146999666Y-56048391D01*
X146999666Y-54516124D01*
X147098447Y-54475207D01*
X147308256Y-54335018D01*
X147486684Y-54156590D01*
X147626873Y-53946781D01*
X147723438Y-53713654D01*
X147772666Y-53466167D01*
X147772666Y-53213833D01*
X147723438Y-52966346D01*
X147626873Y-52733219D01*
X147486684Y-52523410D01*
X147308256Y-52344982D01*
X147098447Y-52204793D01*
X146865320Y-52108228D01*
X146617833Y-52059000D01*
X146365499Y-52059000D01*
X146118012Y-52108228D01*
X145884885Y-52204793D01*
X145675076Y-52344982D01*
X145496648Y-52523410D01*
X145356459Y-52733219D01*
X145259894Y-52966346D01*
X145221666Y-53158532D01*
X145183438Y-52966346D01*
X145086873Y-52733219D01*
X144946684Y-52523410D01*
X144768256Y-52344982D01*
X144558447Y-52204793D01*
X144325320Y-52108228D01*
X144077833Y-52059000D01*
X143825499Y-52059000D01*
X143578012Y-52108228D01*
X143344885Y-52204793D01*
X143135076Y-52344982D01*
X142956648Y-52523410D01*
X142816459Y-52733219D01*
X142719894Y-52966346D01*
X142681666Y-53158532D01*
X142643438Y-52966346D01*
X142546873Y-52733219D01*
X142406684Y-52523410D01*
X142228256Y-52344982D01*
X142018447Y-52204793D01*
X141785320Y-52108228D01*
X141537833Y-52059000D01*
X141285499Y-52059000D01*
X141038012Y-52108228D01*
X140804885Y-52204793D01*
X140595076Y-52344982D01*
X140416648Y-52523410D01*
X140276459Y-52733219D01*
X140179894Y-52966346D01*
X140141666Y-53158532D01*
X140103438Y-52966346D01*
X140006873Y-52733219D01*
X139866684Y-52523410D01*
X139688256Y-52344982D01*
X139478447Y-52204793D01*
X139245320Y-52108228D01*
X138997833Y-52059000D01*
X138745499Y-52059000D01*
X138498012Y-52108228D01*
X138264885Y-52204793D01*
X138055076Y-52344982D01*
X137876648Y-52523410D01*
X137736459Y-52733219D01*
X137639894Y-52966346D01*
X137601666Y-53158532D01*
X137563438Y-52966346D01*
X137466873Y-52733219D01*
X137326684Y-52523410D01*
X137148256Y-52344982D01*
X136938447Y-52204793D01*
X136705320Y-52108228D01*
X136457833Y-52059000D01*
X136205499Y-52059000D01*
X135958012Y-52108228D01*
X135724885Y-52204793D01*
X135515076Y-52344982D01*
X135336648Y-52523410D01*
X135202375Y-52724364D01*
X135189888Y-52688801D01*
X135109927Y-52539208D01*
X134855746Y-52455525D01*
X133971271Y-53340000D01*
X134855746Y-54224475D01*
X135109927Y-54140792D01*
X135200322Y-53952562D01*
X135336648Y-54156590D01*
X135515076Y-54335018D01*
X135724885Y-54475207D01*
X135958012Y-54571772D01*
X136205499Y-54621000D01*
X136457833Y-54621000D01*
X136705320Y-54571772D01*
X136938447Y-54475207D01*
X137148256Y-54335018D01*
X137326684Y-54156590D01*
X137466873Y-53946781D01*
X137563438Y-53713654D01*
X137601666Y-53521468D01*
X137639894Y-53713654D01*
X137736459Y-53946781D01*
X137876648Y-54156590D01*
X138055076Y-54335018D01*
X138264885Y-54475207D01*
X138498012Y-54571772D01*
X138745499Y-54621000D01*
X138997833Y-54621000D01*
X139245320Y-54571772D01*
X139478447Y-54475207D01*
X139688256Y-54335018D01*
X139866684Y-54156590D01*
X140006873Y-53946781D01*
X140103438Y-53713654D01*
X140141666Y-53521468D01*
X140179894Y-53713654D01*
X140276459Y-53946781D01*
X140416648Y-54156590D01*
X140595076Y-54335018D01*
X140804885Y-54475207D01*
X141038012Y-54571772D01*
X141285499Y-54621000D01*
X141537833Y-54621000D01*
X141785320Y-54571772D01*
X142018447Y-54475207D01*
X142228256Y-54335018D01*
X142406684Y-54156590D01*
X142546873Y-53946781D01*
X142643438Y-53713654D01*
X142681666Y-53521468D01*
X142719894Y-53713654D01*
X142816459Y-53946781D01*
X142956648Y-54156590D01*
X143135076Y-54335018D01*
X143344885Y-54475207D01*
X143578012Y-54571772D01*
X143825499Y-54621000D01*
X144077833Y-54621000D01*
X144325320Y-54571772D01*
X144558447Y-54475207D01*
X144768256Y-54335018D01*
X144946684Y-54156590D01*
X145086873Y-53946781D01*
X145183438Y-53713654D01*
X145221666Y-53521468D01*
X145259894Y-53713654D01*
X145356459Y-53946781D01*
X145496648Y-54156590D01*
X145675076Y-54335018D01*
X145884885Y-54475207D01*
X145983667Y-54516124D01*
X145983666Y-55862913D01*
X145839580Y-56007000D01*
X101175420Y-56007000D01*
X100838000Y-55669580D01*
X100838000Y-54404080D01*
X132907191Y-54404080D01*
X132990874Y-54658261D01*
X133263441Y-54789158D01*
X133556308Y-54864365D01*
X133858219Y-54880991D01*
X134157573Y-54838397D01*
X134442865Y-54738222D01*
X134592458Y-54658261D01*
X134676141Y-54404080D01*
X133791666Y-53519605D01*
X132907191Y-54404080D01*
X100838000Y-54404080D01*
X100838000Y-53406553D01*
X132250675Y-53406553D01*
X132293269Y-53705907D01*
X132393444Y-53991199D01*
X132473405Y-54140792D01*
X132727586Y-54224475D01*
X133612061Y-53340000D01*
X132727586Y-52455525D01*
X132473405Y-52539208D01*
X132342508Y-52811775D01*
X132267301Y-53104642D01*
X132250675Y-53406553D01*
X100838000Y-53406553D01*
X100838000Y-52275920D01*
X132907191Y-52275920D01*
X133791666Y-53160395D01*
X134676141Y-52275920D01*
X134592458Y-52021739D01*
X134319891Y-51890842D01*
X134027024Y-51815635D01*
X133725113Y-51799009D01*
X133425759Y-51841603D01*
X133140467Y-51941778D01*
X132990874Y-52021739D01*
X132907191Y-52275920D01*
X100838000Y-52275920D01*
X100838000Y-49989743D01*
X100909469Y-50096704D01*
X101033296Y-50220531D01*
X101178901Y-50317821D01*
X101340688Y-50384836D01*
X101512441Y-50419000D01*
X101687559Y-50419000D01*
X101859312Y-50384836D01*
X102021099Y-50317821D01*
X102166704Y-50220531D01*
X102290531Y-50096704D01*
X102329756Y-50038000D01*
X146025056Y-50038000D01*
X146050000Y-50040457D01*
X146074944Y-50038000D01*
X146074947Y-50038000D01*
X146149585Y-50030649D01*
X146245343Y-50001601D01*
X146333595Y-49954429D01*
X146410948Y-49890948D01*
X146426855Y-49871566D01*
X146491666Y-49806755D01*
X146556481Y-49871570D01*
X146572384Y-49890948D01*
X146591761Y-49906850D01*
X146649736Y-49954429D01*
X146678226Y-49969657D01*
X146737989Y-50001601D01*
X146833747Y-50030649D01*
X146908385Y-50038000D01*
X146908387Y-50038000D01*
X146933331Y-50040457D01*
X146958275Y-50038000D01*
X149014580Y-50038000D01*
X149352001Y-50375421D01*
X149352000Y-52094946D01*
X149352001Y-52094956D01*
X149352000Y-64745056D01*
X149349543Y-64770000D01*
X149352000Y-64794944D01*
X149352000Y-64794946D01*
X149359351Y-64869584D01*
X149388399Y-64965342D01*
X149435571Y-65053595D01*
X149499052Y-65130948D01*
X149518435Y-65146855D01*
X150118145Y-65746565D01*
X150134052Y-65765948D01*
X150211405Y-65829429D01*
X150299657Y-65876601D01*
X150395415Y-65905649D01*
X150470053Y-65913000D01*
X150470056Y-65913000D01*
X150495000Y-65915457D01*
X150519944Y-65913000D01*
X159360056Y-65913000D01*
X159385000Y-65915457D01*
X159409944Y-65913000D01*
X159409947Y-65913000D01*
X159484585Y-65905649D01*
X159580343Y-65876601D01*
X159668595Y-65829429D01*
X159745948Y-65765948D01*
X159761855Y-65746565D01*
X160361565Y-65146855D01*
X160380948Y-65130948D01*
X160444429Y-65053595D01*
X160491601Y-64965343D01*
X160520649Y-64869585D01*
X160528000Y-64794947D01*
X160528000Y-64794944D01*
X160530457Y-64770000D01*
X160528000Y-64745056D01*
X160528000Y-63352004D01*
X160603097Y-63320898D01*
X160804717Y-63186180D01*
X160976180Y-63014717D01*
X161110898Y-62813097D01*
X161203693Y-62589069D01*
X161251000Y-62351243D01*
X161251000Y-62108757D01*
X161329000Y-62108757D01*
X161329000Y-62351243D01*
X161376307Y-62589069D01*
X161469102Y-62813097D01*
X161603820Y-63014717D01*
X161775283Y-63186180D01*
X161976903Y-63320898D01*
X162200931Y-63413693D01*
X162438757Y-63461000D01*
X162681243Y-63461000D01*
X162919069Y-63413693D01*
X163143097Y-63320898D01*
X163236636Y-63258397D01*
X164251208Y-63258397D01*
X164328843Y-63507472D01*
X164592883Y-63633371D01*
X164876411Y-63705339D01*
X165168531Y-63720611D01*
X165458019Y-63678599D01*
X165733747Y-63580919D01*
X165871157Y-63507472D01*
X165948792Y-63258397D01*
X165100000Y-62409605D01*
X164251208Y-63258397D01*
X163236636Y-63258397D01*
X163344717Y-63186180D01*
X163516180Y-63014717D01*
X163650898Y-62813097D01*
X163694148Y-62708683D01*
X163749081Y-62863747D01*
X163822528Y-63001157D01*
X164071603Y-63078792D01*
X164920395Y-62230000D01*
X165279605Y-62230000D01*
X166128397Y-63078792D01*
X166377472Y-63001157D01*
X166503371Y-62737117D01*
X166508789Y-62715772D01*
X166549102Y-62813097D01*
X166683820Y-63014717D01*
X166855283Y-63186180D01*
X167056903Y-63320898D01*
X167280931Y-63413693D01*
X167518757Y-63461000D01*
X167761243Y-63461000D01*
X167999069Y-63413693D01*
X168223097Y-63320898D01*
X168424717Y-63186180D01*
X168596180Y-63014717D01*
X168730898Y-62813097D01*
X168823693Y-62589069D01*
X168871000Y-62351243D01*
X168871000Y-62108757D01*
X168949000Y-62108757D01*
X168949000Y-62351243D01*
X168996307Y-62589069D01*
X169089102Y-62813097D01*
X169223820Y-63014717D01*
X169395283Y-63186180D01*
X169596903Y-63320898D01*
X169820931Y-63413693D01*
X170058757Y-63461000D01*
X170301243Y-63461000D01*
X170539069Y-63413693D01*
X170763097Y-63320898D01*
X170964717Y-63186180D01*
X171136180Y-63014717D01*
X171270898Y-62813097D01*
X171363693Y-62589069D01*
X171411000Y-62351243D01*
X171411000Y-62108757D01*
X171489000Y-62108757D01*
X171489000Y-62351243D01*
X171536307Y-62589069D01*
X171629102Y-62813097D01*
X171763820Y-63014717D01*
X171935283Y-63186180D01*
X172136903Y-63320898D01*
X172360931Y-63413693D01*
X172598757Y-63461000D01*
X172841243Y-63461000D01*
X173079069Y-63413693D01*
X173303097Y-63320898D01*
X173504717Y-63186180D01*
X173676180Y-63014717D01*
X173810898Y-62813097D01*
X173903693Y-62589069D01*
X173951000Y-62351243D01*
X173951000Y-62108757D01*
X174029000Y-62108757D01*
X174029000Y-62351243D01*
X174076307Y-62589069D01*
X174169102Y-62813097D01*
X174303820Y-63014717D01*
X174475283Y-63186180D01*
X174676903Y-63320898D01*
X174900931Y-63413693D01*
X175138757Y-63461000D01*
X175381243Y-63461000D01*
X175619069Y-63413693D01*
X175843097Y-63320898D01*
X176044717Y-63186180D01*
X176216180Y-63014717D01*
X176350898Y-62813097D01*
X176443693Y-62589069D01*
X176491000Y-62351243D01*
X176491000Y-62108757D01*
X176569000Y-62108757D01*
X176569000Y-62351243D01*
X176616307Y-62589069D01*
X176709102Y-62813097D01*
X176843820Y-63014717D01*
X177015283Y-63186180D01*
X177216903Y-63320898D01*
X177440931Y-63413693D01*
X177678757Y-63461000D01*
X177921243Y-63461000D01*
X178159069Y-63413693D01*
X178383097Y-63320898D01*
X178584717Y-63186180D01*
X178756180Y-63014717D01*
X178890898Y-62813097D01*
X178983693Y-62589069D01*
X179031000Y-62351243D01*
X179031000Y-62108757D01*
X179109000Y-62108757D01*
X179109000Y-62351243D01*
X179156307Y-62589069D01*
X179249102Y-62813097D01*
X179383820Y-63014717D01*
X179555283Y-63186180D01*
X179756903Y-63320898D01*
X179980931Y-63413693D01*
X180218757Y-63461000D01*
X180461243Y-63461000D01*
X180699069Y-63413693D01*
X180923097Y-63320898D01*
X181124717Y-63186180D01*
X181296180Y-63014717D01*
X181430898Y-62813097D01*
X181523693Y-62589069D01*
X181571000Y-62351243D01*
X181571000Y-62108757D01*
X181649000Y-62108757D01*
X181649000Y-62351243D01*
X181696307Y-62589069D01*
X181789102Y-62813097D01*
X181923820Y-63014717D01*
X182095283Y-63186180D01*
X182296903Y-63320898D01*
X182520931Y-63413693D01*
X182758757Y-63461000D01*
X183001243Y-63461000D01*
X183239069Y-63413693D01*
X183463097Y-63320898D01*
X183664717Y-63186180D01*
X183836180Y-63014717D01*
X183970898Y-62813097D01*
X184063693Y-62589069D01*
X184111000Y-62351243D01*
X184111000Y-62108757D01*
X184189000Y-62108757D01*
X184189000Y-62351243D01*
X184236307Y-62589069D01*
X184329102Y-62813097D01*
X184463820Y-63014717D01*
X184635283Y-63186180D01*
X184836903Y-63320898D01*
X185060931Y-63413693D01*
X185298757Y-63461000D01*
X185541243Y-63461000D01*
X185779069Y-63413693D01*
X186003097Y-63320898D01*
X186204717Y-63186180D01*
X186376180Y-63014717D01*
X186510898Y-62813097D01*
X186603693Y-62589069D01*
X186651000Y-62351243D01*
X186651000Y-62108757D01*
X186729000Y-62108757D01*
X186729000Y-62351243D01*
X186776307Y-62589069D01*
X186869102Y-62813097D01*
X187003820Y-63014717D01*
X187175283Y-63186180D01*
X187376903Y-63320898D01*
X187600931Y-63413693D01*
X187838757Y-63461000D01*
X188081243Y-63461000D01*
X188319069Y-63413693D01*
X188543097Y-63320898D01*
X188744717Y-63186180D01*
X188916180Y-63014717D01*
X189050898Y-62813097D01*
X189143693Y-62589069D01*
X189191000Y-62351243D01*
X189191000Y-62108757D01*
X189269000Y-62108757D01*
X189269000Y-62351243D01*
X189316307Y-62589069D01*
X189409102Y-62813097D01*
X189543820Y-63014717D01*
X189715283Y-63186180D01*
X189916903Y-63320898D01*
X190140931Y-63413693D01*
X190378757Y-63461000D01*
X190621243Y-63461000D01*
X190859069Y-63413693D01*
X191083097Y-63320898D01*
X191284717Y-63186180D01*
X191456180Y-63014717D01*
X191590898Y-62813097D01*
X191683693Y-62589069D01*
X191731000Y-62351243D01*
X191731000Y-62108757D01*
X191809000Y-62108757D01*
X191809000Y-62351243D01*
X191856307Y-62589069D01*
X191949102Y-62813097D01*
X192083820Y-63014717D01*
X192255283Y-63186180D01*
X192456903Y-63320898D01*
X192680931Y-63413693D01*
X192918757Y-63461000D01*
X193161243Y-63461000D01*
X193399069Y-63413693D01*
X193623097Y-63320898D01*
X193824717Y-63186180D01*
X193996180Y-63014717D01*
X194130898Y-62813097D01*
X194223693Y-62589069D01*
X194271000Y-62351243D01*
X194271000Y-62108757D01*
X194349000Y-62108757D01*
X194349000Y-62351243D01*
X194396307Y-62589069D01*
X194489102Y-62813097D01*
X194623820Y-63014717D01*
X194795283Y-63186180D01*
X194996903Y-63320898D01*
X195220931Y-63413693D01*
X195458757Y-63461000D01*
X195701243Y-63461000D01*
X195939069Y-63413693D01*
X196163097Y-63320898D01*
X196364717Y-63186180D01*
X196536180Y-63014717D01*
X196670898Y-62813097D01*
X196763693Y-62589069D01*
X196811000Y-62351243D01*
X196811000Y-62108757D01*
X196763693Y-61870931D01*
X196670898Y-61646903D01*
X196536180Y-61445283D01*
X196364717Y-61273820D01*
X196163097Y-61139102D01*
X195939069Y-61046307D01*
X195701243Y-60999000D01*
X195458757Y-60999000D01*
X195220931Y-61046307D01*
X194996903Y-61139102D01*
X194795283Y-61273820D01*
X194623820Y-61445283D01*
X194489102Y-61646903D01*
X194396307Y-61870931D01*
X194349000Y-62108757D01*
X194271000Y-62108757D01*
X194223693Y-61870931D01*
X194130898Y-61646903D01*
X193996180Y-61445283D01*
X193824717Y-61273820D01*
X193623097Y-61139102D01*
X193399069Y-61046307D01*
X193161243Y-60999000D01*
X192918757Y-60999000D01*
X192680931Y-61046307D01*
X192456903Y-61139102D01*
X192255283Y-61273820D01*
X192083820Y-61445283D01*
X191949102Y-61646903D01*
X191856307Y-61870931D01*
X191809000Y-62108757D01*
X191731000Y-62108757D01*
X191683693Y-61870931D01*
X191590898Y-61646903D01*
X191456180Y-61445283D01*
X191284717Y-61273820D01*
X191083097Y-61139102D01*
X190859069Y-61046307D01*
X190621243Y-60999000D01*
X190378757Y-60999000D01*
X190140931Y-61046307D01*
X189916903Y-61139102D01*
X189715283Y-61273820D01*
X189543820Y-61445283D01*
X189409102Y-61646903D01*
X189316307Y-61870931D01*
X189269000Y-62108757D01*
X189191000Y-62108757D01*
X189143693Y-61870931D01*
X189050898Y-61646903D01*
X188916180Y-61445283D01*
X188744717Y-61273820D01*
X188543097Y-61139102D01*
X188319069Y-61046307D01*
X188081243Y-60999000D01*
X187838757Y-60999000D01*
X187600931Y-61046307D01*
X187376903Y-61139102D01*
X187175283Y-61273820D01*
X187003820Y-61445283D01*
X186869102Y-61646903D01*
X186776307Y-61870931D01*
X186729000Y-62108757D01*
X186651000Y-62108757D01*
X186603693Y-61870931D01*
X186510898Y-61646903D01*
X186376180Y-61445283D01*
X186204717Y-61273820D01*
X186003097Y-61139102D01*
X185779069Y-61046307D01*
X185541243Y-60999000D01*
X185298757Y-60999000D01*
X185060931Y-61046307D01*
X184836903Y-61139102D01*
X184635283Y-61273820D01*
X184463820Y-61445283D01*
X184329102Y-61646903D01*
X184236307Y-61870931D01*
X184189000Y-62108757D01*
X184111000Y-62108757D01*
X184063693Y-61870931D01*
X183970898Y-61646903D01*
X183836180Y-61445283D01*
X183664717Y-61273820D01*
X183463097Y-61139102D01*
X183239069Y-61046307D01*
X183001243Y-60999000D01*
X182758757Y-60999000D01*
X182520931Y-61046307D01*
X182296903Y-61139102D01*
X182095283Y-61273820D01*
X181923820Y-61445283D01*
X181789102Y-61646903D01*
X181696307Y-61870931D01*
X181649000Y-62108757D01*
X181571000Y-62108757D01*
X181523693Y-61870931D01*
X181430898Y-61646903D01*
X181296180Y-61445283D01*
X181124717Y-61273820D01*
X180923097Y-61139102D01*
X180699069Y-61046307D01*
X180461243Y-60999000D01*
X180218757Y-60999000D01*
X179980931Y-61046307D01*
X179756903Y-61139102D01*
X179555283Y-61273820D01*
X179383820Y-61445283D01*
X179249102Y-61646903D01*
X179156307Y-61870931D01*
X179109000Y-62108757D01*
X179031000Y-62108757D01*
X178983693Y-61870931D01*
X178890898Y-61646903D01*
X178756180Y-61445283D01*
X178584717Y-61273820D01*
X178383097Y-61139102D01*
X178159069Y-61046307D01*
X177921243Y-60999000D01*
X177678757Y-60999000D01*
X177440931Y-61046307D01*
X177216903Y-61139102D01*
X177015283Y-61273820D01*
X176843820Y-61445283D01*
X176709102Y-61646903D01*
X176616307Y-61870931D01*
X176569000Y-62108757D01*
X176491000Y-62108757D01*
X176443693Y-61870931D01*
X176350898Y-61646903D01*
X176216180Y-61445283D01*
X176044717Y-61273820D01*
X175843097Y-61139102D01*
X175619069Y-61046307D01*
X175381243Y-60999000D01*
X175138757Y-60999000D01*
X174900931Y-61046307D01*
X174676903Y-61139102D01*
X174475283Y-61273820D01*
X174303820Y-61445283D01*
X174169102Y-61646903D01*
X174076307Y-61870931D01*
X174029000Y-62108757D01*
X173951000Y-62108757D01*
X173903693Y-61870931D01*
X173810898Y-61646903D01*
X173676180Y-61445283D01*
X173504717Y-61273820D01*
X173303097Y-61139102D01*
X173079069Y-61046307D01*
X172841243Y-60999000D01*
X172598757Y-60999000D01*
X172360931Y-61046307D01*
X172136903Y-61139102D01*
X171935283Y-61273820D01*
X171763820Y-61445283D01*
X171629102Y-61646903D01*
X171536307Y-61870931D01*
X171489000Y-62108757D01*
X171411000Y-62108757D01*
X171363693Y-61870931D01*
X171270898Y-61646903D01*
X171136180Y-61445283D01*
X170964717Y-61273820D01*
X170763097Y-61139102D01*
X170539069Y-61046307D01*
X170301243Y-60999000D01*
X170058757Y-60999000D01*
X169820931Y-61046307D01*
X169596903Y-61139102D01*
X169395283Y-61273820D01*
X169223820Y-61445283D01*
X169089102Y-61646903D01*
X168996307Y-61870931D01*
X168949000Y-62108757D01*
X168871000Y-62108757D01*
X168823693Y-61870931D01*
X168730898Y-61646903D01*
X168596180Y-61445283D01*
X168424717Y-61273820D01*
X168223097Y-61139102D01*
X167999069Y-61046307D01*
X167761243Y-60999000D01*
X167518757Y-60999000D01*
X167280931Y-61046307D01*
X167056903Y-61139102D01*
X166855283Y-61273820D01*
X166683820Y-61445283D01*
X166549102Y-61646903D01*
X166505852Y-61751317D01*
X166450919Y-61596253D01*
X166377472Y-61458843D01*
X166128397Y-61381208D01*
X165279605Y-62230000D01*
X164920395Y-62230000D01*
X164071603Y-61381208D01*
X163822528Y-61458843D01*
X163696629Y-61722883D01*
X163691211Y-61744228D01*
X163650898Y-61646903D01*
X163516180Y-61445283D01*
X163344717Y-61273820D01*
X163236637Y-61201603D01*
X164251208Y-61201603D01*
X165100000Y-62050395D01*
X165948792Y-61201603D01*
X165871157Y-60952528D01*
X165607117Y-60826629D01*
X165499687Y-60799360D01*
X197759000Y-60799360D01*
X197759000Y-61120640D01*
X197821678Y-61435745D01*
X197944626Y-61732568D01*
X198123119Y-61999702D01*
X198350298Y-62226881D01*
X198617432Y-62405374D01*
X198914255Y-62528322D01*
X199229360Y-62591000D01*
X199550640Y-62591000D01*
X199865745Y-62528322D01*
X200162568Y-62405374D01*
X200429702Y-62226881D01*
X200656881Y-61999702D01*
X200835374Y-61732568D01*
X200958322Y-61435745D01*
X201021000Y-61120640D01*
X201021000Y-60799360D01*
X200958322Y-60484255D01*
X200835374Y-60187432D01*
X200656881Y-59920298D01*
X200470566Y-59733983D01*
X211169000Y-59733983D01*
X211169000Y-60006017D01*
X211222071Y-60272823D01*
X211326174Y-60524149D01*
X211477307Y-60750336D01*
X211669664Y-60942693D01*
X211895851Y-61093826D01*
X212147177Y-61197929D01*
X212413983Y-61251000D01*
X212686017Y-61251000D01*
X212952823Y-61197929D01*
X213204149Y-61093826D01*
X213336468Y-61005413D01*
X214094192Y-61005413D01*
X214189956Y-61269814D01*
X214479571Y-61410704D01*
X214791108Y-61492384D01*
X215112595Y-61511718D01*
X215431675Y-61467961D01*
X215736088Y-61362795D01*
X215910044Y-61269814D01*
X216005808Y-61005413D01*
X215050000Y-60049605D01*
X214094192Y-61005413D01*
X213336468Y-61005413D01*
X213430336Y-60942693D01*
X213622693Y-60750336D01*
X213643993Y-60718458D01*
X213650186Y-60730044D01*
X213914587Y-60825808D01*
X214870395Y-59870000D01*
X215229605Y-59870000D01*
X216185413Y-60825808D01*
X216449814Y-60730044D01*
X216455685Y-60717976D01*
X216477307Y-60750336D01*
X216669664Y-60942693D01*
X216895851Y-61093826D01*
X217147177Y-61197929D01*
X217413983Y-61251000D01*
X217686017Y-61251000D01*
X217952823Y-61197929D01*
X218204149Y-61093826D01*
X218430336Y-60942693D01*
X218583518Y-60789511D01*
X223059000Y-60789511D01*
X223059000Y-61130489D01*
X223125521Y-61464914D01*
X223256007Y-61779936D01*
X223445444Y-62063448D01*
X223686552Y-62304556D01*
X223970064Y-62493993D01*
X224285086Y-62624479D01*
X224619511Y-62691000D01*
X224960489Y-62691000D01*
X225294914Y-62624479D01*
X225609936Y-62493993D01*
X225893448Y-62304556D01*
X226134556Y-62063448D01*
X226323993Y-61779936D01*
X226454479Y-61464914D01*
X226521000Y-61130489D01*
X226521000Y-60789511D01*
X226454479Y-60455086D01*
X226323993Y-60140064D01*
X226134556Y-59856552D01*
X225893448Y-59615444D01*
X225609936Y-59426007D01*
X225294914Y-59295521D01*
X224960489Y-59229000D01*
X224619511Y-59229000D01*
X224285086Y-59295521D01*
X223970064Y-59426007D01*
X223686552Y-59615444D01*
X223445444Y-59856552D01*
X223256007Y-60140064D01*
X223125521Y-60455086D01*
X223059000Y-60789511D01*
X218583518Y-60789511D01*
X218622693Y-60750336D01*
X218773826Y-60524149D01*
X218877929Y-60272823D01*
X218931000Y-60006017D01*
X218931000Y-59733983D01*
X218877929Y-59467177D01*
X218773826Y-59215851D01*
X218622693Y-58989664D01*
X218430336Y-58797307D01*
X218204149Y-58646174D01*
X217952823Y-58542071D01*
X217686017Y-58489000D01*
X217413983Y-58489000D01*
X217147177Y-58542071D01*
X216895851Y-58646174D01*
X216669664Y-58797307D01*
X216477307Y-58989664D01*
X216456007Y-59021542D01*
X216449814Y-59009956D01*
X216185413Y-58914192D01*
X215229605Y-59870000D01*
X214870395Y-59870000D01*
X213914587Y-58914192D01*
X213650186Y-59009956D01*
X213644315Y-59022024D01*
X213622693Y-58989664D01*
X213430336Y-58797307D01*
X213336469Y-58734587D01*
X214094192Y-58734587D01*
X215050000Y-59690395D01*
X216005808Y-58734587D01*
X215910044Y-58470186D01*
X215620429Y-58329296D01*
X215308892Y-58247616D01*
X214987405Y-58228282D01*
X214668325Y-58272039D01*
X214363912Y-58377205D01*
X214189956Y-58470186D01*
X214094192Y-58734587D01*
X213336469Y-58734587D01*
X213204149Y-58646174D01*
X212952823Y-58542071D01*
X212686017Y-58489000D01*
X212413983Y-58489000D01*
X212147177Y-58542071D01*
X211895851Y-58646174D01*
X211669664Y-58797307D01*
X211477307Y-58989664D01*
X211326174Y-59215851D01*
X211222071Y-59467177D01*
X211169000Y-59733983D01*
X200470566Y-59733983D01*
X200429702Y-59693119D01*
X200162568Y-59514626D01*
X199865745Y-59391678D01*
X199550640Y-59329000D01*
X199229360Y-59329000D01*
X198914255Y-59391678D01*
X198617432Y-59514626D01*
X198350298Y-59693119D01*
X198123119Y-59920298D01*
X197944626Y-60187432D01*
X197821678Y-60484255D01*
X197759000Y-60799360D01*
X165499687Y-60799360D01*
X165323589Y-60754661D01*
X165031469Y-60739389D01*
X164741981Y-60781401D01*
X164466253Y-60879081D01*
X164328843Y-60952528D01*
X164251208Y-61201603D01*
X163236637Y-61201603D01*
X163143097Y-61139102D01*
X162919069Y-61046307D01*
X162681243Y-60999000D01*
X162438757Y-60999000D01*
X162200931Y-61046307D01*
X161976903Y-61139102D01*
X161775283Y-61273820D01*
X161603820Y-61445283D01*
X161469102Y-61646903D01*
X161376307Y-61870931D01*
X161329000Y-62108757D01*
X161251000Y-62108757D01*
X161203693Y-61870931D01*
X161110898Y-61646903D01*
X160976180Y-61445283D01*
X160804717Y-61273820D01*
X160603097Y-61139102D01*
X160379069Y-61046307D01*
X160141243Y-60999000D01*
X159898757Y-60999000D01*
X159660931Y-61046307D01*
X159436903Y-61139102D01*
X159235283Y-61273820D01*
X159063820Y-61445283D01*
X158929102Y-61646903D01*
X158836307Y-61870931D01*
X158789000Y-62108757D01*
X158789000Y-62351243D01*
X158836307Y-62589069D01*
X158929102Y-62813097D01*
X159063820Y-63014717D01*
X159235283Y-63186180D01*
X159436903Y-63320898D01*
X159512000Y-63352004D01*
X159512001Y-64559579D01*
X159174580Y-64897000D01*
X150705420Y-64897000D01*
X150368000Y-64559580D01*
X150368000Y-60774738D01*
X151789000Y-60774738D01*
X151789000Y-61145262D01*
X151861286Y-61508667D01*
X152003080Y-61850987D01*
X152208932Y-62159067D01*
X152470933Y-62421068D01*
X152779013Y-62626920D01*
X153121333Y-62768714D01*
X153484738Y-62841000D01*
X153855262Y-62841000D01*
X154218667Y-62768714D01*
X154560987Y-62626920D01*
X154869067Y-62421068D01*
X155131068Y-62159067D01*
X155164683Y-62108757D01*
X156249000Y-62108757D01*
X156249000Y-62351243D01*
X156296307Y-62589069D01*
X156389102Y-62813097D01*
X156523820Y-63014717D01*
X156695283Y-63186180D01*
X156896903Y-63320898D01*
X157120931Y-63413693D01*
X157358757Y-63461000D01*
X157601243Y-63461000D01*
X157839069Y-63413693D01*
X158063097Y-63320898D01*
X158264717Y-63186180D01*
X158436180Y-63014717D01*
X158570898Y-62813097D01*
X158663693Y-62589069D01*
X158711000Y-62351243D01*
X158711000Y-62108757D01*
X158663693Y-61870931D01*
X158570898Y-61646903D01*
X158436180Y-61445283D01*
X158264717Y-61273820D01*
X158063097Y-61139102D01*
X157839069Y-61046307D01*
X157601243Y-60999000D01*
X157358757Y-60999000D01*
X157120931Y-61046307D01*
X156896903Y-61139102D01*
X156695283Y-61273820D01*
X156523820Y-61445283D01*
X156389102Y-61646903D01*
X156296307Y-61870931D01*
X156249000Y-62108757D01*
X155164683Y-62108757D01*
X155336920Y-61850987D01*
X155478714Y-61508667D01*
X155551000Y-61145262D01*
X155551000Y-60774738D01*
X155478714Y-60411333D01*
X155336920Y-60069013D01*
X155131068Y-59760933D01*
X154869067Y-59498932D01*
X154560987Y-59293080D01*
X154218667Y-59151286D01*
X153855262Y-59079000D01*
X153484738Y-59079000D01*
X153121333Y-59151286D01*
X152779013Y-59293080D01*
X152470933Y-59498932D01*
X152208932Y-59760933D01*
X152003080Y-60069013D01*
X151861286Y-60411333D01*
X151789000Y-60774738D01*
X150368000Y-60774738D01*
X150368000Y-54170000D01*
X207311928Y-54170000D01*
X207324188Y-54294482D01*
X207360498Y-54414180D01*
X207419463Y-54524494D01*
X207498815Y-54621185D01*
X207595506Y-54700537D01*
X207705820Y-54759502D01*
X207825518Y-54795812D01*
X207950000Y-54808072D01*
X209064250Y-54805000D01*
X209223000Y-54646250D01*
X209223000Y-52497000D01*
X209477000Y-52497000D01*
X209477000Y-54646250D01*
X209635750Y-54805000D01*
X210750000Y-54808072D01*
X210874482Y-54795812D01*
X210994180Y-54759502D01*
X211104494Y-54700537D01*
X211201185Y-54621185D01*
X211280537Y-54524494D01*
X211339502Y-54414180D01*
X211375812Y-54294482D01*
X211388072Y-54170000D01*
X218711928Y-54170000D01*
X218724188Y-54294482D01*
X218760498Y-54414180D01*
X218819463Y-54524494D01*
X218898815Y-54621185D01*
X218995506Y-54700537D01*
X219105820Y-54759502D01*
X219225518Y-54795812D01*
X219350000Y-54808072D01*
X220464250Y-54805000D01*
X220623000Y-54646250D01*
X220623000Y-52497000D01*
X220877000Y-52497000D01*
X220877000Y-54646250D01*
X221035750Y-54805000D01*
X222150000Y-54808072D01*
X222274482Y-54795812D01*
X222394180Y-54759502D01*
X222504494Y-54700537D01*
X222601185Y-54621185D01*
X222680537Y-54524494D01*
X222739502Y-54414180D01*
X222775812Y-54294482D01*
X222788072Y-54170000D01*
X222785000Y-52655750D01*
X222626250Y-52497000D01*
X220877000Y-52497000D01*
X220623000Y-52497000D01*
X218873750Y-52497000D01*
X218715000Y-52655750D01*
X218711928Y-54170000D01*
X211388072Y-54170000D01*
X211385000Y-52655750D01*
X211226250Y-52497000D01*
X209477000Y-52497000D01*
X209223000Y-52497000D01*
X207473750Y-52497000D01*
X207315000Y-52655750D01*
X207311928Y-54170000D01*
X150368000Y-54170000D01*
X150368000Y-50570000D01*
X207311928Y-50570000D01*
X207315000Y-52084250D01*
X207473750Y-52243000D01*
X209223000Y-52243000D01*
X209223000Y-50093750D01*
X209477000Y-50093750D01*
X209477000Y-52243000D01*
X211226250Y-52243000D01*
X211385000Y-52084250D01*
X211388072Y-50570000D01*
X218711928Y-50570000D01*
X218715000Y-52084250D01*
X218873750Y-52243000D01*
X220623000Y-52243000D01*
X220623000Y-50093750D01*
X220877000Y-50093750D01*
X220877000Y-52243000D01*
X222626250Y-52243000D01*
X222785000Y-52084250D01*
X222788072Y-50570000D01*
X222775812Y-50445518D01*
X222739502Y-50325820D01*
X222680537Y-50215506D01*
X222601185Y-50118815D01*
X222504494Y-50039463D01*
X222394180Y-49980498D01*
X222274482Y-49944188D01*
X222150000Y-49931928D01*
X221035750Y-49935000D01*
X220877000Y-50093750D01*
X220623000Y-50093750D01*
X220464250Y-49935000D01*
X219350000Y-49931928D01*
X219225518Y-49944188D01*
X219105820Y-49980498D01*
X218995506Y-50039463D01*
X218898815Y-50118815D01*
X218819463Y-50215506D01*
X218760498Y-50325820D01*
X218724188Y-50445518D01*
X218711928Y-50570000D01*
X211388072Y-50570000D01*
X211375812Y-50445518D01*
X211339502Y-50325820D01*
X211280537Y-50215506D01*
X211201185Y-50118815D01*
X211104494Y-50039463D01*
X210994180Y-49980498D01*
X210874482Y-49944188D01*
X210750000Y-49931928D01*
X209635750Y-49935000D01*
X209477000Y-50093750D01*
X209223000Y-50093750D01*
X209064250Y-49935000D01*
X207950000Y-49931928D01*
X207825518Y-49944188D01*
X207705820Y-49980498D01*
X207595506Y-50039463D01*
X207498815Y-50118815D01*
X207419463Y-50215506D01*
X207360498Y-50325820D01*
X207324188Y-50445518D01*
X207311928Y-50570000D01*
X150368000Y-50570000D01*
X150368000Y-50189944D01*
X150370457Y-50165000D01*
X150365908Y-50118815D01*
X150360649Y-50065415D01*
X150331601Y-49969657D01*
X150284429Y-49881405D01*
X150220948Y-49804052D01*
X150201565Y-49788145D01*
X149601855Y-49188435D01*
X149585948Y-49169052D01*
X149508595Y-49105571D01*
X149420343Y-49058399D01*
X149324585Y-49029351D01*
X149249947Y-49022000D01*
X149249944Y-49022000D01*
X149225000Y-49019543D01*
X149200056Y-49022000D01*
X147143753Y-49022000D01*
X146999666Y-48877914D01*
X146999666Y-45233983D01*
X211169000Y-45233983D01*
X211169000Y-45506017D01*
X211222071Y-45772823D01*
X211326174Y-46024149D01*
X211477307Y-46250336D01*
X211669664Y-46442693D01*
X211895851Y-46593826D01*
X212147177Y-46697929D01*
X212413983Y-46751000D01*
X212686017Y-46751000D01*
X212952823Y-46697929D01*
X213204149Y-46593826D01*
X213336468Y-46505413D01*
X216594192Y-46505413D01*
X216689956Y-46769814D01*
X216979571Y-46910704D01*
X217291108Y-46992384D01*
X217612595Y-47011718D01*
X217931675Y-46967961D01*
X218236088Y-46862795D01*
X218410044Y-46769814D01*
X218505808Y-46505413D01*
X217550000Y-45549605D01*
X216594192Y-46505413D01*
X213336468Y-46505413D01*
X213430336Y-46442693D01*
X213622693Y-46250336D01*
X213773826Y-46024149D01*
X213877929Y-45772823D01*
X213931000Y-45506017D01*
X213931000Y-45432595D01*
X215908282Y-45432595D01*
X215952039Y-45751675D01*
X216057205Y-46056088D01*
X216150186Y-46230044D01*
X216414587Y-46325808D01*
X217370395Y-45370000D01*
X217729605Y-45370000D01*
X218685413Y-46325808D01*
X218949814Y-46230044D01*
X219090704Y-45940429D01*
X219172384Y-45628892D01*
X219191718Y-45307405D01*
X219147961Y-44988325D01*
X219042795Y-44683912D01*
X218949814Y-44509956D01*
X218685413Y-44414192D01*
X217729605Y-45370000D01*
X217370395Y-45370000D01*
X216414587Y-44414192D01*
X216150186Y-44509956D01*
X216009296Y-44799571D01*
X215927616Y-45111108D01*
X215908282Y-45432595D01*
X213931000Y-45432595D01*
X213931000Y-45233983D01*
X213877929Y-44967177D01*
X213773826Y-44715851D01*
X213622693Y-44489664D01*
X213430336Y-44297307D01*
X213336469Y-44234587D01*
X216594192Y-44234587D01*
X217550000Y-45190395D01*
X218505808Y-44234587D01*
X218410044Y-43970186D01*
X218120429Y-43829296D01*
X217808892Y-43747616D01*
X217487405Y-43728282D01*
X217168325Y-43772039D01*
X216863912Y-43877205D01*
X216689956Y-43970186D01*
X216594192Y-44234587D01*
X213336469Y-44234587D01*
X213204149Y-44146174D01*
X212952823Y-44042071D01*
X212686017Y-43989000D01*
X212413983Y-43989000D01*
X212147177Y-44042071D01*
X211895851Y-44146174D01*
X211669664Y-44297307D01*
X211477307Y-44489664D01*
X211326174Y-44715851D01*
X211222071Y-44967177D01*
X211169000Y-45233983D01*
X146999666Y-45233983D01*
X146999666Y-44356124D01*
X147098447Y-44315207D01*
X147308256Y-44175018D01*
X147486684Y-43996590D01*
X147626873Y-43786781D01*
X147723438Y-43553654D01*
X147772666Y-43306167D01*
X147772666Y-43053833D01*
X147760912Y-42994738D01*
X151789000Y-42994738D01*
X151789000Y-43365262D01*
X151861286Y-43728667D01*
X152003080Y-44070987D01*
X152208932Y-44379067D01*
X152470933Y-44641068D01*
X152779013Y-44846920D01*
X153121333Y-44988714D01*
X153484738Y-45061000D01*
X153855262Y-45061000D01*
X154218667Y-44988714D01*
X154560987Y-44846920D01*
X154869067Y-44641068D01*
X155131068Y-44379067D01*
X155336920Y-44070987D01*
X155478714Y-43728667D01*
X155551000Y-43365262D01*
X155551000Y-42994738D01*
X155478714Y-42631333D01*
X155336920Y-42289013D01*
X155131068Y-41980933D01*
X154938892Y-41788757D01*
X166409000Y-41788757D01*
X166409000Y-42031243D01*
X166456307Y-42269069D01*
X166549102Y-42493097D01*
X166683820Y-42694717D01*
X166855283Y-42866180D01*
X167056903Y-43000898D01*
X167280931Y-43093693D01*
X167518757Y-43141000D01*
X167761243Y-43141000D01*
X167999069Y-43093693D01*
X168223097Y-43000898D01*
X168424717Y-42866180D01*
X168596180Y-42694717D01*
X168730898Y-42493097D01*
X168823693Y-42269069D01*
X168871000Y-42031243D01*
X168871000Y-41788757D01*
X168949000Y-41788757D01*
X168949000Y-42031243D01*
X168996307Y-42269069D01*
X169089102Y-42493097D01*
X169223820Y-42694717D01*
X169395283Y-42866180D01*
X169596903Y-43000898D01*
X169820931Y-43093693D01*
X170058757Y-43141000D01*
X170301243Y-43141000D01*
X170539069Y-43093693D01*
X170763097Y-43000898D01*
X170964717Y-42866180D01*
X171136180Y-42694717D01*
X171270898Y-42493097D01*
X171363693Y-42269069D01*
X171411000Y-42031243D01*
X171411000Y-41788757D01*
X171489000Y-41788757D01*
X171489000Y-42031243D01*
X171536307Y-42269069D01*
X171629102Y-42493097D01*
X171763820Y-42694717D01*
X171935283Y-42866180D01*
X172136903Y-43000898D01*
X172360931Y-43093693D01*
X172598757Y-43141000D01*
X172841243Y-43141000D01*
X173079069Y-43093693D01*
X173303097Y-43000898D01*
X173504717Y-42866180D01*
X173676180Y-42694717D01*
X173810898Y-42493097D01*
X173903693Y-42269069D01*
X173951000Y-42031243D01*
X173951000Y-41788757D01*
X174029000Y-41788757D01*
X174029000Y-42031243D01*
X174076307Y-42269069D01*
X174169102Y-42493097D01*
X174303820Y-42694717D01*
X174475283Y-42866180D01*
X174676903Y-43000898D01*
X174900931Y-43093693D01*
X175138757Y-43141000D01*
X175381243Y-43141000D01*
X175619069Y-43093693D01*
X175843097Y-43000898D01*
X176044717Y-42866180D01*
X176216180Y-42694717D01*
X176350898Y-42493097D01*
X176443693Y-42269069D01*
X176491000Y-42031243D01*
X176491000Y-41788757D01*
X176569000Y-41788757D01*
X176569000Y-42031243D01*
X176616307Y-42269069D01*
X176709102Y-42493097D01*
X176843820Y-42694717D01*
X177015283Y-42866180D01*
X177216903Y-43000898D01*
X177440931Y-43093693D01*
X177678757Y-43141000D01*
X177921243Y-43141000D01*
X178159069Y-43093693D01*
X178383097Y-43000898D01*
X178584717Y-42866180D01*
X178756180Y-42694717D01*
X178890898Y-42493097D01*
X178983693Y-42269069D01*
X179031000Y-42031243D01*
X179031000Y-41788757D01*
X179109000Y-41788757D01*
X179109000Y-42031243D01*
X179156307Y-42269069D01*
X179249102Y-42493097D01*
X179383820Y-42694717D01*
X179555283Y-42866180D01*
X179756903Y-43000898D01*
X179980931Y-43093693D01*
X180218757Y-43141000D01*
X180461243Y-43141000D01*
X180699069Y-43093693D01*
X180923097Y-43000898D01*
X181124717Y-42866180D01*
X181296180Y-42694717D01*
X181430898Y-42493097D01*
X181523693Y-42269069D01*
X181571000Y-42031243D01*
X181571000Y-41788757D01*
X181649000Y-41788757D01*
X181649000Y-42031243D01*
X181696307Y-42269069D01*
X181789102Y-42493097D01*
X181923820Y-42694717D01*
X182095283Y-42866180D01*
X182296903Y-43000898D01*
X182520931Y-43093693D01*
X182758757Y-43141000D01*
X183001243Y-43141000D01*
X183239069Y-43093693D01*
X183463097Y-43000898D01*
X183664717Y-42866180D01*
X183836180Y-42694717D01*
X183970898Y-42493097D01*
X184063693Y-42269069D01*
X184111000Y-42031243D01*
X184111000Y-41788757D01*
X184189000Y-41788757D01*
X184189000Y-42031243D01*
X184236307Y-42269069D01*
X184329102Y-42493097D01*
X184463820Y-42694717D01*
X184635283Y-42866180D01*
X184836903Y-43000898D01*
X185060931Y-43093693D01*
X185298757Y-43141000D01*
X185541243Y-43141000D01*
X185779069Y-43093693D01*
X186003097Y-43000898D01*
X186204717Y-42866180D01*
X186376180Y-42694717D01*
X186510898Y-42493097D01*
X186603693Y-42269069D01*
X186651000Y-42031243D01*
X186651000Y-41788757D01*
X186729000Y-41788757D01*
X186729000Y-42031243D01*
X186776307Y-42269069D01*
X186869102Y-42493097D01*
X187003820Y-42694717D01*
X187175283Y-42866180D01*
X187376903Y-43000898D01*
X187600931Y-43093693D01*
X187838757Y-43141000D01*
X188081243Y-43141000D01*
X188319069Y-43093693D01*
X188543097Y-43000898D01*
X188744717Y-42866180D01*
X188916180Y-42694717D01*
X189050898Y-42493097D01*
X189143693Y-42269069D01*
X189191000Y-42031243D01*
X189191000Y-41788757D01*
X189269000Y-41788757D01*
X189269000Y-42031243D01*
X189316307Y-42269069D01*
X189409102Y-42493097D01*
X189543820Y-42694717D01*
X189715283Y-42866180D01*
X189916903Y-43000898D01*
X190140931Y-43093693D01*
X190378757Y-43141000D01*
X190621243Y-43141000D01*
X190859069Y-43093693D01*
X191083097Y-43000898D01*
X191284717Y-42866180D01*
X191456180Y-42694717D01*
X191590898Y-42493097D01*
X191683693Y-42269069D01*
X191731000Y-42031243D01*
X191731000Y-41788757D01*
X191809000Y-41788757D01*
X191809000Y-42031243D01*
X191856307Y-42269069D01*
X191949102Y-42493097D01*
X192083820Y-42694717D01*
X192255283Y-42866180D01*
X192456903Y-43000898D01*
X192680931Y-43093693D01*
X192918757Y-43141000D01*
X193161243Y-43141000D01*
X193399069Y-43093693D01*
X193623097Y-43000898D01*
X193824717Y-42866180D01*
X193996180Y-42694717D01*
X194130898Y-42493097D01*
X194223693Y-42269069D01*
X194271000Y-42031243D01*
X194271000Y-41788757D01*
X194349000Y-41788757D01*
X194349000Y-42031243D01*
X194396307Y-42269069D01*
X194489102Y-42493097D01*
X194623820Y-42694717D01*
X194795283Y-42866180D01*
X194996903Y-43000898D01*
X195220931Y-43093693D01*
X195458757Y-43141000D01*
X195701243Y-43141000D01*
X195939069Y-43093693D01*
X196118525Y-43019360D01*
X197759000Y-43019360D01*
X197759000Y-43340640D01*
X197821678Y-43655745D01*
X197944626Y-43952568D01*
X198123119Y-44219702D01*
X198350298Y-44446881D01*
X198617432Y-44625374D01*
X198914255Y-44748322D01*
X199229360Y-44811000D01*
X199550640Y-44811000D01*
X199865745Y-44748322D01*
X200162568Y-44625374D01*
X200429702Y-44446881D01*
X200656881Y-44219702D01*
X200835374Y-43952568D01*
X200958322Y-43655745D01*
X201021000Y-43340640D01*
X201021000Y-43019360D01*
X201019041Y-43009511D01*
X223059000Y-43009511D01*
X223059000Y-43350489D01*
X223125521Y-43684914D01*
X223256007Y-43999936D01*
X223445444Y-44283448D01*
X223686552Y-44524556D01*
X223970064Y-44713993D01*
X224285086Y-44844479D01*
X224619511Y-44911000D01*
X224960489Y-44911000D01*
X225294914Y-44844479D01*
X225609936Y-44713993D01*
X225893448Y-44524556D01*
X226134556Y-44283448D01*
X226323993Y-43999936D01*
X226454479Y-43684914D01*
X226521000Y-43350489D01*
X226521000Y-43009511D01*
X226454479Y-42675086D01*
X226323993Y-42360064D01*
X226134556Y-42076552D01*
X225893448Y-41835444D01*
X225609936Y-41646007D01*
X225294914Y-41515521D01*
X224960489Y-41449000D01*
X224619511Y-41449000D01*
X224285086Y-41515521D01*
X223970064Y-41646007D01*
X223686552Y-41835444D01*
X223445444Y-42076552D01*
X223256007Y-42360064D01*
X223125521Y-42675086D01*
X223059000Y-43009511D01*
X201019041Y-43009511D01*
X200958322Y-42704255D01*
X200835374Y-42407432D01*
X200656881Y-42140298D01*
X200429702Y-41913119D01*
X200162568Y-41734626D01*
X199865745Y-41611678D01*
X199550640Y-41549000D01*
X199229360Y-41549000D01*
X198914255Y-41611678D01*
X198617432Y-41734626D01*
X198350298Y-41913119D01*
X198123119Y-42140298D01*
X197944626Y-42407432D01*
X197821678Y-42704255D01*
X197759000Y-43019360D01*
X196118525Y-43019360D01*
X196163097Y-43000898D01*
X196364717Y-42866180D01*
X196536180Y-42694717D01*
X196670898Y-42493097D01*
X196763693Y-42269069D01*
X196811000Y-42031243D01*
X196811000Y-41788757D01*
X196763693Y-41550931D01*
X196670898Y-41326903D01*
X196536180Y-41125283D01*
X196364717Y-40953820D01*
X196163097Y-40819102D01*
X195939069Y-40726307D01*
X195701243Y-40679000D01*
X195458757Y-40679000D01*
X195220931Y-40726307D01*
X194996903Y-40819102D01*
X194795283Y-40953820D01*
X194623820Y-41125283D01*
X194489102Y-41326903D01*
X194396307Y-41550931D01*
X194349000Y-41788757D01*
X194271000Y-41788757D01*
X194223693Y-41550931D01*
X194130898Y-41326903D01*
X193996180Y-41125283D01*
X193824717Y-40953820D01*
X193623097Y-40819102D01*
X193399069Y-40726307D01*
X193161243Y-40679000D01*
X192918757Y-40679000D01*
X192680931Y-40726307D01*
X192456903Y-40819102D01*
X192255283Y-40953820D01*
X192083820Y-41125283D01*
X191949102Y-41326903D01*
X191856307Y-41550931D01*
X191809000Y-41788757D01*
X191731000Y-41788757D01*
X191683693Y-41550931D01*
X191590898Y-41326903D01*
X191456180Y-41125283D01*
X191284717Y-40953820D01*
X191083097Y-40819102D01*
X190859069Y-40726307D01*
X190621243Y-40679000D01*
X190378757Y-40679000D01*
X190140931Y-40726307D01*
X189916903Y-40819102D01*
X189715283Y-40953820D01*
X189543820Y-41125283D01*
X189409102Y-41326903D01*
X189316307Y-41550931D01*
X189269000Y-41788757D01*
X189191000Y-41788757D01*
X189143693Y-41550931D01*
X189050898Y-41326903D01*
X188916180Y-41125283D01*
X188744717Y-40953820D01*
X188543097Y-40819102D01*
X188319069Y-40726307D01*
X188081243Y-40679000D01*
X187838757Y-40679000D01*
X187600931Y-40726307D01*
X187376903Y-40819102D01*
X187175283Y-40953820D01*
X187003820Y-41125283D01*
X186869102Y-41326903D01*
X186776307Y-41550931D01*
X186729000Y-41788757D01*
X186651000Y-41788757D01*
X186603693Y-41550931D01*
X186510898Y-41326903D01*
X186376180Y-41125283D01*
X186204717Y-40953820D01*
X186003097Y-40819102D01*
X185779069Y-40726307D01*
X185541243Y-40679000D01*
X185298757Y-40679000D01*
X185060931Y-40726307D01*
X184836903Y-40819102D01*
X184635283Y-40953820D01*
X184463820Y-41125283D01*
X184329102Y-41326903D01*
X184236307Y-41550931D01*
X184189000Y-41788757D01*
X184111000Y-41788757D01*
X184063693Y-41550931D01*
X183970898Y-41326903D01*
X183836180Y-41125283D01*
X183664717Y-40953820D01*
X183463097Y-40819102D01*
X183239069Y-40726307D01*
X183001243Y-40679000D01*
X182758757Y-40679000D01*
X182520931Y-40726307D01*
X182296903Y-40819102D01*
X182095283Y-40953820D01*
X181923820Y-41125283D01*
X181789102Y-41326903D01*
X181696307Y-41550931D01*
X181649000Y-41788757D01*
X181571000Y-41788757D01*
X181523693Y-41550931D01*
X181430898Y-41326903D01*
X181296180Y-41125283D01*
X181124717Y-40953820D01*
X180923097Y-40819102D01*
X180699069Y-40726307D01*
X180461243Y-40679000D01*
X180218757Y-40679000D01*
X179980931Y-40726307D01*
X179756903Y-40819102D01*
X179555283Y-40953820D01*
X179383820Y-41125283D01*
X179249102Y-41326903D01*
X179156307Y-41550931D01*
X179109000Y-41788757D01*
X179031000Y-41788757D01*
X178983693Y-41550931D01*
X178890898Y-41326903D01*
X178756180Y-41125283D01*
X178584717Y-40953820D01*
X178383097Y-40819102D01*
X178159069Y-40726307D01*
X177921243Y-40679000D01*
X177678757Y-40679000D01*
X177440931Y-40726307D01*
X177216903Y-40819102D01*
X177015283Y-40953820D01*
X176843820Y-41125283D01*
X176709102Y-41326903D01*
X176616307Y-41550931D01*
X176569000Y-41788757D01*
X176491000Y-41788757D01*
X176443693Y-41550931D01*
X176350898Y-41326903D01*
X176216180Y-41125283D01*
X176044717Y-40953820D01*
X175843097Y-40819102D01*
X175619069Y-40726307D01*
X175381243Y-40679000D01*
X175138757Y-40679000D01*
X174900931Y-40726307D01*
X174676903Y-40819102D01*
X174475283Y-40953820D01*
X174303820Y-41125283D01*
X174169102Y-41326903D01*
X174076307Y-41550931D01*
X174029000Y-41788757D01*
X173951000Y-41788757D01*
X173903693Y-41550931D01*
X173810898Y-41326903D01*
X173676180Y-41125283D01*
X173504717Y-40953820D01*
X173303097Y-40819102D01*
X173079069Y-40726307D01*
X172841243Y-40679000D01*
X172598757Y-40679000D01*
X172360931Y-40726307D01*
X172136903Y-40819102D01*
X171935283Y-40953820D01*
X171763820Y-41125283D01*
X171629102Y-41326903D01*
X171536307Y-41550931D01*
X171489000Y-41788757D01*
X171411000Y-41788757D01*
X171363693Y-41550931D01*
X171270898Y-41326903D01*
X171136180Y-41125283D01*
X170964717Y-40953820D01*
X170763097Y-40819102D01*
X170539069Y-40726307D01*
X170301243Y-40679000D01*
X170058757Y-40679000D01*
X169820931Y-40726307D01*
X169596903Y-40819102D01*
X169395283Y-40953820D01*
X169223820Y-41125283D01*
X169089102Y-41326903D01*
X168996307Y-41550931D01*
X168949000Y-41788757D01*
X168871000Y-41788757D01*
X168823693Y-41550931D01*
X168730898Y-41326903D01*
X168596180Y-41125283D01*
X168424717Y-40953820D01*
X168223097Y-40819102D01*
X167999069Y-40726307D01*
X167761243Y-40679000D01*
X167518757Y-40679000D01*
X167280931Y-40726307D01*
X167056903Y-40819102D01*
X166855283Y-40953820D01*
X166683820Y-41125283D01*
X166549102Y-41326903D01*
X166456307Y-41550931D01*
X166409000Y-41788757D01*
X154938892Y-41788757D01*
X154869067Y-41718932D01*
X154560987Y-41513080D01*
X154218667Y-41371286D01*
X153855262Y-41299000D01*
X153484738Y-41299000D01*
X153121333Y-41371286D01*
X152779013Y-41513080D01*
X152470933Y-41718932D01*
X152208932Y-41980933D01*
X152003080Y-42289013D01*
X151861286Y-42631333D01*
X151789000Y-42994738D01*
X147760912Y-42994738D01*
X147723438Y-42806346D01*
X147626873Y-42573219D01*
X147486684Y-42363410D01*
X147308256Y-42184982D01*
X147098447Y-42044793D01*
X146865320Y-41948228D01*
X146617833Y-41899000D01*
X146365499Y-41899000D01*
X146118012Y-41948228D01*
X145884885Y-42044793D01*
X145675076Y-42184982D01*
X145496648Y-42363410D01*
X145356459Y-42573219D01*
X145259894Y-42806346D01*
X145221666Y-42998532D01*
X145183438Y-42806346D01*
X145086873Y-42573219D01*
X144946684Y-42363410D01*
X144768256Y-42184982D01*
X144558447Y-42044793D01*
X144325320Y-41948228D01*
X144077833Y-41899000D01*
X143825499Y-41899000D01*
X143578012Y-41948228D01*
X143344885Y-42044793D01*
X143135076Y-42184982D01*
X142956648Y-42363410D01*
X142816459Y-42573219D01*
X142719894Y-42806346D01*
X142681666Y-42998532D01*
X142643438Y-42806346D01*
X142546873Y-42573219D01*
X142406684Y-42363410D01*
X142228256Y-42184982D01*
X142018447Y-42044793D01*
X141785320Y-41948228D01*
X141537833Y-41899000D01*
X141285499Y-41899000D01*
X141038012Y-41948228D01*
X140804885Y-42044793D01*
X140595076Y-42184982D01*
X140416648Y-42363410D01*
X140276459Y-42573219D01*
X140179894Y-42806346D01*
X140141666Y-42998532D01*
X140103438Y-42806346D01*
X140006873Y-42573219D01*
X139866684Y-42363410D01*
X139688256Y-42184982D01*
X139478447Y-42044793D01*
X139245320Y-41948228D01*
X138997833Y-41899000D01*
X138745499Y-41899000D01*
X138498012Y-41948228D01*
X138264885Y-42044793D01*
X138055076Y-42184982D01*
X137876648Y-42363410D01*
X137736459Y-42573219D01*
X137639894Y-42806346D01*
X137601666Y-42998532D01*
X137563438Y-42806346D01*
X137466873Y-42573219D01*
X137326684Y-42363410D01*
X137148256Y-42184982D01*
X136938447Y-42044793D01*
X136705320Y-41948228D01*
X136457833Y-41899000D01*
X136205499Y-41899000D01*
X135958012Y-41948228D01*
X135724885Y-42044793D01*
X135515076Y-42184982D01*
X135336648Y-42363410D01*
X135202375Y-42564364D01*
X135189888Y-42528801D01*
X135109927Y-42379208D01*
X134855746Y-42295525D01*
X133971271Y-43180000D01*
X134855746Y-44064475D01*
X135109927Y-43980792D01*
X135200322Y-43792562D01*
X135336648Y-43996590D01*
X135515076Y-44175018D01*
X135724885Y-44315207D01*
X135958012Y-44411772D01*
X136205499Y-44461000D01*
X136457833Y-44461000D01*
X136705320Y-44411772D01*
X136938447Y-44315207D01*
X137148256Y-44175018D01*
X137326684Y-43996590D01*
X137466873Y-43786781D01*
X137563438Y-43553654D01*
X137601666Y-43361468D01*
X137639894Y-43553654D01*
X137736459Y-43786781D01*
X137876648Y-43996590D01*
X138055076Y-44175018D01*
X138264885Y-44315207D01*
X138498012Y-44411772D01*
X138745499Y-44461000D01*
X138997833Y-44461000D01*
X139245320Y-44411772D01*
X139478447Y-44315207D01*
X139688256Y-44175018D01*
X139866684Y-43996590D01*
X140006873Y-43786781D01*
X140103438Y-43553654D01*
X140141666Y-43361468D01*
X140179894Y-43553654D01*
X140276459Y-43786781D01*
X140416648Y-43996590D01*
X140595076Y-44175018D01*
X140804885Y-44315207D01*
X141038012Y-44411772D01*
X141285499Y-44461000D01*
X141537833Y-44461000D01*
X141785320Y-44411772D01*
X142018447Y-44315207D01*
X142228256Y-44175018D01*
X142406684Y-43996590D01*
X142546873Y-43786781D01*
X142643438Y-43553654D01*
X142681666Y-43361468D01*
X142719894Y-43553654D01*
X142816459Y-43786781D01*
X142956648Y-43996590D01*
X143135076Y-44175018D01*
X143344885Y-44315207D01*
X143578012Y-44411772D01*
X143825499Y-44461000D01*
X144077833Y-44461000D01*
X144325320Y-44411772D01*
X144558447Y-44315207D01*
X144768256Y-44175018D01*
X144946684Y-43996590D01*
X145086873Y-43786781D01*
X145183438Y-43553654D01*
X145221666Y-43361468D01*
X145259894Y-43553654D01*
X145356459Y-43786781D01*
X145496648Y-43996590D01*
X145675076Y-44175018D01*
X145884885Y-44315207D01*
X145983666Y-44356124D01*
X145983666Y-45938281D01*
X145983667Y-45938286D01*
X145983666Y-48877913D01*
X145839580Y-49022000D01*
X102329756Y-49022000D01*
X102290531Y-48963296D01*
X102166704Y-48839469D01*
X102021099Y-48742179D01*
X101859312Y-48675164D01*
X101687559Y-48641000D01*
X101512441Y-48641000D01*
X101340688Y-48675164D01*
X101178901Y-48742179D01*
X101033296Y-48839469D01*
X100909469Y-48963296D01*
X100838000Y-49070257D01*
X100838000Y-43032004D01*
X100913097Y-43000898D01*
X101114717Y-42866180D01*
X101286180Y-42694717D01*
X101420898Y-42493097D01*
X101513693Y-42269069D01*
X101561000Y-42031243D01*
X101561000Y-41788757D01*
X101639000Y-41788757D01*
X101639000Y-42031243D01*
X101686307Y-42269069D01*
X101779102Y-42493097D01*
X101913820Y-42694717D01*
X102085283Y-42866180D01*
X102286903Y-43000898D01*
X102510931Y-43093693D01*
X102748757Y-43141000D01*
X102991243Y-43141000D01*
X103229069Y-43093693D01*
X103453097Y-43000898D01*
X103654717Y-42866180D01*
X103826180Y-42694717D01*
X103960898Y-42493097D01*
X104053693Y-42269069D01*
X104101000Y-42031243D01*
X104101000Y-41788757D01*
X104179000Y-41788757D01*
X104179000Y-42031243D01*
X104226307Y-42269069D01*
X104319102Y-42493097D01*
X104453820Y-42694717D01*
X104625283Y-42866180D01*
X104826903Y-43000898D01*
X105050931Y-43093693D01*
X105288757Y-43141000D01*
X105531243Y-43141000D01*
X105769069Y-43093693D01*
X105993097Y-43000898D01*
X106194717Y-42866180D01*
X106366180Y-42694717D01*
X106500898Y-42493097D01*
X106593693Y-42269069D01*
X106641000Y-42031243D01*
X106641000Y-41788757D01*
X106719000Y-41788757D01*
X106719000Y-42031243D01*
X106766307Y-42269069D01*
X106859102Y-42493097D01*
X106993820Y-42694717D01*
X107165283Y-42866180D01*
X107366903Y-43000898D01*
X107590931Y-43093693D01*
X107828757Y-43141000D01*
X108071243Y-43141000D01*
X108309069Y-43093693D01*
X108533097Y-43000898D01*
X108734717Y-42866180D01*
X108906180Y-42694717D01*
X109040898Y-42493097D01*
X109133693Y-42269069D01*
X109181000Y-42031243D01*
X109181000Y-41788757D01*
X109259000Y-41788757D01*
X109259000Y-42031243D01*
X109306307Y-42269069D01*
X109399102Y-42493097D01*
X109533820Y-42694717D01*
X109705283Y-42866180D01*
X109906903Y-43000898D01*
X110130931Y-43093693D01*
X110368757Y-43141000D01*
X110611243Y-43141000D01*
X110849069Y-43093693D01*
X111073097Y-43000898D01*
X111274717Y-42866180D01*
X111446180Y-42694717D01*
X111580898Y-42493097D01*
X111673693Y-42269069D01*
X111721000Y-42031243D01*
X111721000Y-41788757D01*
X111799000Y-41788757D01*
X111799000Y-42031243D01*
X111846307Y-42269069D01*
X111939102Y-42493097D01*
X112073820Y-42694717D01*
X112245283Y-42866180D01*
X112446903Y-43000898D01*
X112670931Y-43093693D01*
X112908757Y-43141000D01*
X113151243Y-43141000D01*
X113389069Y-43093693D01*
X113613097Y-43000898D01*
X113814717Y-42866180D01*
X113986180Y-42694717D01*
X114120898Y-42493097D01*
X114213693Y-42269069D01*
X114261000Y-42031243D01*
X114261000Y-41788757D01*
X114339000Y-41788757D01*
X114339000Y-42031243D01*
X114386307Y-42269069D01*
X114479102Y-42493097D01*
X114613820Y-42694717D01*
X114785283Y-42866180D01*
X114986903Y-43000898D01*
X115210931Y-43093693D01*
X115448757Y-43141000D01*
X115691243Y-43141000D01*
X115929069Y-43093693D01*
X116153097Y-43000898D01*
X116354717Y-42866180D01*
X116526180Y-42694717D01*
X116660898Y-42493097D01*
X116753693Y-42269069D01*
X116801000Y-42031243D01*
X116801000Y-41788757D01*
X116879000Y-41788757D01*
X116879000Y-42031243D01*
X116926307Y-42269069D01*
X117019102Y-42493097D01*
X117153820Y-42694717D01*
X117325283Y-42866180D01*
X117526903Y-43000898D01*
X117750931Y-43093693D01*
X117988757Y-43141000D01*
X118231243Y-43141000D01*
X118469069Y-43093693D01*
X118693097Y-43000898D01*
X118894717Y-42866180D01*
X119066180Y-42694717D01*
X119200898Y-42493097D01*
X119293693Y-42269069D01*
X119341000Y-42031243D01*
X119341000Y-41788757D01*
X119419000Y-41788757D01*
X119419000Y-42031243D01*
X119466307Y-42269069D01*
X119559102Y-42493097D01*
X119693820Y-42694717D01*
X119865283Y-42866180D01*
X120066903Y-43000898D01*
X120290931Y-43093693D01*
X120528757Y-43141000D01*
X120771243Y-43141000D01*
X121009069Y-43093693D01*
X121233097Y-43000898D01*
X121434717Y-42866180D01*
X121606180Y-42694717D01*
X121740898Y-42493097D01*
X121833693Y-42269069D01*
X121881000Y-42031243D01*
X121881000Y-41788757D01*
X121959000Y-41788757D01*
X121959000Y-42031243D01*
X122006307Y-42269069D01*
X122099102Y-42493097D01*
X122233820Y-42694717D01*
X122405283Y-42866180D01*
X122606903Y-43000898D01*
X122830931Y-43093693D01*
X123068757Y-43141000D01*
X123311243Y-43141000D01*
X123549069Y-43093693D01*
X123728525Y-43019360D01*
X125369000Y-43019360D01*
X125369000Y-43340640D01*
X125431678Y-43655745D01*
X125554626Y-43952568D01*
X125733119Y-44219702D01*
X125960298Y-44446881D01*
X126227432Y-44625374D01*
X126524255Y-44748322D01*
X126839360Y-44811000D01*
X127160640Y-44811000D01*
X127475745Y-44748322D01*
X127772568Y-44625374D01*
X128039702Y-44446881D01*
X128242503Y-44244080D01*
X132907191Y-44244080D01*
X132990874Y-44498261D01*
X133263441Y-44629158D01*
X133556308Y-44704365D01*
X133858219Y-44720991D01*
X134157573Y-44678397D01*
X134442865Y-44578222D01*
X134592458Y-44498261D01*
X134676141Y-44244080D01*
X133791666Y-43359605D01*
X132907191Y-44244080D01*
X128242503Y-44244080D01*
X128266881Y-44219702D01*
X128445374Y-43952568D01*
X128568322Y-43655745D01*
X128631000Y-43340640D01*
X128631000Y-43246553D01*
X132250675Y-43246553D01*
X132293269Y-43545907D01*
X132393444Y-43831199D01*
X132473405Y-43980792D01*
X132727586Y-44064475D01*
X133612061Y-43180000D01*
X132727586Y-42295525D01*
X132473405Y-42379208D01*
X132342508Y-42651775D01*
X132267301Y-42944642D01*
X132250675Y-43246553D01*
X128631000Y-43246553D01*
X128631000Y-43019360D01*
X128568322Y-42704255D01*
X128445374Y-42407432D01*
X128266881Y-42140298D01*
X128242503Y-42115920D01*
X132907191Y-42115920D01*
X133791666Y-43000395D01*
X134676141Y-42115920D01*
X134592458Y-41861739D01*
X134319891Y-41730842D01*
X134027024Y-41655635D01*
X133725113Y-41639009D01*
X133425759Y-41681603D01*
X133140467Y-41781778D01*
X132990874Y-41861739D01*
X132907191Y-42115920D01*
X128242503Y-42115920D01*
X128039702Y-41913119D01*
X127772568Y-41734626D01*
X127475745Y-41611678D01*
X127160640Y-41549000D01*
X126839360Y-41549000D01*
X126524255Y-41611678D01*
X126227432Y-41734626D01*
X125960298Y-41913119D01*
X125733119Y-42140298D01*
X125554626Y-42407432D01*
X125431678Y-42704255D01*
X125369000Y-43019360D01*
X123728525Y-43019360D01*
X123773097Y-43000898D01*
X123974717Y-42866180D01*
X124146180Y-42694717D01*
X124280898Y-42493097D01*
X124373693Y-42269069D01*
X124421000Y-42031243D01*
X124421000Y-41788757D01*
X124373693Y-41550931D01*
X124280898Y-41326903D01*
X124146180Y-41125283D01*
X123974717Y-40953820D01*
X123773097Y-40819102D01*
X123549069Y-40726307D01*
X123311243Y-40679000D01*
X123068757Y-40679000D01*
X122830931Y-40726307D01*
X122606903Y-40819102D01*
X122405283Y-40953820D01*
X122233820Y-41125283D01*
X122099102Y-41326903D01*
X122006307Y-41550931D01*
X121959000Y-41788757D01*
X121881000Y-41788757D01*
X121833693Y-41550931D01*
X121740898Y-41326903D01*
X121606180Y-41125283D01*
X121434717Y-40953820D01*
X121233097Y-40819102D01*
X121009069Y-40726307D01*
X120771243Y-40679000D01*
X120528757Y-40679000D01*
X120290931Y-40726307D01*
X120066903Y-40819102D01*
X119865283Y-40953820D01*
X119693820Y-41125283D01*
X119559102Y-41326903D01*
X119466307Y-41550931D01*
X119419000Y-41788757D01*
X119341000Y-41788757D01*
X119293693Y-41550931D01*
X119200898Y-41326903D01*
X119066180Y-41125283D01*
X118894717Y-40953820D01*
X118693097Y-40819102D01*
X118469069Y-40726307D01*
X118231243Y-40679000D01*
X117988757Y-40679000D01*
X117750931Y-40726307D01*
X117526903Y-40819102D01*
X117325283Y-40953820D01*
X117153820Y-41125283D01*
X117019102Y-41326903D01*
X116926307Y-41550931D01*
X116879000Y-41788757D01*
X116801000Y-41788757D01*
X116753693Y-41550931D01*
X116660898Y-41326903D01*
X116526180Y-41125283D01*
X116354717Y-40953820D01*
X116153097Y-40819102D01*
X115929069Y-40726307D01*
X115691243Y-40679000D01*
X115448757Y-40679000D01*
X115210931Y-40726307D01*
X114986903Y-40819102D01*
X114785283Y-40953820D01*
X114613820Y-41125283D01*
X114479102Y-41326903D01*
X114386307Y-41550931D01*
X114339000Y-41788757D01*
X114261000Y-41788757D01*
X114213693Y-41550931D01*
X114120898Y-41326903D01*
X113986180Y-41125283D01*
X113814717Y-40953820D01*
X113613097Y-40819102D01*
X113389069Y-40726307D01*
X113151243Y-40679000D01*
X112908757Y-40679000D01*
X112670931Y-40726307D01*
X112446903Y-40819102D01*
X112245283Y-40953820D01*
X112073820Y-41125283D01*
X111939102Y-41326903D01*
X111846307Y-41550931D01*
X111799000Y-41788757D01*
X111721000Y-41788757D01*
X111673693Y-41550931D01*
X111580898Y-41326903D01*
X111446180Y-41125283D01*
X111274717Y-40953820D01*
X111073097Y-40819102D01*
X110849069Y-40726307D01*
X110611243Y-40679000D01*
X110368757Y-40679000D01*
X110130931Y-40726307D01*
X109906903Y-40819102D01*
X109705283Y-40953820D01*
X109533820Y-41125283D01*
X109399102Y-41326903D01*
X109306307Y-41550931D01*
X109259000Y-41788757D01*
X109181000Y-41788757D01*
X109133693Y-41550931D01*
X109040898Y-41326903D01*
X108906180Y-41125283D01*
X108734717Y-40953820D01*
X108533097Y-40819102D01*
X108309069Y-40726307D01*
X108071243Y-40679000D01*
X107828757Y-40679000D01*
X107590931Y-40726307D01*
X107366903Y-40819102D01*
X107165283Y-40953820D01*
X106993820Y-41125283D01*
X106859102Y-41326903D01*
X106766307Y-41550931D01*
X106719000Y-41788757D01*
X106641000Y-41788757D01*
X106593693Y-41550931D01*
X106500898Y-41326903D01*
X106366180Y-41125283D01*
X106194717Y-40953820D01*
X105993097Y-40819102D01*
X105769069Y-40726307D01*
X105531243Y-40679000D01*
X105288757Y-40679000D01*
X105050931Y-40726307D01*
X104826903Y-40819102D01*
X104625283Y-40953820D01*
X104453820Y-41125283D01*
X104319102Y-41326903D01*
X104226307Y-41550931D01*
X104179000Y-41788757D01*
X104101000Y-41788757D01*
X104053693Y-41550931D01*
X103960898Y-41326903D01*
X103826180Y-41125283D01*
X103654717Y-40953820D01*
X103453097Y-40819102D01*
X103229069Y-40726307D01*
X102991243Y-40679000D01*
X102748757Y-40679000D01*
X102510931Y-40726307D01*
X102286903Y-40819102D01*
X102085283Y-40953820D01*
X101913820Y-41125283D01*
X101779102Y-41326903D01*
X101686307Y-41550931D01*
X101639000Y-41788757D01*
X101561000Y-41788757D01*
X101513693Y-41550931D01*
X101420898Y-41326903D01*
X101286180Y-41125283D01*
X101114717Y-40953820D01*
X100913097Y-40819102D01*
X100689069Y-40726307D01*
X100451243Y-40679000D01*
X100208757Y-40679000D01*
X99970931Y-40726307D01*
X99746903Y-40819102D01*
X99545283Y-40953820D01*
X99373820Y-41125283D01*
X99239102Y-41326903D01*
X99146307Y-41550931D01*
X99099000Y-41788757D01*
X99099000Y-42031243D01*
X99146307Y-42269069D01*
X99239102Y-42493097D01*
X99373820Y-42694717D01*
X99545283Y-42866180D01*
X99746903Y-43000898D01*
X99822000Y-43032004D01*
X99822001Y-49070258D01*
X99750531Y-48963296D01*
X99626704Y-48839469D01*
X99481099Y-48742179D01*
X99319312Y-48675164D01*
X99147559Y-48641000D01*
X98972441Y-48641000D01*
X98800688Y-48675164D01*
X98638901Y-48742179D01*
X98493296Y-48839469D01*
X98369469Y-48963296D01*
X98272179Y-49108901D01*
X98205164Y-49270688D01*
X98171000Y-49442441D01*
X98171000Y-49617559D01*
X98205164Y-49789312D01*
X98272179Y-49951099D01*
X98369469Y-50096704D01*
X98493296Y-50220531D01*
X98552001Y-50259756D01*
X98552000Y-55669580D01*
X98214580Y-56007000D01*
X88289944Y-56007000D01*
X88265000Y-56004543D01*
X88240056Y-56007000D01*
X88240053Y-56007000D01*
X88165415Y-56014351D01*
X88069657Y-56043399D01*
X87981405Y-56090571D01*
X87904052Y-56154052D01*
X87888145Y-56173435D01*
X87288430Y-56773150D01*
X87269053Y-56789052D01*
X87253151Y-56808429D01*
X87253150Y-56808430D01*
X87205571Y-56866405D01*
X87158401Y-56954656D01*
X87158400Y-56954657D01*
X87137669Y-57023000D01*
X87129352Y-57050416D01*
X87119543Y-57150000D01*
X87122001Y-57174954D01*
X87122000Y-61107996D01*
X87046903Y-61139102D01*
X86845283Y-61273820D01*
X86673820Y-61445283D01*
X86539102Y-61646903D01*
X86446307Y-61870931D01*
X86399000Y-62108757D01*
X86321000Y-62108757D01*
X86273693Y-61870931D01*
X86180898Y-61646903D01*
X86046180Y-61445283D01*
X85874717Y-61273820D01*
X85673097Y-61139102D01*
X85449069Y-61046307D01*
X85211243Y-60999000D01*
X84968757Y-60999000D01*
X84730931Y-61046307D01*
X84506903Y-61139102D01*
X84305283Y-61273820D01*
X84133820Y-61445283D01*
X83999102Y-61646903D01*
X83906307Y-61870931D01*
X83859000Y-62108757D01*
X82774683Y-62108757D01*
X82946920Y-61850987D01*
X83088714Y-61508667D01*
X83161000Y-61145262D01*
X83161000Y-60774738D01*
X83088714Y-60411333D01*
X82946920Y-60069013D01*
X82741068Y-59760933D01*
X82479067Y-59498932D01*
X82170987Y-59293080D01*
X81828667Y-59151286D01*
X81465262Y-59079000D01*
X81094738Y-59079000D01*
X80731333Y-59151286D01*
X80389013Y-59293080D01*
X80080933Y-59498932D01*
X79818932Y-59760933D01*
X79613080Y-60069013D01*
X79471286Y-60411333D01*
X79399000Y-60774738D01*
X76631000Y-60774738D01*
X76631000Y-42994738D01*
X79399000Y-42994738D01*
X79399000Y-43365262D01*
X79471286Y-43728667D01*
X79613080Y-44070987D01*
X79818932Y-44379067D01*
X80080933Y-44641068D01*
X80389013Y-44846920D01*
X80731333Y-44988714D01*
X81094738Y-45061000D01*
X81465262Y-45061000D01*
X81828667Y-44988714D01*
X82170987Y-44846920D01*
X82479067Y-44641068D01*
X82741068Y-44379067D01*
X82946920Y-44070987D01*
X83088714Y-43728667D01*
X83161000Y-43365262D01*
X83161000Y-42994738D01*
X83088714Y-42631333D01*
X82946920Y-42289013D01*
X82741068Y-41980933D01*
X82548892Y-41788757D01*
X94019000Y-41788757D01*
X94019000Y-42031243D01*
X94066307Y-42269069D01*
X94159102Y-42493097D01*
X94293820Y-42694717D01*
X94465283Y-42866180D01*
X94666903Y-43000898D01*
X94890931Y-43093693D01*
X95128757Y-43141000D01*
X95371243Y-43141000D01*
X95609069Y-43093693D01*
X95833097Y-43000898D01*
X96034717Y-42866180D01*
X96206180Y-42694717D01*
X96340898Y-42493097D01*
X96433693Y-42269069D01*
X96481000Y-42031243D01*
X96481000Y-41788757D01*
X96559000Y-41788757D01*
X96559000Y-42031243D01*
X96606307Y-42269069D01*
X96699102Y-42493097D01*
X96833820Y-42694717D01*
X97005283Y-42866180D01*
X97206903Y-43000898D01*
X97430931Y-43093693D01*
X97668757Y-43141000D01*
X97911243Y-43141000D01*
X98149069Y-43093693D01*
X98373097Y-43000898D01*
X98574717Y-42866180D01*
X98746180Y-42694717D01*
X98880898Y-42493097D01*
X98973693Y-42269069D01*
X99021000Y-42031243D01*
X99021000Y-41788757D01*
X98973693Y-41550931D01*
X98880898Y-41326903D01*
X98746180Y-41125283D01*
X98574717Y-40953820D01*
X98373097Y-40819102D01*
X98149069Y-40726307D01*
X97911243Y-40679000D01*
X97668757Y-40679000D01*
X97430931Y-40726307D01*
X97206903Y-40819102D01*
X97005283Y-40953820D01*
X96833820Y-41125283D01*
X96699102Y-41326903D01*
X96606307Y-41550931D01*
X96559000Y-41788757D01*
X96481000Y-41788757D01*
X96433693Y-41550931D01*
X96340898Y-41326903D01*
X96206180Y-41125283D01*
X96034717Y-40953820D01*
X95833097Y-40819102D01*
X95609069Y-40726307D01*
X95371243Y-40679000D01*
X95128757Y-40679000D01*
X94890931Y-40726307D01*
X94666903Y-40819102D01*
X94465283Y-40953820D01*
X94293820Y-41125283D01*
X94159102Y-41326903D01*
X94066307Y-41550931D01*
X94019000Y-41788757D01*
X82548892Y-41788757D01*
X82479067Y-41718932D01*
X82170987Y-41513080D01*
X81828667Y-41371286D01*
X81465262Y-41299000D01*
X81094738Y-41299000D01*
X80731333Y-41371286D01*
X80389013Y-41513080D01*
X80080933Y-41718932D01*
X79818932Y-41980933D01*
X79613080Y-42289013D01*
X79471286Y-42631333D01*
X79399000Y-42994738D01*
X76631000Y-42994738D01*
X76631000Y-40661079D01*
X76673193Y-40230762D01*
X76792044Y-39837107D01*
X76985089Y-39474043D01*
X77244979Y-39155385D01*
X77561820Y-38893272D01*
X77923528Y-38697697D01*
X78316343Y-38576101D01*
X78745446Y-38531000D01*
X226038921Y-38531000D01*
X226469238Y-38573193D01*
G37*
X226469238Y-38573193D02*
X226862893Y-38692044D01*
X227225957Y-38885089D01*
X227544615Y-39144979D01*
X227806728Y-39461820D01*
X228002303Y-39823528D01*
X228123899Y-40216343D01*
X228169001Y-40645456D01*
X228169000Y-68558921D01*
X228126807Y-68989237D01*
X228007957Y-69382889D01*
X227814911Y-69745957D01*
X227555018Y-70064617D01*
X227238183Y-70326726D01*
X226876472Y-70522303D01*
X226483658Y-70643899D01*
X226054554Y-70689000D01*
X78761079Y-70689000D01*
X78330763Y-70646807D01*
X77937111Y-70527957D01*
X77574043Y-70334911D01*
X77255383Y-70075018D01*
X76993274Y-69758183D01*
X76797697Y-69396472D01*
X76676101Y-69003658D01*
X76631000Y-68574554D01*
X76631000Y-68394738D01*
X94258000Y-68394738D01*
X94258000Y-68765262D01*
X94330286Y-69128667D01*
X94472080Y-69470987D01*
X94677932Y-69779067D01*
X94939933Y-70041068D01*
X95248013Y-70246920D01*
X95590333Y-70388714D01*
X95953738Y-70461000D01*
X96324262Y-70461000D01*
X96687667Y-70388714D01*
X97029987Y-70246920D01*
X97338067Y-70041068D01*
X97600068Y-69779067D01*
X97805920Y-69470987D01*
X97947714Y-69128667D01*
X98020000Y-68765262D01*
X98020000Y-68394738D01*
X97947714Y-68031333D01*
X97805920Y-67689013D01*
X97600068Y-67380933D01*
X97338067Y-67118932D01*
X97029987Y-66913080D01*
X96687667Y-66771286D01*
X96324262Y-66699000D01*
X95953738Y-66699000D01*
X95590333Y-66771286D01*
X95248013Y-66913080D01*
X94939933Y-67118932D01*
X94677932Y-67380933D01*
X94472080Y-67689013D01*
X94330286Y-68031333D01*
X94258000Y-68394738D01*
X76631000Y-68394738D01*
X76631000Y-60774738D01*
X79399000Y-60774738D01*
X79399000Y-61145262D01*
X79471286Y-61508667D01*
X79613080Y-61850987D01*
X79818932Y-62159067D01*
X80080933Y-62421068D01*
X80389013Y-62626920D01*
X80731333Y-62768714D01*
X81094738Y-62841000D01*
X81465262Y-62841000D01*
X81828667Y-62768714D01*
X82170987Y-62626920D01*
X82479067Y-62421068D01*
X82741068Y-62159067D01*
X82774683Y-62108757D01*
X83859000Y-62108757D01*
X83859000Y-62351243D01*
X83906307Y-62589069D01*
X83999102Y-62813097D01*
X84133820Y-63014717D01*
X84305283Y-63186180D01*
X84506903Y-63320898D01*
X84730931Y-63413693D01*
X84968757Y-63461000D01*
X85211243Y-63461000D01*
X85449069Y-63413693D01*
X85673097Y-63320898D01*
X85874717Y-63186180D01*
X86046180Y-63014717D01*
X86180898Y-62813097D01*
X86273693Y-62589069D01*
X86321000Y-62351243D01*
X86321000Y-62108757D01*
X86399000Y-62108757D01*
X86399000Y-62351243D01*
X86446307Y-62589069D01*
X86539102Y-62813097D01*
X86673820Y-63014717D01*
X86845283Y-63186180D01*
X87046903Y-63320898D01*
X87270931Y-63413693D01*
X87508757Y-63461000D01*
X87751243Y-63461000D01*
X87989069Y-63413693D01*
X88213097Y-63320898D01*
X88414717Y-63186180D01*
X88586180Y-63014717D01*
X88720898Y-62813097D01*
X88813693Y-62589069D01*
X88861000Y-62351243D01*
X88861000Y-62108757D01*
X88939000Y-62108757D01*
X88939000Y-62351243D01*
X88986307Y-62589069D01*
X89079102Y-62813097D01*
X89213820Y-63014717D01*
X89385283Y-63186180D01*
X89586903Y-63320898D01*
X89810931Y-63413693D01*
X90048757Y-63461000D01*
X90291243Y-63461000D01*
X90529069Y-63413693D01*
X90753097Y-63320898D01*
X90846636Y-63258397D01*
X91861208Y-63258397D01*
X91938843Y-63507472D01*
X92202883Y-63633371D01*
X92486411Y-63705339D01*
X92778531Y-63720611D01*
X93068019Y-63678599D01*
X93343747Y-63580919D01*
X93481157Y-63507472D01*
X93558792Y-63258397D01*
X92710000Y-62409605D01*
X91861208Y-63258397D01*
X90846636Y-63258397D01*
X90954717Y-63186180D01*
X91126180Y-63014717D01*
X91260898Y-62813097D01*
X91304148Y-62708683D01*
X91359081Y-62863747D01*
X91432528Y-63001157D01*
X91681603Y-63078792D01*
X92530395Y-62230000D01*
X92889605Y-62230000D01*
X93738397Y-63078792D01*
X93987472Y-63001157D01*
X94113371Y-62737117D01*
X94118789Y-62715772D01*
X94159102Y-62813097D01*
X94293820Y-63014717D01*
X94465283Y-63186180D01*
X94666903Y-63320898D01*
X94890931Y-63413693D01*
X95128757Y-63461000D01*
X95371243Y-63461000D01*
X95609069Y-63413693D01*
X95833097Y-63320898D01*
X96034717Y-63186180D01*
X96206180Y-63014717D01*
X96340898Y-62813097D01*
X96433693Y-62589069D01*
X96481000Y-62351243D01*
X96481000Y-62108757D01*
X96559000Y-62108757D01*
X96559000Y-62351243D01*
X96606307Y-62589069D01*
X96699102Y-62813097D01*
X96833820Y-63014717D01*
X97005283Y-63186180D01*
X97206903Y-63320898D01*
X97430931Y-63413693D01*
X97668757Y-63461000D01*
X97911243Y-63461000D01*
X98149069Y-63413693D01*
X98373097Y-63320898D01*
X98574717Y-63186180D01*
X98746180Y-63014717D01*
X98880898Y-62813097D01*
X98973693Y-62589069D01*
X99021000Y-62351243D01*
X99021000Y-62108757D01*
X99099000Y-62108757D01*
X99099000Y-62351243D01*
X99146307Y-62589069D01*
X99239102Y-62813097D01*
X99373820Y-63014717D01*
X99545283Y-63186180D01*
X99746903Y-63320898D01*
X99970931Y-63413693D01*
X100208757Y-63461000D01*
X100451243Y-63461000D01*
X100689069Y-63413693D01*
X100913097Y-63320898D01*
X101114717Y-63186180D01*
X101286180Y-63014717D01*
X101420898Y-62813097D01*
X101513693Y-62589069D01*
X101561000Y-62351243D01*
X101561000Y-62108757D01*
X101639000Y-62108757D01*
X101639000Y-62351243D01*
X101686307Y-62589069D01*
X101779102Y-62813097D01*
X101913820Y-63014717D01*
X102085283Y-63186180D01*
X102286903Y-63320898D01*
X102510931Y-63413693D01*
X102748757Y-63461000D01*
X102991243Y-63461000D01*
X103229069Y-63413693D01*
X103453097Y-63320898D01*
X103654717Y-63186180D01*
X103826180Y-63014717D01*
X103960898Y-62813097D01*
X104053693Y-62589069D01*
X104101000Y-62351243D01*
X104101000Y-62108757D01*
X104179000Y-62108757D01*
X104179000Y-62351243D01*
X104226307Y-62589069D01*
X104319102Y-62813097D01*
X104453820Y-63014717D01*
X104625283Y-63186180D01*
X104826903Y-63320898D01*
X105050931Y-63413693D01*
X105288757Y-63461000D01*
X105531243Y-63461000D01*
X105769069Y-63413693D01*
X105993097Y-63320898D01*
X106194717Y-63186180D01*
X106366180Y-63014717D01*
X106500898Y-62813097D01*
X106593693Y-62589069D01*
X106641000Y-62351243D01*
X106641000Y-62108757D01*
X106719000Y-62108757D01*
X106719000Y-62351243D01*
X106766307Y-62589069D01*
X106859102Y-62813097D01*
X106993820Y-63014717D01*
X107165283Y-63186180D01*
X107366903Y-63320898D01*
X107590931Y-63413693D01*
X107828757Y-63461000D01*
X108071243Y-63461000D01*
X108309069Y-63413693D01*
X108533097Y-63320898D01*
X108734717Y-63186180D01*
X108906180Y-63014717D01*
X109040898Y-62813097D01*
X109133693Y-62589069D01*
X109181000Y-62351243D01*
X109181000Y-62108757D01*
X109259000Y-62108757D01*
X109259000Y-62351243D01*
X109306307Y-62589069D01*
X109399102Y-62813097D01*
X109533820Y-63014717D01*
X109705283Y-63186180D01*
X109906903Y-63320898D01*
X110130931Y-63413693D01*
X110368757Y-63461000D01*
X110611243Y-63461000D01*
X110849069Y-63413693D01*
X111073097Y-63320898D01*
X111274717Y-63186180D01*
X111446180Y-63014717D01*
X111580898Y-62813097D01*
X111673693Y-62589069D01*
X111721000Y-62351243D01*
X111721000Y-62108757D01*
X111799000Y-62108757D01*
X111799000Y-62351243D01*
X111846307Y-62589069D01*
X111939102Y-62813097D01*
X112073820Y-63014717D01*
X112245283Y-63186180D01*
X112446903Y-63320898D01*
X112670931Y-63413693D01*
X112908757Y-63461000D01*
X113151243Y-63461000D01*
X113389069Y-63413693D01*
X113613097Y-63320898D01*
X113814717Y-63186180D01*
X113986180Y-63014717D01*
X114120898Y-62813097D01*
X114213693Y-62589069D01*
X114261000Y-62351243D01*
X114261000Y-62108757D01*
X114339000Y-62108757D01*
X114339000Y-62351243D01*
X114386307Y-62589069D01*
X114479102Y-62813097D01*
X114613820Y-63014717D01*
X114785283Y-63186180D01*
X114986903Y-63320898D01*
X115210931Y-63413693D01*
X115448757Y-63461000D01*
X115691243Y-63461000D01*
X115929069Y-63413693D01*
X116153097Y-63320898D01*
X116354717Y-63186180D01*
X116526180Y-63014717D01*
X116660898Y-62813097D01*
X116753693Y-62589069D01*
X116801000Y-62351243D01*
X116801000Y-62108757D01*
X116879000Y-62108757D01*
X116879000Y-62351243D01*
X116926307Y-62589069D01*
X117019102Y-62813097D01*
X117153820Y-63014717D01*
X117325283Y-63186180D01*
X117526903Y-63320898D01*
X117750931Y-63413693D01*
X117988757Y-63461000D01*
X118231243Y-63461000D01*
X118469069Y-63413693D01*
X118693097Y-63320898D01*
X118894717Y-63186180D01*
X119066180Y-63014717D01*
X119200898Y-62813097D01*
X119293693Y-62589069D01*
X119341000Y-62351243D01*
X119341000Y-62108757D01*
X119419000Y-62108757D01*
X119419000Y-62351243D01*
X119466307Y-62589069D01*
X119559102Y-62813097D01*
X119693820Y-63014717D01*
X119865283Y-63186180D01*
X120066903Y-63320898D01*
X120290931Y-63413693D01*
X120528757Y-63461000D01*
X120771243Y-63461000D01*
X121009069Y-63413693D01*
X121233097Y-63320898D01*
X121434717Y-63186180D01*
X121606180Y-63014717D01*
X121740898Y-62813097D01*
X121833693Y-62589069D01*
X121881000Y-62351243D01*
X121881000Y-62108757D01*
X121959000Y-62108757D01*
X121959000Y-62351243D01*
X122006307Y-62589069D01*
X122099102Y-62813097D01*
X122233820Y-63014717D01*
X122405283Y-63186180D01*
X122606903Y-63320898D01*
X122830931Y-63413693D01*
X123068757Y-63461000D01*
X123311243Y-63461000D01*
X123549069Y-63413693D01*
X123773097Y-63320898D01*
X123974717Y-63186180D01*
X124146180Y-63014717D01*
X124280898Y-62813097D01*
X124373693Y-62589069D01*
X124421000Y-62351243D01*
X124421000Y-62108757D01*
X124373693Y-61870931D01*
X124280898Y-61646903D01*
X124146180Y-61445283D01*
X123974717Y-61273820D01*
X123773097Y-61139102D01*
X123549069Y-61046307D01*
X123311243Y-60999000D01*
X123068757Y-60999000D01*
X122830931Y-61046307D01*
X122606903Y-61139102D01*
X122405283Y-61273820D01*
X122233820Y-61445283D01*
X122099102Y-61646903D01*
X122006307Y-61870931D01*
X121959000Y-62108757D01*
X121881000Y-62108757D01*
X121833693Y-61870931D01*
X121740898Y-61646903D01*
X121606180Y-61445283D01*
X121434717Y-61273820D01*
X121233097Y-61139102D01*
X121009069Y-61046307D01*
X120771243Y-60999000D01*
X120528757Y-60999000D01*
X120290931Y-61046307D01*
X120066903Y-61139102D01*
X119865283Y-61273820D01*
X119693820Y-61445283D01*
X119559102Y-61646903D01*
X119466307Y-61870931D01*
X119419000Y-62108757D01*
X119341000Y-62108757D01*
X119293693Y-61870931D01*
X119200898Y-61646903D01*
X119066180Y-61445283D01*
X118894717Y-61273820D01*
X118693097Y-61139102D01*
X118469069Y-61046307D01*
X118231243Y-60999000D01*
X117988757Y-60999000D01*
X117750931Y-61046307D01*
X117526903Y-61139102D01*
X117325283Y-61273820D01*
X117153820Y-61445283D01*
X117019102Y-61646903D01*
X116926307Y-61870931D01*
X116879000Y-62108757D01*
X116801000Y-62108757D01*
X116753693Y-61870931D01*
X116660898Y-61646903D01*
X116526180Y-61445283D01*
X116354717Y-61273820D01*
X116153097Y-61139102D01*
X115929069Y-61046307D01*
X115691243Y-60999000D01*
X115448757Y-60999000D01*
X115210931Y-61046307D01*
X114986903Y-61139102D01*
X114785283Y-61273820D01*
X114613820Y-61445283D01*
X114479102Y-61646903D01*
X114386307Y-61870931D01*
X114339000Y-62108757D01*
X114261000Y-62108757D01*
X114213693Y-61870931D01*
X114120898Y-61646903D01*
X113986180Y-61445283D01*
X113814717Y-61273820D01*
X113613097Y-61139102D01*
X113389069Y-61046307D01*
X113151243Y-60999000D01*
X112908757Y-60999000D01*
X112670931Y-61046307D01*
X112446903Y-61139102D01*
X112245283Y-61273820D01*
X112073820Y-61445283D01*
X111939102Y-61646903D01*
X111846307Y-61870931D01*
X111799000Y-62108757D01*
X111721000Y-62108757D01*
X111673693Y-61870931D01*
X111580898Y-61646903D01*
X111446180Y-61445283D01*
X111274717Y-61273820D01*
X111073097Y-61139102D01*
X110849069Y-61046307D01*
X110611243Y-60999000D01*
X110368757Y-60999000D01*
X110130931Y-61046307D01*
X109906903Y-61139102D01*
X109705283Y-61273820D01*
X109533820Y-61445283D01*
X109399102Y-61646903D01*
X109306307Y-61870931D01*
X109259000Y-62108757D01*
X109181000Y-62108757D01*
X109133693Y-61870931D01*
X109040898Y-61646903D01*
X108906180Y-61445283D01*
X108734717Y-61273820D01*
X108533097Y-61139102D01*
X108309069Y-61046307D01*
X108071243Y-60999000D01*
X107828757Y-60999000D01*
X107590931Y-61046307D01*
X107366903Y-61139102D01*
X107165283Y-61273820D01*
X106993820Y-61445283D01*
X106859102Y-61646903D01*
X106766307Y-61870931D01*
X106719000Y-62108757D01*
X106641000Y-62108757D01*
X106593693Y-61870931D01*
X106500898Y-61646903D01*
X106366180Y-61445283D01*
X106194717Y-61273820D01*
X105993097Y-61139102D01*
X105769069Y-61046307D01*
X105531243Y-60999000D01*
X105288757Y-60999000D01*
X105050931Y-61046307D01*
X104826903Y-61139102D01*
X104625283Y-61273820D01*
X104453820Y-61445283D01*
X104319102Y-61646903D01*
X104226307Y-61870931D01*
X104179000Y-62108757D01*
X104101000Y-62108757D01*
X104053693Y-61870931D01*
X103960898Y-61646903D01*
X103826180Y-61445283D01*
X103654717Y-61273820D01*
X103453097Y-61139102D01*
X103229069Y-61046307D01*
X102991243Y-60999000D01*
X102748757Y-60999000D01*
X102510931Y-61046307D01*
X102286903Y-61139102D01*
X102085283Y-61273820D01*
X101913820Y-61445283D01*
X101779102Y-61646903D01*
X101686307Y-61870931D01*
X101639000Y-62108757D01*
X101561000Y-62108757D01*
X101513693Y-61870931D01*
X101420898Y-61646903D01*
X101286180Y-61445283D01*
X101114717Y-61273820D01*
X100913097Y-61139102D01*
X100689069Y-61046307D01*
X100451243Y-60999000D01*
X100208757Y-60999000D01*
X99970931Y-61046307D01*
X99746903Y-61139102D01*
X99545283Y-61273820D01*
X99373820Y-61445283D01*
X99239102Y-61646903D01*
X99146307Y-61870931D01*
X99099000Y-62108757D01*
X99021000Y-62108757D01*
X98973693Y-61870931D01*
X98880898Y-61646903D01*
X98746180Y-61445283D01*
X98574717Y-61273820D01*
X98373097Y-61139102D01*
X98149069Y-61046307D01*
X97911243Y-60999000D01*
X97668757Y-60999000D01*
X97430931Y-61046307D01*
X97206903Y-61139102D01*
X97005283Y-61273820D01*
X96833820Y-61445283D01*
X96699102Y-61646903D01*
X96606307Y-61870931D01*
X96559000Y-62108757D01*
X96481000Y-62108757D01*
X96433693Y-61870931D01*
X96340898Y-61646903D01*
X96206180Y-61445283D01*
X96034717Y-61273820D01*
X95833097Y-61139102D01*
X95609069Y-61046307D01*
X95371243Y-60999000D01*
X95128757Y-60999000D01*
X94890931Y-61046307D01*
X94666903Y-61139102D01*
X94465283Y-61273820D01*
X94293820Y-61445283D01*
X94159102Y-61646903D01*
X94115852Y-61751317D01*
X94060919Y-61596253D01*
X93987472Y-61458843D01*
X93738397Y-61381208D01*
X92889605Y-62230000D01*
X92530395Y-62230000D01*
X91681603Y-61381208D01*
X91432528Y-61458843D01*
X91306629Y-61722883D01*
X91301211Y-61744228D01*
X91260898Y-61646903D01*
X91126180Y-61445283D01*
X90954717Y-61273820D01*
X90846637Y-61201603D01*
X91861208Y-61201603D01*
X92710000Y-62050395D01*
X93558792Y-61201603D01*
X93481157Y-60952528D01*
X93217117Y-60826629D01*
X93109687Y-60799360D01*
X125369000Y-60799360D01*
X125369000Y-61120640D01*
X125431678Y-61435745D01*
X125554626Y-61732568D01*
X125733119Y-61999702D01*
X125960298Y-62226881D01*
X126227432Y-62405374D01*
X126524255Y-62528322D01*
X126839360Y-62591000D01*
X127160640Y-62591000D01*
X127475745Y-62528322D01*
X127772568Y-62405374D01*
X128039702Y-62226881D01*
X128266881Y-61999702D01*
X128445374Y-61732568D01*
X128568322Y-61435745D01*
X128631000Y-61120640D01*
X128631000Y-60799360D01*
X128568322Y-60484255D01*
X128445374Y-60187432D01*
X128266881Y-59920298D01*
X128039702Y-59693119D01*
X127772568Y-59514626D01*
X127475745Y-59391678D01*
X127160640Y-59329000D01*
X126839360Y-59329000D01*
X126524255Y-59391678D01*
X126227432Y-59514626D01*
X125960298Y-59693119D01*
X125733119Y-59920298D01*
X125554626Y-60187432D01*
X125431678Y-60484255D01*
X125369000Y-60799360D01*
X93109687Y-60799360D01*
X92933589Y-60754661D01*
X92641469Y-60739389D01*
X92351981Y-60781401D01*
X92076253Y-60879081D01*
X91938843Y-60952528D01*
X91861208Y-61201603D01*
X90846637Y-61201603D01*
X90753097Y-61139102D01*
X90529069Y-61046307D01*
X90291243Y-60999000D01*
X90048757Y-60999000D01*
X89810931Y-61046307D01*
X89586903Y-61139102D01*
X89385283Y-61273820D01*
X89213820Y-61445283D01*
X89079102Y-61646903D01*
X88986307Y-61870931D01*
X88939000Y-62108757D01*
X88861000Y-62108757D01*
X88813693Y-61870931D01*
X88720898Y-61646903D01*
X88586180Y-61445283D01*
X88414717Y-61273820D01*
X88213097Y-61139102D01*
X88138000Y-61107996D01*
X88138000Y-58840000D01*
X136562157Y-58840000D01*
X136562157Y-60540000D01*
X136569513Y-60614689D01*
X136591299Y-60686508D01*
X136626678Y-60752696D01*
X136674289Y-60810711D01*
X136732304Y-60858322D01*
X136798492Y-60893701D01*
X136870311Y-60915487D01*
X136945000Y-60922843D01*
X138645000Y-60922843D01*
X138719689Y-60915487D01*
X138791508Y-60893701D01*
X138857696Y-60858322D01*
X138915711Y-60810711D01*
X138963322Y-60752696D01*
X138998701Y-60686508D01*
X139020487Y-60614689D01*
X139027843Y-60540000D01*
X139027843Y-60046891D01*
X141433519Y-60046891D01*
X141530843Y-60321252D01*
X141679822Y-60571355D01*
X141874731Y-60787588D01*
X142108080Y-60961641D01*
X142370901Y-61086825D01*
X142518110Y-61131476D01*
X142748000Y-61010155D01*
X142748000Y-59817000D01*
X143002000Y-59817000D01*
X143002000Y-61010155D01*
X143231890Y-61131476D01*
X143379099Y-61086825D01*
X143641920Y-60961641D01*
X143875269Y-60787588D01*
X144070178Y-60571355D01*
X144219157Y-60321252D01*
X144316481Y-60046891D01*
X144195814Y-59817000D01*
X143002000Y-59817000D01*
X142748000Y-59817000D01*
X141554186Y-59817000D01*
X141433519Y-60046891D01*
X139027843Y-60046891D01*
X139027843Y-59333109D01*
X141433519Y-59333109D01*
X141554186Y-59563000D01*
X142748000Y-59563000D01*
X142748000Y-58369845D01*
X143002000Y-58369845D01*
X143002000Y-59563000D01*
X144195814Y-59563000D01*
X144316481Y-59333109D01*
X144219157Y-59058748D01*
X144070178Y-58808645D01*
X143875269Y-58592412D01*
X143641920Y-58418359D01*
X143379099Y-58293175D01*
X143231890Y-58248524D01*
X143002000Y-58369845D01*
X142748000Y-58369845D01*
X142518110Y-58248524D01*
X142370901Y-58293175D01*
X142108080Y-58418359D01*
X141874731Y-58592412D01*
X141679822Y-58808645D01*
X141530843Y-59058748D01*
X141433519Y-59333109D01*
X139027843Y-59333109D01*
X139027843Y-58840000D01*
X139020487Y-58765311D01*
X138998701Y-58693492D01*
X138963322Y-58627304D01*
X138915711Y-58569289D01*
X138857696Y-58521678D01*
X138791508Y-58486299D01*
X138719689Y-58464513D01*
X138645000Y-58457157D01*
X136945000Y-58457157D01*
X136870311Y-58464513D01*
X136798492Y-58486299D01*
X136732304Y-58521678D01*
X136674289Y-58569289D01*
X136626678Y-58627304D01*
X136591299Y-58693492D01*
X136569513Y-58765311D01*
X136562157Y-58840000D01*
X88138000Y-58840000D01*
X88138000Y-57360420D01*
X88475420Y-57023000D01*
X98400056Y-57023000D01*
X98425000Y-57025457D01*
X98449944Y-57023000D01*
X98449947Y-57023000D01*
X98524585Y-57015649D01*
X98620343Y-56986601D01*
X98708595Y-56939429D01*
X98785948Y-56875948D01*
X98801855Y-56856565D01*
X99401565Y-56256855D01*
X99420948Y-56240948D01*
X99484429Y-56163595D01*
X99531601Y-56075343D01*
X99560649Y-55979585D01*
X99568000Y-55904947D01*
X99568000Y-55904944D01*
X99570457Y-55880000D01*
X99568000Y-55855056D01*
X99568000Y-50259756D01*
X99626704Y-50220531D01*
X99750531Y-50096704D01*
X99822001Y-49989742D01*
X99822001Y-55855046D01*
X99819543Y-55880000D01*
X99828474Y-55970674D01*
X99829352Y-55979585D01*
X99839898Y-56014351D01*
X99858400Y-56075343D01*
X99905571Y-56163595D01*
X99953150Y-56221570D01*
X99969053Y-56240948D01*
X99988430Y-56256850D01*
X100588145Y-56856565D01*
X100604052Y-56875948D01*
X100681405Y-56939429D01*
X100769657Y-56986601D01*
X100865415Y-57015649D01*
X100940053Y-57023000D01*
X100940056Y-57023000D01*
X100965000Y-57025457D01*
X100989944Y-57023000D01*
X145839580Y-57023000D01*
X146177000Y-57360420D01*
X146177001Y-66650046D01*
X146174543Y-66675000D01*
X146184352Y-66774584D01*
X146213400Y-66870343D01*
X146260571Y-66958595D01*
X146308150Y-67016570D01*
X146324053Y-67035948D01*
X146343430Y-67051850D01*
X146812000Y-67520420D01*
X146812000Y-67553247D01*
X146778587Y-67567087D01*
X146591380Y-67692174D01*
X146432174Y-67851380D01*
X146307087Y-68038587D01*
X146220925Y-68246599D01*
X146177000Y-68467424D01*
X146177000Y-68692576D01*
X146220925Y-68913401D01*
X146307087Y-69121413D01*
X146432174Y-69308620D01*
X146591380Y-69467826D01*
X146778587Y-69592913D01*
X146986599Y-69679075D01*
X147207424Y-69723000D01*
X147432576Y-69723000D01*
X147653401Y-69679075D01*
X147861413Y-69592913D01*
X148048620Y-69467826D01*
X148207826Y-69308620D01*
X148332913Y-69121413D01*
X148346753Y-69088000D01*
X148833247Y-69088000D01*
X148847087Y-69121413D01*
X148972174Y-69308620D01*
X149131380Y-69467826D01*
X149318587Y-69592913D01*
X149526599Y-69679075D01*
X149747424Y-69723000D01*
X149972576Y-69723000D01*
X150193401Y-69679075D01*
X150401413Y-69592913D01*
X150472274Y-69545565D01*
X151614040Y-69545565D01*
X151681020Y-69785656D01*
X151930048Y-69902756D01*
X152197135Y-69969023D01*
X152472017Y-69981910D01*
X152744133Y-69940922D01*
X153003023Y-69847636D01*
X153118980Y-69785656D01*
X153185960Y-69545565D01*
X152400000Y-68759605D01*
X151614040Y-69545565D01*
X150472274Y-69545565D01*
X150588620Y-69467826D01*
X150747826Y-69308620D01*
X150872913Y-69121413D01*
X150959075Y-68913401D01*
X151003000Y-68692576D01*
X151003000Y-68684614D01*
X151039078Y-68924133D01*
X151132364Y-69183023D01*
X151194344Y-69298980D01*
X151434435Y-69365960D01*
X152220395Y-68580000D01*
X152579605Y-68580000D01*
X153365565Y-69365960D01*
X153605656Y-69298980D01*
X153722756Y-69049952D01*
X153789023Y-68782865D01*
X153797000Y-68612714D01*
X153797000Y-68692576D01*
X153840925Y-68913401D01*
X153927087Y-69121413D01*
X154052174Y-69308620D01*
X154211380Y-69467826D01*
X154398587Y-69592913D01*
X154606599Y-69679075D01*
X154827424Y-69723000D01*
X155052576Y-69723000D01*
X155273401Y-69679075D01*
X155481413Y-69592913D01*
X155668620Y-69467826D01*
X155827826Y-69308620D01*
X155952913Y-69121413D01*
X156039075Y-68913401D01*
X156083000Y-68692576D01*
X156083000Y-68467424D01*
X156039075Y-68246599D01*
X155952913Y-68038587D01*
X155827826Y-67851380D01*
X155794446Y-67818000D01*
X156335157Y-67818000D01*
X156335157Y-69342000D01*
X156342513Y-69416689D01*
X156364299Y-69488508D01*
X156399678Y-69554696D01*
X156447289Y-69612711D01*
X156505304Y-69660322D01*
X156571492Y-69695701D01*
X156643311Y-69717487D01*
X156718000Y-69724843D01*
X158242000Y-69724843D01*
X158316689Y-69717487D01*
X158388508Y-69695701D01*
X158454696Y-69660322D01*
X158512711Y-69612711D01*
X158560322Y-69554696D01*
X158595701Y-69488508D01*
X158617487Y-69416689D01*
X158624843Y-69342000D01*
X158624843Y-67818000D01*
X158617487Y-67743311D01*
X158595701Y-67671492D01*
X158560322Y-67605304D01*
X158512711Y-67547289D01*
X158454696Y-67499678D01*
X158388508Y-67464299D01*
X158316689Y-67442513D01*
X158242000Y-67435157D01*
X156718000Y-67435157D01*
X156643311Y-67442513D01*
X156571492Y-67464299D01*
X156505304Y-67499678D01*
X156447289Y-67547289D01*
X156399678Y-67605304D01*
X156364299Y-67671492D01*
X156342513Y-67743311D01*
X156335157Y-67818000D01*
X155794446Y-67818000D01*
X155668620Y-67692174D01*
X155481413Y-67567087D01*
X155273401Y-67480925D01*
X155052576Y-67437000D01*
X154827424Y-67437000D01*
X154606599Y-67480925D01*
X154398587Y-67567087D01*
X154211380Y-67692174D01*
X154052174Y-67851380D01*
X153927087Y-68038587D01*
X153840925Y-68246599D01*
X153797000Y-68467424D01*
X153797000Y-68475386D01*
X153760922Y-68235867D01*
X153667636Y-67976977D01*
X153605656Y-67861020D01*
X153365565Y-67794040D01*
X152579605Y-68580000D01*
X152220395Y-68580000D01*
X151434435Y-67794040D01*
X151194344Y-67861020D01*
X151077244Y-68110048D01*
X151010977Y-68377135D01*
X151003000Y-68547286D01*
X151003000Y-68467424D01*
X150959075Y-68246599D01*
X150872913Y-68038587D01*
X150747826Y-67851380D01*
X150588620Y-67692174D01*
X150401413Y-67567087D01*
X150193401Y-67480925D01*
X149972576Y-67437000D01*
X149747424Y-67437000D01*
X149526599Y-67480925D01*
X149318587Y-67567087D01*
X149131380Y-67692174D01*
X148972174Y-67851380D01*
X148847087Y-68038587D01*
X148833247Y-68072000D01*
X148346753Y-68072000D01*
X148332913Y-68038587D01*
X148207826Y-67851380D01*
X148048620Y-67692174D01*
X147861413Y-67567087D01*
X147828000Y-67553247D01*
X147828000Y-67520420D01*
X148165420Y-67183000D01*
X152295386Y-67183000D01*
X152055867Y-67219078D01*
X151796977Y-67312364D01*
X151681020Y-67374344D01*
X151614040Y-67614435D01*
X152400000Y-68400395D01*
X153185960Y-67614435D01*
X153118980Y-67374344D01*
X152869952Y-67257244D01*
X152602865Y-67190977D01*
X152432714Y-67183000D01*
X207397865Y-67183000D01*
X207199932Y-67380933D01*
X206994080Y-67689013D01*
X206852286Y-68031333D01*
X206780000Y-68394738D01*
X206780000Y-68765262D01*
X206852286Y-69128667D01*
X206994080Y-69470987D01*
X207199932Y-69779067D01*
X207461933Y-70041068D01*
X207770013Y-70246920D01*
X208112333Y-70388714D01*
X208475738Y-70461000D01*
X208846262Y-70461000D01*
X209209667Y-70388714D01*
X209551987Y-70246920D01*
X209860067Y-70041068D01*
X210122068Y-69779067D01*
X210327920Y-69470987D01*
X210469714Y-69128667D01*
X210542000Y-68765262D01*
X210542000Y-68394738D01*
X210469714Y-68031333D01*
X210327920Y-67689013D01*
X210122068Y-67380933D01*
X209924135Y-67183000D01*
X217594580Y-67183000D01*
X217758737Y-67347157D01*
X217590000Y-67347157D01*
X217515311Y-67354513D01*
X217443492Y-67376299D01*
X217377304Y-67411678D01*
X217319289Y-67459289D01*
X217271678Y-67517304D01*
X217236299Y-67583492D01*
X217214513Y-67655311D01*
X217207157Y-67730000D01*
X217207157Y-69430000D01*
X217214513Y-69504689D01*
X217236299Y-69576508D01*
X217271678Y-69642696D01*
X217319289Y-69700711D01*
X217377304Y-69748322D01*
X217443492Y-69783701D01*
X217515311Y-69805487D01*
X217590000Y-69812843D01*
X219290000Y-69812843D01*
X219364689Y-69805487D01*
X219436508Y-69783701D01*
X219502696Y-69748322D01*
X219560711Y-69700711D01*
X219608322Y-69642696D01*
X219643701Y-69576508D01*
X219665487Y-69504689D01*
X219672843Y-69430000D01*
X219672843Y-69273367D01*
X219784822Y-69461355D01*
X219979731Y-69677588D01*
X220213080Y-69851641D01*
X220475901Y-69976825D01*
X220623110Y-70021476D01*
X220853000Y-69900155D01*
X220853000Y-68707000D01*
X221107000Y-68707000D01*
X221107000Y-69900155D01*
X221336890Y-70021476D01*
X221484099Y-69976825D01*
X221746920Y-69851641D01*
X221980269Y-69677588D01*
X222175178Y-69461355D01*
X222324157Y-69211252D01*
X222421481Y-68936891D01*
X222300814Y-68707000D01*
X221107000Y-68707000D01*
X220853000Y-68707000D01*
X220833000Y-68707000D01*
X220833000Y-68453000D01*
X220853000Y-68453000D01*
X220853000Y-67259845D01*
X221107000Y-67259845D01*
X221107000Y-68453000D01*
X222300814Y-68453000D01*
X222421481Y-68223109D01*
X222324157Y-67948748D01*
X222175178Y-67698645D01*
X221980269Y-67482412D01*
X221746920Y-67308359D01*
X221484099Y-67183175D01*
X221336890Y-67138524D01*
X221107000Y-67259845D01*
X220853000Y-67259845D01*
X220623110Y-67138524D01*
X220475901Y-67183175D01*
X220213080Y-67308359D01*
X219979731Y-67482412D01*
X219784822Y-67698645D01*
X219672843Y-67886633D01*
X219672843Y-67730000D01*
X219665487Y-67655311D01*
X219643701Y-67583492D01*
X219608322Y-67517304D01*
X219560711Y-67459289D01*
X219502696Y-67411678D01*
X219436508Y-67376299D01*
X219364689Y-67354513D01*
X219290000Y-67347157D01*
X218948000Y-67347157D01*
X218948000Y-67334944D01*
X218950457Y-67310000D01*
X218945261Y-67257244D01*
X218940649Y-67210415D01*
X218911601Y-67114657D01*
X218864429Y-67026405D01*
X218800948Y-66949052D01*
X218781565Y-66933145D01*
X218181855Y-66333435D01*
X218165948Y-66314052D01*
X218088595Y-66250571D01*
X218000343Y-66203399D01*
X217904585Y-66174351D01*
X217829947Y-66167000D01*
X217829944Y-66167000D01*
X217805000Y-66164543D01*
X217780056Y-66167000D01*
X147979944Y-66167000D01*
X147955000Y-66164543D01*
X147930056Y-66167000D01*
X147930053Y-66167000D01*
X147855415Y-66174351D01*
X147759657Y-66203399D01*
X147671405Y-66250571D01*
X147594052Y-66314052D01*
X147578145Y-66333435D01*
X147320000Y-66591580D01*
X147193000Y-66464580D01*
X147193000Y-57174944D01*
X147195457Y-57150000D01*
X147193000Y-57125053D01*
X147185649Y-57050415D01*
X147156601Y-56954657D01*
X147109429Y-56866405D01*
X147045948Y-56789052D01*
X147026565Y-56773145D01*
X146768420Y-56515000D01*
X146833236Y-56450185D01*
X146852614Y-56434282D01*
X146896629Y-56380649D01*
X146916095Y-56356930D01*
X146963266Y-56268678D01*
X146963267Y-56268677D01*
X146992315Y-56172919D01*
X146999666Y-56098281D01*
X146999666Y-56098279D01*
X147002123Y-56073335D01*
X146999666Y-56048391D01*
X146999666Y-54516124D01*
X147098447Y-54475207D01*
X147308256Y-54335018D01*
X147486684Y-54156590D01*
X147626873Y-53946781D01*
X147723438Y-53713654D01*
X147772666Y-53466167D01*
X147772666Y-53213833D01*
X147723438Y-52966346D01*
X147626873Y-52733219D01*
X147486684Y-52523410D01*
X147308256Y-52344982D01*
X147098447Y-52204793D01*
X146865320Y-52108228D01*
X146617833Y-52059000D01*
X146365499Y-52059000D01*
X146118012Y-52108228D01*
X145884885Y-52204793D01*
X145675076Y-52344982D01*
X145496648Y-52523410D01*
X145356459Y-52733219D01*
X145259894Y-52966346D01*
X145221666Y-53158532D01*
X145183438Y-52966346D01*
X145086873Y-52733219D01*
X144946684Y-52523410D01*
X144768256Y-52344982D01*
X144558447Y-52204793D01*
X144325320Y-52108228D01*
X144077833Y-52059000D01*
X143825499Y-52059000D01*
X143578012Y-52108228D01*
X143344885Y-52204793D01*
X143135076Y-52344982D01*
X142956648Y-52523410D01*
X142816459Y-52733219D01*
X142719894Y-52966346D01*
X142681666Y-53158532D01*
X142643438Y-52966346D01*
X142546873Y-52733219D01*
X142406684Y-52523410D01*
X142228256Y-52344982D01*
X142018447Y-52204793D01*
X141785320Y-52108228D01*
X141537833Y-52059000D01*
X141285499Y-52059000D01*
X141038012Y-52108228D01*
X140804885Y-52204793D01*
X140595076Y-52344982D01*
X140416648Y-52523410D01*
X140276459Y-52733219D01*
X140179894Y-52966346D01*
X140141666Y-53158532D01*
X140103438Y-52966346D01*
X140006873Y-52733219D01*
X139866684Y-52523410D01*
X139688256Y-52344982D01*
X139478447Y-52204793D01*
X139245320Y-52108228D01*
X138997833Y-52059000D01*
X138745499Y-52059000D01*
X138498012Y-52108228D01*
X138264885Y-52204793D01*
X138055076Y-52344982D01*
X137876648Y-52523410D01*
X137736459Y-52733219D01*
X137639894Y-52966346D01*
X137601666Y-53158532D01*
X137563438Y-52966346D01*
X137466873Y-52733219D01*
X137326684Y-52523410D01*
X137148256Y-52344982D01*
X136938447Y-52204793D01*
X136705320Y-52108228D01*
X136457833Y-52059000D01*
X136205499Y-52059000D01*
X135958012Y-52108228D01*
X135724885Y-52204793D01*
X135515076Y-52344982D01*
X135336648Y-52523410D01*
X135202375Y-52724364D01*
X135189888Y-52688801D01*
X135109927Y-52539208D01*
X134855746Y-52455525D01*
X133971271Y-53340000D01*
X134855746Y-54224475D01*
X135109927Y-54140792D01*
X135200322Y-53952562D01*
X135336648Y-54156590D01*
X135515076Y-54335018D01*
X135724885Y-54475207D01*
X135958012Y-54571772D01*
X136205499Y-54621000D01*
X136457833Y-54621000D01*
X136705320Y-54571772D01*
X136938447Y-54475207D01*
X137148256Y-54335018D01*
X137326684Y-54156590D01*
X137466873Y-53946781D01*
X137563438Y-53713654D01*
X137601666Y-53521468D01*
X137639894Y-53713654D01*
X137736459Y-53946781D01*
X137876648Y-54156590D01*
X138055076Y-54335018D01*
X138264885Y-54475207D01*
X138498012Y-54571772D01*
X138745499Y-54621000D01*
X138997833Y-54621000D01*
X139245320Y-54571772D01*
X139478447Y-54475207D01*
X139688256Y-54335018D01*
X139866684Y-54156590D01*
X140006873Y-53946781D01*
X140103438Y-53713654D01*
X140141666Y-53521468D01*
X140179894Y-53713654D01*
X140276459Y-53946781D01*
X140416648Y-54156590D01*
X140595076Y-54335018D01*
X140804885Y-54475207D01*
X141038012Y-54571772D01*
X141285499Y-54621000D01*
X141537833Y-54621000D01*
X141785320Y-54571772D01*
X142018447Y-54475207D01*
X142228256Y-54335018D01*
X142406684Y-54156590D01*
X142546873Y-53946781D01*
X142643438Y-53713654D01*
X142681666Y-53521468D01*
X142719894Y-53713654D01*
X142816459Y-53946781D01*
X142956648Y-54156590D01*
X143135076Y-54335018D01*
X143344885Y-54475207D01*
X143578012Y-54571772D01*
X143825499Y-54621000D01*
X144077833Y-54621000D01*
X144325320Y-54571772D01*
X144558447Y-54475207D01*
X144768256Y-54335018D01*
X144946684Y-54156590D01*
X145086873Y-53946781D01*
X145183438Y-53713654D01*
X145221666Y-53521468D01*
X145259894Y-53713654D01*
X145356459Y-53946781D01*
X145496648Y-54156590D01*
X145675076Y-54335018D01*
X145884885Y-54475207D01*
X145983667Y-54516124D01*
X145983666Y-55862913D01*
X145839580Y-56007000D01*
X101175420Y-56007000D01*
X100838000Y-55669580D01*
X100838000Y-54404080D01*
X132907191Y-54404080D01*
X132990874Y-54658261D01*
X133263441Y-54789158D01*
X133556308Y-54864365D01*
X133858219Y-54880991D01*
X134157573Y-54838397D01*
X134442865Y-54738222D01*
X134592458Y-54658261D01*
X134676141Y-54404080D01*
X133791666Y-53519605D01*
X132907191Y-54404080D01*
X100838000Y-54404080D01*
X100838000Y-53406553D01*
X132250675Y-53406553D01*
X132293269Y-53705907D01*
X132393444Y-53991199D01*
X132473405Y-54140792D01*
X132727586Y-54224475D01*
X133612061Y-53340000D01*
X132727586Y-52455525D01*
X132473405Y-52539208D01*
X132342508Y-52811775D01*
X132267301Y-53104642D01*
X132250675Y-53406553D01*
X100838000Y-53406553D01*
X100838000Y-52275920D01*
X132907191Y-52275920D01*
X133791666Y-53160395D01*
X134676141Y-52275920D01*
X134592458Y-52021739D01*
X134319891Y-51890842D01*
X134027024Y-51815635D01*
X133725113Y-51799009D01*
X133425759Y-51841603D01*
X133140467Y-51941778D01*
X132990874Y-52021739D01*
X132907191Y-52275920D01*
X100838000Y-52275920D01*
X100838000Y-49989743D01*
X100909469Y-50096704D01*
X101033296Y-50220531D01*
X101178901Y-50317821D01*
X101340688Y-50384836D01*
X101512441Y-50419000D01*
X101687559Y-50419000D01*
X101859312Y-50384836D01*
X102021099Y-50317821D01*
X102166704Y-50220531D01*
X102290531Y-50096704D01*
X102329756Y-50038000D01*
X146025056Y-50038000D01*
X146050000Y-50040457D01*
X146074944Y-50038000D01*
X146074947Y-50038000D01*
X146149585Y-50030649D01*
X146245343Y-50001601D01*
X146333595Y-49954429D01*
X146410948Y-49890948D01*
X146426855Y-49871566D01*
X146491666Y-49806755D01*
X146556481Y-49871570D01*
X146572384Y-49890948D01*
X146591761Y-49906850D01*
X146649736Y-49954429D01*
X146678226Y-49969657D01*
X146737989Y-50001601D01*
X146833747Y-50030649D01*
X146908385Y-50038000D01*
X146908387Y-50038000D01*
X146933331Y-50040457D01*
X146958275Y-50038000D01*
X149014580Y-50038000D01*
X149352001Y-50375421D01*
X149352000Y-52094946D01*
X149352001Y-52094956D01*
X149352000Y-64745056D01*
X149349543Y-64770000D01*
X149352000Y-64794944D01*
X149352000Y-64794946D01*
X149359351Y-64869584D01*
X149388399Y-64965342D01*
X149435571Y-65053595D01*
X149499052Y-65130948D01*
X149518435Y-65146855D01*
X150118145Y-65746565D01*
X150134052Y-65765948D01*
X150211405Y-65829429D01*
X150299657Y-65876601D01*
X150395415Y-65905649D01*
X150470053Y-65913000D01*
X150470056Y-65913000D01*
X150495000Y-65915457D01*
X150519944Y-65913000D01*
X159360056Y-65913000D01*
X159385000Y-65915457D01*
X159409944Y-65913000D01*
X159409947Y-65913000D01*
X159484585Y-65905649D01*
X159580343Y-65876601D01*
X159668595Y-65829429D01*
X159745948Y-65765948D01*
X159761855Y-65746565D01*
X160361565Y-65146855D01*
X160380948Y-65130948D01*
X160444429Y-65053595D01*
X160491601Y-64965343D01*
X160520649Y-64869585D01*
X160528000Y-64794947D01*
X160528000Y-64794944D01*
X160530457Y-64770000D01*
X160528000Y-64745056D01*
X160528000Y-63352004D01*
X160603097Y-63320898D01*
X160804717Y-63186180D01*
X160976180Y-63014717D01*
X161110898Y-62813097D01*
X161203693Y-62589069D01*
X161251000Y-62351243D01*
X161251000Y-62108757D01*
X161329000Y-62108757D01*
X161329000Y-62351243D01*
X161376307Y-62589069D01*
X161469102Y-62813097D01*
X161603820Y-63014717D01*
X161775283Y-63186180D01*
X161976903Y-63320898D01*
X162200931Y-63413693D01*
X162438757Y-63461000D01*
X162681243Y-63461000D01*
X162919069Y-63413693D01*
X163143097Y-63320898D01*
X163236636Y-63258397D01*
X164251208Y-63258397D01*
X164328843Y-63507472D01*
X164592883Y-63633371D01*
X164876411Y-63705339D01*
X165168531Y-63720611D01*
X165458019Y-63678599D01*
X165733747Y-63580919D01*
X165871157Y-63507472D01*
X165948792Y-63258397D01*
X165100000Y-62409605D01*
X164251208Y-63258397D01*
X163236636Y-63258397D01*
X163344717Y-63186180D01*
X163516180Y-63014717D01*
X163650898Y-62813097D01*
X163694148Y-62708683D01*
X163749081Y-62863747D01*
X163822528Y-63001157D01*
X164071603Y-63078792D01*
X164920395Y-62230000D01*
X165279605Y-62230000D01*
X166128397Y-63078792D01*
X166377472Y-63001157D01*
X166503371Y-62737117D01*
X166508789Y-62715772D01*
X166549102Y-62813097D01*
X166683820Y-63014717D01*
X166855283Y-63186180D01*
X167056903Y-63320898D01*
X167280931Y-63413693D01*
X167518757Y-63461000D01*
X167761243Y-63461000D01*
X167999069Y-63413693D01*
X168223097Y-63320898D01*
X168424717Y-63186180D01*
X168596180Y-63014717D01*
X168730898Y-62813097D01*
X168823693Y-62589069D01*
X168871000Y-62351243D01*
X168871000Y-62108757D01*
X168949000Y-62108757D01*
X168949000Y-62351243D01*
X168996307Y-62589069D01*
X169089102Y-62813097D01*
X169223820Y-63014717D01*
X169395283Y-63186180D01*
X169596903Y-63320898D01*
X169820931Y-63413693D01*
X170058757Y-63461000D01*
X170301243Y-63461000D01*
X170539069Y-63413693D01*
X170763097Y-63320898D01*
X170964717Y-63186180D01*
X171136180Y-63014717D01*
X171270898Y-62813097D01*
X171363693Y-62589069D01*
X171411000Y-62351243D01*
X171411000Y-62108757D01*
X171489000Y-62108757D01*
X171489000Y-62351243D01*
X171536307Y-62589069D01*
X171629102Y-62813097D01*
X171763820Y-63014717D01*
X171935283Y-63186180D01*
X172136903Y-63320898D01*
X172360931Y-63413693D01*
X172598757Y-63461000D01*
X172841243Y-63461000D01*
X173079069Y-63413693D01*
X173303097Y-63320898D01*
X173504717Y-63186180D01*
X173676180Y-63014717D01*
X173810898Y-62813097D01*
X173903693Y-62589069D01*
X173951000Y-62351243D01*
X173951000Y-62108757D01*
X174029000Y-62108757D01*
X174029000Y-62351243D01*
X174076307Y-62589069D01*
X174169102Y-62813097D01*
X174303820Y-63014717D01*
X174475283Y-63186180D01*
X174676903Y-63320898D01*
X174900931Y-63413693D01*
X175138757Y-63461000D01*
X175381243Y-63461000D01*
X175619069Y-63413693D01*
X175843097Y-63320898D01*
X176044717Y-63186180D01*
X176216180Y-63014717D01*
X176350898Y-62813097D01*
X176443693Y-62589069D01*
X176491000Y-62351243D01*
X176491000Y-62108757D01*
X176569000Y-62108757D01*
X176569000Y-62351243D01*
X176616307Y-62589069D01*
X176709102Y-62813097D01*
X176843820Y-63014717D01*
X177015283Y-63186180D01*
X177216903Y-63320898D01*
X177440931Y-63413693D01*
X177678757Y-63461000D01*
X177921243Y-63461000D01*
X178159069Y-63413693D01*
X178383097Y-63320898D01*
X178584717Y-63186180D01*
X178756180Y-63014717D01*
X178890898Y-62813097D01*
X178983693Y-62589069D01*
X179031000Y-62351243D01*
X179031000Y-62108757D01*
X179109000Y-62108757D01*
X179109000Y-62351243D01*
X179156307Y-62589069D01*
X179249102Y-62813097D01*
X179383820Y-63014717D01*
X179555283Y-63186180D01*
X179756903Y-63320898D01*
X179980931Y-63413693D01*
X180218757Y-63461000D01*
X180461243Y-63461000D01*
X180699069Y-63413693D01*
X180923097Y-63320898D01*
X181124717Y-63186180D01*
X181296180Y-63014717D01*
X181430898Y-62813097D01*
X181523693Y-62589069D01*
X181571000Y-62351243D01*
X181571000Y-62108757D01*
X181649000Y-62108757D01*
X181649000Y-62351243D01*
X181696307Y-62589069D01*
X181789102Y-62813097D01*
X181923820Y-63014717D01*
X182095283Y-63186180D01*
X182296903Y-63320898D01*
X182520931Y-63413693D01*
X182758757Y-63461000D01*
X183001243Y-63461000D01*
X183239069Y-63413693D01*
X183463097Y-63320898D01*
X183664717Y-63186180D01*
X183836180Y-63014717D01*
X183970898Y-62813097D01*
X184063693Y-62589069D01*
X184111000Y-62351243D01*
X184111000Y-62108757D01*
X184189000Y-62108757D01*
X184189000Y-62351243D01*
X184236307Y-62589069D01*
X184329102Y-62813097D01*
X184463820Y-63014717D01*
X184635283Y-63186180D01*
X184836903Y-63320898D01*
X185060931Y-63413693D01*
X185298757Y-63461000D01*
X185541243Y-63461000D01*
X185779069Y-63413693D01*
X186003097Y-63320898D01*
X186204717Y-63186180D01*
X186376180Y-63014717D01*
X186510898Y-62813097D01*
X186603693Y-62589069D01*
X186651000Y-62351243D01*
X186651000Y-62108757D01*
X186729000Y-62108757D01*
X186729000Y-62351243D01*
X186776307Y-62589069D01*
X186869102Y-62813097D01*
X187003820Y-63014717D01*
X187175283Y-63186180D01*
X187376903Y-63320898D01*
X187600931Y-63413693D01*
X187838757Y-63461000D01*
X188081243Y-63461000D01*
X188319069Y-63413693D01*
X188543097Y-63320898D01*
X188744717Y-63186180D01*
X188916180Y-63014717D01*
X189050898Y-62813097D01*
X189143693Y-62589069D01*
X189191000Y-62351243D01*
X189191000Y-62108757D01*
X189269000Y-62108757D01*
X189269000Y-62351243D01*
X189316307Y-62589069D01*
X189409102Y-62813097D01*
X189543820Y-63014717D01*
X189715283Y-63186180D01*
X189916903Y-63320898D01*
X190140931Y-63413693D01*
X190378757Y-63461000D01*
X190621243Y-63461000D01*
X190859069Y-63413693D01*
X191083097Y-63320898D01*
X191284717Y-63186180D01*
X191456180Y-63014717D01*
X191590898Y-62813097D01*
X191683693Y-62589069D01*
X191731000Y-62351243D01*
X191731000Y-62108757D01*
X191809000Y-62108757D01*
X191809000Y-62351243D01*
X191856307Y-62589069D01*
X191949102Y-62813097D01*
X192083820Y-63014717D01*
X192255283Y-63186180D01*
X192456903Y-63320898D01*
X192680931Y-63413693D01*
X192918757Y-63461000D01*
X193161243Y-63461000D01*
X193399069Y-63413693D01*
X193623097Y-63320898D01*
X193824717Y-63186180D01*
X193996180Y-63014717D01*
X194130898Y-62813097D01*
X194223693Y-62589069D01*
X194271000Y-62351243D01*
X194271000Y-62108757D01*
X194349000Y-62108757D01*
X194349000Y-62351243D01*
X194396307Y-62589069D01*
X194489102Y-62813097D01*
X194623820Y-63014717D01*
X194795283Y-63186180D01*
X194996903Y-63320898D01*
X195220931Y-63413693D01*
X195458757Y-63461000D01*
X195701243Y-63461000D01*
X195939069Y-63413693D01*
X196163097Y-63320898D01*
X196364717Y-63186180D01*
X196536180Y-63014717D01*
X196670898Y-62813097D01*
X196763693Y-62589069D01*
X196811000Y-62351243D01*
X196811000Y-62108757D01*
X196763693Y-61870931D01*
X196670898Y-61646903D01*
X196536180Y-61445283D01*
X196364717Y-61273820D01*
X196163097Y-61139102D01*
X195939069Y-61046307D01*
X195701243Y-60999000D01*
X195458757Y-60999000D01*
X195220931Y-61046307D01*
X194996903Y-61139102D01*
X194795283Y-61273820D01*
X194623820Y-61445283D01*
X194489102Y-61646903D01*
X194396307Y-61870931D01*
X194349000Y-62108757D01*
X194271000Y-62108757D01*
X194223693Y-61870931D01*
X194130898Y-61646903D01*
X193996180Y-61445283D01*
X193824717Y-61273820D01*
X193623097Y-61139102D01*
X193399069Y-61046307D01*
X193161243Y-60999000D01*
X192918757Y-60999000D01*
X192680931Y-61046307D01*
X192456903Y-61139102D01*
X192255283Y-61273820D01*
X192083820Y-61445283D01*
X191949102Y-61646903D01*
X191856307Y-61870931D01*
X191809000Y-62108757D01*
X191731000Y-62108757D01*
X191683693Y-61870931D01*
X191590898Y-61646903D01*
X191456180Y-61445283D01*
X191284717Y-61273820D01*
X191083097Y-61139102D01*
X190859069Y-61046307D01*
X190621243Y-60999000D01*
X190378757Y-60999000D01*
X190140931Y-61046307D01*
X189916903Y-61139102D01*
X189715283Y-61273820D01*
X189543820Y-61445283D01*
X189409102Y-61646903D01*
X189316307Y-61870931D01*
X189269000Y-62108757D01*
X189191000Y-62108757D01*
X189143693Y-61870931D01*
X189050898Y-61646903D01*
X188916180Y-61445283D01*
X188744717Y-61273820D01*
X188543097Y-61139102D01*
X188319069Y-61046307D01*
X188081243Y-60999000D01*
X187838757Y-60999000D01*
X187600931Y-61046307D01*
X187376903Y-61139102D01*
X187175283Y-61273820D01*
X187003820Y-61445283D01*
X186869102Y-61646903D01*
X186776307Y-61870931D01*
X186729000Y-62108757D01*
X186651000Y-62108757D01*
X186603693Y-61870931D01*
X186510898Y-61646903D01*
X186376180Y-61445283D01*
X186204717Y-61273820D01*
X186003097Y-61139102D01*
X185779069Y-61046307D01*
X185541243Y-60999000D01*
X185298757Y-60999000D01*
X185060931Y-61046307D01*
X184836903Y-61139102D01*
X184635283Y-61273820D01*
X184463820Y-61445283D01*
X184329102Y-61646903D01*
X184236307Y-61870931D01*
X184189000Y-62108757D01*
X184111000Y-62108757D01*
X184063693Y-61870931D01*
X183970898Y-61646903D01*
X183836180Y-61445283D01*
X183664717Y-61273820D01*
X183463097Y-61139102D01*
X183239069Y-61046307D01*
X183001243Y-60999000D01*
X182758757Y-60999000D01*
X182520931Y-61046307D01*
X182296903Y-61139102D01*
X182095283Y-61273820D01*
X181923820Y-61445283D01*
X181789102Y-61646903D01*
X181696307Y-61870931D01*
X181649000Y-62108757D01*
X181571000Y-62108757D01*
X181523693Y-61870931D01*
X181430898Y-61646903D01*
X181296180Y-61445283D01*
X181124717Y-61273820D01*
X180923097Y-61139102D01*
X180699069Y-61046307D01*
X180461243Y-60999000D01*
X180218757Y-60999000D01*
X179980931Y-61046307D01*
X179756903Y-61139102D01*
X179555283Y-61273820D01*
X179383820Y-61445283D01*
X179249102Y-61646903D01*
X179156307Y-61870931D01*
X179109000Y-62108757D01*
X179031000Y-62108757D01*
X178983693Y-61870931D01*
X178890898Y-61646903D01*
X178756180Y-61445283D01*
X178584717Y-61273820D01*
X178383097Y-61139102D01*
X178159069Y-61046307D01*
X177921243Y-60999000D01*
X177678757Y-60999000D01*
X177440931Y-61046307D01*
X177216903Y-61139102D01*
X177015283Y-61273820D01*
X176843820Y-61445283D01*
X176709102Y-61646903D01*
X176616307Y-61870931D01*
X176569000Y-62108757D01*
X176491000Y-62108757D01*
X176443693Y-61870931D01*
X176350898Y-61646903D01*
X176216180Y-61445283D01*
X176044717Y-61273820D01*
X175843097Y-61139102D01*
X175619069Y-61046307D01*
X175381243Y-60999000D01*
X175138757Y-60999000D01*
X174900931Y-61046307D01*
X174676903Y-61139102D01*
X174475283Y-61273820D01*
X174303820Y-61445283D01*
X174169102Y-61646903D01*
X174076307Y-61870931D01*
X174029000Y-62108757D01*
X173951000Y-62108757D01*
X173903693Y-61870931D01*
X173810898Y-61646903D01*
X173676180Y-61445283D01*
X173504717Y-61273820D01*
X173303097Y-61139102D01*
X173079069Y-61046307D01*
X172841243Y-60999000D01*
X172598757Y-60999000D01*
X172360931Y-61046307D01*
X172136903Y-61139102D01*
X171935283Y-61273820D01*
X171763820Y-61445283D01*
X171629102Y-61646903D01*
X171536307Y-61870931D01*
X171489000Y-62108757D01*
X171411000Y-62108757D01*
X171363693Y-61870931D01*
X171270898Y-61646903D01*
X171136180Y-61445283D01*
X170964717Y-61273820D01*
X170763097Y-61139102D01*
X170539069Y-61046307D01*
X170301243Y-60999000D01*
X170058757Y-60999000D01*
X169820931Y-61046307D01*
X169596903Y-61139102D01*
X169395283Y-61273820D01*
X169223820Y-61445283D01*
X169089102Y-61646903D01*
X168996307Y-61870931D01*
X168949000Y-62108757D01*
X168871000Y-62108757D01*
X168823693Y-61870931D01*
X168730898Y-61646903D01*
X168596180Y-61445283D01*
X168424717Y-61273820D01*
X168223097Y-61139102D01*
X167999069Y-61046307D01*
X167761243Y-60999000D01*
X167518757Y-60999000D01*
X167280931Y-61046307D01*
X167056903Y-61139102D01*
X166855283Y-61273820D01*
X166683820Y-61445283D01*
X166549102Y-61646903D01*
X166505852Y-61751317D01*
X166450919Y-61596253D01*
X166377472Y-61458843D01*
X166128397Y-61381208D01*
X165279605Y-62230000D01*
X164920395Y-62230000D01*
X164071603Y-61381208D01*
X163822528Y-61458843D01*
X163696629Y-61722883D01*
X163691211Y-61744228D01*
X163650898Y-61646903D01*
X163516180Y-61445283D01*
X163344717Y-61273820D01*
X163236637Y-61201603D01*
X164251208Y-61201603D01*
X165100000Y-62050395D01*
X165948792Y-61201603D01*
X165871157Y-60952528D01*
X165607117Y-60826629D01*
X165499687Y-60799360D01*
X197759000Y-60799360D01*
X197759000Y-61120640D01*
X197821678Y-61435745D01*
X197944626Y-61732568D01*
X198123119Y-61999702D01*
X198350298Y-62226881D01*
X198617432Y-62405374D01*
X198914255Y-62528322D01*
X199229360Y-62591000D01*
X199550640Y-62591000D01*
X199865745Y-62528322D01*
X200162568Y-62405374D01*
X200429702Y-62226881D01*
X200656881Y-61999702D01*
X200835374Y-61732568D01*
X200958322Y-61435745D01*
X201021000Y-61120640D01*
X201021000Y-60799360D01*
X200958322Y-60484255D01*
X200835374Y-60187432D01*
X200656881Y-59920298D01*
X200470566Y-59733983D01*
X211169000Y-59733983D01*
X211169000Y-60006017D01*
X211222071Y-60272823D01*
X211326174Y-60524149D01*
X211477307Y-60750336D01*
X211669664Y-60942693D01*
X211895851Y-61093826D01*
X212147177Y-61197929D01*
X212413983Y-61251000D01*
X212686017Y-61251000D01*
X212952823Y-61197929D01*
X213204149Y-61093826D01*
X213336468Y-61005413D01*
X214094192Y-61005413D01*
X214189956Y-61269814D01*
X214479571Y-61410704D01*
X214791108Y-61492384D01*
X215112595Y-61511718D01*
X215431675Y-61467961D01*
X215736088Y-61362795D01*
X215910044Y-61269814D01*
X216005808Y-61005413D01*
X215050000Y-60049605D01*
X214094192Y-61005413D01*
X213336468Y-61005413D01*
X213430336Y-60942693D01*
X213622693Y-60750336D01*
X213643993Y-60718458D01*
X213650186Y-60730044D01*
X213914587Y-60825808D01*
X214870395Y-59870000D01*
X215229605Y-59870000D01*
X216185413Y-60825808D01*
X216449814Y-60730044D01*
X216455685Y-60717976D01*
X216477307Y-60750336D01*
X216669664Y-60942693D01*
X216895851Y-61093826D01*
X217147177Y-61197929D01*
X217413983Y-61251000D01*
X217686017Y-61251000D01*
X217952823Y-61197929D01*
X218204149Y-61093826D01*
X218430336Y-60942693D01*
X218583518Y-60789511D01*
X223059000Y-60789511D01*
X223059000Y-61130489D01*
X223125521Y-61464914D01*
X223256007Y-61779936D01*
X223445444Y-62063448D01*
X223686552Y-62304556D01*
X223970064Y-62493993D01*
X224285086Y-62624479D01*
X224619511Y-62691000D01*
X224960489Y-62691000D01*
X225294914Y-62624479D01*
X225609936Y-62493993D01*
X225893448Y-62304556D01*
X226134556Y-62063448D01*
X226323993Y-61779936D01*
X226454479Y-61464914D01*
X226521000Y-61130489D01*
X226521000Y-60789511D01*
X226454479Y-60455086D01*
X226323993Y-60140064D01*
X226134556Y-59856552D01*
X225893448Y-59615444D01*
X225609936Y-59426007D01*
X225294914Y-59295521D01*
X224960489Y-59229000D01*
X224619511Y-59229000D01*
X224285086Y-59295521D01*
X223970064Y-59426007D01*
X223686552Y-59615444D01*
X223445444Y-59856552D01*
X223256007Y-60140064D01*
X223125521Y-60455086D01*
X223059000Y-60789511D01*
X218583518Y-60789511D01*
X218622693Y-60750336D01*
X218773826Y-60524149D01*
X218877929Y-60272823D01*
X218931000Y-60006017D01*
X218931000Y-59733983D01*
X218877929Y-59467177D01*
X218773826Y-59215851D01*
X218622693Y-58989664D01*
X218430336Y-58797307D01*
X218204149Y-58646174D01*
X217952823Y-58542071D01*
X217686017Y-58489000D01*
X217413983Y-58489000D01*
X217147177Y-58542071D01*
X216895851Y-58646174D01*
X216669664Y-58797307D01*
X216477307Y-58989664D01*
X216456007Y-59021542D01*
X216449814Y-59009956D01*
X216185413Y-58914192D01*
X215229605Y-59870000D01*
X214870395Y-59870000D01*
X213914587Y-58914192D01*
X213650186Y-59009956D01*
X213644315Y-59022024D01*
X213622693Y-58989664D01*
X213430336Y-58797307D01*
X213336469Y-58734587D01*
X214094192Y-58734587D01*
X215050000Y-59690395D01*
X216005808Y-58734587D01*
X215910044Y-58470186D01*
X215620429Y-58329296D01*
X215308892Y-58247616D01*
X214987405Y-58228282D01*
X214668325Y-58272039D01*
X214363912Y-58377205D01*
X214189956Y-58470186D01*
X214094192Y-58734587D01*
X213336469Y-58734587D01*
X213204149Y-58646174D01*
X212952823Y-58542071D01*
X212686017Y-58489000D01*
X212413983Y-58489000D01*
X212147177Y-58542071D01*
X211895851Y-58646174D01*
X211669664Y-58797307D01*
X211477307Y-58989664D01*
X211326174Y-59215851D01*
X211222071Y-59467177D01*
X211169000Y-59733983D01*
X200470566Y-59733983D01*
X200429702Y-59693119D01*
X200162568Y-59514626D01*
X199865745Y-59391678D01*
X199550640Y-59329000D01*
X199229360Y-59329000D01*
X198914255Y-59391678D01*
X198617432Y-59514626D01*
X198350298Y-59693119D01*
X198123119Y-59920298D01*
X197944626Y-60187432D01*
X197821678Y-60484255D01*
X197759000Y-60799360D01*
X165499687Y-60799360D01*
X165323589Y-60754661D01*
X165031469Y-60739389D01*
X164741981Y-60781401D01*
X164466253Y-60879081D01*
X164328843Y-60952528D01*
X164251208Y-61201603D01*
X163236637Y-61201603D01*
X163143097Y-61139102D01*
X162919069Y-61046307D01*
X162681243Y-60999000D01*
X162438757Y-60999000D01*
X162200931Y-61046307D01*
X161976903Y-61139102D01*
X161775283Y-61273820D01*
X161603820Y-61445283D01*
X161469102Y-61646903D01*
X161376307Y-61870931D01*
X161329000Y-62108757D01*
X161251000Y-62108757D01*
X161203693Y-61870931D01*
X161110898Y-61646903D01*
X160976180Y-61445283D01*
X160804717Y-61273820D01*
X160603097Y-61139102D01*
X160379069Y-61046307D01*
X160141243Y-60999000D01*
X159898757Y-60999000D01*
X159660931Y-61046307D01*
X159436903Y-61139102D01*
X159235283Y-61273820D01*
X159063820Y-61445283D01*
X158929102Y-61646903D01*
X158836307Y-61870931D01*
X158789000Y-62108757D01*
X158789000Y-62351243D01*
X158836307Y-62589069D01*
X158929102Y-62813097D01*
X159063820Y-63014717D01*
X159235283Y-63186180D01*
X159436903Y-63320898D01*
X159512000Y-63352004D01*
X159512001Y-64559579D01*
X159174580Y-64897000D01*
X150705420Y-64897000D01*
X150368000Y-64559580D01*
X150368000Y-60774738D01*
X151789000Y-60774738D01*
X151789000Y-61145262D01*
X151861286Y-61508667D01*
X152003080Y-61850987D01*
X152208932Y-62159067D01*
X152470933Y-62421068D01*
X152779013Y-62626920D01*
X153121333Y-62768714D01*
X153484738Y-62841000D01*
X153855262Y-62841000D01*
X154218667Y-62768714D01*
X154560987Y-62626920D01*
X154869067Y-62421068D01*
X155131068Y-62159067D01*
X155164683Y-62108757D01*
X156249000Y-62108757D01*
X156249000Y-62351243D01*
X156296307Y-62589069D01*
X156389102Y-62813097D01*
X156523820Y-63014717D01*
X156695283Y-63186180D01*
X156896903Y-63320898D01*
X157120931Y-63413693D01*
X157358757Y-63461000D01*
X157601243Y-63461000D01*
X157839069Y-63413693D01*
X158063097Y-63320898D01*
X158264717Y-63186180D01*
X158436180Y-63014717D01*
X158570898Y-62813097D01*
X158663693Y-62589069D01*
X158711000Y-62351243D01*
X158711000Y-62108757D01*
X158663693Y-61870931D01*
X158570898Y-61646903D01*
X158436180Y-61445283D01*
X158264717Y-61273820D01*
X158063097Y-61139102D01*
X157839069Y-61046307D01*
X157601243Y-60999000D01*
X157358757Y-60999000D01*
X157120931Y-61046307D01*
X156896903Y-61139102D01*
X156695283Y-61273820D01*
X156523820Y-61445283D01*
X156389102Y-61646903D01*
X156296307Y-61870931D01*
X156249000Y-62108757D01*
X155164683Y-62108757D01*
X155336920Y-61850987D01*
X155478714Y-61508667D01*
X155551000Y-61145262D01*
X155551000Y-60774738D01*
X155478714Y-60411333D01*
X155336920Y-60069013D01*
X155131068Y-59760933D01*
X154869067Y-59498932D01*
X154560987Y-59293080D01*
X154218667Y-59151286D01*
X153855262Y-59079000D01*
X153484738Y-59079000D01*
X153121333Y-59151286D01*
X152779013Y-59293080D01*
X152470933Y-59498932D01*
X152208932Y-59760933D01*
X152003080Y-60069013D01*
X151861286Y-60411333D01*
X151789000Y-60774738D01*
X150368000Y-60774738D01*
X150368000Y-54170000D01*
X207311928Y-54170000D01*
X207324188Y-54294482D01*
X207360498Y-54414180D01*
X207419463Y-54524494D01*
X207498815Y-54621185D01*
X207595506Y-54700537D01*
X207705820Y-54759502D01*
X207825518Y-54795812D01*
X207950000Y-54808072D01*
X209064250Y-54805000D01*
X209223000Y-54646250D01*
X209223000Y-52497000D01*
X209477000Y-52497000D01*
X209477000Y-54646250D01*
X209635750Y-54805000D01*
X210750000Y-54808072D01*
X210874482Y-54795812D01*
X210994180Y-54759502D01*
X211104494Y-54700537D01*
X211201185Y-54621185D01*
X211280537Y-54524494D01*
X211339502Y-54414180D01*
X211375812Y-54294482D01*
X211388072Y-54170000D01*
X218711928Y-54170000D01*
X218724188Y-54294482D01*
X218760498Y-54414180D01*
X218819463Y-54524494D01*
X218898815Y-54621185D01*
X218995506Y-54700537D01*
X219105820Y-54759502D01*
X219225518Y-54795812D01*
X219350000Y-54808072D01*
X220464250Y-54805000D01*
X220623000Y-54646250D01*
X220623000Y-52497000D01*
X220877000Y-52497000D01*
X220877000Y-54646250D01*
X221035750Y-54805000D01*
X222150000Y-54808072D01*
X222274482Y-54795812D01*
X222394180Y-54759502D01*
X222504494Y-54700537D01*
X222601185Y-54621185D01*
X222680537Y-54524494D01*
X222739502Y-54414180D01*
X222775812Y-54294482D01*
X222788072Y-54170000D01*
X222785000Y-52655750D01*
X222626250Y-52497000D01*
X220877000Y-52497000D01*
X220623000Y-52497000D01*
X218873750Y-52497000D01*
X218715000Y-52655750D01*
X218711928Y-54170000D01*
X211388072Y-54170000D01*
X211385000Y-52655750D01*
X211226250Y-52497000D01*
X209477000Y-52497000D01*
X209223000Y-52497000D01*
X207473750Y-52497000D01*
X207315000Y-52655750D01*
X207311928Y-54170000D01*
X150368000Y-54170000D01*
X150368000Y-50570000D01*
X207311928Y-50570000D01*
X207315000Y-52084250D01*
X207473750Y-52243000D01*
X209223000Y-52243000D01*
X209223000Y-50093750D01*
X209477000Y-50093750D01*
X209477000Y-52243000D01*
X211226250Y-52243000D01*
X211385000Y-52084250D01*
X211388072Y-50570000D01*
X218711928Y-50570000D01*
X218715000Y-52084250D01*
X218873750Y-52243000D01*
X220623000Y-52243000D01*
X220623000Y-50093750D01*
X220877000Y-50093750D01*
X220877000Y-52243000D01*
X222626250Y-52243000D01*
X222785000Y-52084250D01*
X222788072Y-50570000D01*
X222775812Y-50445518D01*
X222739502Y-50325820D01*
X222680537Y-50215506D01*
X222601185Y-50118815D01*
X222504494Y-50039463D01*
X222394180Y-49980498D01*
X222274482Y-49944188D01*
X222150000Y-49931928D01*
X221035750Y-49935000D01*
X220877000Y-50093750D01*
X220623000Y-50093750D01*
X220464250Y-49935000D01*
X219350000Y-49931928D01*
X219225518Y-49944188D01*
X219105820Y-49980498D01*
X218995506Y-50039463D01*
X218898815Y-50118815D01*
X218819463Y-50215506D01*
X218760498Y-50325820D01*
X218724188Y-50445518D01*
X218711928Y-50570000D01*
X211388072Y-50570000D01*
X211375812Y-50445518D01*
X211339502Y-50325820D01*
X211280537Y-50215506D01*
X211201185Y-50118815D01*
X211104494Y-50039463D01*
X210994180Y-49980498D01*
X210874482Y-49944188D01*
X210750000Y-49931928D01*
X209635750Y-49935000D01*
X209477000Y-50093750D01*
X209223000Y-50093750D01*
X209064250Y-49935000D01*
X207950000Y-49931928D01*
X207825518Y-49944188D01*
X207705820Y-49980498D01*
X207595506Y-50039463D01*
X207498815Y-50118815D01*
X207419463Y-50215506D01*
X207360498Y-50325820D01*
X207324188Y-50445518D01*
X207311928Y-50570000D01*
X150368000Y-50570000D01*
X150368000Y-50189944D01*
X150370457Y-50165000D01*
X150365908Y-50118815D01*
X150360649Y-50065415D01*
X150331601Y-49969657D01*
X150284429Y-49881405D01*
X150220948Y-49804052D01*
X150201565Y-49788145D01*
X149601855Y-49188435D01*
X149585948Y-49169052D01*
X149508595Y-49105571D01*
X149420343Y-49058399D01*
X149324585Y-49029351D01*
X149249947Y-49022000D01*
X149249944Y-49022000D01*
X149225000Y-49019543D01*
X149200056Y-49022000D01*
X147143753Y-49022000D01*
X146999666Y-48877914D01*
X146999666Y-45233983D01*
X211169000Y-45233983D01*
X211169000Y-45506017D01*
X211222071Y-45772823D01*
X211326174Y-46024149D01*
X211477307Y-46250336D01*
X211669664Y-46442693D01*
X211895851Y-46593826D01*
X212147177Y-46697929D01*
X212413983Y-46751000D01*
X212686017Y-46751000D01*
X212952823Y-46697929D01*
X213204149Y-46593826D01*
X213336468Y-46505413D01*
X216594192Y-46505413D01*
X216689956Y-46769814D01*
X216979571Y-46910704D01*
X217291108Y-46992384D01*
X217612595Y-47011718D01*
X217931675Y-46967961D01*
X218236088Y-46862795D01*
X218410044Y-46769814D01*
X218505808Y-46505413D01*
X217550000Y-45549605D01*
X216594192Y-46505413D01*
X213336468Y-46505413D01*
X213430336Y-46442693D01*
X213622693Y-46250336D01*
X213773826Y-46024149D01*
X213877929Y-45772823D01*
X213931000Y-45506017D01*
X213931000Y-45432595D01*
X215908282Y-45432595D01*
X215952039Y-45751675D01*
X216057205Y-46056088D01*
X216150186Y-46230044D01*
X216414587Y-46325808D01*
X217370395Y-45370000D01*
X217729605Y-45370000D01*
X218685413Y-46325808D01*
X218949814Y-46230044D01*
X219090704Y-45940429D01*
X219172384Y-45628892D01*
X219191718Y-45307405D01*
X219147961Y-44988325D01*
X219042795Y-44683912D01*
X218949814Y-44509956D01*
X218685413Y-44414192D01*
X217729605Y-45370000D01*
X217370395Y-45370000D01*
X216414587Y-44414192D01*
X216150186Y-44509956D01*
X216009296Y-44799571D01*
X215927616Y-45111108D01*
X215908282Y-45432595D01*
X213931000Y-45432595D01*
X213931000Y-45233983D01*
X213877929Y-44967177D01*
X213773826Y-44715851D01*
X213622693Y-44489664D01*
X213430336Y-44297307D01*
X213336469Y-44234587D01*
X216594192Y-44234587D01*
X217550000Y-45190395D01*
X218505808Y-44234587D01*
X218410044Y-43970186D01*
X218120429Y-43829296D01*
X217808892Y-43747616D01*
X217487405Y-43728282D01*
X217168325Y-43772039D01*
X216863912Y-43877205D01*
X216689956Y-43970186D01*
X216594192Y-44234587D01*
X213336469Y-44234587D01*
X213204149Y-44146174D01*
X212952823Y-44042071D01*
X212686017Y-43989000D01*
X212413983Y-43989000D01*
X212147177Y-44042071D01*
X211895851Y-44146174D01*
X211669664Y-44297307D01*
X211477307Y-44489664D01*
X211326174Y-44715851D01*
X211222071Y-44967177D01*
X211169000Y-45233983D01*
X146999666Y-45233983D01*
X146999666Y-44356124D01*
X147098447Y-44315207D01*
X147308256Y-44175018D01*
X147486684Y-43996590D01*
X147626873Y-43786781D01*
X147723438Y-43553654D01*
X147772666Y-43306167D01*
X147772666Y-43053833D01*
X147760912Y-42994738D01*
X151789000Y-42994738D01*
X151789000Y-43365262D01*
X151861286Y-43728667D01*
X152003080Y-44070987D01*
X152208932Y-44379067D01*
X152470933Y-44641068D01*
X152779013Y-44846920D01*
X153121333Y-44988714D01*
X153484738Y-45061000D01*
X153855262Y-45061000D01*
X154218667Y-44988714D01*
X154560987Y-44846920D01*
X154869067Y-44641068D01*
X155131068Y-44379067D01*
X155336920Y-44070987D01*
X155478714Y-43728667D01*
X155551000Y-43365262D01*
X155551000Y-42994738D01*
X155478714Y-42631333D01*
X155336920Y-42289013D01*
X155131068Y-41980933D01*
X154938892Y-41788757D01*
X166409000Y-41788757D01*
X166409000Y-42031243D01*
X166456307Y-42269069D01*
X166549102Y-42493097D01*
X166683820Y-42694717D01*
X166855283Y-42866180D01*
X167056903Y-43000898D01*
X167280931Y-43093693D01*
X167518757Y-43141000D01*
X167761243Y-43141000D01*
X167999069Y-43093693D01*
X168223097Y-43000898D01*
X168424717Y-42866180D01*
X168596180Y-42694717D01*
X168730898Y-42493097D01*
X168823693Y-42269069D01*
X168871000Y-42031243D01*
X168871000Y-41788757D01*
X168949000Y-41788757D01*
X168949000Y-42031243D01*
X168996307Y-42269069D01*
X169089102Y-42493097D01*
X169223820Y-42694717D01*
X169395283Y-42866180D01*
X169596903Y-43000898D01*
X169820931Y-43093693D01*
X170058757Y-43141000D01*
X170301243Y-43141000D01*
X170539069Y-43093693D01*
X170763097Y-43000898D01*
X170964717Y-42866180D01*
X171136180Y-42694717D01*
X171270898Y-42493097D01*
X171363693Y-42269069D01*
X171411000Y-42031243D01*
X171411000Y-41788757D01*
X171489000Y-41788757D01*
X171489000Y-42031243D01*
X171536307Y-42269069D01*
X171629102Y-42493097D01*
X171763820Y-42694717D01*
X171935283Y-42866180D01*
X172136903Y-43000898D01*
X172360931Y-43093693D01*
X172598757Y-43141000D01*
X172841243Y-43141000D01*
X173079069Y-43093693D01*
X173303097Y-43000898D01*
X173504717Y-42866180D01*
X173676180Y-42694717D01*
X173810898Y-42493097D01*
X173903693Y-42269069D01*
X173951000Y-42031243D01*
X173951000Y-41788757D01*
X174029000Y-41788757D01*
X174029000Y-42031243D01*
X174076307Y-42269069D01*
X174169102Y-42493097D01*
X174303820Y-42694717D01*
X174475283Y-42866180D01*
X174676903Y-43000898D01*
X174900931Y-43093693D01*
X175138757Y-43141000D01*
X175381243Y-43141000D01*
X175619069Y-43093693D01*
X175843097Y-43000898D01*
X176044717Y-42866180D01*
X176216180Y-42694717D01*
X176350898Y-42493097D01*
X176443693Y-42269069D01*
X176491000Y-42031243D01*
X176491000Y-41788757D01*
X176569000Y-41788757D01*
X176569000Y-42031243D01*
X176616307Y-42269069D01*
X176709102Y-42493097D01*
X176843820Y-42694717D01*
X177015283Y-42866180D01*
X177216903Y-43000898D01*
X177440931Y-43093693D01*
X177678757Y-43141000D01*
X177921243Y-43141000D01*
X178159069Y-43093693D01*
X178383097Y-43000898D01*
X178584717Y-42866180D01*
X178756180Y-42694717D01*
X178890898Y-42493097D01*
X178983693Y-42269069D01*
X179031000Y-42031243D01*
X179031000Y-41788757D01*
X179109000Y-41788757D01*
X179109000Y-42031243D01*
X179156307Y-42269069D01*
X179249102Y-42493097D01*
X179383820Y-42694717D01*
X179555283Y-42866180D01*
X179756903Y-43000898D01*
X179980931Y-43093693D01*
X180218757Y-43141000D01*
X180461243Y-43141000D01*
X180699069Y-43093693D01*
X180923097Y-43000898D01*
X181124717Y-42866180D01*
X181296180Y-42694717D01*
X181430898Y-42493097D01*
X181523693Y-42269069D01*
X181571000Y-42031243D01*
X181571000Y-41788757D01*
X181649000Y-41788757D01*
X181649000Y-42031243D01*
X181696307Y-42269069D01*
X181789102Y-42493097D01*
X181923820Y-42694717D01*
X182095283Y-42866180D01*
X182296903Y-43000898D01*
X182520931Y-43093693D01*
X182758757Y-43141000D01*
X183001243Y-43141000D01*
X183239069Y-43093693D01*
X183463097Y-43000898D01*
X183664717Y-42866180D01*
X183836180Y-42694717D01*
X183970898Y-42493097D01*
X184063693Y-42269069D01*
X184111000Y-42031243D01*
X184111000Y-41788757D01*
X184189000Y-41788757D01*
X184189000Y-42031243D01*
X184236307Y-42269069D01*
X184329102Y-42493097D01*
X184463820Y-42694717D01*
X184635283Y-42866180D01*
X184836903Y-43000898D01*
X185060931Y-43093693D01*
X185298757Y-43141000D01*
X185541243Y-43141000D01*
X185779069Y-43093693D01*
X186003097Y-43000898D01*
X186204717Y-42866180D01*
X186376180Y-42694717D01*
X186510898Y-42493097D01*
X186603693Y-42269069D01*
X186651000Y-42031243D01*
X186651000Y-41788757D01*
X186729000Y-41788757D01*
X186729000Y-42031243D01*
X186776307Y-42269069D01*
X186869102Y-42493097D01*
X187003820Y-42694717D01*
X187175283Y-42866180D01*
X187376903Y-43000898D01*
X187600931Y-43093693D01*
X187838757Y-43141000D01*
X188081243Y-43141000D01*
X188319069Y-43093693D01*
X188543097Y-43000898D01*
X188744717Y-42866180D01*
X188916180Y-42694717D01*
X189050898Y-42493097D01*
X189143693Y-42269069D01*
X189191000Y-42031243D01*
X189191000Y-41788757D01*
X189269000Y-41788757D01*
X189269000Y-42031243D01*
X189316307Y-42269069D01*
X189409102Y-42493097D01*
X189543820Y-42694717D01*
X189715283Y-42866180D01*
X189916903Y-43000898D01*
X190140931Y-43093693D01*
X190378757Y-43141000D01*
X190621243Y-43141000D01*
X190859069Y-43093693D01*
X191083097Y-43000898D01*
X191284717Y-42866180D01*
X191456180Y-42694717D01*
X191590898Y-42493097D01*
X191683693Y-42269069D01*
X191731000Y-42031243D01*
X191731000Y-41788757D01*
X191809000Y-41788757D01*
X191809000Y-42031243D01*
X191856307Y-42269069D01*
X191949102Y-42493097D01*
X192083820Y-42694717D01*
X192255283Y-42866180D01*
X192456903Y-43000898D01*
X192680931Y-43093693D01*
X192918757Y-43141000D01*
X193161243Y-43141000D01*
X193399069Y-43093693D01*
X193623097Y-43000898D01*
X193824717Y-42866180D01*
X193996180Y-42694717D01*
X194130898Y-42493097D01*
X194223693Y-42269069D01*
X194271000Y-42031243D01*
X194271000Y-41788757D01*
X194349000Y-41788757D01*
X194349000Y-42031243D01*
X194396307Y-42269069D01*
X194489102Y-42493097D01*
X194623820Y-42694717D01*
X194795283Y-42866180D01*
X194996903Y-43000898D01*
X195220931Y-43093693D01*
X195458757Y-43141000D01*
X195701243Y-43141000D01*
X195939069Y-43093693D01*
X196118525Y-43019360D01*
X197759000Y-43019360D01*
X197759000Y-43340640D01*
X197821678Y-43655745D01*
X197944626Y-43952568D01*
X198123119Y-44219702D01*
X198350298Y-44446881D01*
X198617432Y-44625374D01*
X198914255Y-44748322D01*
X199229360Y-44811000D01*
X199550640Y-44811000D01*
X199865745Y-44748322D01*
X200162568Y-44625374D01*
X200429702Y-44446881D01*
X200656881Y-44219702D01*
X200835374Y-43952568D01*
X200958322Y-43655745D01*
X201021000Y-43340640D01*
X201021000Y-43019360D01*
X201019041Y-43009511D01*
X223059000Y-43009511D01*
X223059000Y-43350489D01*
X223125521Y-43684914D01*
X223256007Y-43999936D01*
X223445444Y-44283448D01*
X223686552Y-44524556D01*
X223970064Y-44713993D01*
X224285086Y-44844479D01*
X224619511Y-44911000D01*
X224960489Y-44911000D01*
X225294914Y-44844479D01*
X225609936Y-44713993D01*
X225893448Y-44524556D01*
X226134556Y-44283448D01*
X226323993Y-43999936D01*
X226454479Y-43684914D01*
X226521000Y-43350489D01*
X226521000Y-43009511D01*
X226454479Y-42675086D01*
X226323993Y-42360064D01*
X226134556Y-42076552D01*
X225893448Y-41835444D01*
X225609936Y-41646007D01*
X225294914Y-41515521D01*
X224960489Y-41449000D01*
X224619511Y-41449000D01*
X224285086Y-41515521D01*
X223970064Y-41646007D01*
X223686552Y-41835444D01*
X223445444Y-42076552D01*
X223256007Y-42360064D01*
X223125521Y-42675086D01*
X223059000Y-43009511D01*
X201019041Y-43009511D01*
X200958322Y-42704255D01*
X200835374Y-42407432D01*
X200656881Y-42140298D01*
X200429702Y-41913119D01*
X200162568Y-41734626D01*
X199865745Y-41611678D01*
X199550640Y-41549000D01*
X199229360Y-41549000D01*
X198914255Y-41611678D01*
X198617432Y-41734626D01*
X198350298Y-41913119D01*
X198123119Y-42140298D01*
X197944626Y-42407432D01*
X197821678Y-42704255D01*
X197759000Y-43019360D01*
X196118525Y-43019360D01*
X196163097Y-43000898D01*
X196364717Y-42866180D01*
X196536180Y-42694717D01*
X196670898Y-42493097D01*
X196763693Y-42269069D01*
X196811000Y-42031243D01*
X196811000Y-41788757D01*
X196763693Y-41550931D01*
X196670898Y-41326903D01*
X196536180Y-41125283D01*
X196364717Y-40953820D01*
X196163097Y-40819102D01*
X195939069Y-40726307D01*
X195701243Y-40679000D01*
X195458757Y-40679000D01*
X195220931Y-40726307D01*
X194996903Y-40819102D01*
X194795283Y-40953820D01*
X194623820Y-41125283D01*
X194489102Y-41326903D01*
X194396307Y-41550931D01*
X194349000Y-41788757D01*
X194271000Y-41788757D01*
X194223693Y-41550931D01*
X194130898Y-41326903D01*
X193996180Y-41125283D01*
X193824717Y-40953820D01*
X193623097Y-40819102D01*
X193399069Y-40726307D01*
X193161243Y-40679000D01*
X192918757Y-40679000D01*
X192680931Y-40726307D01*
X192456903Y-40819102D01*
X192255283Y-40953820D01*
X192083820Y-41125283D01*
X191949102Y-41326903D01*
X191856307Y-41550931D01*
X191809000Y-41788757D01*
X191731000Y-41788757D01*
X191683693Y-41550931D01*
X191590898Y-41326903D01*
X191456180Y-41125283D01*
X191284717Y-40953820D01*
X191083097Y-40819102D01*
X190859069Y-40726307D01*
X190621243Y-40679000D01*
X190378757Y-40679000D01*
X190140931Y-40726307D01*
X189916903Y-40819102D01*
X189715283Y-40953820D01*
X189543820Y-41125283D01*
X189409102Y-41326903D01*
X189316307Y-41550931D01*
X189269000Y-41788757D01*
X189191000Y-41788757D01*
X189143693Y-41550931D01*
X189050898Y-41326903D01*
X188916180Y-41125283D01*
X188744717Y-40953820D01*
X188543097Y-40819102D01*
X188319069Y-40726307D01*
X188081243Y-40679000D01*
X187838757Y-40679000D01*
X187600931Y-40726307D01*
X187376903Y-40819102D01*
X187175283Y-40953820D01*
X187003820Y-41125283D01*
X186869102Y-41326903D01*
X186776307Y-41550931D01*
X186729000Y-41788757D01*
X186651000Y-41788757D01*
X186603693Y-41550931D01*
X186510898Y-41326903D01*
X186376180Y-41125283D01*
X186204717Y-40953820D01*
X186003097Y-40819102D01*
X185779069Y-40726307D01*
X185541243Y-40679000D01*
X185298757Y-40679000D01*
X185060931Y-40726307D01*
X184836903Y-40819102D01*
X184635283Y-40953820D01*
X184463820Y-41125283D01*
X184329102Y-41326903D01*
X184236307Y-41550931D01*
X184189000Y-41788757D01*
X184111000Y-41788757D01*
X184063693Y-41550931D01*
X183970898Y-41326903D01*
X183836180Y-41125283D01*
X183664717Y-40953820D01*
X183463097Y-40819102D01*
X183239069Y-40726307D01*
X183001243Y-40679000D01*
X182758757Y-40679000D01*
X182520931Y-40726307D01*
X182296903Y-40819102D01*
X182095283Y-40953820D01*
X181923820Y-41125283D01*
X181789102Y-41326903D01*
X181696307Y-41550931D01*
X181649000Y-41788757D01*
X181571000Y-41788757D01*
X181523693Y-41550931D01*
X181430898Y-41326903D01*
X181296180Y-41125283D01*
X181124717Y-40953820D01*
X180923097Y-40819102D01*
X180699069Y-40726307D01*
X180461243Y-40679000D01*
X180218757Y-40679000D01*
X179980931Y-40726307D01*
X179756903Y-40819102D01*
X179555283Y-40953820D01*
X179383820Y-41125283D01*
X179249102Y-41326903D01*
X179156307Y-41550931D01*
X179109000Y-41788757D01*
X179031000Y-41788757D01*
X178983693Y-41550931D01*
X178890898Y-41326903D01*
X178756180Y-41125283D01*
X178584717Y-40953820D01*
X178383097Y-40819102D01*
X178159069Y-40726307D01*
X177921243Y-40679000D01*
X177678757Y-40679000D01*
X177440931Y-40726307D01*
X177216903Y-40819102D01*
X177015283Y-40953820D01*
X176843820Y-41125283D01*
X176709102Y-41326903D01*
X176616307Y-41550931D01*
X176569000Y-41788757D01*
X176491000Y-41788757D01*
X176443693Y-41550931D01*
X176350898Y-41326903D01*
X176216180Y-41125283D01*
X176044717Y-40953820D01*
X175843097Y-40819102D01*
X175619069Y-40726307D01*
X175381243Y-40679000D01*
X175138757Y-40679000D01*
X174900931Y-40726307D01*
X174676903Y-40819102D01*
X174475283Y-40953820D01*
X174303820Y-41125283D01*
X174169102Y-41326903D01*
X174076307Y-41550931D01*
X174029000Y-41788757D01*
X173951000Y-41788757D01*
X173903693Y-41550931D01*
X173810898Y-41326903D01*
X173676180Y-41125283D01*
X173504717Y-40953820D01*
X173303097Y-40819102D01*
X173079069Y-40726307D01*
X172841243Y-40679000D01*
X172598757Y-40679000D01*
X172360931Y-40726307D01*
X172136903Y-40819102D01*
X171935283Y-40953820D01*
X171763820Y-41125283D01*
X171629102Y-41326903D01*
X171536307Y-41550931D01*
X171489000Y-41788757D01*
X171411000Y-41788757D01*
X171363693Y-41550931D01*
X171270898Y-41326903D01*
X171136180Y-41125283D01*
X170964717Y-40953820D01*
X170763097Y-40819102D01*
X170539069Y-40726307D01*
X170301243Y-40679000D01*
X170058757Y-40679000D01*
X169820931Y-40726307D01*
X169596903Y-40819102D01*
X169395283Y-40953820D01*
X169223820Y-41125283D01*
X169089102Y-41326903D01*
X168996307Y-41550931D01*
X168949000Y-41788757D01*
X168871000Y-41788757D01*
X168823693Y-41550931D01*
X168730898Y-41326903D01*
X168596180Y-41125283D01*
X168424717Y-40953820D01*
X168223097Y-40819102D01*
X167999069Y-40726307D01*
X167761243Y-40679000D01*
X167518757Y-40679000D01*
X167280931Y-40726307D01*
X167056903Y-40819102D01*
X166855283Y-40953820D01*
X166683820Y-41125283D01*
X166549102Y-41326903D01*
X166456307Y-41550931D01*
X166409000Y-41788757D01*
X154938892Y-41788757D01*
X154869067Y-41718932D01*
X154560987Y-41513080D01*
X154218667Y-41371286D01*
X153855262Y-41299000D01*
X153484738Y-41299000D01*
X153121333Y-41371286D01*
X152779013Y-41513080D01*
X152470933Y-41718932D01*
X152208932Y-41980933D01*
X152003080Y-42289013D01*
X151861286Y-42631333D01*
X151789000Y-42994738D01*
X147760912Y-42994738D01*
X147723438Y-42806346D01*
X147626873Y-42573219D01*
X147486684Y-42363410D01*
X147308256Y-42184982D01*
X147098447Y-42044793D01*
X146865320Y-41948228D01*
X146617833Y-41899000D01*
X146365499Y-41899000D01*
X146118012Y-41948228D01*
X145884885Y-42044793D01*
X145675076Y-42184982D01*
X145496648Y-42363410D01*
X145356459Y-42573219D01*
X145259894Y-42806346D01*
X145221666Y-42998532D01*
X145183438Y-42806346D01*
X145086873Y-42573219D01*
X144946684Y-42363410D01*
X144768256Y-42184982D01*
X144558447Y-42044793D01*
X144325320Y-41948228D01*
X144077833Y-41899000D01*
X143825499Y-41899000D01*
X143578012Y-41948228D01*
X143344885Y-42044793D01*
X143135076Y-42184982D01*
X142956648Y-42363410D01*
X142816459Y-42573219D01*
X142719894Y-42806346D01*
X142681666Y-42998532D01*
X142643438Y-42806346D01*
X142546873Y-42573219D01*
X142406684Y-42363410D01*
X142228256Y-42184982D01*
X142018447Y-42044793D01*
X141785320Y-41948228D01*
X141537833Y-41899000D01*
X141285499Y-41899000D01*
X141038012Y-41948228D01*
X140804885Y-42044793D01*
X140595076Y-42184982D01*
X140416648Y-42363410D01*
X140276459Y-42573219D01*
X140179894Y-42806346D01*
X140141666Y-42998532D01*
X140103438Y-42806346D01*
X140006873Y-42573219D01*
X139866684Y-42363410D01*
X139688256Y-42184982D01*
X139478447Y-42044793D01*
X139245320Y-41948228D01*
X138997833Y-41899000D01*
X138745499Y-41899000D01*
X138498012Y-41948228D01*
X138264885Y-42044793D01*
X138055076Y-42184982D01*
X137876648Y-42363410D01*
X137736459Y-42573219D01*
X137639894Y-42806346D01*
X137601666Y-42998532D01*
X137563438Y-42806346D01*
X137466873Y-42573219D01*
X137326684Y-42363410D01*
X137148256Y-42184982D01*
X136938447Y-42044793D01*
X136705320Y-41948228D01*
X136457833Y-41899000D01*
X136205499Y-41899000D01*
X135958012Y-41948228D01*
X135724885Y-42044793D01*
X135515076Y-42184982D01*
X135336648Y-42363410D01*
X135202375Y-42564364D01*
X135189888Y-42528801D01*
X135109927Y-42379208D01*
X134855746Y-42295525D01*
X133971271Y-43180000D01*
X134855746Y-44064475D01*
X135109927Y-43980792D01*
X135200322Y-43792562D01*
X135336648Y-43996590D01*
X135515076Y-44175018D01*
X135724885Y-44315207D01*
X135958012Y-44411772D01*
X136205499Y-44461000D01*
X136457833Y-44461000D01*
X136705320Y-44411772D01*
X136938447Y-44315207D01*
X137148256Y-44175018D01*
X137326684Y-43996590D01*
X137466873Y-43786781D01*
X137563438Y-43553654D01*
X137601666Y-43361468D01*
X137639894Y-43553654D01*
X137736459Y-43786781D01*
X137876648Y-43996590D01*
X138055076Y-44175018D01*
X138264885Y-44315207D01*
X138498012Y-44411772D01*
X138745499Y-44461000D01*
X138997833Y-44461000D01*
X139245320Y-44411772D01*
X139478447Y-44315207D01*
X139688256Y-44175018D01*
X139866684Y-43996590D01*
X140006873Y-43786781D01*
X140103438Y-43553654D01*
X140141666Y-43361468D01*
X140179894Y-43553654D01*
X140276459Y-43786781D01*
X140416648Y-43996590D01*
X140595076Y-44175018D01*
X140804885Y-44315207D01*
X141038012Y-44411772D01*
X141285499Y-44461000D01*
X141537833Y-44461000D01*
X141785320Y-44411772D01*
X142018447Y-44315207D01*
X142228256Y-44175018D01*
X142406684Y-43996590D01*
X142546873Y-43786781D01*
X142643438Y-43553654D01*
X142681666Y-43361468D01*
X142719894Y-43553654D01*
X142816459Y-43786781D01*
X142956648Y-43996590D01*
X143135076Y-44175018D01*
X143344885Y-44315207D01*
X143578012Y-44411772D01*
X143825499Y-44461000D01*
X144077833Y-44461000D01*
X144325320Y-44411772D01*
X144558447Y-44315207D01*
X144768256Y-44175018D01*
X144946684Y-43996590D01*
X145086873Y-43786781D01*
X145183438Y-43553654D01*
X145221666Y-43361468D01*
X145259894Y-43553654D01*
X145356459Y-43786781D01*
X145496648Y-43996590D01*
X145675076Y-44175018D01*
X145884885Y-44315207D01*
X145983666Y-44356124D01*
X145983666Y-45938281D01*
X145983667Y-45938286D01*
X145983666Y-48877913D01*
X145839580Y-49022000D01*
X102329756Y-49022000D01*
X102290531Y-48963296D01*
X102166704Y-48839469D01*
X102021099Y-48742179D01*
X101859312Y-48675164D01*
X101687559Y-48641000D01*
X101512441Y-48641000D01*
X101340688Y-48675164D01*
X101178901Y-48742179D01*
X101033296Y-48839469D01*
X100909469Y-48963296D01*
X100838000Y-49070257D01*
X100838000Y-43032004D01*
X100913097Y-43000898D01*
X101114717Y-42866180D01*
X101286180Y-42694717D01*
X101420898Y-42493097D01*
X101513693Y-42269069D01*
X101561000Y-42031243D01*
X101561000Y-41788757D01*
X101639000Y-41788757D01*
X101639000Y-42031243D01*
X101686307Y-42269069D01*
X101779102Y-42493097D01*
X101913820Y-42694717D01*
X102085283Y-42866180D01*
X102286903Y-43000898D01*
X102510931Y-43093693D01*
X102748757Y-43141000D01*
X102991243Y-43141000D01*
X103229069Y-43093693D01*
X103453097Y-43000898D01*
X103654717Y-42866180D01*
X103826180Y-42694717D01*
X103960898Y-42493097D01*
X104053693Y-42269069D01*
X104101000Y-42031243D01*
X104101000Y-41788757D01*
X104179000Y-41788757D01*
X104179000Y-42031243D01*
X104226307Y-42269069D01*
X104319102Y-42493097D01*
X104453820Y-42694717D01*
X104625283Y-42866180D01*
X104826903Y-43000898D01*
X105050931Y-43093693D01*
X105288757Y-43141000D01*
X105531243Y-43141000D01*
X105769069Y-43093693D01*
X105993097Y-43000898D01*
X106194717Y-42866180D01*
X106366180Y-42694717D01*
X106500898Y-42493097D01*
X106593693Y-42269069D01*
X106641000Y-42031243D01*
X106641000Y-41788757D01*
X106719000Y-41788757D01*
X106719000Y-42031243D01*
X106766307Y-42269069D01*
X106859102Y-42493097D01*
X106993820Y-42694717D01*
X107165283Y-42866180D01*
X107366903Y-43000898D01*
X107590931Y-43093693D01*
X107828757Y-43141000D01*
X108071243Y-43141000D01*
X108309069Y-43093693D01*
X108533097Y-43000898D01*
X108734717Y-42866180D01*
X108906180Y-42694717D01*
X109040898Y-42493097D01*
X109133693Y-42269069D01*
X109181000Y-42031243D01*
X109181000Y-41788757D01*
X109259000Y-41788757D01*
X109259000Y-42031243D01*
X109306307Y-42269069D01*
X109399102Y-42493097D01*
X109533820Y-42694717D01*
X109705283Y-42866180D01*
X109906903Y-43000898D01*
X110130931Y-43093693D01*
X110368757Y-43141000D01*
X110611243Y-43141000D01*
X110849069Y-43093693D01*
X111073097Y-43000898D01*
X111274717Y-42866180D01*
X111446180Y-42694717D01*
X111580898Y-42493097D01*
X111673693Y-42269069D01*
X111721000Y-42031243D01*
X111721000Y-41788757D01*
X111799000Y-41788757D01*
X111799000Y-42031243D01*
X111846307Y-42269069D01*
X111939102Y-42493097D01*
X112073820Y-42694717D01*
X112245283Y-42866180D01*
X112446903Y-43000898D01*
X112670931Y-43093693D01*
X112908757Y-43141000D01*
X113151243Y-43141000D01*
X113389069Y-43093693D01*
X113613097Y-43000898D01*
X113814717Y-42866180D01*
X113986180Y-42694717D01*
X114120898Y-42493097D01*
X114213693Y-42269069D01*
X114261000Y-42031243D01*
X114261000Y-41788757D01*
X114339000Y-41788757D01*
X114339000Y-42031243D01*
X114386307Y-42269069D01*
X114479102Y-42493097D01*
X114613820Y-42694717D01*
X114785283Y-42866180D01*
X114986903Y-43000898D01*
X115210931Y-43093693D01*
X115448757Y-43141000D01*
X115691243Y-43141000D01*
X115929069Y-43093693D01*
X116153097Y-43000898D01*
X116354717Y-42866180D01*
X116526180Y-42694717D01*
X116660898Y-42493097D01*
X116753693Y-42269069D01*
X116801000Y-42031243D01*
X116801000Y-41788757D01*
X116879000Y-41788757D01*
X116879000Y-42031243D01*
X116926307Y-42269069D01*
X117019102Y-42493097D01*
X117153820Y-42694717D01*
X117325283Y-42866180D01*
X117526903Y-43000898D01*
X117750931Y-43093693D01*
X117988757Y-43141000D01*
X118231243Y-43141000D01*
X118469069Y-43093693D01*
X118693097Y-43000898D01*
X118894717Y-42866180D01*
X119066180Y-42694717D01*
X119200898Y-42493097D01*
X119293693Y-42269069D01*
X119341000Y-42031243D01*
X119341000Y-41788757D01*
X119419000Y-41788757D01*
X119419000Y-42031243D01*
X119466307Y-42269069D01*
X119559102Y-42493097D01*
X119693820Y-42694717D01*
X119865283Y-42866180D01*
X120066903Y-43000898D01*
X120290931Y-43093693D01*
X120528757Y-43141000D01*
X120771243Y-43141000D01*
X121009069Y-43093693D01*
X121233097Y-43000898D01*
X121434717Y-42866180D01*
X121606180Y-42694717D01*
X121740898Y-42493097D01*
X121833693Y-42269069D01*
X121881000Y-42031243D01*
X121881000Y-41788757D01*
X121959000Y-41788757D01*
X121959000Y-42031243D01*
X122006307Y-42269069D01*
X122099102Y-42493097D01*
X122233820Y-42694717D01*
X122405283Y-42866180D01*
X122606903Y-43000898D01*
X122830931Y-43093693D01*
X123068757Y-43141000D01*
X123311243Y-43141000D01*
X123549069Y-43093693D01*
X123728525Y-43019360D01*
X125369000Y-43019360D01*
X125369000Y-43340640D01*
X125431678Y-43655745D01*
X125554626Y-43952568D01*
X125733119Y-44219702D01*
X125960298Y-44446881D01*
X126227432Y-44625374D01*
X126524255Y-44748322D01*
X126839360Y-44811000D01*
X127160640Y-44811000D01*
X127475745Y-44748322D01*
X127772568Y-44625374D01*
X128039702Y-44446881D01*
X128242503Y-44244080D01*
X132907191Y-44244080D01*
X132990874Y-44498261D01*
X133263441Y-44629158D01*
X133556308Y-44704365D01*
X133858219Y-44720991D01*
X134157573Y-44678397D01*
X134442865Y-44578222D01*
X134592458Y-44498261D01*
X134676141Y-44244080D01*
X133791666Y-43359605D01*
X132907191Y-44244080D01*
X128242503Y-44244080D01*
X128266881Y-44219702D01*
X128445374Y-43952568D01*
X128568322Y-43655745D01*
X128631000Y-43340640D01*
X128631000Y-43246553D01*
X132250675Y-43246553D01*
X132293269Y-43545907D01*
X132393444Y-43831199D01*
X132473405Y-43980792D01*
X132727586Y-44064475D01*
X133612061Y-43180000D01*
X132727586Y-42295525D01*
X132473405Y-42379208D01*
X132342508Y-42651775D01*
X132267301Y-42944642D01*
X132250675Y-43246553D01*
X128631000Y-43246553D01*
X128631000Y-43019360D01*
X128568322Y-42704255D01*
X128445374Y-42407432D01*
X128266881Y-42140298D01*
X128242503Y-42115920D01*
X132907191Y-42115920D01*
X133791666Y-43000395D01*
X134676141Y-42115920D01*
X134592458Y-41861739D01*
X134319891Y-41730842D01*
X134027024Y-41655635D01*
X133725113Y-41639009D01*
X133425759Y-41681603D01*
X133140467Y-41781778D01*
X132990874Y-41861739D01*
X132907191Y-42115920D01*
X128242503Y-42115920D01*
X128039702Y-41913119D01*
X127772568Y-41734626D01*
X127475745Y-41611678D01*
X127160640Y-41549000D01*
X126839360Y-41549000D01*
X126524255Y-41611678D01*
X126227432Y-41734626D01*
X125960298Y-41913119D01*
X125733119Y-42140298D01*
X125554626Y-42407432D01*
X125431678Y-42704255D01*
X125369000Y-43019360D01*
X123728525Y-43019360D01*
X123773097Y-43000898D01*
X123974717Y-42866180D01*
X124146180Y-42694717D01*
X124280898Y-42493097D01*
X124373693Y-42269069D01*
X124421000Y-42031243D01*
X124421000Y-41788757D01*
X124373693Y-41550931D01*
X124280898Y-41326903D01*
X124146180Y-41125283D01*
X123974717Y-40953820D01*
X123773097Y-40819102D01*
X123549069Y-40726307D01*
X123311243Y-40679000D01*
X123068757Y-40679000D01*
X122830931Y-40726307D01*
X122606903Y-40819102D01*
X122405283Y-40953820D01*
X122233820Y-41125283D01*
X122099102Y-41326903D01*
X122006307Y-41550931D01*
X121959000Y-41788757D01*
X121881000Y-41788757D01*
X121833693Y-41550931D01*
X121740898Y-41326903D01*
X121606180Y-41125283D01*
X121434717Y-40953820D01*
X121233097Y-40819102D01*
X121009069Y-40726307D01*
X120771243Y-40679000D01*
X120528757Y-40679000D01*
X120290931Y-40726307D01*
X120066903Y-40819102D01*
X119865283Y-40953820D01*
X119693820Y-41125283D01*
X119559102Y-41326903D01*
X119466307Y-41550931D01*
X119419000Y-41788757D01*
X119341000Y-41788757D01*
X119293693Y-41550931D01*
X119200898Y-41326903D01*
X119066180Y-41125283D01*
X118894717Y-40953820D01*
X118693097Y-40819102D01*
X118469069Y-40726307D01*
X118231243Y-40679000D01*
X117988757Y-40679000D01*
X117750931Y-40726307D01*
X117526903Y-40819102D01*
X117325283Y-40953820D01*
X117153820Y-41125283D01*
X117019102Y-41326903D01*
X116926307Y-41550931D01*
X116879000Y-41788757D01*
X116801000Y-41788757D01*
X116753693Y-41550931D01*
X116660898Y-41326903D01*
X116526180Y-41125283D01*
X116354717Y-40953820D01*
X116153097Y-40819102D01*
X115929069Y-40726307D01*
X115691243Y-40679000D01*
X115448757Y-40679000D01*
X115210931Y-40726307D01*
X114986903Y-40819102D01*
X114785283Y-40953820D01*
X114613820Y-41125283D01*
X114479102Y-41326903D01*
X114386307Y-41550931D01*
X114339000Y-41788757D01*
X114261000Y-41788757D01*
X114213693Y-41550931D01*
X114120898Y-41326903D01*
X113986180Y-41125283D01*
X113814717Y-40953820D01*
X113613097Y-40819102D01*
X113389069Y-40726307D01*
X113151243Y-40679000D01*
X112908757Y-40679000D01*
X112670931Y-40726307D01*
X112446903Y-40819102D01*
X112245283Y-40953820D01*
X112073820Y-41125283D01*
X111939102Y-41326903D01*
X111846307Y-41550931D01*
X111799000Y-41788757D01*
X111721000Y-41788757D01*
X111673693Y-41550931D01*
X111580898Y-41326903D01*
X111446180Y-41125283D01*
X111274717Y-40953820D01*
X111073097Y-40819102D01*
X110849069Y-40726307D01*
X110611243Y-40679000D01*
X110368757Y-40679000D01*
X110130931Y-40726307D01*
X109906903Y-40819102D01*
X109705283Y-40953820D01*
X109533820Y-41125283D01*
X109399102Y-41326903D01*
X109306307Y-41550931D01*
X109259000Y-41788757D01*
X109181000Y-41788757D01*
X109133693Y-41550931D01*
X109040898Y-41326903D01*
X108906180Y-41125283D01*
X108734717Y-40953820D01*
X108533097Y-40819102D01*
X108309069Y-40726307D01*
X108071243Y-40679000D01*
X107828757Y-40679000D01*
X107590931Y-40726307D01*
X107366903Y-40819102D01*
X107165283Y-40953820D01*
X106993820Y-41125283D01*
X106859102Y-41326903D01*
X106766307Y-41550931D01*
X106719000Y-41788757D01*
X106641000Y-41788757D01*
X106593693Y-41550931D01*
X106500898Y-41326903D01*
X106366180Y-41125283D01*
X106194717Y-40953820D01*
X105993097Y-40819102D01*
X105769069Y-40726307D01*
X105531243Y-40679000D01*
X105288757Y-40679000D01*
X105050931Y-40726307D01*
X104826903Y-40819102D01*
X104625283Y-40953820D01*
X104453820Y-41125283D01*
X104319102Y-41326903D01*
X104226307Y-41550931D01*
X104179000Y-41788757D01*
X104101000Y-41788757D01*
X104053693Y-41550931D01*
X103960898Y-41326903D01*
X103826180Y-41125283D01*
X103654717Y-40953820D01*
X103453097Y-40819102D01*
X103229069Y-40726307D01*
X102991243Y-40679000D01*
X102748757Y-40679000D01*
X102510931Y-40726307D01*
X102286903Y-40819102D01*
X102085283Y-40953820D01*
X101913820Y-41125283D01*
X101779102Y-41326903D01*
X101686307Y-41550931D01*
X101639000Y-41788757D01*
X101561000Y-41788757D01*
X101513693Y-41550931D01*
X101420898Y-41326903D01*
X101286180Y-41125283D01*
X101114717Y-40953820D01*
X100913097Y-40819102D01*
X100689069Y-40726307D01*
X100451243Y-40679000D01*
X100208757Y-40679000D01*
X99970931Y-40726307D01*
X99746903Y-40819102D01*
X99545283Y-40953820D01*
X99373820Y-41125283D01*
X99239102Y-41326903D01*
X99146307Y-41550931D01*
X99099000Y-41788757D01*
X99099000Y-42031243D01*
X99146307Y-42269069D01*
X99239102Y-42493097D01*
X99373820Y-42694717D01*
X99545283Y-42866180D01*
X99746903Y-43000898D01*
X99822000Y-43032004D01*
X99822001Y-49070258D01*
X99750531Y-48963296D01*
X99626704Y-48839469D01*
X99481099Y-48742179D01*
X99319312Y-48675164D01*
X99147559Y-48641000D01*
X98972441Y-48641000D01*
X98800688Y-48675164D01*
X98638901Y-48742179D01*
X98493296Y-48839469D01*
X98369469Y-48963296D01*
X98272179Y-49108901D01*
X98205164Y-49270688D01*
X98171000Y-49442441D01*
X98171000Y-49617559D01*
X98205164Y-49789312D01*
X98272179Y-49951099D01*
X98369469Y-50096704D01*
X98493296Y-50220531D01*
X98552001Y-50259756D01*
X98552000Y-55669580D01*
X98214580Y-56007000D01*
X88289944Y-56007000D01*
X88265000Y-56004543D01*
X88240056Y-56007000D01*
X88240053Y-56007000D01*
X88165415Y-56014351D01*
X88069657Y-56043399D01*
X87981405Y-56090571D01*
X87904052Y-56154052D01*
X87888145Y-56173435D01*
X87288430Y-56773150D01*
X87269053Y-56789052D01*
X87253151Y-56808429D01*
X87253150Y-56808430D01*
X87205571Y-56866405D01*
X87158401Y-56954656D01*
X87158400Y-56954657D01*
X87137669Y-57023000D01*
X87129352Y-57050416D01*
X87119543Y-57150000D01*
X87122001Y-57174954D01*
X87122000Y-61107996D01*
X87046903Y-61139102D01*
X86845283Y-61273820D01*
X86673820Y-61445283D01*
X86539102Y-61646903D01*
X86446307Y-61870931D01*
X86399000Y-62108757D01*
X86321000Y-62108757D01*
X86273693Y-61870931D01*
X86180898Y-61646903D01*
X86046180Y-61445283D01*
X85874717Y-61273820D01*
X85673097Y-61139102D01*
X85449069Y-61046307D01*
X85211243Y-60999000D01*
X84968757Y-60999000D01*
X84730931Y-61046307D01*
X84506903Y-61139102D01*
X84305283Y-61273820D01*
X84133820Y-61445283D01*
X83999102Y-61646903D01*
X83906307Y-61870931D01*
X83859000Y-62108757D01*
X82774683Y-62108757D01*
X82946920Y-61850987D01*
X83088714Y-61508667D01*
X83161000Y-61145262D01*
X83161000Y-60774738D01*
X83088714Y-60411333D01*
X82946920Y-60069013D01*
X82741068Y-59760933D01*
X82479067Y-59498932D01*
X82170987Y-59293080D01*
X81828667Y-59151286D01*
X81465262Y-59079000D01*
X81094738Y-59079000D01*
X80731333Y-59151286D01*
X80389013Y-59293080D01*
X80080933Y-59498932D01*
X79818932Y-59760933D01*
X79613080Y-60069013D01*
X79471286Y-60411333D01*
X79399000Y-60774738D01*
X76631000Y-60774738D01*
X76631000Y-42994738D01*
X79399000Y-42994738D01*
X79399000Y-43365262D01*
X79471286Y-43728667D01*
X79613080Y-44070987D01*
X79818932Y-44379067D01*
X80080933Y-44641068D01*
X80389013Y-44846920D01*
X80731333Y-44988714D01*
X81094738Y-45061000D01*
X81465262Y-45061000D01*
X81828667Y-44988714D01*
X82170987Y-44846920D01*
X82479067Y-44641068D01*
X82741068Y-44379067D01*
X82946920Y-44070987D01*
X83088714Y-43728667D01*
X83161000Y-43365262D01*
X83161000Y-42994738D01*
X83088714Y-42631333D01*
X82946920Y-42289013D01*
X82741068Y-41980933D01*
X82548892Y-41788757D01*
X94019000Y-41788757D01*
X94019000Y-42031243D01*
X94066307Y-42269069D01*
X94159102Y-42493097D01*
X94293820Y-42694717D01*
X94465283Y-42866180D01*
X94666903Y-43000898D01*
X94890931Y-43093693D01*
X95128757Y-43141000D01*
X95371243Y-43141000D01*
X95609069Y-43093693D01*
X95833097Y-43000898D01*
X96034717Y-42866180D01*
X96206180Y-42694717D01*
X96340898Y-42493097D01*
X96433693Y-42269069D01*
X96481000Y-42031243D01*
X96481000Y-41788757D01*
X96559000Y-41788757D01*
X96559000Y-42031243D01*
X96606307Y-42269069D01*
X96699102Y-42493097D01*
X96833820Y-42694717D01*
X97005283Y-42866180D01*
X97206903Y-43000898D01*
X97430931Y-43093693D01*
X97668757Y-43141000D01*
X97911243Y-43141000D01*
X98149069Y-43093693D01*
X98373097Y-43000898D01*
X98574717Y-42866180D01*
X98746180Y-42694717D01*
X98880898Y-42493097D01*
X98973693Y-42269069D01*
X99021000Y-42031243D01*
X99021000Y-41788757D01*
X98973693Y-41550931D01*
X98880898Y-41326903D01*
X98746180Y-41125283D01*
X98574717Y-40953820D01*
X98373097Y-40819102D01*
X98149069Y-40726307D01*
X97911243Y-40679000D01*
X97668757Y-40679000D01*
X97430931Y-40726307D01*
X97206903Y-40819102D01*
X97005283Y-40953820D01*
X96833820Y-41125283D01*
X96699102Y-41326903D01*
X96606307Y-41550931D01*
X96559000Y-41788757D01*
X96481000Y-41788757D01*
X96433693Y-41550931D01*
X96340898Y-41326903D01*
X96206180Y-41125283D01*
X96034717Y-40953820D01*
X95833097Y-40819102D01*
X95609069Y-40726307D01*
X95371243Y-40679000D01*
X95128757Y-40679000D01*
X94890931Y-40726307D01*
X94666903Y-40819102D01*
X94465283Y-40953820D01*
X94293820Y-41125283D01*
X94159102Y-41326903D01*
X94066307Y-41550931D01*
X94019000Y-41788757D01*
X82548892Y-41788757D01*
X82479067Y-41718932D01*
X82170987Y-41513080D01*
X81828667Y-41371286D01*
X81465262Y-41299000D01*
X81094738Y-41299000D01*
X80731333Y-41371286D01*
X80389013Y-41513080D01*
X80080933Y-41718932D01*
X79818932Y-41980933D01*
X79613080Y-42289013D01*
X79471286Y-42631333D01*
X79399000Y-42994738D01*
X76631000Y-42994738D01*
X76631000Y-40661079D01*
X76673193Y-40230762D01*
X76792044Y-39837107D01*
X76985089Y-39474043D01*
X77244979Y-39155385D01*
X77561820Y-38893272D01*
X77923528Y-38697697D01*
X78316343Y-38576101D01*
X78745446Y-38531000D01*
X226038921Y-38531000D01*
X226469238Y-38573193D01*
M02*
