M48
; DRILL file {KiCad (5.1.6-0-10_14)} date Sunday, May 31, 2020 at 06:28:35 PM
; FORMAT={-:-/ absolute / inch / decimal}
; #@! TF.CreationDate,2020-05-31T18:28:35-07:00
; #@! TF.GenerationSoftware,Kicad,Pcbnew,(5.1.6-0-10_14)
; #@! TF.FileFunction,Plated,1,2,PTH
FMAT,2
INCH
T1C0.0130
T2C0.0200
T3C0.0300
T4C0.0394
T5C0.0709
T6C0.0984
%
G90
G05
T1
X3.5Y-1.7
X3.65Y-2.15
X5.85Y-2.575
X6.35Y-1.7
X6.35Y-2.25
X8.025Y-1.7
T2
X3.9Y-1.95
X4.0Y-1.95
T3
X5.8Y-2.7
X5.9Y-2.7
X6.0Y-2.7
X6.1Y-2.7
X6.2Y-2.7
T4
X5.425Y-2.35
X5.625Y-2.35
X6.2Y-2.45
X6.3Y-2.45
X6.4Y-2.45
X6.5Y-2.45
X6.6Y-1.65
X6.6Y-2.45
X6.7Y-1.65
X6.7Y-2.45
X6.8Y-1.65
X6.8Y-2.45
X6.9Y-1.65
X6.9Y-2.45
X7.0Y-1.65
X7.0Y-2.45
X7.1Y-1.65
X7.1Y-2.45
X7.2Y-1.65
X7.2Y-2.45
X7.3Y-1.65
X7.3Y-2.45
X7.4Y-1.65
X7.4Y-2.45
X7.5Y-1.65
X7.5Y-2.45
X7.6Y-1.65
X7.6Y-2.45
X7.7Y-1.65
X7.7Y-2.45
X8.6Y-2.7
X8.7Y-2.7
X5.2674Y-1.7
X5.2674Y-2.1
X5.3674Y-1.7
X5.3674Y-2.1
X5.4674Y-1.7
X5.4674Y-2.1
X5.5674Y-1.7
X5.5674Y-2.1
X5.6674Y-1.7
X5.6674Y-2.1
X5.7674Y-1.7
X5.7674Y-2.1
X8.3681Y-1.7862
X8.3681Y-2.3571
X8.4665Y-2.3571
X8.565Y-1.7862
X8.565Y-2.3571
X3.35Y-2.45
X3.45Y-2.45
X3.55Y-2.45
X3.65Y-2.45
X3.75Y-1.65
X3.75Y-2.45
X3.85Y-1.65
X3.85Y-2.45
X3.95Y-1.65
X3.95Y-2.45
X4.05Y-1.65
X4.05Y-2.45
X4.15Y-1.65
X4.15Y-2.45
X4.25Y-1.65
X4.25Y-2.45
X4.35Y-1.65
X4.35Y-2.45
X4.45Y-1.65
X4.45Y-2.45
X4.55Y-1.65
X4.55Y-2.45
X4.65Y-1.65
X4.65Y-2.45
X4.75Y-1.65
X4.75Y-2.45
X4.85Y-1.65
X4.85Y-2.45
T6
X6.05Y-1.7
X6.05Y-2.4
X3.2Y-1.7
X3.2Y-2.4
T5
G00X8.2421Y-2.0461
M15
G01X8.2421Y-2.0776
M16
G05
G00X8.6909Y-2.0461
M15
G01X8.6909Y-2.0776
M16
G05
T0
M30
