G04 #@! TF.GenerationSoftware,KiCad,Pcbnew,(5.1.6-0-10_14)*
G04 #@! TF.CreationDate,2020-08-03T12:58:00-07:00*
G04 #@! TF.ProjectId,Clock_MiniM4_Pelican,436c6f63-6b5f-44d6-996e-694d345f5065,v02*
G04 #@! TF.SameCoordinates,Original*
G04 #@! TF.FileFunction,Legend,Bot*
G04 #@! TF.FilePolarity,Positive*
%FSLAX46Y46*%
G04 Gerber Fmt 4.6, Leading zero omitted, Abs format (unit mm)*
G04 Created by KiCad (PCBNEW (5.1.6-0-10_14)) date 2020-08-03 12:58:00*
%MOMM*%
%LPD*%
G01*
G04 APERTURE LIST*
%ADD10C,0.150000*%
%ADD11C,0.300000*%
%ADD12C,0.120000*%
%ADD13C,0.200000*%
%ADD14C,0.100000*%
G04 APERTURE END LIST*
D10*
X212217000Y-66040000D02*
X212217000Y-71120000D01*
X92583000Y-66040000D02*
X92583000Y-71120000D01*
D11*
X152400000Y-57150000D02*
X152400000Y-52070000D01*
X149860000Y-54610000D02*
X154940000Y-54610000D01*
D12*
X88316333Y-66401904D02*
X88316333Y-65601904D01*
X88049666Y-66173333D01*
X87783000Y-65601904D01*
X87783000Y-66401904D01*
X87402047Y-66401904D02*
X87402047Y-65868571D01*
X87402047Y-65601904D02*
X87440142Y-65640000D01*
X87402047Y-65678095D01*
X87363952Y-65640000D01*
X87402047Y-65601904D01*
X87402047Y-65678095D01*
X86678238Y-66363809D02*
X86754428Y-66401904D01*
X86906809Y-66401904D01*
X86983000Y-66363809D01*
X87021095Y-66325714D01*
X87059190Y-66249523D01*
X87059190Y-66020952D01*
X87021095Y-65944761D01*
X86983000Y-65906666D01*
X86906809Y-65868571D01*
X86754428Y-65868571D01*
X86678238Y-65906666D01*
X86335380Y-66401904D02*
X86335380Y-65868571D01*
X86335380Y-66020952D02*
X86297285Y-65944761D01*
X86259190Y-65906666D01*
X86183000Y-65868571D01*
X86106809Y-65868571D01*
X85725857Y-66401904D02*
X85802047Y-66363809D01*
X85840142Y-66325714D01*
X85878238Y-66249523D01*
X85878238Y-66020952D01*
X85840142Y-65944761D01*
X85802047Y-65906666D01*
X85725857Y-65868571D01*
X85611571Y-65868571D01*
X85535380Y-65906666D01*
X85497285Y-65944761D01*
X85459190Y-66020952D01*
X85459190Y-66249523D01*
X85497285Y-66325714D01*
X85535380Y-66363809D01*
X85611571Y-66401904D01*
X85725857Y-66401904D01*
X84049666Y-66325714D02*
X84087761Y-66363809D01*
X84202047Y-66401904D01*
X84278238Y-66401904D01*
X84392523Y-66363809D01*
X84468714Y-66287619D01*
X84506809Y-66211428D01*
X84544904Y-66059047D01*
X84544904Y-65944761D01*
X84506809Y-65792380D01*
X84468714Y-65716190D01*
X84392523Y-65640000D01*
X84278238Y-65601904D01*
X84202047Y-65601904D01*
X84087761Y-65640000D01*
X84049666Y-65678095D01*
X83363952Y-66401904D02*
X83363952Y-65982857D01*
X83402047Y-65906666D01*
X83478238Y-65868571D01*
X83630619Y-65868571D01*
X83706809Y-65906666D01*
X83363952Y-66363809D02*
X83440142Y-66401904D01*
X83630619Y-66401904D01*
X83706809Y-66363809D01*
X83744904Y-66287619D01*
X83744904Y-66211428D01*
X83706809Y-66135238D01*
X83630619Y-66097142D01*
X83440142Y-66097142D01*
X83363952Y-66059047D01*
X83021095Y-66363809D02*
X82944904Y-66401904D01*
X82792523Y-66401904D01*
X82716333Y-66363809D01*
X82678238Y-66287619D01*
X82678238Y-66249523D01*
X82716333Y-66173333D01*
X82792523Y-66135238D01*
X82906809Y-66135238D01*
X82983000Y-66097142D01*
X83021095Y-66020952D01*
X83021095Y-65982857D01*
X82983000Y-65906666D01*
X82906809Y-65868571D01*
X82792523Y-65868571D01*
X82716333Y-65906666D01*
X82030619Y-66363809D02*
X82106809Y-66401904D01*
X82259190Y-66401904D01*
X82335380Y-66363809D01*
X82373476Y-66287619D01*
X82373476Y-65982857D01*
X82335380Y-65906666D01*
X82259190Y-65868571D01*
X82106809Y-65868571D01*
X82030619Y-65906666D01*
X81992523Y-65982857D01*
X81992523Y-66059047D01*
X82373476Y-66135238D01*
X80621095Y-66401904D02*
X81078238Y-66401904D01*
X80849666Y-66401904D02*
X80849666Y-65601904D01*
X80925857Y-65716190D01*
X81002047Y-65792380D01*
X81078238Y-65830476D01*
X80125857Y-65601904D02*
X80049666Y-65601904D01*
X79973476Y-65640000D01*
X79935380Y-65678095D01*
X79897285Y-65754285D01*
X79859190Y-65906666D01*
X79859190Y-66097142D01*
X79897285Y-66249523D01*
X79935380Y-66325714D01*
X79973476Y-66363809D01*
X80049666Y-66401904D01*
X80125857Y-66401904D01*
X80202047Y-66363809D01*
X80240142Y-66325714D01*
X80278238Y-66249523D01*
X80316333Y-66097142D01*
X80316333Y-65906666D01*
X80278238Y-65754285D01*
X80240142Y-65678095D01*
X80202047Y-65640000D01*
X80125857Y-65601904D01*
X79173476Y-65868571D02*
X79173476Y-66401904D01*
X79363952Y-65563809D02*
X79554428Y-66135238D01*
X79059190Y-66135238D01*
X78602047Y-65601904D02*
X78525857Y-65601904D01*
X78449666Y-65640000D01*
X78411571Y-65678095D01*
X78373476Y-65754285D01*
X78335380Y-65906666D01*
X78335380Y-66097142D01*
X78373476Y-66249523D01*
X78411571Y-66325714D01*
X78449666Y-66363809D01*
X78525857Y-66401904D01*
X78602047Y-66401904D01*
X78678238Y-66363809D01*
X78716333Y-66325714D01*
X78754428Y-66249523D01*
X78792523Y-66097142D01*
X78792523Y-65906666D01*
X78754428Y-65754285D01*
X78716333Y-65678095D01*
X78678238Y-65640000D01*
X78602047Y-65601904D01*
X90079380Y-68230714D02*
X90117476Y-68268809D01*
X90231761Y-68306904D01*
X90307952Y-68306904D01*
X90422238Y-68268809D01*
X90498428Y-68192619D01*
X90536523Y-68116428D01*
X90574619Y-67964047D01*
X90574619Y-67849761D01*
X90536523Y-67697380D01*
X90498428Y-67621190D01*
X90422238Y-67545000D01*
X90307952Y-67506904D01*
X90231761Y-67506904D01*
X90117476Y-67545000D01*
X90079380Y-67583095D01*
X89431761Y-68268809D02*
X89507952Y-68306904D01*
X89660333Y-68306904D01*
X89736523Y-68268809D01*
X89774619Y-68192619D01*
X89774619Y-67887857D01*
X89736523Y-67811666D01*
X89660333Y-67773571D01*
X89507952Y-67773571D01*
X89431761Y-67811666D01*
X89393666Y-67887857D01*
X89393666Y-67964047D01*
X89774619Y-68040238D01*
X88707952Y-68306904D02*
X88707952Y-67506904D01*
X88707952Y-68268809D02*
X88784142Y-68306904D01*
X88936523Y-68306904D01*
X89012714Y-68268809D01*
X89050809Y-68230714D01*
X89088904Y-68154523D01*
X89088904Y-67925952D01*
X89050809Y-67849761D01*
X89012714Y-67811666D01*
X88936523Y-67773571D01*
X88784142Y-67773571D01*
X88707952Y-67811666D01*
X87984142Y-68306904D02*
X87984142Y-67887857D01*
X88022238Y-67811666D01*
X88098428Y-67773571D01*
X88250809Y-67773571D01*
X88327000Y-67811666D01*
X87984142Y-68268809D02*
X88060333Y-68306904D01*
X88250809Y-68306904D01*
X88327000Y-68268809D01*
X88365095Y-68192619D01*
X88365095Y-68116428D01*
X88327000Y-68040238D01*
X88250809Y-68002142D01*
X88060333Y-68002142D01*
X87984142Y-67964047D01*
X87603190Y-68306904D02*
X87603190Y-67773571D01*
X87603190Y-67925952D02*
X87565095Y-67849761D01*
X87527000Y-67811666D01*
X87450809Y-67773571D01*
X87374619Y-67773571D01*
X86079380Y-67545000D02*
X86155571Y-67506904D01*
X86269857Y-67506904D01*
X86384142Y-67545000D01*
X86460333Y-67621190D01*
X86498428Y-67697380D01*
X86536523Y-67849761D01*
X86536523Y-67964047D01*
X86498428Y-68116428D01*
X86460333Y-68192619D01*
X86384142Y-68268809D01*
X86269857Y-68306904D01*
X86193666Y-68306904D01*
X86079380Y-68268809D01*
X86041285Y-68230714D01*
X86041285Y-67964047D01*
X86193666Y-67964047D01*
X85698428Y-68306904D02*
X85698428Y-67773571D01*
X85698428Y-67925952D02*
X85660333Y-67849761D01*
X85622238Y-67811666D01*
X85546047Y-67773571D01*
X85469857Y-67773571D01*
X85088904Y-68306904D02*
X85165095Y-68268809D01*
X85203190Y-68230714D01*
X85241285Y-68154523D01*
X85241285Y-67925952D01*
X85203190Y-67849761D01*
X85165095Y-67811666D01*
X85088904Y-67773571D01*
X84974619Y-67773571D01*
X84898428Y-67811666D01*
X84860333Y-67849761D01*
X84822238Y-67925952D01*
X84822238Y-68154523D01*
X84860333Y-68230714D01*
X84898428Y-68268809D01*
X84974619Y-68306904D01*
X85088904Y-68306904D01*
X84555571Y-67773571D02*
X84365095Y-68306904D01*
X84174619Y-67773571D01*
X83565095Y-68268809D02*
X83641285Y-68306904D01*
X83793666Y-68306904D01*
X83869857Y-68268809D01*
X83907952Y-68192619D01*
X83907952Y-67887857D01*
X83869857Y-67811666D01*
X83793666Y-67773571D01*
X83641285Y-67773571D01*
X83565095Y-67811666D01*
X83527000Y-67887857D01*
X83527000Y-67964047D01*
X83907952Y-68040238D01*
X82612714Y-68268809D02*
X82498428Y-68306904D01*
X82307952Y-68306904D01*
X82231761Y-68268809D01*
X82193666Y-68230714D01*
X82155571Y-68154523D01*
X82155571Y-68078333D01*
X82193666Y-68002142D01*
X82231761Y-67964047D01*
X82307952Y-67925952D01*
X82460333Y-67887857D01*
X82536523Y-67849761D01*
X82574619Y-67811666D01*
X82612714Y-67735476D01*
X82612714Y-67659285D01*
X82574619Y-67583095D01*
X82536523Y-67545000D01*
X82460333Y-67506904D01*
X82269857Y-67506904D01*
X82155571Y-67545000D01*
X81927000Y-67773571D02*
X81622238Y-67773571D01*
X81812714Y-67506904D02*
X81812714Y-68192619D01*
X81774619Y-68268809D01*
X81698428Y-68306904D01*
X81622238Y-68306904D01*
X81012714Y-67773571D02*
X81012714Y-68306904D01*
X81355571Y-67773571D02*
X81355571Y-68192619D01*
X81317476Y-68268809D01*
X81241285Y-68306904D01*
X81127000Y-68306904D01*
X81050809Y-68268809D01*
X81012714Y-68230714D01*
X80288904Y-68306904D02*
X80288904Y-67506904D01*
X80288904Y-68268809D02*
X80365095Y-68306904D01*
X80517476Y-68306904D01*
X80593666Y-68268809D01*
X80631761Y-68230714D01*
X80669857Y-68154523D01*
X80669857Y-67925952D01*
X80631761Y-67849761D01*
X80593666Y-67811666D01*
X80517476Y-67773571D01*
X80365095Y-67773571D01*
X80288904Y-67811666D01*
X79907952Y-68306904D02*
X79907952Y-67773571D01*
X79907952Y-67506904D02*
X79946047Y-67545000D01*
X79907952Y-67583095D01*
X79869857Y-67545000D01*
X79907952Y-67506904D01*
X79907952Y-67583095D01*
X79412714Y-68306904D02*
X79488904Y-68268809D01*
X79527000Y-68230714D01*
X79565095Y-68154523D01*
X79565095Y-67925952D01*
X79527000Y-67849761D01*
X79488904Y-67811666D01*
X79412714Y-67773571D01*
X79298428Y-67773571D01*
X79222238Y-67811666D01*
X79184142Y-67849761D01*
X79146047Y-67925952D01*
X79146047Y-68154523D01*
X79184142Y-68230714D01*
X79222238Y-68268809D01*
X79298428Y-68306904D01*
X79412714Y-68306904D01*
X78841285Y-68268809D02*
X78765095Y-68306904D01*
X78612714Y-68306904D01*
X78536523Y-68268809D01*
X78498428Y-68192619D01*
X78498428Y-68154523D01*
X78536523Y-68078333D01*
X78612714Y-68040238D01*
X78727000Y-68040238D01*
X78803190Y-68002142D01*
X78841285Y-67925952D01*
X78841285Y-67887857D01*
X78803190Y-67811666D01*
X78727000Y-67773571D01*
X78612714Y-67773571D01*
X78536523Y-67811666D01*
D13*
X93675476Y-65127142D02*
X93723095Y-65174761D01*
X93865952Y-65222380D01*
X93961190Y-65222380D01*
X94104047Y-65174761D01*
X94199285Y-65079523D01*
X94246904Y-64984285D01*
X94294523Y-64793809D01*
X94294523Y-64650952D01*
X94246904Y-64460476D01*
X94199285Y-64365238D01*
X94104047Y-64270000D01*
X93961190Y-64222380D01*
X93865952Y-64222380D01*
X93723095Y-64270000D01*
X93675476Y-64317619D01*
X93104047Y-65222380D02*
X93199285Y-65174761D01*
X93246904Y-65079523D01*
X93246904Y-64222380D01*
X92580238Y-65222380D02*
X92675476Y-65174761D01*
X92723095Y-65127142D01*
X92770714Y-65031904D01*
X92770714Y-64746190D01*
X92723095Y-64650952D01*
X92675476Y-64603333D01*
X92580238Y-64555714D01*
X92437380Y-64555714D01*
X92342142Y-64603333D01*
X92294523Y-64650952D01*
X92246904Y-64746190D01*
X92246904Y-65031904D01*
X92294523Y-65127142D01*
X92342142Y-65174761D01*
X92437380Y-65222380D01*
X92580238Y-65222380D01*
X91389761Y-65174761D02*
X91485000Y-65222380D01*
X91675476Y-65222380D01*
X91770714Y-65174761D01*
X91818333Y-65127142D01*
X91865952Y-65031904D01*
X91865952Y-64746190D01*
X91818333Y-64650952D01*
X91770714Y-64603333D01*
X91675476Y-64555714D01*
X91485000Y-64555714D01*
X91389761Y-64603333D01*
X90961190Y-65222380D02*
X90961190Y-64222380D01*
X90865952Y-64841428D02*
X90580238Y-65222380D01*
X90580238Y-64555714D02*
X90961190Y-64936666D01*
X89389761Y-65222380D02*
X89389761Y-64222380D01*
X89056428Y-64936666D01*
X88723095Y-64222380D01*
X88723095Y-65222380D01*
X88246904Y-65222380D02*
X88246904Y-64555714D01*
X88246904Y-64222380D02*
X88294523Y-64270000D01*
X88246904Y-64317619D01*
X88199285Y-64270000D01*
X88246904Y-64222380D01*
X88246904Y-64317619D01*
X87770714Y-64555714D02*
X87770714Y-65222380D01*
X87770714Y-64650952D02*
X87723095Y-64603333D01*
X87627857Y-64555714D01*
X87485000Y-64555714D01*
X87389761Y-64603333D01*
X87342142Y-64698571D01*
X87342142Y-65222380D01*
X86865952Y-65222380D02*
X86865952Y-64555714D01*
X86865952Y-64222380D02*
X86913571Y-64270000D01*
X86865952Y-64317619D01*
X86818333Y-64270000D01*
X86865952Y-64222380D01*
X86865952Y-64317619D01*
X86389761Y-65222380D02*
X86389761Y-64555714D01*
X86389761Y-64650952D02*
X86342142Y-64603333D01*
X86246904Y-64555714D01*
X86104047Y-64555714D01*
X86008809Y-64603333D01*
X85961190Y-64698571D01*
X85961190Y-65222380D01*
X85961190Y-64698571D02*
X85913571Y-64603333D01*
X85818333Y-64555714D01*
X85675476Y-64555714D01*
X85580238Y-64603333D01*
X85532619Y-64698571D01*
X85532619Y-65222380D01*
X84627857Y-65222380D02*
X84627857Y-64698571D01*
X84675476Y-64603333D01*
X84770714Y-64555714D01*
X84961190Y-64555714D01*
X85056428Y-64603333D01*
X84627857Y-65174761D02*
X84723095Y-65222380D01*
X84961190Y-65222380D01*
X85056428Y-65174761D01*
X85104047Y-65079523D01*
X85104047Y-64984285D01*
X85056428Y-64889047D01*
X84961190Y-64841428D01*
X84723095Y-64841428D01*
X84627857Y-64793809D01*
X83389761Y-65222380D02*
X83389761Y-64222380D01*
X83008809Y-64222380D01*
X82913571Y-64270000D01*
X82865952Y-64317619D01*
X82818333Y-64412857D01*
X82818333Y-64555714D01*
X82865952Y-64650952D01*
X82913571Y-64698571D01*
X83008809Y-64746190D01*
X83389761Y-64746190D01*
X82008809Y-65174761D02*
X82104047Y-65222380D01*
X82294523Y-65222380D01*
X82389761Y-65174761D01*
X82437380Y-65079523D01*
X82437380Y-64698571D01*
X82389761Y-64603333D01*
X82294523Y-64555714D01*
X82104047Y-64555714D01*
X82008809Y-64603333D01*
X81961190Y-64698571D01*
X81961190Y-64793809D01*
X82437380Y-64889047D01*
X81389761Y-65222380D02*
X81485000Y-65174761D01*
X81532619Y-65079523D01*
X81532619Y-64222380D01*
X81008809Y-65222380D02*
X81008809Y-64555714D01*
X81008809Y-64222380D02*
X81056428Y-64270000D01*
X81008809Y-64317619D01*
X80961190Y-64270000D01*
X81008809Y-64222380D01*
X81008809Y-64317619D01*
X80104047Y-65174761D02*
X80199285Y-65222380D01*
X80389761Y-65222380D01*
X80485000Y-65174761D01*
X80532619Y-65127142D01*
X80580238Y-65031904D01*
X80580238Y-64746190D01*
X80532619Y-64650952D01*
X80485000Y-64603333D01*
X80389761Y-64555714D01*
X80199285Y-64555714D01*
X80104047Y-64603333D01*
X79246904Y-65222380D02*
X79246904Y-64698571D01*
X79294523Y-64603333D01*
X79389761Y-64555714D01*
X79580238Y-64555714D01*
X79675476Y-64603333D01*
X79246904Y-65174761D02*
X79342142Y-65222380D01*
X79580238Y-65222380D01*
X79675476Y-65174761D01*
X79723095Y-65079523D01*
X79723095Y-64984285D01*
X79675476Y-64889047D01*
X79580238Y-64841428D01*
X79342142Y-64841428D01*
X79246904Y-64793809D01*
X78770714Y-64555714D02*
X78770714Y-65222380D01*
X78770714Y-64650952D02*
X78723095Y-64603333D01*
X78627857Y-64555714D01*
X78485000Y-64555714D01*
X78389761Y-64603333D01*
X78342142Y-64698571D01*
X78342142Y-65222380D01*
D12*
X88669619Y-68853095D02*
X88631523Y-68815000D01*
X88555333Y-68776904D01*
X88364857Y-68776904D01*
X88288666Y-68815000D01*
X88250571Y-68853095D01*
X88212476Y-68929285D01*
X88212476Y-69005476D01*
X88250571Y-69119761D01*
X88707714Y-69576904D01*
X88212476Y-69576904D01*
X87717238Y-68776904D02*
X87641047Y-68776904D01*
X87564857Y-68815000D01*
X87526761Y-68853095D01*
X87488666Y-68929285D01*
X87450571Y-69081666D01*
X87450571Y-69272142D01*
X87488666Y-69424523D01*
X87526761Y-69500714D01*
X87564857Y-69538809D01*
X87641047Y-69576904D01*
X87717238Y-69576904D01*
X87793428Y-69538809D01*
X87831523Y-69500714D01*
X87869619Y-69424523D01*
X87907714Y-69272142D01*
X87907714Y-69081666D01*
X87869619Y-68929285D01*
X87831523Y-68853095D01*
X87793428Y-68815000D01*
X87717238Y-68776904D01*
X87145809Y-68853095D02*
X87107714Y-68815000D01*
X87031523Y-68776904D01*
X86841047Y-68776904D01*
X86764857Y-68815000D01*
X86726761Y-68853095D01*
X86688666Y-68929285D01*
X86688666Y-69005476D01*
X86726761Y-69119761D01*
X87183904Y-69576904D01*
X86688666Y-69576904D01*
X86193428Y-68776904D02*
X86117238Y-68776904D01*
X86041047Y-68815000D01*
X86002952Y-68853095D01*
X85964857Y-68929285D01*
X85926761Y-69081666D01*
X85926761Y-69272142D01*
X85964857Y-69424523D01*
X86002952Y-69500714D01*
X86041047Y-69538809D01*
X86117238Y-69576904D01*
X86193428Y-69576904D01*
X86269619Y-69538809D01*
X86307714Y-69500714D01*
X86345809Y-69424523D01*
X86383904Y-69272142D01*
X86383904Y-69081666D01*
X86345809Y-68929285D01*
X86307714Y-68853095D01*
X86269619Y-68815000D01*
X86193428Y-68776904D01*
X85583904Y-69272142D02*
X84974380Y-69272142D01*
X84441047Y-68776904D02*
X84364857Y-68776904D01*
X84288666Y-68815000D01*
X84250571Y-68853095D01*
X84212476Y-68929285D01*
X84174380Y-69081666D01*
X84174380Y-69272142D01*
X84212476Y-69424523D01*
X84250571Y-69500714D01*
X84288666Y-69538809D01*
X84364857Y-69576904D01*
X84441047Y-69576904D01*
X84517238Y-69538809D01*
X84555333Y-69500714D01*
X84593428Y-69424523D01*
X84631523Y-69272142D01*
X84631523Y-69081666D01*
X84593428Y-68929285D01*
X84555333Y-68853095D01*
X84517238Y-68815000D01*
X84441047Y-68776904D01*
X83907714Y-68776904D02*
X83374380Y-68776904D01*
X83717238Y-69576904D01*
X83069619Y-69272142D02*
X82460095Y-69272142D01*
X82117238Y-68853095D02*
X82079142Y-68815000D01*
X82002952Y-68776904D01*
X81812476Y-68776904D01*
X81736285Y-68815000D01*
X81698190Y-68853095D01*
X81660095Y-68929285D01*
X81660095Y-69005476D01*
X81698190Y-69119761D01*
X82155333Y-69576904D01*
X81660095Y-69576904D01*
X80974380Y-69043571D02*
X80974380Y-69576904D01*
X81164857Y-68738809D02*
X81355333Y-69310238D01*
X80860095Y-69310238D01*
X80022000Y-69043571D02*
X79831523Y-69576904D01*
X79641047Y-69043571D01*
X79183904Y-68776904D02*
X79107714Y-68776904D01*
X79031523Y-68815000D01*
X78993428Y-68853095D01*
X78955333Y-68929285D01*
X78917238Y-69081666D01*
X78917238Y-69272142D01*
X78955333Y-69424523D01*
X78993428Y-69500714D01*
X79031523Y-69538809D01*
X79107714Y-69576904D01*
X79183904Y-69576904D01*
X79260095Y-69538809D01*
X79298190Y-69500714D01*
X79336285Y-69424523D01*
X79374380Y-69272142D01*
X79374380Y-69081666D01*
X79336285Y-68929285D01*
X79298190Y-68853095D01*
X79260095Y-68815000D01*
X79183904Y-68776904D01*
X78612476Y-68853095D02*
X78574380Y-68815000D01*
X78498190Y-68776904D01*
X78307714Y-68776904D01*
X78231523Y-68815000D01*
X78193428Y-68853095D01*
X78155333Y-68929285D01*
X78155333Y-69005476D01*
X78193428Y-69119761D01*
X78650571Y-69576904D01*
X78155333Y-69576904D01*
X185151523Y-52431904D02*
X185151523Y-51631904D01*
X184884857Y-52203333D01*
X184618190Y-51631904D01*
X184618190Y-52431904D01*
X184275333Y-51708095D02*
X184237238Y-51670000D01*
X184161047Y-51631904D01*
X183970571Y-51631904D01*
X183894380Y-51670000D01*
X183856285Y-51708095D01*
X183818190Y-51784285D01*
X183818190Y-51860476D01*
X183856285Y-51974761D01*
X184313428Y-52431904D01*
X183818190Y-52431904D01*
X182256285Y-52431904D02*
X182256285Y-51631904D01*
X182065809Y-51631904D01*
X181951523Y-51670000D01*
X181875333Y-51746190D01*
X181837238Y-51822380D01*
X181799142Y-51974761D01*
X181799142Y-52089047D01*
X181837238Y-52241428D01*
X181875333Y-52317619D01*
X181951523Y-52393809D01*
X182065809Y-52431904D01*
X182256285Y-52431904D01*
X181494380Y-52393809D02*
X181380095Y-52431904D01*
X181189619Y-52431904D01*
X181113428Y-52393809D01*
X181075333Y-52355714D01*
X181037238Y-52279523D01*
X181037238Y-52203333D01*
X181075333Y-52127142D01*
X181113428Y-52089047D01*
X181189619Y-52050952D01*
X181342000Y-52012857D01*
X181418190Y-51974761D01*
X181456285Y-51936666D01*
X181494380Y-51860476D01*
X181494380Y-51784285D01*
X181456285Y-51708095D01*
X181418190Y-51670000D01*
X181342000Y-51631904D01*
X181151523Y-51631904D01*
X181037238Y-51670000D01*
X180770571Y-51631904D02*
X180275333Y-51631904D01*
X180542000Y-51936666D01*
X180427714Y-51936666D01*
X180351523Y-51974761D01*
X180313428Y-52012857D01*
X180275333Y-52089047D01*
X180275333Y-52279523D01*
X180313428Y-52355714D01*
X180351523Y-52393809D01*
X180427714Y-52431904D01*
X180656285Y-52431904D01*
X180732476Y-52393809D01*
X180770571Y-52355714D01*
X179970571Y-51708095D02*
X179932476Y-51670000D01*
X179856285Y-51631904D01*
X179665809Y-51631904D01*
X179589619Y-51670000D01*
X179551523Y-51708095D01*
X179513428Y-51784285D01*
X179513428Y-51860476D01*
X179551523Y-51974761D01*
X180008666Y-52431904D01*
X179513428Y-52431904D01*
X179246761Y-51631904D02*
X178751523Y-51631904D01*
X179018190Y-51936666D01*
X178903904Y-51936666D01*
X178827714Y-51974761D01*
X178789619Y-52012857D01*
X178751523Y-52089047D01*
X178751523Y-52279523D01*
X178789619Y-52355714D01*
X178827714Y-52393809D01*
X178903904Y-52431904D01*
X179132476Y-52431904D01*
X179208666Y-52393809D01*
X179246761Y-52355714D01*
X177989619Y-52431904D02*
X178446761Y-52431904D01*
X178218190Y-52431904D02*
X178218190Y-51631904D01*
X178294380Y-51746190D01*
X178370571Y-51822380D01*
X178446761Y-51860476D01*
X177837238Y-52508095D02*
X177227714Y-52508095D01*
X176580095Y-52431904D02*
X176846761Y-52050952D01*
X177037238Y-52431904D02*
X177037238Y-51631904D01*
X176732476Y-51631904D01*
X176656285Y-51670000D01*
X176618190Y-51708095D01*
X176580095Y-51784285D01*
X176580095Y-51898571D01*
X176618190Y-51974761D01*
X176656285Y-52012857D01*
X176732476Y-52050952D01*
X177037238Y-52050952D01*
X176351523Y-51631904D02*
X175894380Y-51631904D01*
X176122952Y-52431904D02*
X176122952Y-51631904D01*
X175170571Y-52355714D02*
X175208666Y-52393809D01*
X175322952Y-52431904D01*
X175399142Y-52431904D01*
X175513428Y-52393809D01*
X175589619Y-52317619D01*
X175627714Y-52241428D01*
X175665809Y-52089047D01*
X175665809Y-51974761D01*
X175627714Y-51822380D01*
X175589619Y-51746190D01*
X175513428Y-51670000D01*
X175399142Y-51631904D01*
X175322952Y-51631904D01*
X175208666Y-51670000D01*
X175170571Y-51708095D01*
X175018190Y-52508095D02*
X174408666Y-52508095D01*
X173951523Y-52012857D02*
X174218190Y-52012857D01*
X174218190Y-52431904D02*
X174218190Y-51631904D01*
X173837238Y-51631904D01*
X173227714Y-52393809D02*
X173303904Y-52431904D01*
X173456285Y-52431904D01*
X173532476Y-52393809D01*
X173570571Y-52317619D01*
X173570571Y-52012857D01*
X173532476Y-51936666D01*
X173456285Y-51898571D01*
X173303904Y-51898571D01*
X173227714Y-51936666D01*
X173189619Y-52012857D01*
X173189619Y-52089047D01*
X173570571Y-52165238D01*
X172503904Y-52431904D02*
X172503904Y-52012857D01*
X172542000Y-51936666D01*
X172618190Y-51898571D01*
X172770571Y-51898571D01*
X172846761Y-51936666D01*
X172503904Y-52393809D02*
X172580095Y-52431904D01*
X172770571Y-52431904D01*
X172846761Y-52393809D01*
X172884857Y-52317619D01*
X172884857Y-52241428D01*
X172846761Y-52165238D01*
X172770571Y-52127142D01*
X172580095Y-52127142D01*
X172503904Y-52089047D01*
X172237238Y-51898571D02*
X171932476Y-51898571D01*
X172122952Y-51631904D02*
X172122952Y-52317619D01*
X172084857Y-52393809D01*
X172008666Y-52431904D01*
X171932476Y-52431904D01*
X171665809Y-52431904D02*
X171665809Y-51631904D01*
X171322952Y-52431904D02*
X171322952Y-52012857D01*
X171361047Y-51936666D01*
X171437238Y-51898571D01*
X171551523Y-51898571D01*
X171627714Y-51936666D01*
X171665809Y-51974761D01*
X170637238Y-52393809D02*
X170713428Y-52431904D01*
X170865809Y-52431904D01*
X170942000Y-52393809D01*
X170980095Y-52317619D01*
X170980095Y-52012857D01*
X170942000Y-51936666D01*
X170865809Y-51898571D01*
X170713428Y-51898571D01*
X170637238Y-51936666D01*
X170599142Y-52012857D01*
X170599142Y-52089047D01*
X170980095Y-52165238D01*
X170256285Y-52431904D02*
X170256285Y-51898571D01*
X170256285Y-52050952D02*
X170218190Y-51974761D01*
X170180095Y-51936666D01*
X170103904Y-51898571D01*
X170027714Y-51898571D01*
X169837238Y-51631904D02*
X169646761Y-52431904D01*
X169494380Y-51860476D01*
X169342000Y-52431904D01*
X169151523Y-51631904D01*
X168846761Y-52431904D02*
X168846761Y-51898571D01*
X168846761Y-51631904D02*
X168884857Y-51670000D01*
X168846761Y-51708095D01*
X168808666Y-51670000D01*
X168846761Y-51631904D01*
X168846761Y-51708095D01*
X168465809Y-51898571D02*
X168465809Y-52431904D01*
X168465809Y-51974761D02*
X168427714Y-51936666D01*
X168351523Y-51898571D01*
X168237238Y-51898571D01*
X168161047Y-51936666D01*
X168122952Y-52012857D01*
X168122952Y-52431904D01*
X167399142Y-51898571D02*
X167399142Y-52546190D01*
X167437238Y-52622380D01*
X167475333Y-52660476D01*
X167551523Y-52698571D01*
X167665809Y-52698571D01*
X167742000Y-52660476D01*
X167399142Y-52393809D02*
X167475333Y-52431904D01*
X167627714Y-52431904D01*
X167703904Y-52393809D01*
X167742000Y-52355714D01*
X167780095Y-52279523D01*
X167780095Y-52050952D01*
X167742000Y-51974761D01*
X167703904Y-51936666D01*
X167627714Y-51898571D01*
X167475333Y-51898571D01*
X167399142Y-51936666D01*
X167208666Y-52508095D02*
X166599142Y-52508095D01*
X166484857Y-51631904D02*
X165989619Y-51631904D01*
X166256285Y-51936666D01*
X166142000Y-51936666D01*
X166065809Y-51974761D01*
X166027714Y-52012857D01*
X165989619Y-52089047D01*
X165989619Y-52279523D01*
X166027714Y-52355714D01*
X166065809Y-52393809D01*
X166142000Y-52431904D01*
X166370571Y-52431904D01*
X166446761Y-52393809D01*
X166484857Y-52355714D01*
X165494380Y-51631904D02*
X165418190Y-51631904D01*
X165342000Y-51670000D01*
X165303904Y-51708095D01*
X165265809Y-51784285D01*
X165227714Y-51936666D01*
X165227714Y-52127142D01*
X165265809Y-52279523D01*
X165303904Y-52355714D01*
X165342000Y-52393809D01*
X165418190Y-52431904D01*
X165494380Y-52431904D01*
X165570571Y-52393809D01*
X165608666Y-52355714D01*
X165646761Y-52279523D01*
X165684857Y-52127142D01*
X165684857Y-51936666D01*
X165646761Y-51784285D01*
X165608666Y-51708095D01*
X165570571Y-51670000D01*
X165494380Y-51631904D01*
X164922952Y-51708095D02*
X164884857Y-51670000D01*
X164808666Y-51631904D01*
X164618190Y-51631904D01*
X164542000Y-51670000D01*
X164503904Y-51708095D01*
X164465809Y-51784285D01*
X164465809Y-51860476D01*
X164503904Y-51974761D01*
X164961047Y-52431904D01*
X164465809Y-52431904D01*
X164008666Y-51974761D02*
X164084857Y-51936666D01*
X164122952Y-51898571D01*
X164161047Y-51822380D01*
X164161047Y-51784285D01*
X164122952Y-51708095D01*
X164084857Y-51670000D01*
X164008666Y-51631904D01*
X163856285Y-51631904D01*
X163780095Y-51670000D01*
X163742000Y-51708095D01*
X163703904Y-51784285D01*
X163703904Y-51822380D01*
X163742000Y-51898571D01*
X163780095Y-51936666D01*
X163856285Y-51974761D01*
X164008666Y-51974761D01*
X164084857Y-52012857D01*
X164122952Y-52050952D01*
X164161047Y-52127142D01*
X164161047Y-52279523D01*
X164122952Y-52355714D01*
X164084857Y-52393809D01*
X164008666Y-52431904D01*
X163856285Y-52431904D01*
X163780095Y-52393809D01*
X163742000Y-52355714D01*
X163703904Y-52279523D01*
X163703904Y-52127142D01*
X163742000Y-52050952D01*
X163780095Y-52012857D01*
X163856285Y-51974761D01*
X140982619Y-47326904D02*
X140982619Y-46526904D01*
X140715952Y-47098333D01*
X140449285Y-46526904D01*
X140449285Y-47326904D01*
X140144523Y-46526904D02*
X139649285Y-46526904D01*
X139915952Y-46831666D01*
X139801666Y-46831666D01*
X139725476Y-46869761D01*
X139687380Y-46907857D01*
X139649285Y-46984047D01*
X139649285Y-47174523D01*
X139687380Y-47250714D01*
X139725476Y-47288809D01*
X139801666Y-47326904D01*
X140030238Y-47326904D01*
X140106428Y-47288809D01*
X140144523Y-47250714D01*
X147915952Y-48113571D02*
X147915952Y-48646904D01*
X148106428Y-47808809D02*
X148296904Y-48380238D01*
X147801666Y-48380238D01*
X147496904Y-48342142D02*
X146887380Y-48342142D01*
X146239761Y-48227857D02*
X146125476Y-48265952D01*
X146087380Y-48304047D01*
X146049285Y-48380238D01*
X146049285Y-48494523D01*
X146087380Y-48570714D01*
X146125476Y-48608809D01*
X146201666Y-48646904D01*
X146506428Y-48646904D01*
X146506428Y-47846904D01*
X146239761Y-47846904D01*
X146163571Y-47885000D01*
X146125476Y-47923095D01*
X146087380Y-47999285D01*
X146087380Y-48075476D01*
X146125476Y-48151666D01*
X146163571Y-48189761D01*
X146239761Y-48227857D01*
X146506428Y-48227857D01*
X145706428Y-48646904D02*
X145706428Y-48113571D01*
X145706428Y-47846904D02*
X145744523Y-47885000D01*
X145706428Y-47923095D01*
X145668333Y-47885000D01*
X145706428Y-47846904D01*
X145706428Y-47923095D01*
X145439761Y-48113571D02*
X145135000Y-48113571D01*
X145325476Y-47846904D02*
X145325476Y-48532619D01*
X145287380Y-48608809D01*
X145211190Y-48646904D01*
X145135000Y-48646904D01*
X145058809Y-48723095D02*
X144449285Y-48723095D01*
X143877857Y-48646904D02*
X144258809Y-48646904D01*
X144258809Y-47846904D01*
X143306428Y-48608809D02*
X143382619Y-48646904D01*
X143535000Y-48646904D01*
X143611190Y-48608809D01*
X143649285Y-48532619D01*
X143649285Y-48227857D01*
X143611190Y-48151666D01*
X143535000Y-48113571D01*
X143382619Y-48113571D01*
X143306428Y-48151666D01*
X143268333Y-48227857D01*
X143268333Y-48304047D01*
X143649285Y-48380238D01*
X143001666Y-48113571D02*
X142811190Y-48646904D01*
X142620714Y-48113571D01*
X142011190Y-48608809D02*
X142087380Y-48646904D01*
X142239761Y-48646904D01*
X142315952Y-48608809D01*
X142354047Y-48532619D01*
X142354047Y-48227857D01*
X142315952Y-48151666D01*
X142239761Y-48113571D01*
X142087380Y-48113571D01*
X142011190Y-48151666D01*
X141973095Y-48227857D01*
X141973095Y-48304047D01*
X142354047Y-48380238D01*
X141515952Y-48646904D02*
X141592142Y-48608809D01*
X141630238Y-48532619D01*
X141630238Y-47846904D01*
X141401666Y-48723095D02*
X140792142Y-48723095D01*
X140144523Y-48570714D02*
X140182619Y-48608809D01*
X140296904Y-48646904D01*
X140373095Y-48646904D01*
X140487380Y-48608809D01*
X140563571Y-48532619D01*
X140601666Y-48456428D01*
X140639761Y-48304047D01*
X140639761Y-48189761D01*
X140601666Y-48037380D01*
X140563571Y-47961190D01*
X140487380Y-47885000D01*
X140373095Y-47846904D01*
X140296904Y-47846904D01*
X140182619Y-47885000D01*
X140144523Y-47923095D01*
X139687380Y-48646904D02*
X139763571Y-48608809D01*
X139801666Y-48570714D01*
X139839761Y-48494523D01*
X139839761Y-48265952D01*
X139801666Y-48189761D01*
X139763571Y-48151666D01*
X139687380Y-48113571D01*
X139573095Y-48113571D01*
X139496904Y-48151666D01*
X139458809Y-48189761D01*
X139420714Y-48265952D01*
X139420714Y-48494523D01*
X139458809Y-48570714D01*
X139496904Y-48608809D01*
X139573095Y-48646904D01*
X139687380Y-48646904D01*
X139077857Y-48113571D02*
X139077857Y-48646904D01*
X139077857Y-48189761D02*
X139039761Y-48151666D01*
X138963571Y-48113571D01*
X138849285Y-48113571D01*
X138773095Y-48151666D01*
X138735000Y-48227857D01*
X138735000Y-48646904D01*
X138430238Y-48113571D02*
X138239761Y-48646904D01*
X138049285Y-48113571D01*
X137439761Y-48608809D02*
X137515952Y-48646904D01*
X137668333Y-48646904D01*
X137744523Y-48608809D01*
X137782619Y-48532619D01*
X137782619Y-48227857D01*
X137744523Y-48151666D01*
X137668333Y-48113571D01*
X137515952Y-48113571D01*
X137439761Y-48151666D01*
X137401666Y-48227857D01*
X137401666Y-48304047D01*
X137782619Y-48380238D01*
X137058809Y-48646904D02*
X137058809Y-48113571D01*
X137058809Y-48265952D02*
X137020714Y-48189761D01*
X136982619Y-48151666D01*
X136906428Y-48113571D01*
X136830238Y-48113571D01*
X136677857Y-48113571D02*
X136373095Y-48113571D01*
X136563571Y-47846904D02*
X136563571Y-48532619D01*
X136525476Y-48608809D01*
X136449285Y-48646904D01*
X136373095Y-48646904D01*
X135801666Y-48608809D02*
X135877857Y-48646904D01*
X136030238Y-48646904D01*
X136106428Y-48608809D01*
X136144523Y-48532619D01*
X136144523Y-48227857D01*
X136106428Y-48151666D01*
X136030238Y-48113571D01*
X135877857Y-48113571D01*
X135801666Y-48151666D01*
X135763571Y-48227857D01*
X135763571Y-48304047D01*
X136144523Y-48380238D01*
X135420714Y-48646904D02*
X135420714Y-48113571D01*
X135420714Y-48265952D02*
X135382619Y-48189761D01*
X135344523Y-48151666D01*
X135268333Y-48113571D01*
X135192142Y-48113571D01*
X135115952Y-48723095D02*
X134506428Y-48723095D01*
X134392142Y-47846904D02*
X133858809Y-47846904D01*
X134201666Y-48646904D01*
X133173095Y-47846904D02*
X133554047Y-47846904D01*
X133592142Y-48227857D01*
X133554047Y-48189761D01*
X133477857Y-48151666D01*
X133287380Y-48151666D01*
X133211190Y-48189761D01*
X133173095Y-48227857D01*
X133135000Y-48304047D01*
X133135000Y-48494523D01*
X133173095Y-48570714D01*
X133211190Y-48608809D01*
X133287380Y-48646904D01*
X133477857Y-48646904D01*
X133554047Y-48608809D01*
X133592142Y-48570714D01*
X132868333Y-47846904D02*
X132335000Y-47846904D01*
X132677857Y-48646904D01*
X110856523Y-52431904D02*
X110856523Y-51631904D01*
X110589857Y-52203333D01*
X110323190Y-51631904D01*
X110323190Y-52431904D01*
X109523190Y-52431904D02*
X109980333Y-52431904D01*
X109751761Y-52431904D02*
X109751761Y-51631904D01*
X109827952Y-51746190D01*
X109904142Y-51822380D01*
X109980333Y-51860476D01*
X107694619Y-52012857D02*
X107961285Y-52012857D01*
X107961285Y-52431904D02*
X107961285Y-51631904D01*
X107580333Y-51631904D01*
X106970809Y-52393809D02*
X107047000Y-52431904D01*
X107199380Y-52431904D01*
X107275571Y-52393809D01*
X107313666Y-52317619D01*
X107313666Y-52012857D01*
X107275571Y-51936666D01*
X107199380Y-51898571D01*
X107047000Y-51898571D01*
X106970809Y-51936666D01*
X106932714Y-52012857D01*
X106932714Y-52089047D01*
X107313666Y-52165238D01*
X106247000Y-52431904D02*
X106247000Y-52012857D01*
X106285095Y-51936666D01*
X106361285Y-51898571D01*
X106513666Y-51898571D01*
X106589857Y-51936666D01*
X106247000Y-52393809D02*
X106323190Y-52431904D01*
X106513666Y-52431904D01*
X106589857Y-52393809D01*
X106627952Y-52317619D01*
X106627952Y-52241428D01*
X106589857Y-52165238D01*
X106513666Y-52127142D01*
X106323190Y-52127142D01*
X106247000Y-52089047D01*
X105980333Y-51898571D02*
X105675571Y-51898571D01*
X105866047Y-51631904D02*
X105866047Y-52317619D01*
X105827952Y-52393809D01*
X105751761Y-52431904D01*
X105675571Y-52431904D01*
X105408904Y-52431904D02*
X105408904Y-51631904D01*
X105066047Y-52431904D02*
X105066047Y-52012857D01*
X105104142Y-51936666D01*
X105180333Y-51898571D01*
X105294619Y-51898571D01*
X105370809Y-51936666D01*
X105408904Y-51974761D01*
X104380333Y-52393809D02*
X104456523Y-52431904D01*
X104608904Y-52431904D01*
X104685095Y-52393809D01*
X104723190Y-52317619D01*
X104723190Y-52012857D01*
X104685095Y-51936666D01*
X104608904Y-51898571D01*
X104456523Y-51898571D01*
X104380333Y-51936666D01*
X104342238Y-52012857D01*
X104342238Y-52089047D01*
X104723190Y-52165238D01*
X103999380Y-52431904D02*
X103999380Y-51898571D01*
X103999380Y-52050952D02*
X103961285Y-51974761D01*
X103923190Y-51936666D01*
X103847000Y-51898571D01*
X103770809Y-51898571D01*
X103694619Y-52508095D02*
X103085095Y-52508095D01*
X102894619Y-52431904D02*
X102894619Y-51631904D01*
X102627952Y-52203333D01*
X102361285Y-51631904D01*
X102361285Y-52431904D01*
X101637476Y-51898571D02*
X101637476Y-52431904D01*
X101827952Y-51593809D02*
X102018428Y-52165238D01*
X101523190Y-52165238D01*
X101408904Y-52508095D02*
X100799380Y-52508095D01*
X100608904Y-52012857D02*
X100342238Y-52012857D01*
X100227952Y-52431904D02*
X100608904Y-52431904D01*
X100608904Y-51631904D01*
X100227952Y-51631904D01*
X99961285Y-52431904D02*
X99542238Y-51898571D01*
X99961285Y-51898571D02*
X99542238Y-52431904D01*
X99237476Y-51898571D02*
X99237476Y-52698571D01*
X99237476Y-51936666D02*
X99161285Y-51898571D01*
X99008904Y-51898571D01*
X98932714Y-51936666D01*
X98894619Y-51974761D01*
X98856523Y-52050952D01*
X98856523Y-52279523D01*
X98894619Y-52355714D01*
X98932714Y-52393809D01*
X99008904Y-52431904D01*
X99161285Y-52431904D01*
X99237476Y-52393809D01*
X98513666Y-52431904D02*
X98513666Y-51898571D01*
X98513666Y-52050952D02*
X98475571Y-51974761D01*
X98437476Y-51936666D01*
X98361285Y-51898571D01*
X98285095Y-51898571D01*
X97713666Y-52393809D02*
X97789857Y-52431904D01*
X97942238Y-52431904D01*
X98018428Y-52393809D01*
X98056523Y-52317619D01*
X98056523Y-52012857D01*
X98018428Y-51936666D01*
X97942238Y-51898571D01*
X97789857Y-51898571D01*
X97713666Y-51936666D01*
X97675571Y-52012857D01*
X97675571Y-52089047D01*
X98056523Y-52165238D01*
X97370809Y-52393809D02*
X97294619Y-52431904D01*
X97142238Y-52431904D01*
X97066047Y-52393809D01*
X97027952Y-52317619D01*
X97027952Y-52279523D01*
X97066047Y-52203333D01*
X97142238Y-52165238D01*
X97256523Y-52165238D01*
X97332714Y-52127142D01*
X97370809Y-52050952D01*
X97370809Y-52012857D01*
X97332714Y-51936666D01*
X97256523Y-51898571D01*
X97142238Y-51898571D01*
X97066047Y-51936666D01*
X96723190Y-52393809D02*
X96647000Y-52431904D01*
X96494619Y-52431904D01*
X96418428Y-52393809D01*
X96380333Y-52317619D01*
X96380333Y-52279523D01*
X96418428Y-52203333D01*
X96494619Y-52165238D01*
X96608904Y-52165238D01*
X96685095Y-52127142D01*
X96723190Y-52050952D01*
X96723190Y-52012857D01*
X96685095Y-51936666D01*
X96608904Y-51898571D01*
X96494619Y-51898571D01*
X96418428Y-51936666D01*
D14*
X152400000Y-116825590D02*
X212217000Y-116840000D01*
X212217000Y-116825590D02*
X212217000Y-91425590D01*
X92583000Y-116840000D02*
X152400000Y-116825590D01*
X212217000Y-91440000D02*
X212217000Y-66040000D01*
X92583000Y-116840000D02*
X92583000Y-91440000D01*
X92583000Y-71120000D02*
X212217000Y-71120000D01*
X92583000Y-111760000D02*
X212217000Y-111760000D01*
X92583000Y-91440000D02*
X92583000Y-66040000D01*
X92583000Y-66040000D02*
X152400000Y-66025590D01*
X152400000Y-66025590D02*
X212217000Y-66040000D01*
X212217000Y-68580000D02*
X208661000Y-68580000D01*
X208661000Y-71140546D02*
X208661000Y-66060546D01*
X212217000Y-114300000D02*
X208661000Y-114300000D01*
X208661000Y-116852156D02*
X208661000Y-111772156D01*
X96139000Y-116838262D02*
X96139000Y-111758262D01*
X96139000Y-114298262D02*
X92583000Y-114298262D01*
X96139000Y-71120000D02*
X96139000Y-66040000D01*
X96139000Y-68580000D02*
X92583000Y-68580000D01*
X133350000Y-40640000D02*
X148590000Y-40640000D01*
X132080000Y-54610000D02*
X132080000Y-41910000D01*
X148590000Y-55880000D02*
X133350000Y-55880000D01*
X149860000Y-41910000D02*
X149860000Y-54610000D01*
X149860000Y-54610000D02*
G75*
G02*
X148590000Y-55880000I-1270000J0D01*
G01*
X148590000Y-40640000D02*
G75*
G02*
X149860000Y-41910000I0J-1270000D01*
G01*
X132080000Y-41910000D02*
G75*
G02*
X133350000Y-40640000I1270000J0D01*
G01*
X133350000Y-55880000D02*
G75*
G02*
X132080000Y-54610000I0J1270000D01*
G01*
X203200000Y-63500000D02*
X152400000Y-63500000D01*
X203200000Y-40640000D02*
X203200000Y-63500000D01*
X152400000Y-40640000D02*
X203200000Y-40640000D01*
X152400000Y-63500000D02*
X152400000Y-40640000D01*
X214415000Y-61120000D02*
X214415000Y-44120000D01*
X207065000Y-52370000D02*
X221665000Y-52370000D01*
X217915001Y-52370000D02*
G75*
G03*
X217915001Y-52370000I-3512834J0D01*
G01*
X129600000Y-63530000D02*
X78800000Y-63530000D01*
X129600000Y-40670000D02*
X129600000Y-63530000D01*
X78800000Y-40670000D02*
X129600000Y-40670000D01*
X78800000Y-63530000D02*
X78800000Y-40670000D01*
D12*
X203860000Y-68215000D02*
X203860000Y-65715000D01*
X203860000Y-65715000D02*
X202810000Y-65715000D01*
X202810000Y-65715000D02*
X202810000Y-64725000D01*
X197640000Y-68215000D02*
X197640000Y-65715000D01*
X197640000Y-65715000D02*
X198690000Y-65715000D01*
X202690000Y-70185000D02*
X198810000Y-70185000D01*
X169190000Y-70185000D02*
X165310000Y-70185000D01*
X164140000Y-65715000D02*
X165190000Y-65715000D01*
X164140000Y-68215000D02*
X164140000Y-65715000D01*
X169310000Y-65715000D02*
X169310000Y-64725000D01*
X170360000Y-65715000D02*
X169310000Y-65715000D01*
X170360000Y-68215000D02*
X170360000Y-65715000D01*
X190661904Y-65692857D02*
X190547619Y-65730952D01*
X190509523Y-65769047D01*
X190471428Y-65845238D01*
X190471428Y-65959523D01*
X190509523Y-66035714D01*
X190547619Y-66073809D01*
X190623809Y-66111904D01*
X190928571Y-66111904D01*
X190928571Y-65311904D01*
X190661904Y-65311904D01*
X190585714Y-65350000D01*
X190547619Y-65388095D01*
X190509523Y-65464285D01*
X190509523Y-65540476D01*
X190547619Y-65616666D01*
X190585714Y-65654761D01*
X190661904Y-65692857D01*
X190928571Y-65692857D01*
X190166666Y-65883333D02*
X189785714Y-65883333D01*
X190242857Y-66111904D02*
X189976190Y-65311904D01*
X189709523Y-66111904D01*
X188985714Y-66035714D02*
X189023809Y-66073809D01*
X189138095Y-66111904D01*
X189214285Y-66111904D01*
X189328571Y-66073809D01*
X189404761Y-65997619D01*
X189442857Y-65921428D01*
X189480952Y-65769047D01*
X189480952Y-65654761D01*
X189442857Y-65502380D01*
X189404761Y-65426190D01*
X189328571Y-65350000D01*
X189214285Y-65311904D01*
X189138095Y-65311904D01*
X189023809Y-65350000D01*
X188985714Y-65388095D01*
X188642857Y-66111904D02*
X188642857Y-65311904D01*
X188185714Y-66111904D02*
X188528571Y-65654761D01*
X188185714Y-65311904D02*
X188642857Y-65769047D01*
X187004761Y-66416666D02*
X187042857Y-66378571D01*
X187119047Y-66264285D01*
X187157142Y-66188095D01*
X187195238Y-66073809D01*
X187233333Y-65883333D01*
X187233333Y-65730952D01*
X187195238Y-65540476D01*
X187157142Y-65426190D01*
X187119047Y-65350000D01*
X187042857Y-65235714D01*
X187004761Y-65197619D01*
X186242857Y-66035714D02*
X186280952Y-66073809D01*
X186395238Y-66111904D01*
X186471428Y-66111904D01*
X186585714Y-66073809D01*
X186661904Y-65997619D01*
X186700000Y-65921428D01*
X186738095Y-65769047D01*
X186738095Y-65654761D01*
X186700000Y-65502380D01*
X186661904Y-65426190D01*
X186585714Y-65350000D01*
X186471428Y-65311904D01*
X186395238Y-65311904D01*
X186280952Y-65350000D01*
X186242857Y-65388095D01*
X185747619Y-65311904D02*
X185595238Y-65311904D01*
X185519047Y-65350000D01*
X185442857Y-65426190D01*
X185404761Y-65578571D01*
X185404761Y-65845238D01*
X185442857Y-65997619D01*
X185519047Y-66073809D01*
X185595238Y-66111904D01*
X185747619Y-66111904D01*
X185823809Y-66073809D01*
X185900000Y-65997619D01*
X185938095Y-65845238D01*
X185938095Y-65578571D01*
X185900000Y-65426190D01*
X185823809Y-65350000D01*
X185747619Y-65311904D01*
X185061904Y-66111904D02*
X185061904Y-65311904D01*
X184795238Y-65883333D01*
X184528571Y-65311904D01*
X184528571Y-66111904D01*
X184147619Y-66111904D02*
X184147619Y-65311904D01*
X183842857Y-65311904D01*
X183766666Y-65350000D01*
X183728571Y-65388095D01*
X183690476Y-65464285D01*
X183690476Y-65578571D01*
X183728571Y-65654761D01*
X183766666Y-65692857D01*
X183842857Y-65730952D01*
X184147619Y-65730952D01*
X183195238Y-65311904D02*
X183042857Y-65311904D01*
X182966666Y-65350000D01*
X182890476Y-65426190D01*
X182852380Y-65578571D01*
X182852380Y-65845238D01*
X182890476Y-65997619D01*
X182966666Y-66073809D01*
X183042857Y-66111904D01*
X183195238Y-66111904D01*
X183271428Y-66073809D01*
X183347619Y-65997619D01*
X183385714Y-65845238D01*
X183385714Y-65578571D01*
X183347619Y-65426190D01*
X183271428Y-65350000D01*
X183195238Y-65311904D01*
X182509523Y-66111904D02*
X182509523Y-65311904D01*
X182052380Y-66111904D01*
X182052380Y-65311904D01*
X181671428Y-65692857D02*
X181404761Y-65692857D01*
X181290476Y-66111904D02*
X181671428Y-66111904D01*
X181671428Y-65311904D01*
X181290476Y-65311904D01*
X180947619Y-66111904D02*
X180947619Y-65311904D01*
X180490476Y-66111904D01*
X180490476Y-65311904D01*
X180223809Y-65311904D02*
X179766666Y-65311904D01*
X179995238Y-66111904D02*
X179995238Y-65311904D01*
X178928571Y-66073809D02*
X178814285Y-66111904D01*
X178623809Y-66111904D01*
X178547619Y-66073809D01*
X178509523Y-66035714D01*
X178471428Y-65959523D01*
X178471428Y-65883333D01*
X178509523Y-65807142D01*
X178547619Y-65769047D01*
X178623809Y-65730952D01*
X178776190Y-65692857D01*
X178852380Y-65654761D01*
X178890476Y-65616666D01*
X178928571Y-65540476D01*
X178928571Y-65464285D01*
X178890476Y-65388095D01*
X178852380Y-65350000D01*
X178776190Y-65311904D01*
X178585714Y-65311904D01*
X178471428Y-65350000D01*
X178128571Y-66111904D02*
X178128571Y-65311904D01*
X177747619Y-66111904D02*
X177747619Y-65311904D01*
X177557142Y-65311904D01*
X177442857Y-65350000D01*
X177366666Y-65426190D01*
X177328571Y-65502380D01*
X177290476Y-65654761D01*
X177290476Y-65769047D01*
X177328571Y-65921428D01*
X177366666Y-65997619D01*
X177442857Y-66073809D01*
X177557142Y-66111904D01*
X177747619Y-66111904D01*
X176947619Y-65692857D02*
X176680952Y-65692857D01*
X176566666Y-66111904D02*
X176947619Y-66111904D01*
X176947619Y-65311904D01*
X176566666Y-65311904D01*
X176300000Y-66416666D02*
X176261904Y-66378571D01*
X176185714Y-66264285D01*
X176147619Y-66188095D01*
X176109523Y-66073809D01*
X176071428Y-65883333D01*
X176071428Y-65730952D01*
X176109523Y-65540476D01*
X176147619Y-65426190D01*
X176185714Y-65350000D01*
X176261904Y-65235714D01*
X176300000Y-65197619D01*
X135229523Y-54845000D02*
X135305714Y-54806904D01*
X135420000Y-54806904D01*
X135534285Y-54845000D01*
X135610476Y-54921190D01*
X135648571Y-54997380D01*
X135686666Y-55149761D01*
X135686666Y-55264047D01*
X135648571Y-55416428D01*
X135610476Y-55492619D01*
X135534285Y-55568809D01*
X135420000Y-55606904D01*
X135343809Y-55606904D01*
X135229523Y-55568809D01*
X135191428Y-55530714D01*
X135191428Y-55264047D01*
X135343809Y-55264047D01*
X134848571Y-55606904D02*
X134848571Y-54806904D01*
X134391428Y-55606904D01*
X134391428Y-54806904D01*
X134010476Y-55606904D02*
X134010476Y-54806904D01*
X133820000Y-54806904D01*
X133705714Y-54845000D01*
X133629523Y-54921190D01*
X133591428Y-54997380D01*
X133553333Y-55149761D01*
X133553333Y-55264047D01*
X133591428Y-55416428D01*
X133629523Y-55492619D01*
X133705714Y-55568809D01*
X133820000Y-55606904D01*
X134010476Y-55606904D01*
X137483809Y-55187857D02*
X137369523Y-55225952D01*
X137331428Y-55264047D01*
X137293333Y-55340238D01*
X137293333Y-55454523D01*
X137331428Y-55530714D01*
X137369523Y-55568809D01*
X137445714Y-55606904D01*
X137750476Y-55606904D01*
X137750476Y-54806904D01*
X137483809Y-54806904D01*
X137407619Y-54845000D01*
X137369523Y-54883095D01*
X137331428Y-54959285D01*
X137331428Y-55035476D01*
X137369523Y-55111666D01*
X137407619Y-55149761D01*
X137483809Y-55187857D01*
X137750476Y-55187857D01*
X136607619Y-55073571D02*
X136607619Y-55606904D01*
X136798095Y-54768809D02*
X136988571Y-55340238D01*
X136493333Y-55340238D01*
X140023809Y-55187857D02*
X139909523Y-55225952D01*
X139871428Y-55264047D01*
X139833333Y-55340238D01*
X139833333Y-55454523D01*
X139871428Y-55530714D01*
X139909523Y-55568809D01*
X139985714Y-55606904D01*
X140290476Y-55606904D01*
X140290476Y-54806904D01*
X140023809Y-54806904D01*
X139947619Y-54845000D01*
X139909523Y-54883095D01*
X139871428Y-54959285D01*
X139871428Y-55035476D01*
X139909523Y-55111666D01*
X139947619Y-55149761D01*
X140023809Y-55187857D01*
X140290476Y-55187857D01*
X139566666Y-54806904D02*
X139071428Y-54806904D01*
X139338095Y-55111666D01*
X139223809Y-55111666D01*
X139147619Y-55149761D01*
X139109523Y-55187857D01*
X139071428Y-55264047D01*
X139071428Y-55454523D01*
X139109523Y-55530714D01*
X139147619Y-55568809D01*
X139223809Y-55606904D01*
X139452380Y-55606904D01*
X139528571Y-55568809D01*
X139566666Y-55530714D01*
X142563809Y-55187857D02*
X142449523Y-55225952D01*
X142411428Y-55264047D01*
X142373333Y-55340238D01*
X142373333Y-55454523D01*
X142411428Y-55530714D01*
X142449523Y-55568809D01*
X142525714Y-55606904D01*
X142830476Y-55606904D01*
X142830476Y-54806904D01*
X142563809Y-54806904D01*
X142487619Y-54845000D01*
X142449523Y-54883095D01*
X142411428Y-54959285D01*
X142411428Y-55035476D01*
X142449523Y-55111666D01*
X142487619Y-55149761D01*
X142563809Y-55187857D01*
X142830476Y-55187857D01*
X142068571Y-54883095D02*
X142030476Y-54845000D01*
X141954285Y-54806904D01*
X141763809Y-54806904D01*
X141687619Y-54845000D01*
X141649523Y-54883095D01*
X141611428Y-54959285D01*
X141611428Y-55035476D01*
X141649523Y-55149761D01*
X142106666Y-55606904D01*
X141611428Y-55606904D01*
X145103809Y-55187857D02*
X144989523Y-55225952D01*
X144951428Y-55264047D01*
X144913333Y-55340238D01*
X144913333Y-55454523D01*
X144951428Y-55530714D01*
X144989523Y-55568809D01*
X145065714Y-55606904D01*
X145370476Y-55606904D01*
X145370476Y-54806904D01*
X145103809Y-54806904D01*
X145027619Y-54845000D01*
X144989523Y-54883095D01*
X144951428Y-54959285D01*
X144951428Y-55035476D01*
X144989523Y-55111666D01*
X145027619Y-55149761D01*
X145103809Y-55187857D01*
X145370476Y-55187857D01*
X144151428Y-55606904D02*
X144608571Y-55606904D01*
X144380000Y-55606904D02*
X144380000Y-54806904D01*
X144456190Y-54921190D01*
X144532380Y-54997380D01*
X144608571Y-55035476D01*
X147891428Y-55606904D02*
X147891428Y-54806904D01*
X147891428Y-55187857D02*
X147434285Y-55187857D01*
X147434285Y-55606904D02*
X147434285Y-54806904D01*
X147167619Y-54806904D02*
X146900952Y-55606904D01*
X146634285Y-54806904D01*
X135229523Y-40875000D02*
X135305714Y-40836904D01*
X135420000Y-40836904D01*
X135534285Y-40875000D01*
X135610476Y-40951190D01*
X135648571Y-41027380D01*
X135686666Y-41179761D01*
X135686666Y-41294047D01*
X135648571Y-41446428D01*
X135610476Y-41522619D01*
X135534285Y-41598809D01*
X135420000Y-41636904D01*
X135343809Y-41636904D01*
X135229523Y-41598809D01*
X135191428Y-41560714D01*
X135191428Y-41294047D01*
X135343809Y-41294047D01*
X134848571Y-41636904D02*
X134848571Y-40836904D01*
X134391428Y-41636904D01*
X134391428Y-40836904D01*
X134010476Y-41636904D02*
X134010476Y-40836904D01*
X133820000Y-40836904D01*
X133705714Y-40875000D01*
X133629523Y-40951190D01*
X133591428Y-41027380D01*
X133553333Y-41179761D01*
X133553333Y-41294047D01*
X133591428Y-41446428D01*
X133629523Y-41522619D01*
X133705714Y-41598809D01*
X133820000Y-41636904D01*
X134010476Y-41636904D01*
X147415238Y-41636904D02*
X147796190Y-41636904D01*
X147796190Y-40836904D01*
X147262857Y-40836904D02*
X146996190Y-41636904D01*
X146729523Y-40836904D01*
X145351428Y-41408333D02*
X144970476Y-41408333D01*
X145427619Y-41636904D02*
X145160952Y-40836904D01*
X144894285Y-41636904D01*
X144208571Y-41636904D02*
X144665714Y-41636904D01*
X144437142Y-41636904D02*
X144437142Y-40836904D01*
X144513333Y-40951190D01*
X144589523Y-41027380D01*
X144665714Y-41065476D01*
X142811428Y-41408333D02*
X142430476Y-41408333D01*
X142887619Y-41636904D02*
X142620952Y-40836904D01*
X142354285Y-41636904D01*
X142125714Y-40913095D02*
X142087619Y-40875000D01*
X142011428Y-40836904D01*
X141820952Y-40836904D01*
X141744761Y-40875000D01*
X141706666Y-40913095D01*
X141668571Y-40989285D01*
X141668571Y-41065476D01*
X141706666Y-41179761D01*
X142163809Y-41636904D01*
X141668571Y-41636904D01*
X140271428Y-41408333D02*
X139890476Y-41408333D01*
X140347619Y-41636904D02*
X140080952Y-40836904D01*
X139814285Y-41636904D01*
X139623809Y-40836904D02*
X139128571Y-40836904D01*
X139395238Y-41141666D01*
X139280952Y-41141666D01*
X139204761Y-41179761D01*
X139166666Y-41217857D01*
X139128571Y-41294047D01*
X139128571Y-41484523D01*
X139166666Y-41560714D01*
X139204761Y-41598809D01*
X139280952Y-41636904D01*
X139509523Y-41636904D01*
X139585714Y-41598809D01*
X139623809Y-41560714D01*
X137731428Y-41408333D02*
X137350476Y-41408333D01*
X137807619Y-41636904D02*
X137540952Y-40836904D01*
X137274285Y-41636904D01*
X136664761Y-41103571D02*
X136664761Y-41636904D01*
X136855238Y-40798809D02*
X137045714Y-41370238D01*
X136550476Y-41370238D01*
X161891412Y-60303154D02*
X161396174Y-60303154D01*
X161662841Y-60607916D01*
X161548555Y-60607916D01*
X161472365Y-60646011D01*
X161434269Y-60684107D01*
X161396174Y-60760297D01*
X161396174Y-60950773D01*
X161434269Y-61026964D01*
X161472365Y-61065059D01*
X161548555Y-61103154D01*
X161777127Y-61103154D01*
X161853317Y-61065059D01*
X161891412Y-61026964D01*
X161167603Y-60303154D02*
X160900936Y-61103154D01*
X160634269Y-60303154D01*
X166971412Y-60341250D02*
X167047603Y-60303154D01*
X167161889Y-60303154D01*
X167276174Y-60341250D01*
X167352365Y-60417440D01*
X167390460Y-60493630D01*
X167428555Y-60646011D01*
X167428555Y-60760297D01*
X167390460Y-60912678D01*
X167352365Y-60988869D01*
X167276174Y-61065059D01*
X167161889Y-61103154D01*
X167085698Y-61103154D01*
X166971412Y-61065059D01*
X166933317Y-61026964D01*
X166933317Y-60760297D01*
X167085698Y-60760297D01*
X166590460Y-61103154D02*
X166590460Y-60303154D01*
X166133317Y-61103154D01*
X166133317Y-60303154D01*
X165752365Y-61103154D02*
X165752365Y-60303154D01*
X165561889Y-60303154D01*
X165447603Y-60341250D01*
X165371412Y-60417440D01*
X165333317Y-60493630D01*
X165295222Y-60646011D01*
X165295222Y-60760297D01*
X165333317Y-60912678D01*
X165371412Y-60988869D01*
X165447603Y-61065059D01*
X165561889Y-61103154D01*
X165752365Y-61103154D01*
X195254269Y-43793059D02*
X195139984Y-43831154D01*
X194949508Y-43831154D01*
X194873317Y-43793059D01*
X194835222Y-43754964D01*
X194797127Y-43678773D01*
X194797127Y-43602583D01*
X194835222Y-43526392D01*
X194873317Y-43488297D01*
X194949508Y-43450202D01*
X195101889Y-43412107D01*
X195178079Y-43374011D01*
X195216174Y-43335916D01*
X195254269Y-43259726D01*
X195254269Y-43183535D01*
X195216174Y-43107345D01*
X195178079Y-43069250D01*
X195101889Y-43031154D01*
X194911412Y-43031154D01*
X194797127Y-43069250D01*
X193997127Y-43754964D02*
X194035222Y-43793059D01*
X194149508Y-43831154D01*
X194225698Y-43831154D01*
X194339984Y-43793059D01*
X194416174Y-43716869D01*
X194454269Y-43640678D01*
X194492365Y-43488297D01*
X194492365Y-43374011D01*
X194454269Y-43221630D01*
X194416174Y-43145440D01*
X194339984Y-43069250D01*
X194225698Y-43031154D01*
X194149508Y-43031154D01*
X194035222Y-43069250D01*
X193997127Y-43107345D01*
X193273317Y-43831154D02*
X193654269Y-43831154D01*
X193654269Y-43031154D01*
X197813317Y-43793059D02*
X197699031Y-43831154D01*
X197508555Y-43831154D01*
X197432365Y-43793059D01*
X197394269Y-43754964D01*
X197356174Y-43678773D01*
X197356174Y-43602583D01*
X197394269Y-43526392D01*
X197432365Y-43488297D01*
X197508555Y-43450202D01*
X197660936Y-43412107D01*
X197737127Y-43374011D01*
X197775222Y-43335916D01*
X197813317Y-43259726D01*
X197813317Y-43183535D01*
X197775222Y-43107345D01*
X197737127Y-43069250D01*
X197660936Y-43031154D01*
X197470460Y-43031154D01*
X197356174Y-43069250D01*
X197013317Y-43831154D02*
X197013317Y-43031154D01*
X196822841Y-43031154D01*
X196708555Y-43069250D01*
X196632365Y-43145440D01*
X196594269Y-43221630D01*
X196556174Y-43374011D01*
X196556174Y-43488297D01*
X196594269Y-43640678D01*
X196632365Y-43716869D01*
X196708555Y-43793059D01*
X196822841Y-43831154D01*
X197013317Y-43831154D01*
X196251412Y-43602583D02*
X195870460Y-43602583D01*
X196327603Y-43831154D02*
X196060936Y-43031154D01*
X195794269Y-43831154D01*
X121292365Y-59863154D02*
X121292365Y-59063154D01*
X121101889Y-59063154D01*
X120987603Y-59101250D01*
X120911412Y-59177440D01*
X120873317Y-59253630D01*
X120835222Y-59406011D01*
X120835222Y-59520297D01*
X120873317Y-59672678D01*
X120911412Y-59748869D01*
X120987603Y-59825059D01*
X121101889Y-59863154D01*
X121292365Y-59863154D01*
X120073317Y-59863154D02*
X120530460Y-59863154D01*
X120301889Y-59863154D02*
X120301889Y-59063154D01*
X120378079Y-59177440D01*
X120454269Y-59253630D01*
X120530460Y-59291726D01*
X118752365Y-59863154D02*
X118752365Y-59063154D01*
X118561889Y-59063154D01*
X118447603Y-59101250D01*
X118371412Y-59177440D01*
X118333317Y-59253630D01*
X118295222Y-59406011D01*
X118295222Y-59520297D01*
X118333317Y-59672678D01*
X118371412Y-59748869D01*
X118447603Y-59825059D01*
X118561889Y-59863154D01*
X118752365Y-59863154D01*
X117799984Y-59063154D02*
X117723793Y-59063154D01*
X117647603Y-59101250D01*
X117609508Y-59139345D01*
X117571412Y-59215535D01*
X117533317Y-59367916D01*
X117533317Y-59558392D01*
X117571412Y-59710773D01*
X117609508Y-59786964D01*
X117647603Y-59825059D01*
X117723793Y-59863154D01*
X117799984Y-59863154D01*
X117876174Y-59825059D01*
X117914269Y-59786964D01*
X117952365Y-59710773D01*
X117990460Y-59558392D01*
X117990460Y-59367916D01*
X117952365Y-59215535D01*
X117914269Y-59139345D01*
X117876174Y-59101250D01*
X117799984Y-59063154D01*
X85579984Y-61133154D02*
X85846650Y-60752202D01*
X86037127Y-61133154D02*
X86037127Y-60333154D01*
X85732365Y-60333154D01*
X85656174Y-60371250D01*
X85618079Y-60409345D01*
X85579984Y-60485535D01*
X85579984Y-60599821D01*
X85618079Y-60676011D01*
X85656174Y-60714107D01*
X85732365Y-60752202D01*
X86037127Y-60752202D01*
X85275222Y-61095059D02*
X85160936Y-61133154D01*
X84970460Y-61133154D01*
X84894269Y-61095059D01*
X84856174Y-61056964D01*
X84818079Y-60980773D01*
X84818079Y-60904583D01*
X84856174Y-60828392D01*
X84894269Y-60790297D01*
X84970460Y-60752202D01*
X85122841Y-60714107D01*
X85199031Y-60676011D01*
X85237127Y-60637916D01*
X85275222Y-60561726D01*
X85275222Y-60485535D01*
X85237127Y-60409345D01*
X85199031Y-60371250D01*
X85122841Y-60333154D01*
X84932365Y-60333154D01*
X84818079Y-60371250D01*
X84589508Y-60333154D02*
X84132365Y-60333154D01*
X84360936Y-61133154D02*
X84360936Y-60333154D01*
X88291412Y-60333154D02*
X87796174Y-60333154D01*
X88062841Y-60637916D01*
X87948555Y-60637916D01*
X87872365Y-60676011D01*
X87834269Y-60714107D01*
X87796174Y-60790297D01*
X87796174Y-60980773D01*
X87834269Y-61056964D01*
X87872365Y-61095059D01*
X87948555Y-61133154D01*
X88177127Y-61133154D01*
X88253317Y-61095059D01*
X88291412Y-61056964D01*
X87567603Y-60333154D02*
X87300936Y-61133154D01*
X87034269Y-60333154D01*
X91517127Y-60904583D02*
X91136174Y-60904583D01*
X91593317Y-61133154D02*
X91326650Y-60333154D01*
X91059984Y-61133154D01*
X90336174Y-61133154D02*
X90602841Y-60752202D01*
X90793317Y-61133154D02*
X90793317Y-60333154D01*
X90488555Y-60333154D01*
X90412365Y-60371250D01*
X90374269Y-60409345D01*
X90336174Y-60485535D01*
X90336174Y-60599821D01*
X90374269Y-60676011D01*
X90412365Y-60714107D01*
X90488555Y-60752202D01*
X90793317Y-60752202D01*
X89993317Y-60714107D02*
X89726650Y-60714107D01*
X89612365Y-61133154D02*
X89993317Y-61133154D01*
X89993317Y-60333154D01*
X89612365Y-60333154D01*
X89002841Y-60714107D02*
X89269508Y-60714107D01*
X89269508Y-61133154D02*
X89269508Y-60333154D01*
X88888555Y-60333154D01*
X93371412Y-60371250D02*
X93447603Y-60333154D01*
X93561889Y-60333154D01*
X93676174Y-60371250D01*
X93752365Y-60447440D01*
X93790460Y-60523630D01*
X93828555Y-60676011D01*
X93828555Y-60790297D01*
X93790460Y-60942678D01*
X93752365Y-61018869D01*
X93676174Y-61095059D01*
X93561889Y-61133154D01*
X93485698Y-61133154D01*
X93371412Y-61095059D01*
X93333317Y-61056964D01*
X93333317Y-60790297D01*
X93485698Y-60790297D01*
X92990460Y-61133154D02*
X92990460Y-60333154D01*
X92533317Y-61133154D01*
X92533317Y-60333154D01*
X92152365Y-61133154D02*
X92152365Y-60333154D01*
X91961889Y-60333154D01*
X91847603Y-60371250D01*
X91771412Y-60447440D01*
X91733317Y-60523630D01*
X91695222Y-60676011D01*
X91695222Y-60790297D01*
X91733317Y-60942678D01*
X91771412Y-61018869D01*
X91847603Y-61095059D01*
X91961889Y-61133154D01*
X92152365Y-61133154D01*
X96235222Y-60828392D02*
X96197127Y-60790297D01*
X96120936Y-60752202D01*
X95968555Y-60828392D01*
X95892365Y-60790297D01*
X95854269Y-60752202D01*
X95587603Y-60904583D02*
X95206650Y-60904583D01*
X95663793Y-61133154D02*
X95397127Y-60333154D01*
X95130460Y-61133154D01*
X94711412Y-60333154D02*
X94635222Y-60333154D01*
X94559031Y-60371250D01*
X94520936Y-60409345D01*
X94482841Y-60485535D01*
X94444746Y-60637916D01*
X94444746Y-60828392D01*
X94482841Y-60980773D01*
X94520936Y-61056964D01*
X94559031Y-61095059D01*
X94635222Y-61133154D01*
X94711412Y-61133154D01*
X94787603Y-61095059D01*
X94825698Y-61056964D01*
X94863793Y-60980773D01*
X94901889Y-60828392D01*
X94901889Y-60637916D01*
X94863793Y-60485535D01*
X94825698Y-60409345D01*
X94787603Y-60371250D01*
X94711412Y-60333154D01*
X111513317Y-43861154D02*
X111513317Y-43061154D01*
X111322841Y-43061154D01*
X111208555Y-43099250D01*
X111132365Y-43175440D01*
X111094269Y-43251630D01*
X111056174Y-43404011D01*
X111056174Y-43518297D01*
X111094269Y-43670678D01*
X111132365Y-43746869D01*
X111208555Y-43823059D01*
X111322841Y-43861154D01*
X111513317Y-43861154D01*
X110294269Y-43861154D02*
X110751412Y-43861154D01*
X110522841Y-43861154D02*
X110522841Y-43061154D01*
X110599031Y-43175440D01*
X110675222Y-43251630D01*
X110751412Y-43289726D01*
X109799031Y-43061154D02*
X109722841Y-43061154D01*
X109646650Y-43099250D01*
X109608555Y-43137345D01*
X109570460Y-43213535D01*
X109532365Y-43365916D01*
X109532365Y-43556392D01*
X109570460Y-43708773D01*
X109608555Y-43784964D01*
X109646650Y-43823059D01*
X109722841Y-43861154D01*
X109799031Y-43861154D01*
X109875222Y-43823059D01*
X109913317Y-43784964D01*
X109951412Y-43708773D01*
X109989508Y-43556392D01*
X109989508Y-43365916D01*
X109951412Y-43213535D01*
X109913317Y-43137345D01*
X109875222Y-43099250D01*
X109799031Y-43061154D01*
X113767603Y-61133154D02*
X113767603Y-60333154D01*
X113500936Y-60904583D01*
X113234269Y-60333154D01*
X113234269Y-61133154D01*
X112700936Y-60333154D02*
X112548555Y-60333154D01*
X112472365Y-60371250D01*
X112396174Y-60447440D01*
X112358079Y-60599821D01*
X112358079Y-60866488D01*
X112396174Y-61018869D01*
X112472365Y-61095059D01*
X112548555Y-61133154D01*
X112700936Y-61133154D01*
X112777127Y-61095059D01*
X112853317Y-61018869D01*
X112891412Y-60866488D01*
X112891412Y-60599821D01*
X112853317Y-60447440D01*
X112777127Y-60371250D01*
X112700936Y-60333154D01*
X113672365Y-43861154D02*
X113672365Y-43061154D01*
X113481889Y-43061154D01*
X113367603Y-43099250D01*
X113291412Y-43175440D01*
X113253317Y-43251630D01*
X113215222Y-43404011D01*
X113215222Y-43518297D01*
X113253317Y-43670678D01*
X113291412Y-43746869D01*
X113367603Y-43823059D01*
X113481889Y-43861154D01*
X113672365Y-43861154D01*
X112834269Y-43861154D02*
X112681889Y-43861154D01*
X112605698Y-43823059D01*
X112567603Y-43784964D01*
X112491412Y-43670678D01*
X112453317Y-43518297D01*
X112453317Y-43213535D01*
X112491412Y-43137345D01*
X112529508Y-43099250D01*
X112605698Y-43061154D01*
X112758079Y-43061154D01*
X112834269Y-43099250D01*
X112872365Y-43137345D01*
X112910460Y-43213535D01*
X112910460Y-43404011D01*
X112872365Y-43480202D01*
X112834269Y-43518297D01*
X112758079Y-43556392D01*
X112605698Y-43556392D01*
X112529508Y-43518297D01*
X112491412Y-43480202D01*
X112453317Y-43404011D01*
X121654269Y-43823059D02*
X121539984Y-43861154D01*
X121349508Y-43861154D01*
X121273317Y-43823059D01*
X121235222Y-43784964D01*
X121197127Y-43708773D01*
X121197127Y-43632583D01*
X121235222Y-43556392D01*
X121273317Y-43518297D01*
X121349508Y-43480202D01*
X121501889Y-43442107D01*
X121578079Y-43404011D01*
X121616174Y-43365916D01*
X121654269Y-43289726D01*
X121654269Y-43213535D01*
X121616174Y-43137345D01*
X121578079Y-43099250D01*
X121501889Y-43061154D01*
X121311412Y-43061154D01*
X121197127Y-43099250D01*
X120397127Y-43784964D02*
X120435222Y-43823059D01*
X120549508Y-43861154D01*
X120625698Y-43861154D01*
X120739984Y-43823059D01*
X120816174Y-43746869D01*
X120854269Y-43670678D01*
X120892365Y-43518297D01*
X120892365Y-43404011D01*
X120854269Y-43251630D01*
X120816174Y-43175440D01*
X120739984Y-43099250D01*
X120625698Y-43061154D01*
X120549508Y-43061154D01*
X120435222Y-43099250D01*
X120397127Y-43137345D01*
X119673317Y-43861154D02*
X120054269Y-43861154D01*
X120054269Y-43061154D01*
X116079031Y-61133154D02*
X116079031Y-60333154D01*
X115812365Y-60904583D01*
X115545698Y-60333154D01*
X115545698Y-61133154D01*
X115164746Y-61133154D02*
X115164746Y-60333154D01*
X116212365Y-43861154D02*
X116212365Y-43061154D01*
X116021889Y-43061154D01*
X115907603Y-43099250D01*
X115831412Y-43175440D01*
X115793317Y-43251630D01*
X115755222Y-43404011D01*
X115755222Y-43518297D01*
X115793317Y-43670678D01*
X115831412Y-43746869D01*
X115907603Y-43823059D01*
X116021889Y-43861154D01*
X116212365Y-43861154D01*
X115069508Y-43061154D02*
X115221889Y-43061154D01*
X115298079Y-43099250D01*
X115336174Y-43137345D01*
X115412365Y-43251630D01*
X115450460Y-43404011D01*
X115450460Y-43708773D01*
X115412365Y-43784964D01*
X115374269Y-43823059D01*
X115298079Y-43861154D01*
X115145698Y-43861154D01*
X115069508Y-43823059D01*
X115031412Y-43784964D01*
X114993317Y-43708773D01*
X114993317Y-43518297D01*
X115031412Y-43442107D01*
X115069508Y-43404011D01*
X115145698Y-43365916D01*
X115298079Y-43365916D01*
X115374269Y-43404011D01*
X115412365Y-43442107D01*
X115450460Y-43518297D01*
X95892365Y-43442107D02*
X95778079Y-43480202D01*
X95739984Y-43518297D01*
X95701889Y-43594488D01*
X95701889Y-43708773D01*
X95739984Y-43784964D01*
X95778079Y-43823059D01*
X95854269Y-43861154D01*
X96159031Y-43861154D01*
X96159031Y-43061154D01*
X95892365Y-43061154D01*
X95816174Y-43099250D01*
X95778079Y-43137345D01*
X95739984Y-43213535D01*
X95739984Y-43289726D01*
X95778079Y-43365916D01*
X95816174Y-43404011D01*
X95892365Y-43442107D01*
X96159031Y-43442107D01*
X95397127Y-43632583D02*
X95016174Y-43632583D01*
X95473317Y-43861154D02*
X95206650Y-43061154D01*
X94939984Y-43861154D01*
X94787603Y-43061154D02*
X94330460Y-43061154D01*
X94559031Y-43861154D02*
X94559031Y-43061154D01*
X123832365Y-61133154D02*
X123832365Y-60333154D01*
X123641889Y-60333154D01*
X123527603Y-60371250D01*
X123451412Y-60447440D01*
X123413317Y-60523630D01*
X123375222Y-60676011D01*
X123375222Y-60790297D01*
X123413317Y-60942678D01*
X123451412Y-61018869D01*
X123527603Y-61095059D01*
X123641889Y-61133154D01*
X123832365Y-61133154D01*
X122689508Y-60599821D02*
X122689508Y-61133154D01*
X122879984Y-60295059D02*
X123070460Y-60866488D01*
X122575222Y-60866488D01*
X111570460Y-61095059D02*
X111456174Y-61133154D01*
X111265698Y-61133154D01*
X111189508Y-61095059D01*
X111151412Y-61056964D01*
X111113317Y-60980773D01*
X111113317Y-60904583D01*
X111151412Y-60828392D01*
X111189508Y-60790297D01*
X111265698Y-60752202D01*
X111418079Y-60714107D01*
X111494269Y-60676011D01*
X111532365Y-60637916D01*
X111570460Y-60561726D01*
X111570460Y-60485535D01*
X111532365Y-60409345D01*
X111494269Y-60371250D01*
X111418079Y-60333154D01*
X111227603Y-60333154D01*
X111113317Y-60371250D01*
X110313317Y-61056964D02*
X110351412Y-61095059D01*
X110465698Y-61133154D01*
X110541889Y-61133154D01*
X110656174Y-61095059D01*
X110732365Y-61018869D01*
X110770460Y-60942678D01*
X110808555Y-60790297D01*
X110808555Y-60676011D01*
X110770460Y-60523630D01*
X110732365Y-60447440D01*
X110656174Y-60371250D01*
X110541889Y-60333154D01*
X110465698Y-60333154D01*
X110351412Y-60371250D01*
X110313317Y-60409345D01*
X109970460Y-61133154D02*
X109970460Y-60333154D01*
X109513317Y-61133154D02*
X109856174Y-60676011D01*
X109513317Y-60333154D02*
X109970460Y-60790297D01*
X118752365Y-43861154D02*
X118752365Y-43061154D01*
X118561889Y-43061154D01*
X118447603Y-43099250D01*
X118371412Y-43175440D01*
X118333317Y-43251630D01*
X118295222Y-43404011D01*
X118295222Y-43518297D01*
X118333317Y-43670678D01*
X118371412Y-43746869D01*
X118447603Y-43823059D01*
X118561889Y-43861154D01*
X118752365Y-43861154D01*
X117571412Y-43061154D02*
X117952365Y-43061154D01*
X117990460Y-43442107D01*
X117952365Y-43404011D01*
X117876174Y-43365916D01*
X117685698Y-43365916D01*
X117609508Y-43404011D01*
X117571412Y-43442107D01*
X117533317Y-43518297D01*
X117533317Y-43708773D01*
X117571412Y-43784964D01*
X117609508Y-43823059D01*
X117685698Y-43861154D01*
X117876174Y-43861154D01*
X117952365Y-43823059D01*
X117990460Y-43784964D01*
X98775222Y-60828392D02*
X98737127Y-60790297D01*
X98660936Y-60752202D01*
X98508555Y-60828392D01*
X98432365Y-60790297D01*
X98394269Y-60752202D01*
X98127603Y-60904583D02*
X97746650Y-60904583D01*
X98203793Y-61133154D02*
X97937127Y-60333154D01*
X97670460Y-61133154D01*
X96984746Y-61133154D02*
X97441889Y-61133154D01*
X97213317Y-61133154D02*
X97213317Y-60333154D01*
X97289508Y-60447440D01*
X97365698Y-60523630D01*
X97441889Y-60561726D01*
X100953317Y-60904583D02*
X100572365Y-60904583D01*
X101029508Y-61133154D02*
X100762841Y-60333154D01*
X100496174Y-61133154D01*
X100267603Y-60409345D02*
X100229508Y-60371250D01*
X100153317Y-60333154D01*
X99962841Y-60333154D01*
X99886650Y-60371250D01*
X99848555Y-60409345D01*
X99810460Y-60485535D01*
X99810460Y-60561726D01*
X99848555Y-60676011D01*
X100305698Y-61133154D01*
X99810460Y-61133154D01*
X108973317Y-43861154D02*
X108973317Y-43061154D01*
X108782841Y-43061154D01*
X108668555Y-43099250D01*
X108592365Y-43175440D01*
X108554269Y-43251630D01*
X108516174Y-43404011D01*
X108516174Y-43518297D01*
X108554269Y-43670678D01*
X108592365Y-43746869D01*
X108668555Y-43823059D01*
X108782841Y-43861154D01*
X108973317Y-43861154D01*
X107754269Y-43861154D02*
X108211412Y-43861154D01*
X107982841Y-43861154D02*
X107982841Y-43061154D01*
X108059031Y-43175440D01*
X108135222Y-43251630D01*
X108211412Y-43289726D01*
X106992365Y-43861154D02*
X107449508Y-43861154D01*
X107220936Y-43861154D02*
X107220936Y-43061154D01*
X107297127Y-43175440D01*
X107373317Y-43251630D01*
X107449508Y-43289726D01*
X103493317Y-60904583D02*
X103112365Y-60904583D01*
X103569508Y-61133154D02*
X103302841Y-60333154D01*
X103036174Y-61133154D01*
X102845698Y-60333154D02*
X102350460Y-60333154D01*
X102617127Y-60637916D01*
X102502841Y-60637916D01*
X102426650Y-60676011D01*
X102388555Y-60714107D01*
X102350460Y-60790297D01*
X102350460Y-60980773D01*
X102388555Y-61056964D01*
X102426650Y-61095059D01*
X102502841Y-61133154D01*
X102731412Y-61133154D01*
X102807603Y-61095059D01*
X102845698Y-61056964D01*
X118295222Y-61133154D02*
X118561889Y-60752202D01*
X118752365Y-61133154D02*
X118752365Y-60333154D01*
X118447603Y-60333154D01*
X118371412Y-60371250D01*
X118333317Y-60409345D01*
X118295222Y-60485535D01*
X118295222Y-60599821D01*
X118333317Y-60676011D01*
X118371412Y-60714107D01*
X118447603Y-60752202D01*
X118752365Y-60752202D01*
X118028555Y-60333154D02*
X117495222Y-61133154D01*
X117495222Y-60333154D02*
X118028555Y-61133154D01*
X124213317Y-43823059D02*
X124099031Y-43861154D01*
X123908555Y-43861154D01*
X123832365Y-43823059D01*
X123794269Y-43784964D01*
X123756174Y-43708773D01*
X123756174Y-43632583D01*
X123794269Y-43556392D01*
X123832365Y-43518297D01*
X123908555Y-43480202D01*
X124060936Y-43442107D01*
X124137127Y-43404011D01*
X124175222Y-43365916D01*
X124213317Y-43289726D01*
X124213317Y-43213535D01*
X124175222Y-43137345D01*
X124137127Y-43099250D01*
X124060936Y-43061154D01*
X123870460Y-43061154D01*
X123756174Y-43099250D01*
X123413317Y-43861154D02*
X123413317Y-43061154D01*
X123222841Y-43061154D01*
X123108555Y-43099250D01*
X123032365Y-43175440D01*
X122994269Y-43251630D01*
X122956174Y-43404011D01*
X122956174Y-43518297D01*
X122994269Y-43670678D01*
X123032365Y-43746869D01*
X123108555Y-43823059D01*
X123222841Y-43861154D01*
X123413317Y-43861154D01*
X122651412Y-43632583D02*
X122270460Y-43632583D01*
X122727603Y-43861154D02*
X122460936Y-43061154D01*
X122194269Y-43861154D01*
X108573317Y-60904583D02*
X108192365Y-60904583D01*
X108649508Y-61133154D02*
X108382841Y-60333154D01*
X108116174Y-61133154D01*
X107468555Y-60333154D02*
X107849508Y-60333154D01*
X107887603Y-60714107D01*
X107849508Y-60676011D01*
X107773317Y-60637916D01*
X107582841Y-60637916D01*
X107506650Y-60676011D01*
X107468555Y-60714107D01*
X107430460Y-60790297D01*
X107430460Y-60980773D01*
X107468555Y-61056964D01*
X107506650Y-61095059D01*
X107582841Y-61133154D01*
X107773317Y-61133154D01*
X107849508Y-61095059D01*
X107887603Y-61056964D01*
X103893317Y-43861154D02*
X103893317Y-43061154D01*
X103702841Y-43061154D01*
X103588555Y-43099250D01*
X103512365Y-43175440D01*
X103474269Y-43251630D01*
X103436174Y-43404011D01*
X103436174Y-43518297D01*
X103474269Y-43670678D01*
X103512365Y-43746869D01*
X103588555Y-43823059D01*
X103702841Y-43861154D01*
X103893317Y-43861154D01*
X102674269Y-43861154D02*
X103131412Y-43861154D01*
X102902841Y-43861154D02*
X102902841Y-43061154D01*
X102979031Y-43175440D01*
X103055222Y-43251630D01*
X103131412Y-43289726D01*
X102407603Y-43061154D02*
X101912365Y-43061154D01*
X102179031Y-43365916D01*
X102064746Y-43365916D01*
X101988555Y-43404011D01*
X101950460Y-43442107D01*
X101912365Y-43518297D01*
X101912365Y-43708773D01*
X101950460Y-43784964D01*
X101988555Y-43823059D01*
X102064746Y-43861154D01*
X102293317Y-43861154D01*
X102369508Y-43823059D01*
X102407603Y-43784964D01*
X98432365Y-43442107D02*
X98165698Y-43442107D01*
X98051412Y-43861154D02*
X98432365Y-43861154D01*
X98432365Y-43061154D01*
X98051412Y-43061154D01*
X97708555Y-43861154D02*
X97708555Y-43061154D01*
X97251412Y-43861154D01*
X97251412Y-43061154D01*
X101391412Y-43061154D02*
X101391412Y-43708773D01*
X101353317Y-43784964D01*
X101315222Y-43823059D01*
X101239031Y-43861154D01*
X101086650Y-43861154D01*
X101010460Y-43823059D01*
X100972365Y-43784964D01*
X100934269Y-43708773D01*
X100934269Y-43061154D01*
X100591412Y-43823059D02*
X100477127Y-43861154D01*
X100286650Y-43861154D01*
X100210460Y-43823059D01*
X100172365Y-43784964D01*
X100134269Y-43708773D01*
X100134269Y-43632583D01*
X100172365Y-43556392D01*
X100210460Y-43518297D01*
X100286650Y-43480202D01*
X100439031Y-43442107D01*
X100515222Y-43404011D01*
X100553317Y-43365916D01*
X100591412Y-43289726D01*
X100591412Y-43213535D01*
X100553317Y-43137345D01*
X100515222Y-43099250D01*
X100439031Y-43061154D01*
X100248555Y-43061154D01*
X100134269Y-43099250D01*
X99524746Y-43442107D02*
X99410460Y-43480202D01*
X99372365Y-43518297D01*
X99334269Y-43594488D01*
X99334269Y-43708773D01*
X99372365Y-43784964D01*
X99410460Y-43823059D01*
X99486650Y-43861154D01*
X99791412Y-43861154D01*
X99791412Y-43061154D01*
X99524746Y-43061154D01*
X99448555Y-43099250D01*
X99410460Y-43137345D01*
X99372365Y-43213535D01*
X99372365Y-43289726D01*
X99410460Y-43365916D01*
X99448555Y-43404011D01*
X99524746Y-43442107D01*
X99791412Y-43442107D01*
X106033317Y-60904583D02*
X105652365Y-60904583D01*
X106109508Y-61133154D02*
X105842841Y-60333154D01*
X105576174Y-61133154D01*
X104966650Y-60599821D02*
X104966650Y-61133154D01*
X105157127Y-60295059D02*
X105347603Y-60866488D01*
X104852365Y-60866488D01*
X106433317Y-43861154D02*
X106433317Y-43061154D01*
X106242841Y-43061154D01*
X106128555Y-43099250D01*
X106052365Y-43175440D01*
X106014269Y-43251630D01*
X105976174Y-43404011D01*
X105976174Y-43518297D01*
X106014269Y-43670678D01*
X106052365Y-43746869D01*
X106128555Y-43823059D01*
X106242841Y-43861154D01*
X106433317Y-43861154D01*
X105214269Y-43861154D02*
X105671412Y-43861154D01*
X105442841Y-43861154D02*
X105442841Y-43061154D01*
X105519031Y-43175440D01*
X105595222Y-43251630D01*
X105671412Y-43289726D01*
X104909508Y-43137345D02*
X104871412Y-43099250D01*
X104795222Y-43061154D01*
X104604746Y-43061154D01*
X104528555Y-43099250D01*
X104490460Y-43137345D01*
X104452365Y-43213535D01*
X104452365Y-43289726D01*
X104490460Y-43404011D01*
X104947603Y-43861154D01*
X104452365Y-43861154D01*
X121311412Y-60333154D02*
X120854269Y-60333154D01*
X121082841Y-61133154D02*
X121082841Y-60333154D01*
X120663793Y-60333154D02*
X120130460Y-61133154D01*
X120130460Y-60333154D02*
X120663793Y-61133154D01*
X195766666Y-67561904D02*
X195766666Y-68133333D01*
X195804761Y-68247619D01*
X195880952Y-68323809D01*
X195995238Y-68361904D01*
X196071428Y-68361904D01*
X195423809Y-67638095D02*
X195385714Y-67600000D01*
X195309523Y-67561904D01*
X195119047Y-67561904D01*
X195042857Y-67600000D01*
X195004761Y-67638095D01*
X194966666Y-67714285D01*
X194966666Y-67790476D01*
X195004761Y-67904761D01*
X195461904Y-68361904D01*
X194966666Y-68361904D01*
X196150000Y-69823809D02*
X196035714Y-69861904D01*
X195845238Y-69861904D01*
X195769047Y-69823809D01*
X195730952Y-69785714D01*
X195692857Y-69709523D01*
X195692857Y-69633333D01*
X195730952Y-69557142D01*
X195769047Y-69519047D01*
X195845238Y-69480952D01*
X195997619Y-69442857D01*
X196073809Y-69404761D01*
X196111904Y-69366666D01*
X196150000Y-69290476D01*
X196150000Y-69214285D01*
X196111904Y-69138095D01*
X196073809Y-69100000D01*
X195997619Y-69061904D01*
X195807142Y-69061904D01*
X195692857Y-69100000D01*
X195464285Y-69061904D02*
X195007142Y-69061904D01*
X195235714Y-69861904D02*
X195235714Y-69061904D01*
X194740476Y-69442857D02*
X194473809Y-69442857D01*
X194359523Y-69861904D02*
X194740476Y-69861904D01*
X194740476Y-69061904D01*
X194359523Y-69061904D01*
X194016666Y-69861904D02*
X194016666Y-69061904D01*
X193750000Y-69633333D01*
X193483333Y-69061904D01*
X193483333Y-69861904D01*
X193102380Y-69861904D02*
X193102380Y-69061904D01*
X192835714Y-69633333D01*
X192569047Y-69061904D01*
X192569047Y-69861904D01*
X192226190Y-69633333D02*
X191845238Y-69633333D01*
X192302380Y-69861904D02*
X192035714Y-69061904D01*
X191769047Y-69861904D01*
X191502380Y-69557142D02*
X190892857Y-69557142D01*
X189978571Y-69938095D02*
X190054761Y-69900000D01*
X190130952Y-69823809D01*
X190245238Y-69709523D01*
X190321428Y-69671428D01*
X190397619Y-69671428D01*
X190359523Y-69861904D02*
X190435714Y-69823809D01*
X190511904Y-69747619D01*
X190550000Y-69595238D01*
X190550000Y-69328571D01*
X190511904Y-69176190D01*
X190435714Y-69100000D01*
X190359523Y-69061904D01*
X190207142Y-69061904D01*
X190130952Y-69100000D01*
X190054761Y-69176190D01*
X190016666Y-69328571D01*
X190016666Y-69595238D01*
X190054761Y-69747619D01*
X190130952Y-69823809D01*
X190207142Y-69861904D01*
X190359523Y-69861904D01*
X189788095Y-69061904D02*
X189330952Y-69061904D01*
X189559523Y-69861904D02*
X189559523Y-69061904D01*
X189254761Y-69938095D02*
X188645238Y-69938095D01*
X188530952Y-69061904D02*
X188035714Y-69061904D01*
X188302380Y-69366666D01*
X188188095Y-69366666D01*
X188111904Y-69404761D01*
X188073809Y-69442857D01*
X188035714Y-69519047D01*
X188035714Y-69709523D01*
X188073809Y-69785714D01*
X188111904Y-69823809D01*
X188188095Y-69861904D01*
X188416666Y-69861904D01*
X188492857Y-69823809D01*
X188530952Y-69785714D01*
X187807142Y-69061904D02*
X187540476Y-69861904D01*
X187273809Y-69061904D01*
X172766666Y-67561904D02*
X172766666Y-68133333D01*
X172804761Y-68247619D01*
X172880952Y-68323809D01*
X172995238Y-68361904D01*
X173071428Y-68361904D01*
X172461904Y-67561904D02*
X171966666Y-67561904D01*
X172233333Y-67866666D01*
X172119047Y-67866666D01*
X172042857Y-67904761D01*
X172004761Y-67942857D01*
X171966666Y-68019047D01*
X171966666Y-68209523D01*
X172004761Y-68285714D01*
X172042857Y-68323809D01*
X172119047Y-68361904D01*
X172347619Y-68361904D01*
X172423809Y-68323809D01*
X172461904Y-68285714D01*
X180900000Y-69823809D02*
X180785714Y-69861904D01*
X180595238Y-69861904D01*
X180519047Y-69823809D01*
X180480952Y-69785714D01*
X180442857Y-69709523D01*
X180442857Y-69633333D01*
X180480952Y-69557142D01*
X180519047Y-69519047D01*
X180595238Y-69480952D01*
X180747619Y-69442857D01*
X180823809Y-69404761D01*
X180861904Y-69366666D01*
X180900000Y-69290476D01*
X180900000Y-69214285D01*
X180861904Y-69138095D01*
X180823809Y-69100000D01*
X180747619Y-69061904D01*
X180557142Y-69061904D01*
X180442857Y-69100000D01*
X180214285Y-69061904D02*
X179757142Y-69061904D01*
X179985714Y-69861904D02*
X179985714Y-69061904D01*
X179490476Y-69442857D02*
X179223809Y-69442857D01*
X179109523Y-69861904D02*
X179490476Y-69861904D01*
X179490476Y-69061904D01*
X179109523Y-69061904D01*
X178766666Y-69861904D02*
X178766666Y-69061904D01*
X178500000Y-69633333D01*
X178233333Y-69061904D01*
X178233333Y-69861904D01*
X177852380Y-69861904D02*
X177852380Y-69061904D01*
X177585714Y-69633333D01*
X177319047Y-69061904D01*
X177319047Y-69861904D01*
X176976190Y-69633333D02*
X176595238Y-69633333D01*
X177052380Y-69861904D02*
X176785714Y-69061904D01*
X176519047Y-69861904D01*
X176252380Y-69557142D02*
X175642857Y-69557142D01*
X174728571Y-69938095D02*
X174804761Y-69900000D01*
X174880952Y-69823809D01*
X174995238Y-69709523D01*
X175071428Y-69671428D01*
X175147619Y-69671428D01*
X175109523Y-69861904D02*
X175185714Y-69823809D01*
X175261904Y-69747619D01*
X175300000Y-69595238D01*
X175300000Y-69328571D01*
X175261904Y-69176190D01*
X175185714Y-69100000D01*
X175109523Y-69061904D01*
X174957142Y-69061904D01*
X174880952Y-69100000D01*
X174804761Y-69176190D01*
X174766666Y-69328571D01*
X174766666Y-69595238D01*
X174804761Y-69747619D01*
X174880952Y-69823809D01*
X174957142Y-69861904D01*
X175109523Y-69861904D01*
X174538095Y-69061904D02*
X174080952Y-69061904D01*
X174309523Y-69861904D02*
X174309523Y-69061904D01*
X174004761Y-69938095D02*
X173395238Y-69938095D01*
X172823809Y-69061904D02*
X173204761Y-69061904D01*
X173242857Y-69442857D01*
X173204761Y-69404761D01*
X173128571Y-69366666D01*
X172938095Y-69366666D01*
X172861904Y-69404761D01*
X172823809Y-69442857D01*
X172785714Y-69519047D01*
X172785714Y-69709523D01*
X172823809Y-69785714D01*
X172861904Y-69823809D01*
X172938095Y-69861904D01*
X173128571Y-69861904D01*
X173204761Y-69823809D01*
X173242857Y-69785714D01*
X172557142Y-69061904D02*
X172290476Y-69861904D01*
X172023809Y-69061904D01*
M02*
