M48
; DRILL file {KiCad (5.1.6-0-10_14)} date Monday, June 01, 2020 at 10:41:08 AM
; FORMAT={-:-/ absolute / inch / decimal}
; #@! TF.CreationDate,2020-06-01T10:41:08-07:00
; #@! TF.GenerationSoftware,Kicad,Pcbnew,(5.1.6-0-10_14)
; #@! TF.FileFunction,Plated,1,2,PTH
FMAT,2
INCH
T1C0.0130
T2C0.0200
T3C0.0300
T4C0.0394
T5C0.0709
T6C0.0984
%
G90
G05
T1
X3.5Y-1.7
X3.65Y-2.15
X5.65Y-1.775
X5.65Y-2.025
X6.4Y-1.7
X6.65Y-2.25
X7.6Y-1.825
X8.075Y-1.6
T2
X3.9Y-1.95
X4.0Y-1.95
T3
X5.8Y-2.7
X5.9Y-2.7
X6.0Y-2.7
X6.1Y-2.7
X6.2Y-2.7
T4
X8.6Y-2.7
X8.7Y-2.7
X5.45Y-2.35
X5.65Y-2.35
X6.25Y-2.45
X6.35Y-2.45
X6.45Y-2.45
X6.55Y-2.45
X6.65Y-1.65
X6.65Y-2.45
X6.75Y-1.65
X6.75Y-2.45
X6.85Y-1.65
X6.85Y-2.45
X6.95Y-1.65
X6.95Y-2.45
X7.05Y-1.65
X7.05Y-2.45
X7.15Y-1.65
X7.15Y-2.45
X7.25Y-1.65
X7.25Y-2.45
X7.35Y-1.65
X7.35Y-2.45
X7.45Y-1.65
X7.45Y-2.45
X7.55Y-1.65
X7.55Y-2.45
X7.65Y-1.65
X7.65Y-2.45
X7.75Y-1.65
X7.75Y-2.45
X3.35Y-2.45
X3.45Y-2.45
X3.55Y-2.45
X3.65Y-2.45
X3.75Y-1.65
X3.75Y-2.45
X3.85Y-1.65
X3.85Y-2.45
X3.95Y-1.65
X3.95Y-2.45
X4.05Y-1.65
X4.05Y-2.45
X4.15Y-1.65
X4.15Y-2.45
X4.25Y-1.65
X4.25Y-2.45
X4.35Y-1.65
X4.35Y-2.45
X4.45Y-1.65
X4.45Y-2.45
X4.55Y-1.65
X4.55Y-2.45
X4.65Y-1.65
X4.65Y-2.45
X4.75Y-1.65
X4.75Y-2.45
X4.85Y-1.65
X4.85Y-2.45
X5.3Y-1.7
X5.3Y-2.1
X5.4Y-1.7
X5.4Y-2.1
X5.5Y-1.7
X5.5Y-2.1
X5.6Y-1.7
X5.6Y-2.1
X5.7Y-1.7
X5.7Y-2.1
X5.8Y-1.7
X5.8Y-2.1
X8.3431Y-1.7862
X8.3431Y-2.3571
X8.4415Y-2.3571
X8.54Y-1.7862
X8.54Y-2.3571
T6
X6.1Y-1.7
X6.1Y-2.4
X3.2Y-1.7
X3.2Y-2.4
T5
G00X8.2171Y-2.0461
M15
G01X8.2171Y-2.0776
M16
G05
G00X8.6659Y-2.0461
M15
G01X8.6659Y-2.0776
M16
G05
T0
M30
