G04 #@! TF.GenerationSoftware,KiCad,Pcbnew,(5.1.6-0-10_14)*
G04 #@! TF.CreationDate,2020-08-03T12:58:00-07:00*
G04 #@! TF.ProjectId,Clock_MiniM4_Pelican,436c6f63-6b5f-44d6-996e-694d345f5065,v02*
G04 #@! TF.SameCoordinates,Original*
G04 #@! TF.FileFunction,Paste,Bot*
G04 #@! TF.FilePolarity,Positive*
%FSLAX46Y46*%
G04 Gerber Fmt 4.6, Leading zero omitted, Abs format (unit mm)*
G04 Created by KiCad (PCBNEW (5.1.6-0-10_14)) date 2020-08-03 12:58:00*
%MOMM*%
%LPD*%
G01*
G04 APERTURE LIST*
G04 APERTURE END LIST*
G36*
G01*
X202550000Y-64875000D02*
X202550000Y-66125000D01*
G75*
G02*
X202400000Y-66275000I-150000J0D01*
G01*
X202100000Y-66275000D01*
G75*
G02*
X201950000Y-66125000I0J150000D01*
G01*
X201950000Y-64875000D01*
G75*
G02*
X202100000Y-64725000I150000J0D01*
G01*
X202400000Y-64725000D01*
G75*
G02*
X202550000Y-64875000I0J-150000D01*
G01*
G37*
G36*
G01*
X201550000Y-64875000D02*
X201550000Y-66125000D01*
G75*
G02*
X201400000Y-66275000I-150000J0D01*
G01*
X201100000Y-66275000D01*
G75*
G02*
X200950000Y-66125000I0J150000D01*
G01*
X200950000Y-64875000D01*
G75*
G02*
X201100000Y-64725000I150000J0D01*
G01*
X201400000Y-64725000D01*
G75*
G02*
X201550000Y-64875000I0J-150000D01*
G01*
G37*
G36*
G01*
X200550000Y-64875000D02*
X200550000Y-66125000D01*
G75*
G02*
X200400000Y-66275000I-150000J0D01*
G01*
X200100000Y-66275000D01*
G75*
G02*
X199950000Y-66125000I0J150000D01*
G01*
X199950000Y-64875000D01*
G75*
G02*
X200100000Y-64725000I150000J0D01*
G01*
X200400000Y-64725000D01*
G75*
G02*
X200550000Y-64875000I0J-150000D01*
G01*
G37*
G36*
G01*
X199550000Y-64875000D02*
X199550000Y-66125000D01*
G75*
G02*
X199400000Y-66275000I-150000J0D01*
G01*
X199100000Y-66275000D01*
G75*
G02*
X198950000Y-66125000I0J150000D01*
G01*
X198950000Y-64875000D01*
G75*
G02*
X199100000Y-64725000I150000J0D01*
G01*
X199400000Y-64725000D01*
G75*
G02*
X199550000Y-64875000I0J-150000D01*
G01*
G37*
G36*
G01*
X204150000Y-68724999D02*
X204150000Y-70025001D01*
G75*
G02*
X203900001Y-70275000I-249999J0D01*
G01*
X203199999Y-70275000D01*
G75*
G02*
X202950000Y-70025001I0J249999D01*
G01*
X202950000Y-68724999D01*
G75*
G02*
X203199999Y-68475000I249999J0D01*
G01*
X203900001Y-68475000D01*
G75*
G02*
X204150000Y-68724999I0J-249999D01*
G01*
G37*
G36*
G01*
X198550000Y-68724999D02*
X198550000Y-70025001D01*
G75*
G02*
X198300001Y-70275000I-249999J0D01*
G01*
X197599999Y-70275000D01*
G75*
G02*
X197350000Y-70025001I0J249999D01*
G01*
X197350000Y-68724999D01*
G75*
G02*
X197599999Y-68475000I249999J0D01*
G01*
X198300001Y-68475000D01*
G75*
G02*
X198550000Y-68724999I0J-249999D01*
G01*
G37*
G36*
G01*
X165050000Y-68724999D02*
X165050000Y-70025001D01*
G75*
G02*
X164800001Y-70275000I-249999J0D01*
G01*
X164099999Y-70275000D01*
G75*
G02*
X163850000Y-70025001I0J249999D01*
G01*
X163850000Y-68724999D01*
G75*
G02*
X164099999Y-68475000I249999J0D01*
G01*
X164800001Y-68475000D01*
G75*
G02*
X165050000Y-68724999I0J-249999D01*
G01*
G37*
G36*
G01*
X170650000Y-68724999D02*
X170650000Y-70025001D01*
G75*
G02*
X170400001Y-70275000I-249999J0D01*
G01*
X169699999Y-70275000D01*
G75*
G02*
X169450000Y-70025001I0J249999D01*
G01*
X169450000Y-68724999D01*
G75*
G02*
X169699999Y-68475000I249999J0D01*
G01*
X170400001Y-68475000D01*
G75*
G02*
X170650000Y-68724999I0J-249999D01*
G01*
G37*
G36*
G01*
X166050000Y-64875000D02*
X166050000Y-66125000D01*
G75*
G02*
X165900000Y-66275000I-150000J0D01*
G01*
X165600000Y-66275000D01*
G75*
G02*
X165450000Y-66125000I0J150000D01*
G01*
X165450000Y-64875000D01*
G75*
G02*
X165600000Y-64725000I150000J0D01*
G01*
X165900000Y-64725000D01*
G75*
G02*
X166050000Y-64875000I0J-150000D01*
G01*
G37*
G36*
G01*
X167050000Y-64875000D02*
X167050000Y-66125000D01*
G75*
G02*
X166900000Y-66275000I-150000J0D01*
G01*
X166600000Y-66275000D01*
G75*
G02*
X166450000Y-66125000I0J150000D01*
G01*
X166450000Y-64875000D01*
G75*
G02*
X166600000Y-64725000I150000J0D01*
G01*
X166900000Y-64725000D01*
G75*
G02*
X167050000Y-64875000I0J-150000D01*
G01*
G37*
G36*
G01*
X168050000Y-64875000D02*
X168050000Y-66125000D01*
G75*
G02*
X167900000Y-66275000I-150000J0D01*
G01*
X167600000Y-66275000D01*
G75*
G02*
X167450000Y-66125000I0J150000D01*
G01*
X167450000Y-64875000D01*
G75*
G02*
X167600000Y-64725000I150000J0D01*
G01*
X167900000Y-64725000D01*
G75*
G02*
X168050000Y-64875000I0J-150000D01*
G01*
G37*
G36*
G01*
X169050000Y-64875000D02*
X169050000Y-66125000D01*
G75*
G02*
X168900000Y-66275000I-150000J0D01*
G01*
X168600000Y-66275000D01*
G75*
G02*
X168450000Y-66125000I0J150000D01*
G01*
X168450000Y-64875000D01*
G75*
G02*
X168600000Y-64725000I150000J0D01*
G01*
X168900000Y-64725000D01*
G75*
G02*
X169050000Y-64875000I0J-150000D01*
G01*
G37*
M02*
