G04 #@! TF.GenerationSoftware,KiCad,Pcbnew,(5.1.6-0-10_14)*
G04 #@! TF.CreationDate,2020-05-31T18:28:27-07:00*
G04 #@! TF.ProjectId,Clock_MiniM4_Pelican,436c6f63-6b5f-44d6-996e-694d345f5065,v01*
G04 #@! TF.SameCoordinates,Original*
G04 #@! TF.FileFunction,Legend,Top*
G04 #@! TF.FilePolarity,Positive*
%FSLAX46Y46*%
G04 Gerber Fmt 4.6, Leading zero omitted, Abs format (unit mm)*
G04 Created by KiCad (PCBNEW (5.1.6-0-10_14)) date 2020-05-31 18:28:27*
%MOMM*%
%LPD*%
G01*
G04 APERTURE LIST*
%ADD10C,0.300000*%
%ADD11C,0.120000*%
%ADD12C,0.200000*%
%ADD13C,0.100000*%
%ADD14C,0.150000*%
G04 APERTURE END LIST*
D10*
X149860000Y-54610000D02*
X154940000Y-54610000D01*
X152400000Y-52070000D02*
X152400000Y-57150000D01*
D11*
X78373476Y-66401904D02*
X78373476Y-65601904D01*
X78640142Y-66173333D01*
X78906809Y-65601904D01*
X78906809Y-66401904D01*
X79287761Y-66401904D02*
X79287761Y-65868571D01*
X79287761Y-65601904D02*
X79249666Y-65640000D01*
X79287761Y-65678095D01*
X79325857Y-65640000D01*
X79287761Y-65601904D01*
X79287761Y-65678095D01*
X80011571Y-66363809D02*
X79935380Y-66401904D01*
X79783000Y-66401904D01*
X79706809Y-66363809D01*
X79668714Y-66325714D01*
X79630619Y-66249523D01*
X79630619Y-66020952D01*
X79668714Y-65944761D01*
X79706809Y-65906666D01*
X79783000Y-65868571D01*
X79935380Y-65868571D01*
X80011571Y-65906666D01*
X80354428Y-66401904D02*
X80354428Y-65868571D01*
X80354428Y-66020952D02*
X80392523Y-65944761D01*
X80430619Y-65906666D01*
X80506809Y-65868571D01*
X80583000Y-65868571D01*
X80963952Y-66401904D02*
X80887761Y-66363809D01*
X80849666Y-66325714D01*
X80811571Y-66249523D01*
X80811571Y-66020952D01*
X80849666Y-65944761D01*
X80887761Y-65906666D01*
X80963952Y-65868571D01*
X81078238Y-65868571D01*
X81154428Y-65906666D01*
X81192523Y-65944761D01*
X81230619Y-66020952D01*
X81230619Y-66249523D01*
X81192523Y-66325714D01*
X81154428Y-66363809D01*
X81078238Y-66401904D01*
X80963952Y-66401904D01*
X82640142Y-66325714D02*
X82602047Y-66363809D01*
X82487761Y-66401904D01*
X82411571Y-66401904D01*
X82297285Y-66363809D01*
X82221095Y-66287619D01*
X82183000Y-66211428D01*
X82144904Y-66059047D01*
X82144904Y-65944761D01*
X82183000Y-65792380D01*
X82221095Y-65716190D01*
X82297285Y-65640000D01*
X82411571Y-65601904D01*
X82487761Y-65601904D01*
X82602047Y-65640000D01*
X82640142Y-65678095D01*
X83325857Y-66401904D02*
X83325857Y-65982857D01*
X83287761Y-65906666D01*
X83211571Y-65868571D01*
X83059190Y-65868571D01*
X82983000Y-65906666D01*
X83325857Y-66363809D02*
X83249666Y-66401904D01*
X83059190Y-66401904D01*
X82983000Y-66363809D01*
X82944904Y-66287619D01*
X82944904Y-66211428D01*
X82983000Y-66135238D01*
X83059190Y-66097142D01*
X83249666Y-66097142D01*
X83325857Y-66059047D01*
X83668714Y-66363809D02*
X83744904Y-66401904D01*
X83897285Y-66401904D01*
X83973476Y-66363809D01*
X84011571Y-66287619D01*
X84011571Y-66249523D01*
X83973476Y-66173333D01*
X83897285Y-66135238D01*
X83783000Y-66135238D01*
X83706809Y-66097142D01*
X83668714Y-66020952D01*
X83668714Y-65982857D01*
X83706809Y-65906666D01*
X83783000Y-65868571D01*
X83897285Y-65868571D01*
X83973476Y-65906666D01*
X84659190Y-66363809D02*
X84583000Y-66401904D01*
X84430619Y-66401904D01*
X84354428Y-66363809D01*
X84316333Y-66287619D01*
X84316333Y-65982857D01*
X84354428Y-65906666D01*
X84430619Y-65868571D01*
X84583000Y-65868571D01*
X84659190Y-65906666D01*
X84697285Y-65982857D01*
X84697285Y-66059047D01*
X84316333Y-66135238D01*
X86068714Y-66401904D02*
X85611571Y-66401904D01*
X85840142Y-66401904D02*
X85840142Y-65601904D01*
X85763952Y-65716190D01*
X85687761Y-65792380D01*
X85611571Y-65830476D01*
X86563952Y-65601904D02*
X86640142Y-65601904D01*
X86716333Y-65640000D01*
X86754428Y-65678095D01*
X86792523Y-65754285D01*
X86830619Y-65906666D01*
X86830619Y-66097142D01*
X86792523Y-66249523D01*
X86754428Y-66325714D01*
X86716333Y-66363809D01*
X86640142Y-66401904D01*
X86563952Y-66401904D01*
X86487761Y-66363809D01*
X86449666Y-66325714D01*
X86411571Y-66249523D01*
X86373476Y-66097142D01*
X86373476Y-65906666D01*
X86411571Y-65754285D01*
X86449666Y-65678095D01*
X86487761Y-65640000D01*
X86563952Y-65601904D01*
X87516333Y-65868571D02*
X87516333Y-66401904D01*
X87325857Y-65563809D02*
X87135380Y-66135238D01*
X87630619Y-66135238D01*
X88087761Y-65601904D02*
X88163952Y-65601904D01*
X88240142Y-65640000D01*
X88278238Y-65678095D01*
X88316333Y-65754285D01*
X88354428Y-65906666D01*
X88354428Y-66097142D01*
X88316333Y-66249523D01*
X88278238Y-66325714D01*
X88240142Y-66363809D01*
X88163952Y-66401904D01*
X88087761Y-66401904D01*
X88011571Y-66363809D01*
X87973476Y-66325714D01*
X87935380Y-66249523D01*
X87897285Y-66097142D01*
X87897285Y-65906666D01*
X87935380Y-65754285D01*
X87973476Y-65678095D01*
X88011571Y-65640000D01*
X88087761Y-65601904D01*
D12*
X211645952Y-40877380D02*
X211645952Y-39877380D01*
X212026904Y-39877380D01*
X212122142Y-39925000D01*
X212169761Y-39972619D01*
X212217380Y-40067857D01*
X212217380Y-40210714D01*
X212169761Y-40305952D01*
X212122142Y-40353571D01*
X212026904Y-40401190D01*
X211645952Y-40401190D01*
X212645952Y-39877380D02*
X212645952Y-40686904D01*
X212693571Y-40782142D01*
X212741190Y-40829761D01*
X212836428Y-40877380D01*
X213026904Y-40877380D01*
X213122142Y-40829761D01*
X213169761Y-40782142D01*
X213217380Y-40686904D01*
X213217380Y-39877380D01*
X213645952Y-40829761D02*
X213788809Y-40877380D01*
X214026904Y-40877380D01*
X214122142Y-40829761D01*
X214169761Y-40782142D01*
X214217380Y-40686904D01*
X214217380Y-40591666D01*
X214169761Y-40496428D01*
X214122142Y-40448809D01*
X214026904Y-40401190D01*
X213836428Y-40353571D01*
X213741190Y-40305952D01*
X213693571Y-40258333D01*
X213645952Y-40163095D01*
X213645952Y-40067857D01*
X213693571Y-39972619D01*
X213741190Y-39925000D01*
X213836428Y-39877380D01*
X214074523Y-39877380D01*
X214217380Y-39925000D01*
X214645952Y-40877380D02*
X214645952Y-39877380D01*
X214645952Y-40353571D02*
X215217380Y-40353571D01*
X215217380Y-40877380D02*
X215217380Y-39877380D01*
X216788809Y-40353571D02*
X216455476Y-40353571D01*
X216455476Y-40877380D02*
X216455476Y-39877380D01*
X216931666Y-39877380D01*
X217503095Y-39877380D02*
X217693571Y-39877380D01*
X217788809Y-39925000D01*
X217884047Y-40020238D01*
X217931666Y-40210714D01*
X217931666Y-40544047D01*
X217884047Y-40734523D01*
X217788809Y-40829761D01*
X217693571Y-40877380D01*
X217503095Y-40877380D01*
X217407857Y-40829761D01*
X217312619Y-40734523D01*
X217265000Y-40544047D01*
X217265000Y-40210714D01*
X217312619Y-40020238D01*
X217407857Y-39925000D01*
X217503095Y-39877380D01*
X218931666Y-40877380D02*
X218598333Y-40401190D01*
X218360238Y-40877380D02*
X218360238Y-39877380D01*
X218741190Y-39877380D01*
X218836428Y-39925000D01*
X218884047Y-39972619D01*
X218931666Y-40067857D01*
X218931666Y-40210714D01*
X218884047Y-40305952D01*
X218836428Y-40353571D01*
X218741190Y-40401190D01*
X218360238Y-40401190D01*
X212026904Y-42529761D02*
X212169761Y-42577380D01*
X212407857Y-42577380D01*
X212503095Y-42529761D01*
X212550714Y-42482142D01*
X212598333Y-42386904D01*
X212598333Y-42291666D01*
X212550714Y-42196428D01*
X212503095Y-42148809D01*
X212407857Y-42101190D01*
X212217380Y-42053571D01*
X212122142Y-42005952D01*
X212074523Y-41958333D01*
X212026904Y-41863095D01*
X212026904Y-41767857D01*
X212074523Y-41672619D01*
X212122142Y-41625000D01*
X212217380Y-41577380D01*
X212455476Y-41577380D01*
X212598333Y-41625000D01*
X213026904Y-42053571D02*
X213360238Y-42053571D01*
X213503095Y-42577380D02*
X213026904Y-42577380D01*
X213026904Y-41577380D01*
X213503095Y-41577380D01*
X213788809Y-41577380D02*
X214360238Y-41577380D01*
X214074523Y-42577380D02*
X214074523Y-41577380D01*
X214550714Y-41577380D02*
X215122142Y-41577380D01*
X214836428Y-42577380D02*
X214836428Y-41577380D01*
X215455476Y-42577380D02*
X215455476Y-41577380D01*
X215931666Y-42577380D02*
X215931666Y-41577380D01*
X216503095Y-42577380D01*
X216503095Y-41577380D01*
X217503095Y-41625000D02*
X217407857Y-41577380D01*
X217265000Y-41577380D01*
X217122142Y-41625000D01*
X217026904Y-41720238D01*
X216979285Y-41815476D01*
X216931666Y-42005952D01*
X216931666Y-42148809D01*
X216979285Y-42339285D01*
X217026904Y-42434523D01*
X217122142Y-42529761D01*
X217265000Y-42577380D01*
X217360238Y-42577380D01*
X217503095Y-42529761D01*
X217550714Y-42482142D01*
X217550714Y-42148809D01*
X217360238Y-42148809D01*
X217931666Y-42529761D02*
X218074523Y-42577380D01*
X218312619Y-42577380D01*
X218407857Y-42529761D01*
X218455476Y-42482142D01*
X218503095Y-42386904D01*
X218503095Y-42291666D01*
X218455476Y-42196428D01*
X218407857Y-42148809D01*
X218312619Y-42101190D01*
X218122142Y-42053571D01*
X218026904Y-42005952D01*
X217979285Y-41958333D01*
X217931666Y-41863095D01*
X217931666Y-41767857D01*
X217979285Y-41672619D01*
X218026904Y-41625000D01*
X218122142Y-41577380D01*
X218360238Y-41577380D01*
X218503095Y-41625000D01*
D11*
X224180476Y-68180000D02*
X224104285Y-68141904D01*
X223990000Y-68141904D01*
X223875714Y-68180000D01*
X223799523Y-68256190D01*
X223761428Y-68332380D01*
X223723333Y-68484761D01*
X223723333Y-68599047D01*
X223761428Y-68751428D01*
X223799523Y-68827619D01*
X223875714Y-68903809D01*
X223990000Y-68941904D01*
X224066190Y-68941904D01*
X224180476Y-68903809D01*
X224218571Y-68865714D01*
X224218571Y-68599047D01*
X224066190Y-68599047D01*
X224561428Y-68941904D02*
X224561428Y-68141904D01*
X225018571Y-68941904D01*
X225018571Y-68141904D01*
X225399523Y-68941904D02*
X225399523Y-68141904D01*
X225590000Y-68141904D01*
X225704285Y-68180000D01*
X225780476Y-68256190D01*
X225818571Y-68332380D01*
X225856666Y-68484761D01*
X225856666Y-68599047D01*
X225818571Y-68751428D01*
X225780476Y-68827619D01*
X225704285Y-68903809D01*
X225590000Y-68941904D01*
X225399523Y-68941904D01*
X214960238Y-68637142D02*
X215569761Y-68637142D01*
X215265000Y-68941904D02*
X215265000Y-68332380D01*
X78335380Y-68853095D02*
X78373476Y-68815000D01*
X78449666Y-68776904D01*
X78640142Y-68776904D01*
X78716333Y-68815000D01*
X78754428Y-68853095D01*
X78792523Y-68929285D01*
X78792523Y-69005476D01*
X78754428Y-69119761D01*
X78297285Y-69576904D01*
X78792523Y-69576904D01*
X79287761Y-68776904D02*
X79363952Y-68776904D01*
X79440142Y-68815000D01*
X79478238Y-68853095D01*
X79516333Y-68929285D01*
X79554428Y-69081666D01*
X79554428Y-69272142D01*
X79516333Y-69424523D01*
X79478238Y-69500714D01*
X79440142Y-69538809D01*
X79363952Y-69576904D01*
X79287761Y-69576904D01*
X79211571Y-69538809D01*
X79173476Y-69500714D01*
X79135380Y-69424523D01*
X79097285Y-69272142D01*
X79097285Y-69081666D01*
X79135380Y-68929285D01*
X79173476Y-68853095D01*
X79211571Y-68815000D01*
X79287761Y-68776904D01*
X79859190Y-68853095D02*
X79897285Y-68815000D01*
X79973476Y-68776904D01*
X80163952Y-68776904D01*
X80240142Y-68815000D01*
X80278238Y-68853095D01*
X80316333Y-68929285D01*
X80316333Y-69005476D01*
X80278238Y-69119761D01*
X79821095Y-69576904D01*
X80316333Y-69576904D01*
X80811571Y-68776904D02*
X80887761Y-68776904D01*
X80963952Y-68815000D01*
X81002047Y-68853095D01*
X81040142Y-68929285D01*
X81078238Y-69081666D01*
X81078238Y-69272142D01*
X81040142Y-69424523D01*
X81002047Y-69500714D01*
X80963952Y-69538809D01*
X80887761Y-69576904D01*
X80811571Y-69576904D01*
X80735380Y-69538809D01*
X80697285Y-69500714D01*
X80659190Y-69424523D01*
X80621095Y-69272142D01*
X80621095Y-69081666D01*
X80659190Y-68929285D01*
X80697285Y-68853095D01*
X80735380Y-68815000D01*
X80811571Y-68776904D01*
X81421095Y-69272142D02*
X82030619Y-69272142D01*
X82563952Y-68776904D02*
X82640142Y-68776904D01*
X82716333Y-68815000D01*
X82754428Y-68853095D01*
X82792523Y-68929285D01*
X82830619Y-69081666D01*
X82830619Y-69272142D01*
X82792523Y-69424523D01*
X82754428Y-69500714D01*
X82716333Y-69538809D01*
X82640142Y-69576904D01*
X82563952Y-69576904D01*
X82487761Y-69538809D01*
X82449666Y-69500714D01*
X82411571Y-69424523D01*
X82373476Y-69272142D01*
X82373476Y-69081666D01*
X82411571Y-68929285D01*
X82449666Y-68853095D01*
X82487761Y-68815000D01*
X82563952Y-68776904D01*
X83554428Y-68776904D02*
X83173476Y-68776904D01*
X83135380Y-69157857D01*
X83173476Y-69119761D01*
X83249666Y-69081666D01*
X83440142Y-69081666D01*
X83516333Y-69119761D01*
X83554428Y-69157857D01*
X83592523Y-69234047D01*
X83592523Y-69424523D01*
X83554428Y-69500714D01*
X83516333Y-69538809D01*
X83440142Y-69576904D01*
X83249666Y-69576904D01*
X83173476Y-69538809D01*
X83135380Y-69500714D01*
X83935380Y-69272142D02*
X84544904Y-69272142D01*
X84849666Y-68776904D02*
X85344904Y-68776904D01*
X85078238Y-69081666D01*
X85192523Y-69081666D01*
X85268714Y-69119761D01*
X85306809Y-69157857D01*
X85344904Y-69234047D01*
X85344904Y-69424523D01*
X85306809Y-69500714D01*
X85268714Y-69538809D01*
X85192523Y-69576904D01*
X84963952Y-69576904D01*
X84887761Y-69538809D01*
X84849666Y-69500714D01*
X86106809Y-69576904D02*
X85649666Y-69576904D01*
X85878238Y-69576904D02*
X85878238Y-68776904D01*
X85802047Y-68891190D01*
X85725857Y-68967380D01*
X85649666Y-69005476D01*
X86983000Y-69043571D02*
X87173476Y-69576904D01*
X87363952Y-69043571D01*
X87821095Y-68776904D02*
X87897285Y-68776904D01*
X87973476Y-68815000D01*
X88011571Y-68853095D01*
X88049666Y-68929285D01*
X88087761Y-69081666D01*
X88087761Y-69272142D01*
X88049666Y-69424523D01*
X88011571Y-69500714D01*
X87973476Y-69538809D01*
X87897285Y-69576904D01*
X87821095Y-69576904D01*
X87744904Y-69538809D01*
X87706809Y-69500714D01*
X87668714Y-69424523D01*
X87630619Y-69272142D01*
X87630619Y-69081666D01*
X87668714Y-68929285D01*
X87706809Y-68853095D01*
X87744904Y-68815000D01*
X87821095Y-68776904D01*
X88849666Y-69576904D02*
X88392523Y-69576904D01*
X88621095Y-69576904D02*
X88621095Y-68776904D01*
X88544904Y-68891190D01*
X88468714Y-68967380D01*
X88392523Y-69005476D01*
D12*
X79044523Y-65127142D02*
X78996904Y-65174761D01*
X78854047Y-65222380D01*
X78758809Y-65222380D01*
X78615952Y-65174761D01*
X78520714Y-65079523D01*
X78473095Y-64984285D01*
X78425476Y-64793809D01*
X78425476Y-64650952D01*
X78473095Y-64460476D01*
X78520714Y-64365238D01*
X78615952Y-64270000D01*
X78758809Y-64222380D01*
X78854047Y-64222380D01*
X78996904Y-64270000D01*
X79044523Y-64317619D01*
X79615952Y-65222380D02*
X79520714Y-65174761D01*
X79473095Y-65079523D01*
X79473095Y-64222380D01*
X80139761Y-65222380D02*
X80044523Y-65174761D01*
X79996904Y-65127142D01*
X79949285Y-65031904D01*
X79949285Y-64746190D01*
X79996904Y-64650952D01*
X80044523Y-64603333D01*
X80139761Y-64555714D01*
X80282619Y-64555714D01*
X80377857Y-64603333D01*
X80425476Y-64650952D01*
X80473095Y-64746190D01*
X80473095Y-65031904D01*
X80425476Y-65127142D01*
X80377857Y-65174761D01*
X80282619Y-65222380D01*
X80139761Y-65222380D01*
X81330238Y-65174761D02*
X81235000Y-65222380D01*
X81044523Y-65222380D01*
X80949285Y-65174761D01*
X80901666Y-65127142D01*
X80854047Y-65031904D01*
X80854047Y-64746190D01*
X80901666Y-64650952D01*
X80949285Y-64603333D01*
X81044523Y-64555714D01*
X81235000Y-64555714D01*
X81330238Y-64603333D01*
X81758809Y-65222380D02*
X81758809Y-64222380D01*
X81854047Y-64841428D02*
X82139761Y-65222380D01*
X82139761Y-64555714D02*
X81758809Y-64936666D01*
X83330238Y-65222380D02*
X83330238Y-64222380D01*
X83663571Y-64936666D01*
X83996904Y-64222380D01*
X83996904Y-65222380D01*
X84473095Y-65222380D02*
X84473095Y-64555714D01*
X84473095Y-64222380D02*
X84425476Y-64270000D01*
X84473095Y-64317619D01*
X84520714Y-64270000D01*
X84473095Y-64222380D01*
X84473095Y-64317619D01*
X84949285Y-64555714D02*
X84949285Y-65222380D01*
X84949285Y-64650952D02*
X84996904Y-64603333D01*
X85092142Y-64555714D01*
X85235000Y-64555714D01*
X85330238Y-64603333D01*
X85377857Y-64698571D01*
X85377857Y-65222380D01*
X85854047Y-65222380D02*
X85854047Y-64555714D01*
X85854047Y-64222380D02*
X85806428Y-64270000D01*
X85854047Y-64317619D01*
X85901666Y-64270000D01*
X85854047Y-64222380D01*
X85854047Y-64317619D01*
X86330238Y-65222380D02*
X86330238Y-64555714D01*
X86330238Y-64650952D02*
X86377857Y-64603333D01*
X86473095Y-64555714D01*
X86615952Y-64555714D01*
X86711190Y-64603333D01*
X86758809Y-64698571D01*
X86758809Y-65222380D01*
X86758809Y-64698571D02*
X86806428Y-64603333D01*
X86901666Y-64555714D01*
X87044523Y-64555714D01*
X87139761Y-64603333D01*
X87187380Y-64698571D01*
X87187380Y-65222380D01*
X88092142Y-65222380D02*
X88092142Y-64698571D01*
X88044523Y-64603333D01*
X87949285Y-64555714D01*
X87758809Y-64555714D01*
X87663571Y-64603333D01*
X88092142Y-65174761D02*
X87996904Y-65222380D01*
X87758809Y-65222380D01*
X87663571Y-65174761D01*
X87615952Y-65079523D01*
X87615952Y-64984285D01*
X87663571Y-64889047D01*
X87758809Y-64841428D01*
X87996904Y-64841428D01*
X88092142Y-64793809D01*
X89330238Y-65222380D02*
X89330238Y-64222380D01*
X89711190Y-64222380D01*
X89806428Y-64270000D01*
X89854047Y-64317619D01*
X89901666Y-64412857D01*
X89901666Y-64555714D01*
X89854047Y-64650952D01*
X89806428Y-64698571D01*
X89711190Y-64746190D01*
X89330238Y-64746190D01*
X90711190Y-65174761D02*
X90615952Y-65222380D01*
X90425476Y-65222380D01*
X90330238Y-65174761D01*
X90282619Y-65079523D01*
X90282619Y-64698571D01*
X90330238Y-64603333D01*
X90425476Y-64555714D01*
X90615952Y-64555714D01*
X90711190Y-64603333D01*
X90758809Y-64698571D01*
X90758809Y-64793809D01*
X90282619Y-64889047D01*
X91330238Y-65222380D02*
X91235000Y-65174761D01*
X91187380Y-65079523D01*
X91187380Y-64222380D01*
X91711190Y-65222380D02*
X91711190Y-64555714D01*
X91711190Y-64222380D02*
X91663571Y-64270000D01*
X91711190Y-64317619D01*
X91758809Y-64270000D01*
X91711190Y-64222380D01*
X91711190Y-64317619D01*
X92615952Y-65174761D02*
X92520714Y-65222380D01*
X92330238Y-65222380D01*
X92235000Y-65174761D01*
X92187380Y-65127142D01*
X92139761Y-65031904D01*
X92139761Y-64746190D01*
X92187380Y-64650952D01*
X92235000Y-64603333D01*
X92330238Y-64555714D01*
X92520714Y-64555714D01*
X92615952Y-64603333D01*
X93473095Y-65222380D02*
X93473095Y-64698571D01*
X93425476Y-64603333D01*
X93330238Y-64555714D01*
X93139761Y-64555714D01*
X93044523Y-64603333D01*
X93473095Y-65174761D02*
X93377857Y-65222380D01*
X93139761Y-65222380D01*
X93044523Y-65174761D01*
X92996904Y-65079523D01*
X92996904Y-64984285D01*
X93044523Y-64889047D01*
X93139761Y-64841428D01*
X93377857Y-64841428D01*
X93473095Y-64793809D01*
X93949285Y-64555714D02*
X93949285Y-65222380D01*
X93949285Y-64650952D02*
X93996904Y-64603333D01*
X94092142Y-64555714D01*
X94235000Y-64555714D01*
X94330238Y-64603333D01*
X94377857Y-64698571D01*
X94377857Y-65222380D01*
D11*
X78830619Y-68230714D02*
X78792523Y-68268809D01*
X78678238Y-68306904D01*
X78602047Y-68306904D01*
X78487761Y-68268809D01*
X78411571Y-68192619D01*
X78373476Y-68116428D01*
X78335380Y-67964047D01*
X78335380Y-67849761D01*
X78373476Y-67697380D01*
X78411571Y-67621190D01*
X78487761Y-67545000D01*
X78602047Y-67506904D01*
X78678238Y-67506904D01*
X78792523Y-67545000D01*
X78830619Y-67583095D01*
X79478238Y-68268809D02*
X79402047Y-68306904D01*
X79249666Y-68306904D01*
X79173476Y-68268809D01*
X79135380Y-68192619D01*
X79135380Y-67887857D01*
X79173476Y-67811666D01*
X79249666Y-67773571D01*
X79402047Y-67773571D01*
X79478238Y-67811666D01*
X79516333Y-67887857D01*
X79516333Y-67964047D01*
X79135380Y-68040238D01*
X80202047Y-68306904D02*
X80202047Y-67506904D01*
X80202047Y-68268809D02*
X80125857Y-68306904D01*
X79973476Y-68306904D01*
X79897285Y-68268809D01*
X79859190Y-68230714D01*
X79821095Y-68154523D01*
X79821095Y-67925952D01*
X79859190Y-67849761D01*
X79897285Y-67811666D01*
X79973476Y-67773571D01*
X80125857Y-67773571D01*
X80202047Y-67811666D01*
X80925857Y-68306904D02*
X80925857Y-67887857D01*
X80887761Y-67811666D01*
X80811571Y-67773571D01*
X80659190Y-67773571D01*
X80583000Y-67811666D01*
X80925857Y-68268809D02*
X80849666Y-68306904D01*
X80659190Y-68306904D01*
X80583000Y-68268809D01*
X80544904Y-68192619D01*
X80544904Y-68116428D01*
X80583000Y-68040238D01*
X80659190Y-68002142D01*
X80849666Y-68002142D01*
X80925857Y-67964047D01*
X81306809Y-68306904D02*
X81306809Y-67773571D01*
X81306809Y-67925952D02*
X81344904Y-67849761D01*
X81383000Y-67811666D01*
X81459190Y-67773571D01*
X81535380Y-67773571D01*
X82830619Y-67545000D02*
X82754428Y-67506904D01*
X82640142Y-67506904D01*
X82525857Y-67545000D01*
X82449666Y-67621190D01*
X82411571Y-67697380D01*
X82373476Y-67849761D01*
X82373476Y-67964047D01*
X82411571Y-68116428D01*
X82449666Y-68192619D01*
X82525857Y-68268809D01*
X82640142Y-68306904D01*
X82716333Y-68306904D01*
X82830619Y-68268809D01*
X82868714Y-68230714D01*
X82868714Y-67964047D01*
X82716333Y-67964047D01*
X83211571Y-68306904D02*
X83211571Y-67773571D01*
X83211571Y-67925952D02*
X83249666Y-67849761D01*
X83287761Y-67811666D01*
X83363952Y-67773571D01*
X83440142Y-67773571D01*
X83821095Y-68306904D02*
X83744904Y-68268809D01*
X83706809Y-68230714D01*
X83668714Y-68154523D01*
X83668714Y-67925952D01*
X83706809Y-67849761D01*
X83744904Y-67811666D01*
X83821095Y-67773571D01*
X83935380Y-67773571D01*
X84011571Y-67811666D01*
X84049666Y-67849761D01*
X84087761Y-67925952D01*
X84087761Y-68154523D01*
X84049666Y-68230714D01*
X84011571Y-68268809D01*
X83935380Y-68306904D01*
X83821095Y-68306904D01*
X84354428Y-67773571D02*
X84544904Y-68306904D01*
X84735380Y-67773571D01*
X85344904Y-68268809D02*
X85268714Y-68306904D01*
X85116333Y-68306904D01*
X85040142Y-68268809D01*
X85002047Y-68192619D01*
X85002047Y-67887857D01*
X85040142Y-67811666D01*
X85116333Y-67773571D01*
X85268714Y-67773571D01*
X85344904Y-67811666D01*
X85383000Y-67887857D01*
X85383000Y-67964047D01*
X85002047Y-68040238D01*
X86297285Y-68268809D02*
X86411571Y-68306904D01*
X86602047Y-68306904D01*
X86678238Y-68268809D01*
X86716333Y-68230714D01*
X86754428Y-68154523D01*
X86754428Y-68078333D01*
X86716333Y-68002142D01*
X86678238Y-67964047D01*
X86602047Y-67925952D01*
X86449666Y-67887857D01*
X86373476Y-67849761D01*
X86335380Y-67811666D01*
X86297285Y-67735476D01*
X86297285Y-67659285D01*
X86335380Y-67583095D01*
X86373476Y-67545000D01*
X86449666Y-67506904D01*
X86640142Y-67506904D01*
X86754428Y-67545000D01*
X86983000Y-67773571D02*
X87287761Y-67773571D01*
X87097285Y-67506904D02*
X87097285Y-68192619D01*
X87135380Y-68268809D01*
X87211571Y-68306904D01*
X87287761Y-68306904D01*
X87897285Y-67773571D02*
X87897285Y-68306904D01*
X87554428Y-67773571D02*
X87554428Y-68192619D01*
X87592523Y-68268809D01*
X87668714Y-68306904D01*
X87783000Y-68306904D01*
X87859190Y-68268809D01*
X87897285Y-68230714D01*
X88621095Y-68306904D02*
X88621095Y-67506904D01*
X88621095Y-68268809D02*
X88544904Y-68306904D01*
X88392523Y-68306904D01*
X88316333Y-68268809D01*
X88278238Y-68230714D01*
X88240142Y-68154523D01*
X88240142Y-67925952D01*
X88278238Y-67849761D01*
X88316333Y-67811666D01*
X88392523Y-67773571D01*
X88544904Y-67773571D01*
X88621095Y-67811666D01*
X89002047Y-68306904D02*
X89002047Y-67773571D01*
X89002047Y-67506904D02*
X88963952Y-67545000D01*
X89002047Y-67583095D01*
X89040142Y-67545000D01*
X89002047Y-67506904D01*
X89002047Y-67583095D01*
X89497285Y-68306904D02*
X89421095Y-68268809D01*
X89383000Y-68230714D01*
X89344904Y-68154523D01*
X89344904Y-67925952D01*
X89383000Y-67849761D01*
X89421095Y-67811666D01*
X89497285Y-67773571D01*
X89611571Y-67773571D01*
X89687761Y-67811666D01*
X89725857Y-67849761D01*
X89763952Y-67925952D01*
X89763952Y-68154523D01*
X89725857Y-68230714D01*
X89687761Y-68268809D01*
X89611571Y-68306904D01*
X89497285Y-68306904D01*
X90068714Y-68268809D02*
X90144904Y-68306904D01*
X90297285Y-68306904D01*
X90373476Y-68268809D01*
X90411571Y-68192619D01*
X90411571Y-68154523D01*
X90373476Y-68078333D01*
X90297285Y-68040238D01*
X90183000Y-68040238D01*
X90106809Y-68002142D01*
X90068714Y-67925952D01*
X90068714Y-67887857D01*
X90106809Y-67811666D01*
X90183000Y-67773571D01*
X90297285Y-67773571D01*
X90373476Y-67811666D01*
D13*
X212217000Y-66040000D02*
X212217000Y-91440000D01*
X212217000Y-91440000D02*
X212217000Y-116840000D01*
X92583000Y-66040000D02*
X92583000Y-91440000D01*
X92583000Y-91440000D02*
X92583000Y-116840000D01*
X152400000Y-116840000D02*
X212217000Y-116840000D01*
X92583000Y-116840000D02*
X152400000Y-116840000D01*
X92583000Y-71120000D02*
X212217000Y-71120000D01*
X92583000Y-111760000D02*
X212217000Y-111760000D01*
X212217000Y-68580000D02*
X208661000Y-68580000D01*
X208661000Y-66040000D02*
X208661000Y-71120000D01*
X212217000Y-114300000D02*
X208661000Y-114300000D01*
X208661000Y-111760000D02*
X208661000Y-116840000D01*
X96139000Y-114300000D02*
X92583000Y-114300000D01*
X96139000Y-111760000D02*
X96139000Y-116840000D01*
X96139000Y-68580000D02*
X92583000Y-68580000D01*
X96139000Y-66040000D02*
X96139000Y-71120000D01*
X152400000Y-66040000D02*
X212217000Y-66040000D01*
X92583000Y-66040000D02*
X152400000Y-66040000D01*
X142046666Y-47625000D02*
X143316666Y-47625000D01*
X138236666Y-47625000D02*
X136966666Y-47625000D01*
X140776666Y-47625000D02*
X139506666Y-47625000D01*
X142046666Y-47625000D02*
X140776666Y-47625000D01*
X142046666Y-48895000D02*
X143316666Y-48895000D01*
X140776666Y-48895000D02*
X142046666Y-48895000D01*
X139506666Y-48895000D02*
X140776666Y-48895000D01*
X136966666Y-48895000D02*
X138236666Y-48895000D01*
X136331666Y-45085000D02*
X136331666Y-51435000D01*
X138871666Y-45085000D02*
X138871666Y-51435000D01*
X141411666Y-45085000D02*
X141411666Y-51435000D01*
X143951666Y-45085000D02*
X143951666Y-51435000D01*
X146491666Y-48895000D02*
X146491666Y-52070000D01*
X144586666Y-48895000D02*
X146491666Y-48895000D01*
X146491666Y-47625000D02*
X144586666Y-47625000D01*
X146491666Y-44450000D02*
X146491666Y-47625000D01*
X133791666Y-44450000D02*
X133791666Y-52070000D01*
D14*
G36*
X136966666Y-46990000D02*
G01*
X135696666Y-46990000D01*
X136331666Y-48260000D01*
X136966666Y-46990000D01*
G37*
X136966666Y-46990000D02*
X135696666Y-46990000D01*
X136331666Y-48260000D01*
X136966666Y-46990000D01*
G36*
X136331666Y-48260000D02*
G01*
X136966666Y-49530000D01*
X135696666Y-49530000D01*
X136331666Y-48260000D01*
G37*
X136331666Y-48260000D02*
X136966666Y-49530000D01*
X135696666Y-49530000D01*
X136331666Y-48260000D01*
G36*
X139506666Y-46990000D02*
G01*
X138236666Y-46990000D01*
X138871666Y-48260000D01*
X139506666Y-46990000D01*
G37*
X139506666Y-46990000D02*
X138236666Y-46990000D01*
X138871666Y-48260000D01*
X139506666Y-46990000D01*
G36*
X138871666Y-48260000D02*
G01*
X139506666Y-49530000D01*
X138236666Y-49530000D01*
X138871666Y-48260000D01*
G37*
X138871666Y-48260000D02*
X139506666Y-49530000D01*
X138236666Y-49530000D01*
X138871666Y-48260000D01*
G36*
X142046666Y-46990000D02*
G01*
X140776666Y-46990000D01*
X141411666Y-48260000D01*
X142046666Y-46990000D01*
G37*
X142046666Y-46990000D02*
X140776666Y-46990000D01*
X141411666Y-48260000D01*
X142046666Y-46990000D01*
G36*
X141411666Y-48260000D02*
G01*
X142046666Y-49530000D01*
X140776666Y-49530000D01*
X141411666Y-48260000D01*
G37*
X141411666Y-48260000D02*
X142046666Y-49530000D01*
X140776666Y-49530000D01*
X141411666Y-48260000D01*
G36*
X143951666Y-48260000D02*
G01*
X144586666Y-49530000D01*
X143316666Y-49530000D01*
X143951666Y-48260000D01*
G37*
X143951666Y-48260000D02*
X144586666Y-49530000D01*
X143316666Y-49530000D01*
X143951666Y-48260000D01*
G36*
X144586666Y-46990000D02*
G01*
X143316666Y-46990000D01*
X143951666Y-48260000D01*
X144586666Y-46990000D01*
G37*
X144586666Y-46990000D02*
X143316666Y-46990000D01*
X143951666Y-48260000D01*
X144586666Y-46990000D01*
D13*
X132521666Y-40640000D02*
X147761666Y-40640000D01*
X131251666Y-54610000D02*
X131251666Y-41910000D01*
X147761666Y-55880000D02*
X132521666Y-55880000D01*
X149031666Y-41910000D02*
X149031666Y-54610000D01*
X149031666Y-54610000D02*
G75*
G02*
X147761666Y-55880000I-1270000J0D01*
G01*
X147761666Y-40640000D02*
G75*
G02*
X149031666Y-41910000I0J-1270000D01*
G01*
X131251666Y-41910000D02*
G75*
G02*
X132521666Y-40640000I1270000J0D01*
G01*
X132521666Y-55880000D02*
G75*
G02*
X131251666Y-54610000I0J1270000D01*
G01*
X165100000Y-45720000D02*
X165100000Y-40640000D01*
X157480000Y-45720000D02*
X165100000Y-45720000D01*
X157480000Y-40640000D02*
X157480000Y-45720000D01*
X154940000Y-55880000D02*
X151130000Y-55880000D01*
X154940000Y-48260000D02*
X154940000Y-55880000D01*
X151130000Y-48260000D02*
X154940000Y-48260000D01*
X162188026Y-57150000D02*
G75*
G03*
X162188026Y-57150000I-898026J0D01*
G01*
X162560000Y-55880000D02*
X160020000Y-55880000D01*
X162560000Y-58420000D02*
X162560000Y-55880000D01*
X160020000Y-58420000D02*
X162560000Y-58420000D01*
X160020000Y-55880000D02*
X160020000Y-58420000D01*
X155575000Y-43180000D02*
G75*
G03*
X155575000Y-43180000I-1905000J0D01*
G01*
X155575000Y-60960000D02*
G75*
G03*
X155575000Y-60960000I-1905000J0D01*
G01*
X200660000Y-60960000D02*
G75*
G03*
X200660000Y-60960000I-1270000J0D01*
G01*
X200660000Y-43180000D02*
G75*
G03*
X200660000Y-43180000I-1270000J0D01*
G01*
X151130000Y-63500000D02*
X151130000Y-40640000D01*
X201930000Y-63500000D02*
X151130000Y-63500000D01*
X201930000Y-40640000D02*
X201930000Y-63500000D01*
X151130000Y-40640000D02*
X201930000Y-40640000D01*
X152400000Y-45720000D02*
X154940000Y-45720000D01*
X154940000Y-45720000D02*
X154940000Y-46990000D01*
X154940000Y-46990000D02*
X152400000Y-46990000D01*
X152400000Y-46990000D02*
X152400000Y-45720000D01*
X154940000Y-57150000D02*
X154940000Y-58420000D01*
X152400000Y-57150000D02*
X154940000Y-57150000D01*
X154940000Y-58420000D02*
X152400000Y-58420000D01*
X152400000Y-58420000D02*
X152400000Y-57150000D01*
X168910000Y-58420000D02*
X168910000Y-55880000D01*
X166370000Y-58420000D02*
X168910000Y-58420000D01*
X168910000Y-55880000D02*
X166370000Y-55880000D01*
X168538026Y-57150000D02*
G75*
G03*
X168538026Y-57150000I-898026J0D01*
G01*
X166370000Y-55880000D02*
X166370000Y-58420000D01*
X192668026Y-45085000D02*
G75*
G03*
X192668026Y-45085000I-898026J0D01*
G01*
X195208026Y-45085000D02*
G75*
G03*
X195208026Y-45085000I-898026J0D01*
G01*
X197748026Y-45085000D02*
G75*
G03*
X197748026Y-45085000I-898026J0D01*
G01*
X195208026Y-59055000D02*
G75*
G03*
X195208026Y-59055000I-898026J0D01*
G01*
X192668026Y-59055000D02*
G75*
G03*
X192668026Y-59055000I-898026J0D01*
G01*
X197748026Y-59055000D02*
G75*
G03*
X197748026Y-59055000I-898026J0D01*
G01*
X201558026Y-46990000D02*
G75*
G03*
X201558026Y-46990000I-898026J0D01*
G01*
X196478026Y-46990000D02*
G75*
G03*
X196478026Y-46990000I-898026J0D01*
G01*
X199018026Y-46990000D02*
G75*
G03*
X199018026Y-46990000I-898026J0D01*
G01*
X193938026Y-46990000D02*
G75*
G03*
X193938026Y-46990000I-898026J0D01*
G01*
X191398026Y-46990000D02*
G75*
G03*
X191398026Y-46990000I-898026J0D01*
G01*
X201558026Y-49530000D02*
G75*
G03*
X201558026Y-49530000I-898026J0D01*
G01*
X199018026Y-49530000D02*
G75*
G03*
X199018026Y-49530000I-898026J0D01*
G01*
X196478026Y-49530000D02*
G75*
G03*
X196478026Y-49530000I-898026J0D01*
G01*
X191398026Y-49530000D02*
G75*
G03*
X191398026Y-49530000I-898026J0D01*
G01*
X193938026Y-49530000D02*
G75*
G03*
X193938026Y-49530000I-898026J0D01*
G01*
X201558026Y-52070000D02*
G75*
G03*
X201558026Y-52070000I-898026J0D01*
G01*
X199018026Y-52070000D02*
G75*
G03*
X199018026Y-52070000I-898026J0D01*
G01*
X196478026Y-52070000D02*
G75*
G03*
X196478026Y-52070000I-898026J0D01*
G01*
X191398026Y-52070000D02*
G75*
G03*
X191398026Y-52070000I-898026J0D01*
G01*
X201558026Y-54610000D02*
G75*
G03*
X201558026Y-54610000I-898026J0D01*
G01*
X193938026Y-52070000D02*
G75*
G03*
X193938026Y-52070000I-898026J0D01*
G01*
X191398026Y-54610000D02*
G75*
G03*
X191398026Y-54610000I-898026J0D01*
G01*
X193938026Y-54610000D02*
G75*
G03*
X193938026Y-54610000I-898026J0D01*
G01*
X196478026Y-54610000D02*
G75*
G03*
X196478026Y-54610000I-898026J0D01*
G01*
X199018026Y-54610000D02*
G75*
G03*
X199018026Y-54610000I-898026J0D01*
G01*
X201558026Y-57150000D02*
G75*
G03*
X201558026Y-57150000I-898026J0D01*
G01*
X191398026Y-57150000D02*
G75*
G03*
X191398026Y-57150000I-898026J0D01*
G01*
X193938026Y-57150000D02*
G75*
G03*
X193938026Y-57150000I-898026J0D01*
G01*
X199018026Y-57150000D02*
G75*
G03*
X199018026Y-57150000I-898026J0D01*
G01*
X196478026Y-57150000D02*
G75*
G03*
X196478026Y-57150000I-898026J0D01*
G01*
X192786000Y-45085000D02*
X193294000Y-45085000D01*
X195326000Y-45085000D02*
X195834000Y-45085000D01*
X192786000Y-59055000D02*
X193294000Y-59055000D01*
X195326000Y-59055000D02*
X195834000Y-59055000D01*
D11*
X146335000Y-59690000D02*
G75*
G03*
X146335000Y-59690000I-6000000J0D01*
G01*
X141605000Y-61020000D02*
X144205000Y-61020000D01*
X144205000Y-61020000D02*
X144205000Y-58360000D01*
X144205000Y-58360000D02*
X141605000Y-58360000D01*
X141605000Y-58360000D02*
X141605000Y-61020000D01*
X137795000Y-61020000D02*
X136465000Y-61020000D01*
X136465000Y-61020000D02*
X136465000Y-59690000D01*
X217110000Y-69910000D02*
X217110000Y-68580000D01*
X218440000Y-69910000D02*
X217110000Y-69910000D01*
X219710000Y-69910000D02*
X219710000Y-67250000D01*
X219710000Y-67250000D02*
X222310000Y-67250000D01*
X219710000Y-69910000D02*
X222310000Y-69910000D01*
X222310000Y-69910000D02*
X222310000Y-67250000D01*
D13*
X209625000Y-59195000D02*
X208675000Y-59195000D01*
X208675000Y-59195000D02*
X208675000Y-58520000D01*
X209525000Y-45545000D02*
X208675000Y-45545000D01*
X208675000Y-45545000D02*
X208675000Y-46220000D01*
X221425000Y-58620000D02*
X221425000Y-59195000D01*
X221425000Y-59195000D02*
X220625000Y-59195000D01*
X220725000Y-45545000D02*
X221425000Y-45545000D01*
X221425000Y-45545000D02*
X221425000Y-46045000D01*
X215050000Y-61170000D02*
X215050000Y-44170000D01*
X207750000Y-52370000D02*
X222350000Y-52370000D01*
X218562834Y-52370000D02*
G75*
G03*
X218562834Y-52370000I-3512834J0D01*
G01*
X92710000Y-45720000D02*
X92710000Y-40640000D01*
X85090000Y-45720000D02*
X92710000Y-45720000D01*
X85090000Y-40640000D02*
X85090000Y-45720000D01*
X82550000Y-55880000D02*
X78740000Y-55880000D01*
X82550000Y-48260000D02*
X82550000Y-55880000D01*
X78740000Y-48260000D02*
X82550000Y-48260000D01*
X89798026Y-57150000D02*
G75*
G03*
X89798026Y-57150000I-898026J0D01*
G01*
X90170000Y-55880000D02*
X87630000Y-55880000D01*
X90170000Y-58420000D02*
X90170000Y-55880000D01*
X87630000Y-58420000D02*
X90170000Y-58420000D01*
X87630000Y-55880000D02*
X87630000Y-58420000D01*
X83185000Y-43180000D02*
G75*
G03*
X83185000Y-43180000I-1905000J0D01*
G01*
X83185000Y-60960000D02*
G75*
G03*
X83185000Y-60960000I-1905000J0D01*
G01*
X128270000Y-60960000D02*
G75*
G03*
X128270000Y-60960000I-1270000J0D01*
G01*
X128270000Y-43180000D02*
G75*
G03*
X128270000Y-43180000I-1270000J0D01*
G01*
X78740000Y-63500000D02*
X78740000Y-40640000D01*
X129540000Y-63500000D02*
X78740000Y-63500000D01*
X129540000Y-40640000D02*
X129540000Y-63500000D01*
X78740000Y-40640000D02*
X129540000Y-40640000D01*
X80010000Y-45720000D02*
X82550000Y-45720000D01*
X82550000Y-45720000D02*
X82550000Y-46990000D01*
X82550000Y-46990000D02*
X80010000Y-46990000D01*
X80010000Y-46990000D02*
X80010000Y-45720000D01*
X82550000Y-57150000D02*
X82550000Y-58420000D01*
X80010000Y-57150000D02*
X82550000Y-57150000D01*
X82550000Y-58420000D02*
X80010000Y-58420000D01*
X80010000Y-58420000D02*
X80010000Y-57150000D01*
X96520000Y-58420000D02*
X96520000Y-55880000D01*
X93980000Y-58420000D02*
X96520000Y-58420000D01*
X96520000Y-55880000D02*
X93980000Y-55880000D01*
X96148026Y-57150000D02*
G75*
G03*
X96148026Y-57150000I-898026J0D01*
G01*
X93980000Y-55880000D02*
X93980000Y-58420000D01*
X120278026Y-45085000D02*
G75*
G03*
X120278026Y-45085000I-898026J0D01*
G01*
X122818026Y-45085000D02*
G75*
G03*
X122818026Y-45085000I-898026J0D01*
G01*
X125358026Y-45085000D02*
G75*
G03*
X125358026Y-45085000I-898026J0D01*
G01*
X122818026Y-59055000D02*
G75*
G03*
X122818026Y-59055000I-898026J0D01*
G01*
X120278026Y-59055000D02*
G75*
G03*
X120278026Y-59055000I-898026J0D01*
G01*
X125358026Y-59055000D02*
G75*
G03*
X125358026Y-59055000I-898026J0D01*
G01*
X129168026Y-46990000D02*
G75*
G03*
X129168026Y-46990000I-898026J0D01*
G01*
X124088026Y-46990000D02*
G75*
G03*
X124088026Y-46990000I-898026J0D01*
G01*
X126628026Y-46990000D02*
G75*
G03*
X126628026Y-46990000I-898026J0D01*
G01*
X121548026Y-46990000D02*
G75*
G03*
X121548026Y-46990000I-898026J0D01*
G01*
X119008026Y-46990000D02*
G75*
G03*
X119008026Y-46990000I-898026J0D01*
G01*
X129168026Y-49530000D02*
G75*
G03*
X129168026Y-49530000I-898026J0D01*
G01*
X126628026Y-49530000D02*
G75*
G03*
X126628026Y-49530000I-898026J0D01*
G01*
X124088026Y-49530000D02*
G75*
G03*
X124088026Y-49530000I-898026J0D01*
G01*
X119008026Y-49530000D02*
G75*
G03*
X119008026Y-49530000I-898026J0D01*
G01*
X121548026Y-49530000D02*
G75*
G03*
X121548026Y-49530000I-898026J0D01*
G01*
X129168026Y-52070000D02*
G75*
G03*
X129168026Y-52070000I-898026J0D01*
G01*
X126628026Y-52070000D02*
G75*
G03*
X126628026Y-52070000I-898026J0D01*
G01*
X124088026Y-52070000D02*
G75*
G03*
X124088026Y-52070000I-898026J0D01*
G01*
X119008026Y-52070000D02*
G75*
G03*
X119008026Y-52070000I-898026J0D01*
G01*
X129168026Y-54610000D02*
G75*
G03*
X129168026Y-54610000I-898026J0D01*
G01*
X121548026Y-52070000D02*
G75*
G03*
X121548026Y-52070000I-898026J0D01*
G01*
X119008026Y-54610000D02*
G75*
G03*
X119008026Y-54610000I-898026J0D01*
G01*
X121548026Y-54610000D02*
G75*
G03*
X121548026Y-54610000I-898026J0D01*
G01*
X124088026Y-54610000D02*
G75*
G03*
X124088026Y-54610000I-898026J0D01*
G01*
X126628026Y-54610000D02*
G75*
G03*
X126628026Y-54610000I-898026J0D01*
G01*
X129168026Y-57150000D02*
G75*
G03*
X129168026Y-57150000I-898026J0D01*
G01*
X119008026Y-57150000D02*
G75*
G03*
X119008026Y-57150000I-898026J0D01*
G01*
X121548026Y-57150000D02*
G75*
G03*
X121548026Y-57150000I-898026J0D01*
G01*
X126628026Y-57150000D02*
G75*
G03*
X126628026Y-57150000I-898026J0D01*
G01*
X124088026Y-57150000D02*
G75*
G03*
X124088026Y-57150000I-898026J0D01*
G01*
X120396000Y-45085000D02*
X120904000Y-45085000D01*
X122936000Y-45085000D02*
X123444000Y-45085000D01*
X120396000Y-59055000D02*
X120904000Y-59055000D01*
X122936000Y-59055000D02*
X123444000Y-59055000D01*
D11*
X103530476Y-68141904D02*
X103530476Y-68789523D01*
X103568571Y-68865714D01*
X103606666Y-68903809D01*
X103682857Y-68941904D01*
X103835238Y-68941904D01*
X103911428Y-68903809D01*
X103949523Y-68865714D01*
X103987619Y-68789523D01*
X103987619Y-68141904D01*
X104787619Y-68941904D02*
X104330476Y-68941904D01*
X104559047Y-68941904D02*
X104559047Y-68141904D01*
X104482857Y-68256190D01*
X104406666Y-68332380D01*
X104330476Y-68370476D01*
X161354285Y-68522857D02*
X161087619Y-68522857D01*
X161087619Y-68941904D02*
X161087619Y-68141904D01*
X161468571Y-68141904D01*
X162230476Y-68941904D02*
X161963809Y-68560952D01*
X161773333Y-68941904D02*
X161773333Y-68141904D01*
X162078095Y-68141904D01*
X162154285Y-68180000D01*
X162192380Y-68218095D01*
X162230476Y-68294285D01*
X162230476Y-68408571D01*
X162192380Y-68484761D01*
X162154285Y-68522857D01*
X162078095Y-68560952D01*
X161773333Y-68560952D01*
X162725714Y-68141904D02*
X162878095Y-68141904D01*
X162954285Y-68180000D01*
X163030476Y-68256190D01*
X163068571Y-68408571D01*
X163068571Y-68675238D01*
X163030476Y-68827619D01*
X162954285Y-68903809D01*
X162878095Y-68941904D01*
X162725714Y-68941904D01*
X162649523Y-68903809D01*
X162573333Y-68827619D01*
X162535238Y-68675238D01*
X162535238Y-68408571D01*
X162573333Y-68256190D01*
X162649523Y-68180000D01*
X162725714Y-68141904D01*
X163411428Y-68941904D02*
X163411428Y-68141904D01*
X163868571Y-68941904D01*
X163868571Y-68141904D01*
X164135238Y-68141904D02*
X164592380Y-68141904D01*
X164363809Y-68941904D02*
X164363809Y-68141904D01*
X165697142Y-69246666D02*
X165659047Y-69208571D01*
X165582857Y-69094285D01*
X165544761Y-69018095D01*
X165506666Y-68903809D01*
X165468571Y-68713333D01*
X165468571Y-68560952D01*
X165506666Y-68370476D01*
X165544761Y-68256190D01*
X165582857Y-68180000D01*
X165659047Y-68065714D01*
X165697142Y-68027619D01*
X166001904Y-68941904D02*
X166001904Y-68141904D01*
X166192380Y-68141904D01*
X166306666Y-68180000D01*
X166382857Y-68256190D01*
X166420952Y-68332380D01*
X166459047Y-68484761D01*
X166459047Y-68599047D01*
X166420952Y-68751428D01*
X166382857Y-68827619D01*
X166306666Y-68903809D01*
X166192380Y-68941904D01*
X166001904Y-68941904D01*
X166801904Y-68941904D02*
X166801904Y-68141904D01*
X167144761Y-68903809D02*
X167259047Y-68941904D01*
X167449523Y-68941904D01*
X167525714Y-68903809D01*
X167563809Y-68865714D01*
X167601904Y-68789523D01*
X167601904Y-68713333D01*
X167563809Y-68637142D01*
X167525714Y-68599047D01*
X167449523Y-68560952D01*
X167297142Y-68522857D01*
X167220952Y-68484761D01*
X167182857Y-68446666D01*
X167144761Y-68370476D01*
X167144761Y-68294285D01*
X167182857Y-68218095D01*
X167220952Y-68180000D01*
X167297142Y-68141904D01*
X167487619Y-68141904D01*
X167601904Y-68180000D01*
X167944761Y-68941904D02*
X167944761Y-68141904D01*
X168249523Y-68141904D01*
X168325714Y-68180000D01*
X168363809Y-68218095D01*
X168401904Y-68294285D01*
X168401904Y-68408571D01*
X168363809Y-68484761D01*
X168325714Y-68522857D01*
X168249523Y-68560952D01*
X167944761Y-68560952D01*
X169125714Y-68941904D02*
X168744761Y-68941904D01*
X168744761Y-68141904D01*
X169354285Y-68713333D02*
X169735238Y-68713333D01*
X169278095Y-68941904D02*
X169544761Y-68141904D01*
X169811428Y-68941904D01*
X170230476Y-68560952D02*
X170230476Y-68941904D01*
X169963809Y-68141904D02*
X170230476Y-68560952D01*
X170497142Y-68141904D01*
X171335238Y-68903809D02*
X171449523Y-68941904D01*
X171640000Y-68941904D01*
X171716190Y-68903809D01*
X171754285Y-68865714D01*
X171792380Y-68789523D01*
X171792380Y-68713333D01*
X171754285Y-68637142D01*
X171716190Y-68599047D01*
X171640000Y-68560952D01*
X171487619Y-68522857D01*
X171411428Y-68484761D01*
X171373333Y-68446666D01*
X171335238Y-68370476D01*
X171335238Y-68294285D01*
X171373333Y-68218095D01*
X171411428Y-68180000D01*
X171487619Y-68141904D01*
X171678095Y-68141904D01*
X171792380Y-68180000D01*
X172135238Y-68941904D02*
X172135238Y-68141904D01*
X172516190Y-68941904D02*
X172516190Y-68141904D01*
X172706666Y-68141904D01*
X172820952Y-68180000D01*
X172897142Y-68256190D01*
X172935238Y-68332380D01*
X172973333Y-68484761D01*
X172973333Y-68599047D01*
X172935238Y-68751428D01*
X172897142Y-68827619D01*
X172820952Y-68903809D01*
X172706666Y-68941904D01*
X172516190Y-68941904D01*
X173316190Y-68522857D02*
X173582857Y-68522857D01*
X173697142Y-68941904D02*
X173316190Y-68941904D01*
X173316190Y-68141904D01*
X173697142Y-68141904D01*
X173963809Y-69246666D02*
X174001904Y-69208571D01*
X174078095Y-69094285D01*
X174116190Y-69018095D01*
X174154285Y-68903809D01*
X174192380Y-68713333D01*
X174192380Y-68560952D01*
X174154285Y-68370476D01*
X174116190Y-68256190D01*
X174078095Y-68180000D01*
X174001904Y-68065714D01*
X173963809Y-68027619D01*
X105825238Y-68713333D02*
X106206190Y-68713333D01*
X105749047Y-68941904D02*
X106015714Y-68141904D01*
X106282380Y-68941904D01*
X106891904Y-68941904D02*
X106891904Y-68141904D01*
X106891904Y-68903809D02*
X106815714Y-68941904D01*
X106663333Y-68941904D01*
X106587142Y-68903809D01*
X106549047Y-68865714D01*
X106510952Y-68789523D01*
X106510952Y-68560952D01*
X106549047Y-68484761D01*
X106587142Y-68446666D01*
X106663333Y-68408571D01*
X106815714Y-68408571D01*
X106891904Y-68446666D01*
X107615714Y-68941904D02*
X107615714Y-68522857D01*
X107577619Y-68446666D01*
X107501428Y-68408571D01*
X107349047Y-68408571D01*
X107272857Y-68446666D01*
X107615714Y-68903809D02*
X107539523Y-68941904D01*
X107349047Y-68941904D01*
X107272857Y-68903809D01*
X107234761Y-68827619D01*
X107234761Y-68751428D01*
X107272857Y-68675238D01*
X107349047Y-68637142D01*
X107539523Y-68637142D01*
X107615714Y-68599047D01*
X107882380Y-68408571D02*
X108187142Y-68408571D01*
X107996666Y-68941904D02*
X107996666Y-68256190D01*
X108034761Y-68180000D01*
X108110952Y-68141904D01*
X108187142Y-68141904D01*
X108453809Y-68941904D02*
X108453809Y-68408571D01*
X108453809Y-68560952D02*
X108491904Y-68484761D01*
X108530000Y-68446666D01*
X108606190Y-68408571D01*
X108682380Y-68408571D01*
X109291904Y-68408571D02*
X109291904Y-68941904D01*
X108949047Y-68408571D02*
X108949047Y-68827619D01*
X108987142Y-68903809D01*
X109063333Y-68941904D01*
X109177619Y-68941904D01*
X109253809Y-68903809D01*
X109291904Y-68865714D01*
X109672857Y-68941904D02*
X109672857Y-68408571D01*
X109672857Y-68141904D02*
X109634761Y-68180000D01*
X109672857Y-68218095D01*
X109710952Y-68180000D01*
X109672857Y-68141904D01*
X109672857Y-68218095D01*
X109939523Y-68408571D02*
X110244285Y-68408571D01*
X110053809Y-68141904D02*
X110053809Y-68827619D01*
X110091904Y-68903809D01*
X110168095Y-68941904D01*
X110244285Y-68941904D01*
X111539523Y-68941904D02*
X111082380Y-68941904D01*
X111310952Y-68941904D02*
X111310952Y-68141904D01*
X111234761Y-68256190D01*
X111158571Y-68332380D01*
X111082380Y-68370476D01*
X111882380Y-68865714D02*
X111920476Y-68903809D01*
X111882380Y-68941904D01*
X111844285Y-68903809D01*
X111882380Y-68865714D01*
X111882380Y-68941904D01*
X112225238Y-68218095D02*
X112263333Y-68180000D01*
X112339523Y-68141904D01*
X112530000Y-68141904D01*
X112606190Y-68180000D01*
X112644285Y-68218095D01*
X112682380Y-68294285D01*
X112682380Y-68370476D01*
X112644285Y-68484761D01*
X112187142Y-68941904D01*
X112682380Y-68941904D01*
X113025238Y-68637142D02*
X113634761Y-68637142D01*
X114015714Y-68941904D02*
X114015714Y-68408571D01*
X114015714Y-68141904D02*
X113977619Y-68180000D01*
X114015714Y-68218095D01*
X114053809Y-68180000D01*
X114015714Y-68141904D01*
X114015714Y-68218095D01*
X114396666Y-68408571D02*
X114396666Y-68941904D01*
X114396666Y-68484761D02*
X114434761Y-68446666D01*
X114510952Y-68408571D01*
X114625238Y-68408571D01*
X114701428Y-68446666D01*
X114739523Y-68522857D01*
X114739523Y-68941904D01*
X115463333Y-68903809D02*
X115387142Y-68941904D01*
X115234761Y-68941904D01*
X115158571Y-68903809D01*
X115120476Y-68865714D01*
X115082380Y-68789523D01*
X115082380Y-68560952D01*
X115120476Y-68484761D01*
X115158571Y-68446666D01*
X115234761Y-68408571D01*
X115387142Y-68408571D01*
X115463333Y-68446666D01*
X115806190Y-68941904D02*
X115806190Y-68141904D01*
X116149047Y-68941904D02*
X116149047Y-68522857D01*
X116110952Y-68446666D01*
X116034761Y-68408571D01*
X115920476Y-68408571D01*
X115844285Y-68446666D01*
X115806190Y-68484761D01*
X117063333Y-68141904D02*
X117596666Y-68141904D01*
X117253809Y-68941904D01*
X117901428Y-68637142D02*
X118510952Y-68637142D01*
X118853809Y-68903809D02*
X118968095Y-68941904D01*
X119158571Y-68941904D01*
X119234761Y-68903809D01*
X119272857Y-68865714D01*
X119310952Y-68789523D01*
X119310952Y-68713333D01*
X119272857Y-68637142D01*
X119234761Y-68599047D01*
X119158571Y-68560952D01*
X119006190Y-68522857D01*
X118930000Y-68484761D01*
X118891904Y-68446666D01*
X118853809Y-68370476D01*
X118853809Y-68294285D01*
X118891904Y-68218095D01*
X118930000Y-68180000D01*
X119006190Y-68141904D01*
X119196666Y-68141904D01*
X119310952Y-68180000D01*
X119958571Y-68903809D02*
X119882380Y-68941904D01*
X119730000Y-68941904D01*
X119653809Y-68903809D01*
X119615714Y-68827619D01*
X119615714Y-68522857D01*
X119653809Y-68446666D01*
X119730000Y-68408571D01*
X119882380Y-68408571D01*
X119958571Y-68446666D01*
X119996666Y-68522857D01*
X119996666Y-68599047D01*
X119615714Y-68675238D01*
X120682380Y-68408571D02*
X120682380Y-69056190D01*
X120644285Y-69132380D01*
X120606190Y-69170476D01*
X120530000Y-69208571D01*
X120415714Y-69208571D01*
X120339523Y-69170476D01*
X120682380Y-68903809D02*
X120606190Y-68941904D01*
X120453809Y-68941904D01*
X120377619Y-68903809D01*
X120339523Y-68865714D01*
X120301428Y-68789523D01*
X120301428Y-68560952D01*
X120339523Y-68484761D01*
X120377619Y-68446666D01*
X120453809Y-68408571D01*
X120606190Y-68408571D01*
X120682380Y-68446666D01*
X121063333Y-68941904D02*
X121063333Y-68408571D01*
X121063333Y-68484761D02*
X121101428Y-68446666D01*
X121177619Y-68408571D01*
X121291904Y-68408571D01*
X121368095Y-68446666D01*
X121406190Y-68522857D01*
X121406190Y-68941904D01*
X121406190Y-68522857D02*
X121444285Y-68446666D01*
X121520476Y-68408571D01*
X121634761Y-68408571D01*
X121710952Y-68446666D01*
X121749047Y-68522857D01*
X121749047Y-68941904D01*
X122434761Y-68903809D02*
X122358571Y-68941904D01*
X122206190Y-68941904D01*
X122130000Y-68903809D01*
X122091904Y-68827619D01*
X122091904Y-68522857D01*
X122130000Y-68446666D01*
X122206190Y-68408571D01*
X122358571Y-68408571D01*
X122434761Y-68446666D01*
X122472857Y-68522857D01*
X122472857Y-68599047D01*
X122091904Y-68675238D01*
X122815714Y-68408571D02*
X122815714Y-68941904D01*
X122815714Y-68484761D02*
X122853809Y-68446666D01*
X122930000Y-68408571D01*
X123044285Y-68408571D01*
X123120476Y-68446666D01*
X123158571Y-68522857D01*
X123158571Y-68941904D01*
X123425238Y-68408571D02*
X123730000Y-68408571D01*
X123539523Y-68141904D02*
X123539523Y-68827619D01*
X123577619Y-68903809D01*
X123653809Y-68941904D01*
X123730000Y-68941904D01*
X124987142Y-68941904D02*
X124606190Y-68941904D01*
X124606190Y-68141904D01*
X125253809Y-68522857D02*
X125520476Y-68522857D01*
X125634761Y-68941904D02*
X125253809Y-68941904D01*
X125253809Y-68141904D01*
X125634761Y-68141904D01*
X125977619Y-68941904D02*
X125977619Y-68141904D01*
X126168095Y-68141904D01*
X126282380Y-68180000D01*
X126358571Y-68256190D01*
X126396666Y-68332380D01*
X126434761Y-68484761D01*
X126434761Y-68599047D01*
X126396666Y-68751428D01*
X126358571Y-68827619D01*
X126282380Y-68903809D01*
X126168095Y-68941904D01*
X125977619Y-68941904D01*
X127387142Y-68941904D02*
X127387142Y-68141904D01*
X127387142Y-68522857D02*
X127844285Y-68522857D01*
X127844285Y-68941904D02*
X127844285Y-68141904D01*
X128110952Y-68141904D02*
X128568095Y-68141904D01*
X128339523Y-68941904D02*
X128339523Y-68141904D01*
X129253809Y-68941904D02*
X128796666Y-68941904D01*
X129025238Y-68941904D02*
X129025238Y-68141904D01*
X128949047Y-68256190D01*
X128872857Y-68332380D01*
X128796666Y-68370476D01*
X129939523Y-68141904D02*
X129787142Y-68141904D01*
X129710952Y-68180000D01*
X129672857Y-68218095D01*
X129596666Y-68332380D01*
X129558571Y-68484761D01*
X129558571Y-68789523D01*
X129596666Y-68865714D01*
X129634761Y-68903809D01*
X129710952Y-68941904D01*
X129863333Y-68941904D01*
X129939523Y-68903809D01*
X129977619Y-68865714D01*
X130015714Y-68789523D01*
X130015714Y-68599047D01*
X129977619Y-68522857D01*
X129939523Y-68484761D01*
X129863333Y-68446666D01*
X129710952Y-68446666D01*
X129634761Y-68484761D01*
X129596666Y-68522857D01*
X129558571Y-68599047D01*
X130358571Y-68941904D02*
X130358571Y-68141904D01*
X130815714Y-68941904D02*
X130472857Y-68484761D01*
X130815714Y-68141904D02*
X130358571Y-68599047D01*
X131082380Y-68141904D02*
X131577619Y-68141904D01*
X131310952Y-68446666D01*
X131425238Y-68446666D01*
X131501428Y-68484761D01*
X131539523Y-68522857D01*
X131577619Y-68599047D01*
X131577619Y-68789523D01*
X131539523Y-68865714D01*
X131501428Y-68903809D01*
X131425238Y-68941904D01*
X131196666Y-68941904D01*
X131120476Y-68903809D01*
X131082380Y-68865714D01*
X131844285Y-68141904D02*
X132339523Y-68141904D01*
X132072857Y-68446666D01*
X132187142Y-68446666D01*
X132263333Y-68484761D01*
X132301428Y-68522857D01*
X132339523Y-68599047D01*
X132339523Y-68789523D01*
X132301428Y-68865714D01*
X132263333Y-68903809D01*
X132187142Y-68941904D01*
X131958571Y-68941904D01*
X131882380Y-68903809D01*
X131844285Y-68865714D01*
X133558571Y-68522857D02*
X133672857Y-68560952D01*
X133710952Y-68599047D01*
X133749047Y-68675238D01*
X133749047Y-68789523D01*
X133710952Y-68865714D01*
X133672857Y-68903809D01*
X133596666Y-68941904D01*
X133291904Y-68941904D01*
X133291904Y-68141904D01*
X133558571Y-68141904D01*
X133634761Y-68180000D01*
X133672857Y-68218095D01*
X133710952Y-68294285D01*
X133710952Y-68370476D01*
X133672857Y-68446666D01*
X133634761Y-68484761D01*
X133558571Y-68522857D01*
X133291904Y-68522857D01*
X134434761Y-68941904D02*
X134434761Y-68522857D01*
X134396666Y-68446666D01*
X134320476Y-68408571D01*
X134168095Y-68408571D01*
X134091904Y-68446666D01*
X134434761Y-68903809D02*
X134358571Y-68941904D01*
X134168095Y-68941904D01*
X134091904Y-68903809D01*
X134053809Y-68827619D01*
X134053809Y-68751428D01*
X134091904Y-68675238D01*
X134168095Y-68637142D01*
X134358571Y-68637142D01*
X134434761Y-68599047D01*
X135158571Y-68903809D02*
X135082380Y-68941904D01*
X134930000Y-68941904D01*
X134853809Y-68903809D01*
X134815714Y-68865714D01*
X134777619Y-68789523D01*
X134777619Y-68560952D01*
X134815714Y-68484761D01*
X134853809Y-68446666D01*
X134930000Y-68408571D01*
X135082380Y-68408571D01*
X135158571Y-68446666D01*
X135501428Y-68941904D02*
X135501428Y-68141904D01*
X135577619Y-68637142D02*
X135806190Y-68941904D01*
X135806190Y-68408571D02*
X135501428Y-68713333D01*
X136149047Y-68408571D02*
X136149047Y-69208571D01*
X136149047Y-68446666D02*
X136225238Y-68408571D01*
X136377619Y-68408571D01*
X136453809Y-68446666D01*
X136491904Y-68484761D01*
X136530000Y-68560952D01*
X136530000Y-68789523D01*
X136491904Y-68865714D01*
X136453809Y-68903809D01*
X136377619Y-68941904D01*
X136225238Y-68941904D01*
X136149047Y-68903809D01*
X137215714Y-68941904D02*
X137215714Y-68522857D01*
X137177619Y-68446666D01*
X137101428Y-68408571D01*
X136949047Y-68408571D01*
X136872857Y-68446666D01*
X137215714Y-68903809D02*
X137139523Y-68941904D01*
X136949047Y-68941904D01*
X136872857Y-68903809D01*
X136834761Y-68827619D01*
X136834761Y-68751428D01*
X136872857Y-68675238D01*
X136949047Y-68637142D01*
X137139523Y-68637142D01*
X137215714Y-68599047D01*
X137939523Y-68903809D02*
X137863333Y-68941904D01*
X137710952Y-68941904D01*
X137634761Y-68903809D01*
X137596666Y-68865714D01*
X137558571Y-68789523D01*
X137558571Y-68560952D01*
X137596666Y-68484761D01*
X137634761Y-68446666D01*
X137710952Y-68408571D01*
X137863333Y-68408571D01*
X137939523Y-68446666D01*
X138282380Y-68941904D02*
X138282380Y-68141904D01*
X138358571Y-68637142D02*
X138587142Y-68941904D01*
X138587142Y-68408571D02*
X138282380Y-68713333D01*
X139539523Y-68941904D02*
X139539523Y-68141904D01*
X139844285Y-68141904D01*
X139920476Y-68180000D01*
X139958571Y-68218095D01*
X139996666Y-68294285D01*
X139996666Y-68408571D01*
X139958571Y-68484761D01*
X139920476Y-68522857D01*
X139844285Y-68560952D01*
X139539523Y-68560952D01*
X140339523Y-68941904D02*
X140339523Y-68141904D01*
X140720476Y-68941904D02*
X140720476Y-68141904D01*
X140910952Y-68141904D01*
X141025238Y-68180000D01*
X141101428Y-68256190D01*
X141139523Y-68332380D01*
X141177619Y-68484761D01*
X141177619Y-68599047D01*
X141139523Y-68751428D01*
X141101428Y-68827619D01*
X141025238Y-68903809D01*
X140910952Y-68941904D01*
X140720476Y-68941904D01*
X142091904Y-68408571D02*
X142663333Y-68408571D01*
X142320476Y-68065714D02*
X142091904Y-69094285D01*
X142587142Y-68751428D02*
X142015714Y-68751428D01*
X142358571Y-69094285D02*
X142587142Y-68065714D01*
X143349047Y-68941904D02*
X142891904Y-68941904D01*
X143120476Y-68941904D02*
X143120476Y-68141904D01*
X143044285Y-68256190D01*
X142968095Y-68332380D01*
X142891904Y-68370476D01*
X143653809Y-68218095D02*
X143691904Y-68180000D01*
X143768095Y-68141904D01*
X143958571Y-68141904D01*
X144034761Y-68180000D01*
X144072857Y-68218095D01*
X144110952Y-68294285D01*
X144110952Y-68370476D01*
X144072857Y-68484761D01*
X143615714Y-68941904D01*
X144110952Y-68941904D01*
X144377619Y-68141904D02*
X144910952Y-68141904D01*
X144568095Y-68941904D01*
X145634761Y-68941904D02*
X145177619Y-68941904D01*
X145406190Y-68941904D02*
X145406190Y-68141904D01*
X145330000Y-68256190D01*
X145253809Y-68332380D01*
X145177619Y-68370476D01*
X146139047Y-66236904D02*
X146405714Y-67036904D01*
X146672380Y-66236904D01*
X146748571Y-67113095D02*
X147358095Y-67113095D01*
X147548571Y-67036904D02*
X147548571Y-66236904D01*
X148081904Y-66236904D02*
X148234285Y-66236904D01*
X148310476Y-66275000D01*
X148386666Y-66351190D01*
X148424761Y-66503571D01*
X148424761Y-66770238D01*
X148386666Y-66922619D01*
X148310476Y-66998809D01*
X148234285Y-67036904D01*
X148081904Y-67036904D01*
X148005714Y-66998809D01*
X147929523Y-66922619D01*
X147891428Y-66770238D01*
X147891428Y-66503571D01*
X147929523Y-66351190D01*
X148005714Y-66275000D01*
X148081904Y-66236904D01*
X148789535Y-66732142D02*
X149399059Y-66732142D01*
X149056202Y-67036904D02*
X149132392Y-66427380D01*
X150222869Y-66236904D02*
X149841916Y-66236904D01*
X149756202Y-66617857D01*
X149799059Y-66579761D01*
X149880011Y-66541666D01*
X150070488Y-66541666D01*
X150141916Y-66579761D01*
X150175250Y-66617857D01*
X150203821Y-66694047D01*
X150180011Y-66884523D01*
X150132392Y-66960714D01*
X150089535Y-66998809D01*
X150008583Y-67036904D01*
X149818107Y-67036904D01*
X149746678Y-66998809D01*
X149713345Y-66960714D01*
X150489535Y-66236904D02*
X150656202Y-67036904D01*
X151022869Y-66236904D01*
X156527619Y-66998809D02*
X156641904Y-67036904D01*
X156832380Y-67036904D01*
X156908571Y-66998809D01*
X156946666Y-66960714D01*
X156984761Y-66884523D01*
X156984761Y-66808333D01*
X156946666Y-66732142D01*
X156908571Y-66694047D01*
X156832380Y-66655952D01*
X156680000Y-66617857D01*
X156603809Y-66579761D01*
X156565714Y-66541666D01*
X156527619Y-66465476D01*
X156527619Y-66389285D01*
X156565714Y-66313095D01*
X156603809Y-66275000D01*
X156680000Y-66236904D01*
X156870476Y-66236904D01*
X156984761Y-66275000D01*
X157784761Y-66960714D02*
X157746666Y-66998809D01*
X157632380Y-67036904D01*
X157556190Y-67036904D01*
X157441904Y-66998809D01*
X157365714Y-66922619D01*
X157327619Y-66846428D01*
X157289523Y-66694047D01*
X157289523Y-66579761D01*
X157327619Y-66427380D01*
X157365714Y-66351190D01*
X157441904Y-66275000D01*
X157556190Y-66236904D01*
X157632380Y-66236904D01*
X157746666Y-66275000D01*
X157784761Y-66313095D01*
X158508571Y-67036904D02*
X158127619Y-67036904D01*
X158127619Y-66236904D01*
X153893345Y-66998809D02*
X154002869Y-67036904D01*
X154193345Y-67036904D01*
X154274297Y-66998809D01*
X154317154Y-66960714D01*
X154364773Y-66884523D01*
X154374297Y-66808333D01*
X154345726Y-66732142D01*
X154312392Y-66694047D01*
X154240964Y-66655952D01*
X154093345Y-66617857D01*
X154021916Y-66579761D01*
X153988583Y-66541666D01*
X153960011Y-66465476D01*
X153969535Y-66389285D01*
X154017154Y-66313095D01*
X154060011Y-66275000D01*
X154140964Y-66236904D01*
X154331440Y-66236904D01*
X154440964Y-66275000D01*
X154688583Y-67036904D02*
X154788583Y-66236904D01*
X154979059Y-66236904D01*
X155088583Y-66275000D01*
X155155250Y-66351190D01*
X155183821Y-66427380D01*
X155202869Y-66579761D01*
X155188583Y-66694047D01*
X155131440Y-66846428D01*
X155083821Y-66922619D01*
X154998107Y-66998809D01*
X154879059Y-67036904D01*
X154688583Y-67036904D01*
X155479059Y-66808333D02*
X155860011Y-66808333D01*
X155374297Y-67036904D02*
X155740964Y-66236904D01*
X155907630Y-67036904D01*
X151790476Y-66275000D02*
X151714285Y-66236904D01*
X151600000Y-66236904D01*
X151485714Y-66275000D01*
X151409523Y-66351190D01*
X151371428Y-66427380D01*
X151333333Y-66579761D01*
X151333333Y-66694047D01*
X151371428Y-66846428D01*
X151409523Y-66922619D01*
X151485714Y-66998809D01*
X151600000Y-67036904D01*
X151676190Y-67036904D01*
X151790476Y-66998809D01*
X151828571Y-66960714D01*
X151828571Y-66694047D01*
X151676190Y-66694047D01*
X152171428Y-67036904D02*
X152171428Y-66236904D01*
X152628571Y-67036904D01*
X152628571Y-66236904D01*
X153009523Y-67036904D02*
X153009523Y-66236904D01*
X153200000Y-66236904D01*
X153314285Y-66275000D01*
X153390476Y-66351190D01*
X153428571Y-66427380D01*
X153466666Y-66579761D01*
X153466666Y-66694047D01*
X153428571Y-66846428D01*
X153390476Y-66922619D01*
X153314285Y-66998809D01*
X153200000Y-67036904D01*
X153009523Y-67036904D01*
X130797380Y-39731904D02*
X130797380Y-38931904D01*
X131064047Y-39503333D01*
X131330714Y-38931904D01*
X131330714Y-39731904D01*
X131635476Y-38931904D02*
X132130714Y-38931904D01*
X131864047Y-39236666D01*
X131978333Y-39236666D01*
X132054523Y-39274761D01*
X132092619Y-39312857D01*
X132130714Y-39389047D01*
X132130714Y-39579523D01*
X132092619Y-39655714D01*
X132054523Y-39693809D01*
X131978333Y-39731904D01*
X131749761Y-39731904D01*
X131673571Y-39693809D01*
X131635476Y-39655714D01*
X133389047Y-39198571D02*
X133389047Y-39731904D01*
X133198571Y-38893809D02*
X133008095Y-39465238D01*
X133503333Y-39465238D01*
X133808095Y-39427142D02*
X134417619Y-39427142D01*
X135065238Y-39312857D02*
X135179523Y-39350952D01*
X135217619Y-39389047D01*
X135255714Y-39465238D01*
X135255714Y-39579523D01*
X135217619Y-39655714D01*
X135179523Y-39693809D01*
X135103333Y-39731904D01*
X134798571Y-39731904D01*
X134798571Y-38931904D01*
X135065238Y-38931904D01*
X135141428Y-38970000D01*
X135179523Y-39008095D01*
X135217619Y-39084285D01*
X135217619Y-39160476D01*
X135179523Y-39236666D01*
X135141428Y-39274761D01*
X135065238Y-39312857D01*
X134798571Y-39312857D01*
X135598571Y-39731904D02*
X135598571Y-39198571D01*
X135598571Y-38931904D02*
X135560476Y-38970000D01*
X135598571Y-39008095D01*
X135636666Y-38970000D01*
X135598571Y-38931904D01*
X135598571Y-39008095D01*
X135865238Y-39198571D02*
X136170000Y-39198571D01*
X135979523Y-38931904D02*
X135979523Y-39617619D01*
X136017619Y-39693809D01*
X136093809Y-39731904D01*
X136170000Y-39731904D01*
X136246190Y-39808095D02*
X136855714Y-39808095D01*
X137427142Y-39731904D02*
X137046190Y-39731904D01*
X137046190Y-38931904D01*
X137998571Y-39693809D02*
X137922380Y-39731904D01*
X137770000Y-39731904D01*
X137693809Y-39693809D01*
X137655714Y-39617619D01*
X137655714Y-39312857D01*
X137693809Y-39236666D01*
X137770000Y-39198571D01*
X137922380Y-39198571D01*
X137998571Y-39236666D01*
X138036666Y-39312857D01*
X138036666Y-39389047D01*
X137655714Y-39465238D01*
X138303333Y-39198571D02*
X138493809Y-39731904D01*
X138684285Y-39198571D01*
X139293809Y-39693809D02*
X139217619Y-39731904D01*
X139065238Y-39731904D01*
X138989047Y-39693809D01*
X138950952Y-39617619D01*
X138950952Y-39312857D01*
X138989047Y-39236666D01*
X139065238Y-39198571D01*
X139217619Y-39198571D01*
X139293809Y-39236666D01*
X139331904Y-39312857D01*
X139331904Y-39389047D01*
X138950952Y-39465238D01*
X139789047Y-39731904D02*
X139712857Y-39693809D01*
X139674761Y-39617619D01*
X139674761Y-38931904D01*
X139903333Y-39808095D02*
X140512857Y-39808095D01*
X141160476Y-39655714D02*
X141122380Y-39693809D01*
X141008095Y-39731904D01*
X140931904Y-39731904D01*
X140817619Y-39693809D01*
X140741428Y-39617619D01*
X140703333Y-39541428D01*
X140665238Y-39389047D01*
X140665238Y-39274761D01*
X140703333Y-39122380D01*
X140741428Y-39046190D01*
X140817619Y-38970000D01*
X140931904Y-38931904D01*
X141008095Y-38931904D01*
X141122380Y-38970000D01*
X141160476Y-39008095D01*
X141617619Y-39731904D02*
X141541428Y-39693809D01*
X141503333Y-39655714D01*
X141465238Y-39579523D01*
X141465238Y-39350952D01*
X141503333Y-39274761D01*
X141541428Y-39236666D01*
X141617619Y-39198571D01*
X141731904Y-39198571D01*
X141808095Y-39236666D01*
X141846190Y-39274761D01*
X141884285Y-39350952D01*
X141884285Y-39579523D01*
X141846190Y-39655714D01*
X141808095Y-39693809D01*
X141731904Y-39731904D01*
X141617619Y-39731904D01*
X142227142Y-39198571D02*
X142227142Y-39731904D01*
X142227142Y-39274761D02*
X142265238Y-39236666D01*
X142341428Y-39198571D01*
X142455714Y-39198571D01*
X142531904Y-39236666D01*
X142570000Y-39312857D01*
X142570000Y-39731904D01*
X142874761Y-39198571D02*
X143065238Y-39731904D01*
X143255714Y-39198571D01*
X143865238Y-39693809D02*
X143789047Y-39731904D01*
X143636666Y-39731904D01*
X143560476Y-39693809D01*
X143522380Y-39617619D01*
X143522380Y-39312857D01*
X143560476Y-39236666D01*
X143636666Y-39198571D01*
X143789047Y-39198571D01*
X143865238Y-39236666D01*
X143903333Y-39312857D01*
X143903333Y-39389047D01*
X143522380Y-39465238D01*
X144246190Y-39731904D02*
X144246190Y-39198571D01*
X144246190Y-39350952D02*
X144284285Y-39274761D01*
X144322380Y-39236666D01*
X144398571Y-39198571D01*
X144474761Y-39198571D01*
X144627142Y-39198571D02*
X144931904Y-39198571D01*
X144741428Y-38931904D02*
X144741428Y-39617619D01*
X144779523Y-39693809D01*
X144855714Y-39731904D01*
X144931904Y-39731904D01*
X145503333Y-39693809D02*
X145427142Y-39731904D01*
X145274761Y-39731904D01*
X145198571Y-39693809D01*
X145160476Y-39617619D01*
X145160476Y-39312857D01*
X145198571Y-39236666D01*
X145274761Y-39198571D01*
X145427142Y-39198571D01*
X145503333Y-39236666D01*
X145541428Y-39312857D01*
X145541428Y-39389047D01*
X145160476Y-39465238D01*
X145884285Y-39731904D02*
X145884285Y-39198571D01*
X145884285Y-39350952D02*
X145922380Y-39274761D01*
X145960476Y-39236666D01*
X146036666Y-39198571D01*
X146112857Y-39198571D01*
X146189047Y-39808095D02*
X146798571Y-39808095D01*
X146912857Y-38931904D02*
X147446190Y-38931904D01*
X147103333Y-39731904D01*
X148131904Y-38931904D02*
X147750952Y-38931904D01*
X147712857Y-39312857D01*
X147750952Y-39274761D01*
X147827142Y-39236666D01*
X148017619Y-39236666D01*
X148093809Y-39274761D01*
X148131904Y-39312857D01*
X148170000Y-39389047D01*
X148170000Y-39579523D01*
X148131904Y-39655714D01*
X148093809Y-39693809D01*
X148017619Y-39731904D01*
X147827142Y-39731904D01*
X147750952Y-39693809D01*
X147712857Y-39655714D01*
X148436666Y-38931904D02*
X148970000Y-38931904D01*
X148627142Y-39731904D01*
X147590237Y-52736190D02*
X148123570Y-52736190D01*
X147285475Y-52926666D02*
X147856904Y-53117142D01*
X147856904Y-52621904D01*
X147704523Y-51440952D02*
X147742618Y-51326666D01*
X147780713Y-51288571D01*
X147856904Y-51250476D01*
X147971189Y-51250476D01*
X148047380Y-51288571D01*
X148085475Y-51326666D01*
X148123570Y-51402857D01*
X148123570Y-51707619D01*
X147323570Y-51707619D01*
X147323570Y-51440952D01*
X147361666Y-51364761D01*
X147399761Y-51326666D01*
X147475951Y-51288571D01*
X147552142Y-51288571D01*
X147628332Y-51326666D01*
X147666427Y-51364761D01*
X147704523Y-51440952D01*
X147704523Y-51707619D01*
X148123570Y-50907619D02*
X147590237Y-50907619D01*
X147323570Y-50907619D02*
X147361666Y-50945714D01*
X147399761Y-50907619D01*
X147361666Y-50869523D01*
X147323570Y-50907619D01*
X147399761Y-50907619D01*
X147818808Y-50526666D02*
X147818808Y-49917142D01*
X148123570Y-49536190D02*
X147323570Y-49536190D01*
X147323570Y-49345714D01*
X147361666Y-49231428D01*
X147437856Y-49155238D01*
X147514046Y-49117142D01*
X147666427Y-49079047D01*
X147780713Y-49079047D01*
X147933094Y-49117142D01*
X148009285Y-49155238D01*
X148085475Y-49231428D01*
X148123570Y-49345714D01*
X148123570Y-49536190D01*
X148123570Y-48736190D02*
X147590237Y-48736190D01*
X147323570Y-48736190D02*
X147361666Y-48774285D01*
X147399761Y-48736190D01*
X147361666Y-48698095D01*
X147323570Y-48736190D01*
X147399761Y-48736190D01*
X148123570Y-48355238D02*
X147590237Y-48355238D01*
X147742618Y-48355238D02*
X147666427Y-48317142D01*
X147628332Y-48279047D01*
X147590237Y-48202857D01*
X147590237Y-48126666D01*
X148085475Y-47555238D02*
X148123570Y-47631428D01*
X148123570Y-47783809D01*
X148085475Y-47860000D01*
X148009285Y-47898095D01*
X147704523Y-47898095D01*
X147628332Y-47860000D01*
X147590237Y-47783809D01*
X147590237Y-47631428D01*
X147628332Y-47555238D01*
X147704523Y-47517142D01*
X147780713Y-47517142D01*
X147856904Y-47898095D01*
X148085475Y-46831428D02*
X148123570Y-46907619D01*
X148123570Y-47060000D01*
X148085475Y-47136190D01*
X148047380Y-47174285D01*
X147971189Y-47212380D01*
X147742618Y-47212380D01*
X147666427Y-47174285D01*
X147628332Y-47136190D01*
X147590237Y-47060000D01*
X147590237Y-46907619D01*
X147628332Y-46831428D01*
X147590237Y-46602857D02*
X147590237Y-46298095D01*
X147323570Y-46488571D02*
X148009285Y-46488571D01*
X148085475Y-46450476D01*
X148123570Y-46374285D01*
X148123570Y-46298095D01*
X148123570Y-46031428D02*
X147590237Y-46031428D01*
X147323570Y-46031428D02*
X147361666Y-46069523D01*
X147399761Y-46031428D01*
X147361666Y-45993333D01*
X147323570Y-46031428D01*
X147399761Y-46031428D01*
X148123570Y-45536190D02*
X148085475Y-45612380D01*
X148047380Y-45650476D01*
X147971189Y-45688571D01*
X147742618Y-45688571D01*
X147666427Y-45650476D01*
X147628332Y-45612380D01*
X147590237Y-45536190D01*
X147590237Y-45421904D01*
X147628332Y-45345714D01*
X147666427Y-45307619D01*
X147742618Y-45269523D01*
X147971189Y-45269523D01*
X148047380Y-45307619D01*
X148085475Y-45345714D01*
X148123570Y-45421904D01*
X148123570Y-45536190D01*
X147590237Y-44926666D02*
X148123570Y-44926666D01*
X147666427Y-44926666D02*
X147628332Y-44888571D01*
X147590237Y-44812380D01*
X147590237Y-44698095D01*
X147628332Y-44621904D01*
X147704523Y-44583809D01*
X148123570Y-44583809D01*
X148123570Y-43860000D02*
X147704523Y-43860000D01*
X147628332Y-43898095D01*
X147590237Y-43974285D01*
X147590237Y-44126666D01*
X147628332Y-44202857D01*
X148085475Y-43860000D02*
X148123570Y-43936190D01*
X148123570Y-44126666D01*
X148085475Y-44202857D01*
X148009285Y-44240952D01*
X147933094Y-44240952D01*
X147856904Y-44202857D01*
X147818808Y-44126666D01*
X147818808Y-43936190D01*
X147780713Y-43860000D01*
X148123570Y-43364761D02*
X148085475Y-43440952D01*
X148009285Y-43479047D01*
X147323570Y-43479047D01*
X132883570Y-51821904D02*
X132883570Y-52202857D01*
X132083570Y-52202857D01*
X132845475Y-51250476D02*
X132883570Y-51326666D01*
X132883570Y-51479047D01*
X132845475Y-51555238D01*
X132769285Y-51593333D01*
X132464523Y-51593333D01*
X132388332Y-51555238D01*
X132350237Y-51479047D01*
X132350237Y-51326666D01*
X132388332Y-51250476D01*
X132464523Y-51212380D01*
X132540713Y-51212380D01*
X132616904Y-51593333D01*
X132350237Y-50945714D02*
X132883570Y-50755238D01*
X132350237Y-50564761D01*
X132845475Y-49955238D02*
X132883570Y-50031428D01*
X132883570Y-50183809D01*
X132845475Y-50260000D01*
X132769285Y-50298095D01*
X132464523Y-50298095D01*
X132388332Y-50260000D01*
X132350237Y-50183809D01*
X132350237Y-50031428D01*
X132388332Y-49955238D01*
X132464523Y-49917142D01*
X132540713Y-49917142D01*
X132616904Y-50298095D01*
X132883570Y-49460000D02*
X132845475Y-49536190D01*
X132769285Y-49574285D01*
X132083570Y-49574285D01*
X132845475Y-48583809D02*
X132883570Y-48469523D01*
X132883570Y-48279047D01*
X132845475Y-48202857D01*
X132807380Y-48164761D01*
X132731189Y-48126666D01*
X132654999Y-48126666D01*
X132578808Y-48164761D01*
X132540713Y-48202857D01*
X132502618Y-48279047D01*
X132464523Y-48431428D01*
X132426427Y-48507619D01*
X132388332Y-48545714D01*
X132312142Y-48583809D01*
X132235951Y-48583809D01*
X132159761Y-48545714D01*
X132121666Y-48507619D01*
X132083570Y-48431428D01*
X132083570Y-48240952D01*
X132121666Y-48126666D01*
X132883570Y-47783809D02*
X132083570Y-47783809D01*
X132883570Y-47440952D02*
X132464523Y-47440952D01*
X132388332Y-47479047D01*
X132350237Y-47555238D01*
X132350237Y-47669523D01*
X132388332Y-47745714D01*
X132426427Y-47783809D01*
X132883570Y-47060000D02*
X132350237Y-47060000D01*
X132083570Y-47060000D02*
X132121666Y-47098095D01*
X132159761Y-47060000D01*
X132121666Y-47021904D01*
X132083570Y-47060000D01*
X132159761Y-47060000D01*
X132350237Y-46793333D02*
X132350237Y-46488571D01*
X132883570Y-46679047D02*
X132197856Y-46679047D01*
X132121666Y-46640952D01*
X132083570Y-46564761D01*
X132083570Y-46488571D01*
X132350237Y-46336190D02*
X132350237Y-46031428D01*
X132083570Y-46221904D02*
X132769285Y-46221904D01*
X132845475Y-46183809D01*
X132883570Y-46107619D01*
X132883570Y-46031428D01*
X132845475Y-45460000D02*
X132883570Y-45536190D01*
X132883570Y-45688571D01*
X132845475Y-45764761D01*
X132769285Y-45802857D01*
X132464523Y-45802857D01*
X132388332Y-45764761D01*
X132350237Y-45688571D01*
X132350237Y-45536190D01*
X132388332Y-45460000D01*
X132464523Y-45421904D01*
X132540713Y-45421904D01*
X132616904Y-45802857D01*
X132883570Y-45079047D02*
X132350237Y-45079047D01*
X132502618Y-45079047D02*
X132426427Y-45040952D01*
X132388332Y-45002857D01*
X132350237Y-44926666D01*
X132350237Y-44850476D01*
X132845475Y-44621904D02*
X132883570Y-44545714D01*
X132883570Y-44393333D01*
X132845475Y-44317142D01*
X132769285Y-44279047D01*
X132731189Y-44279047D01*
X132654999Y-44317142D01*
X132616904Y-44393333D01*
X132616904Y-44507619D01*
X132578808Y-44583809D01*
X132502618Y-44621904D01*
X132464523Y-44621904D01*
X132388332Y-44583809D01*
X132350237Y-44507619D01*
X132350237Y-44393333D01*
X132388332Y-44317142D01*
X133182142Y-40875000D02*
X133105951Y-40836904D01*
X132991666Y-40836904D01*
X132877380Y-40875000D01*
X132801189Y-40951190D01*
X132763094Y-41027380D01*
X132724999Y-41179761D01*
X132724999Y-41294047D01*
X132763094Y-41446428D01*
X132801189Y-41522619D01*
X132877380Y-41598809D01*
X132991666Y-41636904D01*
X133067856Y-41636904D01*
X133182142Y-41598809D01*
X133220237Y-41560714D01*
X133220237Y-41294047D01*
X133067856Y-41294047D01*
X133563094Y-41636904D02*
X133563094Y-40836904D01*
X134020237Y-41636904D01*
X134020237Y-40836904D01*
X134401189Y-41636904D02*
X134401189Y-40836904D01*
X134591666Y-40836904D01*
X134705951Y-40875000D01*
X134782142Y-40951190D01*
X134820237Y-41027380D01*
X134858332Y-41179761D01*
X134858332Y-41294047D01*
X134820237Y-41446428D01*
X134782142Y-41522619D01*
X134705951Y-41598809D01*
X134591666Y-41636904D01*
X134401189Y-41636904D01*
X133182142Y-54845000D02*
X133105951Y-54806904D01*
X132991666Y-54806904D01*
X132877380Y-54845000D01*
X132801189Y-54921190D01*
X132763094Y-54997380D01*
X132724999Y-55149761D01*
X132724999Y-55264047D01*
X132763094Y-55416428D01*
X132801189Y-55492619D01*
X132877380Y-55568809D01*
X132991666Y-55606904D01*
X133067856Y-55606904D01*
X133182142Y-55568809D01*
X133220237Y-55530714D01*
X133220237Y-55264047D01*
X133067856Y-55264047D01*
X133563094Y-55606904D02*
X133563094Y-54806904D01*
X134020237Y-55606904D01*
X134020237Y-54806904D01*
X134401189Y-55606904D02*
X134401189Y-54806904D01*
X134591666Y-54806904D01*
X134705951Y-54845000D01*
X134782142Y-54921190D01*
X134820237Y-54997380D01*
X134858332Y-55149761D01*
X134858332Y-55264047D01*
X134820237Y-55416428D01*
X134782142Y-55492619D01*
X134705951Y-55568809D01*
X134591666Y-55606904D01*
X134401189Y-55606904D01*
X146396427Y-41636904D02*
X146015475Y-41636904D01*
X146015475Y-40836904D01*
X146548808Y-40836904D02*
X146815475Y-41636904D01*
X147082142Y-40836904D01*
X143380237Y-41408333D02*
X143761189Y-41408333D01*
X143304046Y-41636904D02*
X143570713Y-40836904D01*
X143837380Y-41636904D01*
X144523094Y-41636904D02*
X144065951Y-41636904D01*
X144294523Y-41636904D02*
X144294523Y-40836904D01*
X144218332Y-40951190D01*
X144142142Y-41027380D01*
X144065951Y-41065476D01*
X140840237Y-41408333D02*
X141221189Y-41408333D01*
X140764046Y-41636904D02*
X141030713Y-40836904D01*
X141297380Y-41636904D01*
X141525951Y-40913095D02*
X141564046Y-40875000D01*
X141640237Y-40836904D01*
X141830713Y-40836904D01*
X141906904Y-40875000D01*
X141944999Y-40913095D01*
X141983094Y-40989285D01*
X141983094Y-41065476D01*
X141944999Y-41179761D01*
X141487856Y-41636904D01*
X141983094Y-41636904D01*
X138300237Y-41408333D02*
X138681189Y-41408333D01*
X138224046Y-41636904D02*
X138490713Y-40836904D01*
X138757380Y-41636904D01*
X138947856Y-40836904D02*
X139443094Y-40836904D01*
X139176427Y-41141666D01*
X139290713Y-41141666D01*
X139366904Y-41179761D01*
X139404999Y-41217857D01*
X139443094Y-41294047D01*
X139443094Y-41484523D01*
X139404999Y-41560714D01*
X139366904Y-41598809D01*
X139290713Y-41636904D01*
X139062142Y-41636904D01*
X138985951Y-41598809D01*
X138947856Y-41560714D01*
X135760237Y-41408333D02*
X136141189Y-41408333D01*
X135684046Y-41636904D02*
X135950713Y-40836904D01*
X136217380Y-41636904D01*
X136826904Y-41103571D02*
X136826904Y-41636904D01*
X136636427Y-40798809D02*
X136445951Y-41370238D01*
X136941189Y-41370238D01*
X136007856Y-55187857D02*
X136122142Y-55225952D01*
X136160237Y-55264047D01*
X136198332Y-55340238D01*
X136198332Y-55454523D01*
X136160237Y-55530714D01*
X136122142Y-55568809D01*
X136045951Y-55606904D01*
X135741189Y-55606904D01*
X135741189Y-54806904D01*
X136007856Y-54806904D01*
X136084046Y-54845000D01*
X136122142Y-54883095D01*
X136160237Y-54959285D01*
X136160237Y-55035476D01*
X136122142Y-55111666D01*
X136084046Y-55149761D01*
X136007856Y-55187857D01*
X135741189Y-55187857D01*
X136884046Y-55073571D02*
X136884046Y-55606904D01*
X136693570Y-54768809D02*
X136503094Y-55340238D01*
X136998332Y-55340238D01*
X138547856Y-55187857D02*
X138662142Y-55225952D01*
X138700237Y-55264047D01*
X138738332Y-55340238D01*
X138738332Y-55454523D01*
X138700237Y-55530714D01*
X138662142Y-55568809D01*
X138585951Y-55606904D01*
X138281189Y-55606904D01*
X138281189Y-54806904D01*
X138547856Y-54806904D01*
X138624046Y-54845000D01*
X138662142Y-54883095D01*
X138700237Y-54959285D01*
X138700237Y-55035476D01*
X138662142Y-55111666D01*
X138624046Y-55149761D01*
X138547856Y-55187857D01*
X138281189Y-55187857D01*
X139004999Y-54806904D02*
X139500237Y-54806904D01*
X139233570Y-55111666D01*
X139347856Y-55111666D01*
X139424046Y-55149761D01*
X139462142Y-55187857D01*
X139500237Y-55264047D01*
X139500237Y-55454523D01*
X139462142Y-55530714D01*
X139424046Y-55568809D01*
X139347856Y-55606904D01*
X139119285Y-55606904D01*
X139043094Y-55568809D01*
X139004999Y-55530714D01*
X141087856Y-55187857D02*
X141202142Y-55225952D01*
X141240237Y-55264047D01*
X141278332Y-55340238D01*
X141278332Y-55454523D01*
X141240237Y-55530714D01*
X141202142Y-55568809D01*
X141125951Y-55606904D01*
X140821189Y-55606904D01*
X140821189Y-54806904D01*
X141087856Y-54806904D01*
X141164046Y-54845000D01*
X141202142Y-54883095D01*
X141240237Y-54959285D01*
X141240237Y-55035476D01*
X141202142Y-55111666D01*
X141164046Y-55149761D01*
X141087856Y-55187857D01*
X140821189Y-55187857D01*
X141583094Y-54883095D02*
X141621189Y-54845000D01*
X141697380Y-54806904D01*
X141887856Y-54806904D01*
X141964046Y-54845000D01*
X142002142Y-54883095D01*
X142040237Y-54959285D01*
X142040237Y-55035476D01*
X142002142Y-55149761D01*
X141544999Y-55606904D01*
X142040237Y-55606904D01*
X143627856Y-55187857D02*
X143742142Y-55225952D01*
X143780237Y-55264047D01*
X143818332Y-55340238D01*
X143818332Y-55454523D01*
X143780237Y-55530714D01*
X143742142Y-55568809D01*
X143665951Y-55606904D01*
X143361189Y-55606904D01*
X143361189Y-54806904D01*
X143627856Y-54806904D01*
X143704046Y-54845000D01*
X143742142Y-54883095D01*
X143780237Y-54959285D01*
X143780237Y-55035476D01*
X143742142Y-55111666D01*
X143704046Y-55149761D01*
X143627856Y-55187857D01*
X143361189Y-55187857D01*
X144580237Y-55606904D02*
X144123094Y-55606904D01*
X144351666Y-55606904D02*
X144351666Y-54806904D01*
X144275475Y-54921190D01*
X144199285Y-54997380D01*
X144123094Y-55035476D01*
X145920237Y-55606904D02*
X145920237Y-54806904D01*
X145920237Y-55187857D02*
X146377380Y-55187857D01*
X146377380Y-55606904D02*
X146377380Y-54806904D01*
X146644046Y-54806904D02*
X146910713Y-55606904D01*
X147177380Y-54806904D01*
X165087380Y-39731904D02*
X165087380Y-38931904D01*
X165354047Y-39503333D01*
X165620714Y-38931904D01*
X165620714Y-39731904D01*
X165963571Y-39008095D02*
X166001666Y-38970000D01*
X166077857Y-38931904D01*
X166268333Y-38931904D01*
X166344523Y-38970000D01*
X166382619Y-39008095D01*
X166420714Y-39084285D01*
X166420714Y-39160476D01*
X166382619Y-39274761D01*
X165925476Y-39731904D01*
X166420714Y-39731904D01*
X167907857Y-39731904D02*
X167907857Y-38931904D01*
X168098333Y-38931904D01*
X168212619Y-38970000D01*
X168288809Y-39046190D01*
X168326904Y-39122380D01*
X168365000Y-39274761D01*
X168365000Y-39389047D01*
X168326904Y-39541428D01*
X168288809Y-39617619D01*
X168212619Y-39693809D01*
X168098333Y-39731904D01*
X167907857Y-39731904D01*
X168669761Y-39693809D02*
X168784047Y-39731904D01*
X168974523Y-39731904D01*
X169050714Y-39693809D01*
X169088809Y-39655714D01*
X169126904Y-39579523D01*
X169126904Y-39503333D01*
X169088809Y-39427142D01*
X169050714Y-39389047D01*
X168974523Y-39350952D01*
X168822142Y-39312857D01*
X168745952Y-39274761D01*
X168707857Y-39236666D01*
X168669761Y-39160476D01*
X168669761Y-39084285D01*
X168707857Y-39008095D01*
X168745952Y-38970000D01*
X168822142Y-38931904D01*
X169012619Y-38931904D01*
X169126904Y-38970000D01*
X169393571Y-38931904D02*
X169888809Y-38931904D01*
X169622142Y-39236666D01*
X169736428Y-39236666D01*
X169812619Y-39274761D01*
X169850714Y-39312857D01*
X169888809Y-39389047D01*
X169888809Y-39579523D01*
X169850714Y-39655714D01*
X169812619Y-39693809D01*
X169736428Y-39731904D01*
X169507857Y-39731904D01*
X169431666Y-39693809D01*
X169393571Y-39655714D01*
X170193571Y-39008095D02*
X170231666Y-38970000D01*
X170307857Y-38931904D01*
X170498333Y-38931904D01*
X170574523Y-38970000D01*
X170612619Y-39008095D01*
X170650714Y-39084285D01*
X170650714Y-39160476D01*
X170612619Y-39274761D01*
X170155476Y-39731904D01*
X170650714Y-39731904D01*
X170917380Y-38931904D02*
X171412619Y-38931904D01*
X171145952Y-39236666D01*
X171260238Y-39236666D01*
X171336428Y-39274761D01*
X171374523Y-39312857D01*
X171412619Y-39389047D01*
X171412619Y-39579523D01*
X171374523Y-39655714D01*
X171336428Y-39693809D01*
X171260238Y-39731904D01*
X171031666Y-39731904D01*
X170955476Y-39693809D01*
X170917380Y-39655714D01*
X172174523Y-39731904D02*
X171717380Y-39731904D01*
X171945952Y-39731904D02*
X171945952Y-38931904D01*
X171869761Y-39046190D01*
X171793571Y-39122380D01*
X171717380Y-39160476D01*
X172326904Y-39808095D02*
X172936428Y-39808095D01*
X173584047Y-39731904D02*
X173317380Y-39350952D01*
X173126904Y-39731904D02*
X173126904Y-38931904D01*
X173431666Y-38931904D01*
X173507857Y-38970000D01*
X173545952Y-39008095D01*
X173584047Y-39084285D01*
X173584047Y-39198571D01*
X173545952Y-39274761D01*
X173507857Y-39312857D01*
X173431666Y-39350952D01*
X173126904Y-39350952D01*
X173812619Y-38931904D02*
X174269761Y-38931904D01*
X174041190Y-39731904D02*
X174041190Y-38931904D01*
X174993571Y-39655714D02*
X174955476Y-39693809D01*
X174841190Y-39731904D01*
X174765000Y-39731904D01*
X174650714Y-39693809D01*
X174574523Y-39617619D01*
X174536428Y-39541428D01*
X174498333Y-39389047D01*
X174498333Y-39274761D01*
X174536428Y-39122380D01*
X174574523Y-39046190D01*
X174650714Y-38970000D01*
X174765000Y-38931904D01*
X174841190Y-38931904D01*
X174955476Y-38970000D01*
X174993571Y-39008095D01*
X175145952Y-39808095D02*
X175755476Y-39808095D01*
X176212619Y-39312857D02*
X175945952Y-39312857D01*
X175945952Y-39731904D02*
X175945952Y-38931904D01*
X176326904Y-38931904D01*
X176936428Y-39693809D02*
X176860238Y-39731904D01*
X176707857Y-39731904D01*
X176631666Y-39693809D01*
X176593571Y-39617619D01*
X176593571Y-39312857D01*
X176631666Y-39236666D01*
X176707857Y-39198571D01*
X176860238Y-39198571D01*
X176936428Y-39236666D01*
X176974523Y-39312857D01*
X176974523Y-39389047D01*
X176593571Y-39465238D01*
X177660238Y-39731904D02*
X177660238Y-39312857D01*
X177622142Y-39236666D01*
X177545952Y-39198571D01*
X177393571Y-39198571D01*
X177317380Y-39236666D01*
X177660238Y-39693809D02*
X177584047Y-39731904D01*
X177393571Y-39731904D01*
X177317380Y-39693809D01*
X177279285Y-39617619D01*
X177279285Y-39541428D01*
X177317380Y-39465238D01*
X177393571Y-39427142D01*
X177584047Y-39427142D01*
X177660238Y-39389047D01*
X177926904Y-39198571D02*
X178231666Y-39198571D01*
X178041190Y-38931904D02*
X178041190Y-39617619D01*
X178079285Y-39693809D01*
X178155476Y-39731904D01*
X178231666Y-39731904D01*
X178498333Y-39731904D02*
X178498333Y-38931904D01*
X178841190Y-39731904D02*
X178841190Y-39312857D01*
X178803095Y-39236666D01*
X178726904Y-39198571D01*
X178612619Y-39198571D01*
X178536428Y-39236666D01*
X178498333Y-39274761D01*
X179526904Y-39693809D02*
X179450714Y-39731904D01*
X179298333Y-39731904D01*
X179222142Y-39693809D01*
X179184047Y-39617619D01*
X179184047Y-39312857D01*
X179222142Y-39236666D01*
X179298333Y-39198571D01*
X179450714Y-39198571D01*
X179526904Y-39236666D01*
X179565000Y-39312857D01*
X179565000Y-39389047D01*
X179184047Y-39465238D01*
X179907857Y-39731904D02*
X179907857Y-39198571D01*
X179907857Y-39350952D02*
X179945952Y-39274761D01*
X179984047Y-39236666D01*
X180060238Y-39198571D01*
X180136428Y-39198571D01*
X180326904Y-38931904D02*
X180517380Y-39731904D01*
X180669761Y-39160476D01*
X180822142Y-39731904D01*
X181012619Y-38931904D01*
X181317380Y-39731904D02*
X181317380Y-39198571D01*
X181317380Y-38931904D02*
X181279285Y-38970000D01*
X181317380Y-39008095D01*
X181355476Y-38970000D01*
X181317380Y-38931904D01*
X181317380Y-39008095D01*
X181698333Y-39198571D02*
X181698333Y-39731904D01*
X181698333Y-39274761D02*
X181736428Y-39236666D01*
X181812619Y-39198571D01*
X181926904Y-39198571D01*
X182003095Y-39236666D01*
X182041190Y-39312857D01*
X182041190Y-39731904D01*
X182765000Y-39198571D02*
X182765000Y-39846190D01*
X182726904Y-39922380D01*
X182688809Y-39960476D01*
X182612619Y-39998571D01*
X182498333Y-39998571D01*
X182422142Y-39960476D01*
X182765000Y-39693809D02*
X182688809Y-39731904D01*
X182536428Y-39731904D01*
X182460238Y-39693809D01*
X182422142Y-39655714D01*
X182384047Y-39579523D01*
X182384047Y-39350952D01*
X182422142Y-39274761D01*
X182460238Y-39236666D01*
X182536428Y-39198571D01*
X182688809Y-39198571D01*
X182765000Y-39236666D01*
X182955476Y-39808095D02*
X183565000Y-39808095D01*
X183679285Y-38931904D02*
X184174523Y-38931904D01*
X183907857Y-39236666D01*
X184022142Y-39236666D01*
X184098333Y-39274761D01*
X184136428Y-39312857D01*
X184174523Y-39389047D01*
X184174523Y-39579523D01*
X184136428Y-39655714D01*
X184098333Y-39693809D01*
X184022142Y-39731904D01*
X183793571Y-39731904D01*
X183717380Y-39693809D01*
X183679285Y-39655714D01*
X184669761Y-38931904D02*
X184745952Y-38931904D01*
X184822142Y-38970000D01*
X184860238Y-39008095D01*
X184898333Y-39084285D01*
X184936428Y-39236666D01*
X184936428Y-39427142D01*
X184898333Y-39579523D01*
X184860238Y-39655714D01*
X184822142Y-39693809D01*
X184745952Y-39731904D01*
X184669761Y-39731904D01*
X184593571Y-39693809D01*
X184555476Y-39655714D01*
X184517380Y-39579523D01*
X184479285Y-39427142D01*
X184479285Y-39236666D01*
X184517380Y-39084285D01*
X184555476Y-39008095D01*
X184593571Y-38970000D01*
X184669761Y-38931904D01*
X185241190Y-39008095D02*
X185279285Y-38970000D01*
X185355476Y-38931904D01*
X185545952Y-38931904D01*
X185622142Y-38970000D01*
X185660238Y-39008095D01*
X185698333Y-39084285D01*
X185698333Y-39160476D01*
X185660238Y-39274761D01*
X185203095Y-39731904D01*
X185698333Y-39731904D01*
X186155476Y-39274761D02*
X186079285Y-39236666D01*
X186041190Y-39198571D01*
X186003095Y-39122380D01*
X186003095Y-39084285D01*
X186041190Y-39008095D01*
X186079285Y-38970000D01*
X186155476Y-38931904D01*
X186307857Y-38931904D01*
X186384047Y-38970000D01*
X186422142Y-39008095D01*
X186460238Y-39084285D01*
X186460238Y-39122380D01*
X186422142Y-39198571D01*
X186384047Y-39236666D01*
X186307857Y-39274761D01*
X186155476Y-39274761D01*
X186079285Y-39312857D01*
X186041190Y-39350952D01*
X186003095Y-39427142D01*
X186003095Y-39579523D01*
X186041190Y-39655714D01*
X186079285Y-39693809D01*
X186155476Y-39731904D01*
X186307857Y-39731904D01*
X186384047Y-39693809D01*
X186422142Y-39655714D01*
X186460238Y-39579523D01*
X186460238Y-39427142D01*
X186422142Y-39350952D01*
X186384047Y-39312857D01*
X186307857Y-39274761D01*
X173825238Y-54171904D02*
X174282380Y-54171904D01*
X174053809Y-54971904D02*
X174053809Y-54171904D01*
X174701428Y-54171904D02*
X174853809Y-54171904D01*
X174930000Y-54210000D01*
X175006190Y-54286190D01*
X175044285Y-54438571D01*
X175044285Y-54705238D01*
X175006190Y-54857619D01*
X174930000Y-54933809D01*
X174853809Y-54971904D01*
X174701428Y-54971904D01*
X174625238Y-54933809D01*
X174549047Y-54857619D01*
X174510952Y-54705238D01*
X174510952Y-54438571D01*
X174549047Y-54286190D01*
X174625238Y-54210000D01*
X174701428Y-54171904D01*
X175387142Y-54971904D02*
X175387142Y-54171904D01*
X175691904Y-54171904D01*
X175768095Y-54210000D01*
X175806190Y-54248095D01*
X175844285Y-54324285D01*
X175844285Y-54438571D01*
X175806190Y-54514761D01*
X175768095Y-54552857D01*
X175691904Y-54590952D01*
X175387142Y-54590952D01*
X176682380Y-54171904D02*
X176949047Y-54971904D01*
X177215714Y-54171904D01*
X177482380Y-54971904D02*
X177482380Y-54171904D01*
X177863333Y-54552857D02*
X178130000Y-54552857D01*
X178244285Y-54971904D02*
X177863333Y-54971904D01*
X177863333Y-54171904D01*
X178244285Y-54171904D01*
X178510952Y-54171904D02*
X178701428Y-54971904D01*
X178853809Y-54400476D01*
X179006190Y-54971904D01*
X179196666Y-54171904D01*
X159410476Y-60267904D02*
X159905714Y-60267904D01*
X159639047Y-60572666D01*
X159753333Y-60572666D01*
X159829523Y-60610761D01*
X159867619Y-60648857D01*
X159905714Y-60725047D01*
X159905714Y-60915523D01*
X159867619Y-60991714D01*
X159829523Y-61029809D01*
X159753333Y-61067904D01*
X159524761Y-61067904D01*
X159448571Y-61029809D01*
X159410476Y-60991714D01*
X160134285Y-60267904D02*
X160400952Y-61067904D01*
X160667619Y-60267904D01*
X164490476Y-60306000D02*
X164414285Y-60267904D01*
X164300000Y-60267904D01*
X164185714Y-60306000D01*
X164109523Y-60382190D01*
X164071428Y-60458380D01*
X164033333Y-60610761D01*
X164033333Y-60725047D01*
X164071428Y-60877428D01*
X164109523Y-60953619D01*
X164185714Y-61029809D01*
X164300000Y-61067904D01*
X164376190Y-61067904D01*
X164490476Y-61029809D01*
X164528571Y-60991714D01*
X164528571Y-60725047D01*
X164376190Y-60725047D01*
X164871428Y-61067904D02*
X164871428Y-60267904D01*
X165328571Y-61067904D01*
X165328571Y-60267904D01*
X165709523Y-61067904D02*
X165709523Y-60267904D01*
X165900000Y-60267904D01*
X166014285Y-60306000D01*
X166090476Y-60382190D01*
X166128571Y-60458380D01*
X166166666Y-60610761D01*
X166166666Y-60725047D01*
X166128571Y-60877428D01*
X166090476Y-60953619D01*
X166014285Y-61029809D01*
X165900000Y-61067904D01*
X165709523Y-61067904D01*
X194608571Y-43757809D02*
X194722857Y-43795904D01*
X194913333Y-43795904D01*
X194989523Y-43757809D01*
X195027619Y-43719714D01*
X195065714Y-43643523D01*
X195065714Y-43567333D01*
X195027619Y-43491142D01*
X194989523Y-43453047D01*
X194913333Y-43414952D01*
X194760952Y-43376857D01*
X194684761Y-43338761D01*
X194646666Y-43300666D01*
X194608571Y-43224476D01*
X194608571Y-43148285D01*
X194646666Y-43072095D01*
X194684761Y-43034000D01*
X194760952Y-42995904D01*
X194951428Y-42995904D01*
X195065714Y-43034000D01*
X195408571Y-43795904D02*
X195408571Y-42995904D01*
X195599047Y-42995904D01*
X195713333Y-43034000D01*
X195789523Y-43110190D01*
X195827619Y-43186380D01*
X195865714Y-43338761D01*
X195865714Y-43453047D01*
X195827619Y-43605428D01*
X195789523Y-43681619D01*
X195713333Y-43757809D01*
X195599047Y-43795904D01*
X195408571Y-43795904D01*
X196170476Y-43567333D02*
X196551428Y-43567333D01*
X196094285Y-43795904D02*
X196360952Y-42995904D01*
X196627619Y-43795904D01*
X192087619Y-43757809D02*
X192201904Y-43795904D01*
X192392380Y-43795904D01*
X192468571Y-43757809D01*
X192506666Y-43719714D01*
X192544761Y-43643523D01*
X192544761Y-43567333D01*
X192506666Y-43491142D01*
X192468571Y-43453047D01*
X192392380Y-43414952D01*
X192240000Y-43376857D01*
X192163809Y-43338761D01*
X192125714Y-43300666D01*
X192087619Y-43224476D01*
X192087619Y-43148285D01*
X192125714Y-43072095D01*
X192163809Y-43034000D01*
X192240000Y-42995904D01*
X192430476Y-42995904D01*
X192544761Y-43034000D01*
X193344761Y-43719714D02*
X193306666Y-43757809D01*
X193192380Y-43795904D01*
X193116190Y-43795904D01*
X193001904Y-43757809D01*
X192925714Y-43681619D01*
X192887619Y-43605428D01*
X192849523Y-43453047D01*
X192849523Y-43338761D01*
X192887619Y-43186380D01*
X192925714Y-43110190D01*
X193001904Y-43034000D01*
X193116190Y-42995904D01*
X193192380Y-42995904D01*
X193306666Y-43034000D01*
X193344761Y-43072095D01*
X194068571Y-43795904D02*
X193687619Y-43795904D01*
X193687619Y-42995904D01*
X139630238Y-62172857D02*
X139744523Y-62210952D01*
X139782619Y-62249047D01*
X139820714Y-62325238D01*
X139820714Y-62439523D01*
X139782619Y-62515714D01*
X139744523Y-62553809D01*
X139668333Y-62591904D01*
X139363571Y-62591904D01*
X139363571Y-61791904D01*
X139630238Y-61791904D01*
X139706428Y-61830000D01*
X139744523Y-61868095D01*
X139782619Y-61944285D01*
X139782619Y-62020476D01*
X139744523Y-62096666D01*
X139706428Y-62134761D01*
X139630238Y-62172857D01*
X139363571Y-62172857D01*
X140087380Y-61791904D02*
X140620714Y-61791904D01*
X140087380Y-62591904D01*
X140620714Y-62591904D01*
X141344523Y-62591904D02*
X140887380Y-62591904D01*
X141115952Y-62591904D02*
X141115952Y-61791904D01*
X141039761Y-61906190D01*
X140963571Y-61982380D01*
X140887380Y-62020476D01*
X135820714Y-63861904D02*
X135820714Y-63061904D01*
X136125476Y-63061904D01*
X136201666Y-63100000D01*
X136239761Y-63138095D01*
X136277857Y-63214285D01*
X136277857Y-63328571D01*
X136239761Y-63404761D01*
X136201666Y-63442857D01*
X136125476Y-63480952D01*
X135820714Y-63480952D01*
X136620714Y-63861904D02*
X136620714Y-63061904D01*
X137001666Y-63442857D02*
X137268333Y-63442857D01*
X137382619Y-63861904D02*
X137001666Y-63861904D01*
X137001666Y-63061904D01*
X137382619Y-63061904D01*
X137649285Y-63061904D02*
X138182619Y-63061904D01*
X137649285Y-63861904D01*
X138182619Y-63861904D01*
X138639761Y-63061904D02*
X138792142Y-63061904D01*
X138868333Y-63100000D01*
X138944523Y-63176190D01*
X138982619Y-63328571D01*
X138982619Y-63595238D01*
X138944523Y-63747619D01*
X138868333Y-63823809D01*
X138792142Y-63861904D01*
X138639761Y-63861904D01*
X138563571Y-63823809D01*
X138487380Y-63747619D01*
X138449285Y-63595238D01*
X138449285Y-63328571D01*
X138487380Y-63176190D01*
X138563571Y-63100000D01*
X138639761Y-63061904D01*
X139135000Y-63938095D02*
X139744523Y-63938095D01*
X139896904Y-63823809D02*
X140011190Y-63861904D01*
X140201666Y-63861904D01*
X140277857Y-63823809D01*
X140315952Y-63785714D01*
X140354047Y-63709523D01*
X140354047Y-63633333D01*
X140315952Y-63557142D01*
X140277857Y-63519047D01*
X140201666Y-63480952D01*
X140049285Y-63442857D01*
X139973095Y-63404761D01*
X139935000Y-63366666D01*
X139896904Y-63290476D01*
X139896904Y-63214285D01*
X139935000Y-63138095D01*
X139973095Y-63100000D01*
X140049285Y-63061904D01*
X140239761Y-63061904D01*
X140354047Y-63100000D01*
X140696904Y-63861904D02*
X140696904Y-63061904D01*
X141001666Y-63061904D01*
X141077857Y-63100000D01*
X141115952Y-63138095D01*
X141154047Y-63214285D01*
X141154047Y-63328571D01*
X141115952Y-63404761D01*
X141077857Y-63442857D01*
X141001666Y-63480952D01*
X140696904Y-63480952D01*
X141496904Y-63442857D02*
X141763571Y-63442857D01*
X141877857Y-63861904D02*
X141496904Y-63861904D01*
X141496904Y-63061904D01*
X141877857Y-63061904D01*
X142182619Y-63633333D02*
X142563571Y-63633333D01*
X142106428Y-63861904D02*
X142373095Y-63061904D01*
X142639761Y-63861904D01*
X142906428Y-63861904D02*
X142906428Y-63061904D01*
X143363571Y-63861904D02*
X143020714Y-63404761D01*
X143363571Y-63061904D02*
X142906428Y-63519047D01*
X143706428Y-63442857D02*
X143973095Y-63442857D01*
X144087380Y-63861904D02*
X143706428Y-63861904D01*
X143706428Y-63061904D01*
X144087380Y-63061904D01*
X144887380Y-63861904D02*
X144620714Y-63480952D01*
X144430238Y-63861904D02*
X144430238Y-63061904D01*
X144735000Y-63061904D01*
X144811190Y-63100000D01*
X144849285Y-63138095D01*
X144887380Y-63214285D01*
X144887380Y-63328571D01*
X144849285Y-63404761D01*
X144811190Y-63442857D01*
X144735000Y-63480952D01*
X144430238Y-63480952D01*
X213222047Y-64331904D02*
X213222047Y-64903333D01*
X213183952Y-65017619D01*
X213107761Y-65093809D01*
X212993476Y-65131904D01*
X212917285Y-65131904D01*
X214022047Y-65131904D02*
X213564904Y-65131904D01*
X213793476Y-65131904D02*
X213793476Y-64331904D01*
X213717285Y-64446190D01*
X213641095Y-64522380D01*
X213564904Y-64560476D01*
X213374428Y-65601904D02*
X212993476Y-65601904D01*
X212955380Y-65982857D01*
X212993476Y-65944761D01*
X213069666Y-65906666D01*
X213260142Y-65906666D01*
X213336333Y-65944761D01*
X213374428Y-65982857D01*
X213412523Y-66059047D01*
X213412523Y-66249523D01*
X213374428Y-66325714D01*
X213336333Y-66363809D01*
X213260142Y-66401904D01*
X213069666Y-66401904D01*
X212993476Y-66363809D01*
X212955380Y-66325714D01*
X213641095Y-65601904D02*
X213907761Y-66401904D01*
X214174428Y-65601904D01*
X214250619Y-66478095D02*
X214860142Y-66478095D01*
X215050619Y-66401904D02*
X215050619Y-65601904D01*
X215355380Y-65601904D01*
X215431571Y-65640000D01*
X215469666Y-65678095D01*
X215507761Y-65754285D01*
X215507761Y-65868571D01*
X215469666Y-65944761D01*
X215431571Y-65982857D01*
X215355380Y-66020952D01*
X215050619Y-66020952D01*
X216003000Y-65601904D02*
X216155380Y-65601904D01*
X216231571Y-65640000D01*
X216307761Y-65716190D01*
X216345857Y-65868571D01*
X216345857Y-66135238D01*
X216307761Y-66287619D01*
X216231571Y-66363809D01*
X216155380Y-66401904D01*
X216003000Y-66401904D01*
X215926809Y-66363809D01*
X215850619Y-66287619D01*
X215812523Y-66135238D01*
X215812523Y-65868571D01*
X215850619Y-65716190D01*
X215926809Y-65640000D01*
X216003000Y-65601904D01*
X216612523Y-65601904D02*
X216803000Y-66401904D01*
X216955380Y-65830476D01*
X217107761Y-66401904D01*
X217298238Y-65601904D01*
X217603000Y-65982857D02*
X217869666Y-65982857D01*
X217983952Y-66401904D02*
X217603000Y-66401904D01*
X217603000Y-65601904D01*
X217983952Y-65601904D01*
X218783952Y-66401904D02*
X218517285Y-66020952D01*
X218326809Y-66401904D02*
X218326809Y-65601904D01*
X218631571Y-65601904D01*
X218707761Y-65640000D01*
X218745857Y-65678095D01*
X218783952Y-65754285D01*
X218783952Y-65868571D01*
X218745857Y-65944761D01*
X218707761Y-65982857D01*
X218631571Y-66020952D01*
X218326809Y-66020952D01*
X218936333Y-66478095D02*
X219545857Y-66478095D01*
X219736333Y-66401904D02*
X219736333Y-65601904D01*
X220117285Y-66401904D02*
X220117285Y-65601904D01*
X220574428Y-66401904D01*
X220574428Y-65601904D01*
X220955380Y-66401904D02*
X220955380Y-65601904D01*
X221260142Y-65601904D01*
X221336333Y-65640000D01*
X221374428Y-65678095D01*
X221412523Y-65754285D01*
X221412523Y-65868571D01*
X221374428Y-65944761D01*
X221336333Y-65982857D01*
X221260142Y-66020952D01*
X220955380Y-66020952D01*
X221755380Y-65601904D02*
X221755380Y-66249523D01*
X221793476Y-66325714D01*
X221831571Y-66363809D01*
X221907761Y-66401904D01*
X222060142Y-66401904D01*
X222136333Y-66363809D01*
X222174428Y-66325714D01*
X222212523Y-66249523D01*
X222212523Y-65601904D01*
X222479190Y-65601904D02*
X222936333Y-65601904D01*
X222707761Y-66401904D02*
X222707761Y-65601904D01*
X211271428Y-63226904D02*
X211004761Y-62845952D01*
X210814285Y-63226904D02*
X210814285Y-62426904D01*
X211119047Y-62426904D01*
X211195238Y-62465000D01*
X211233333Y-62503095D01*
X211271428Y-62579285D01*
X211271428Y-62693571D01*
X211233333Y-62769761D01*
X211195238Y-62807857D01*
X211119047Y-62845952D01*
X210814285Y-62845952D01*
X211766666Y-62426904D02*
X211919047Y-62426904D01*
X211995238Y-62465000D01*
X212071428Y-62541190D01*
X212109523Y-62693571D01*
X212109523Y-62960238D01*
X212071428Y-63112619D01*
X211995238Y-63188809D01*
X211919047Y-63226904D01*
X211766666Y-63226904D01*
X211690476Y-63188809D01*
X211614285Y-63112619D01*
X211576190Y-62960238D01*
X211576190Y-62693571D01*
X211614285Y-62541190D01*
X211690476Y-62465000D01*
X211766666Y-62426904D01*
X212338095Y-62426904D02*
X212795238Y-62426904D01*
X212566666Y-63226904D02*
X212566666Y-62426904D01*
X213023809Y-62998333D02*
X213404761Y-62998333D01*
X212947619Y-63226904D02*
X213214285Y-62426904D01*
X213480952Y-63226904D01*
X214204761Y-63226904D02*
X213938095Y-62845952D01*
X213747619Y-63226904D02*
X213747619Y-62426904D01*
X214052380Y-62426904D01*
X214128571Y-62465000D01*
X214166666Y-62503095D01*
X214204761Y-62579285D01*
X214204761Y-62693571D01*
X214166666Y-62769761D01*
X214128571Y-62807857D01*
X214052380Y-62845952D01*
X213747619Y-62845952D01*
X214700000Y-62845952D02*
X214700000Y-63226904D01*
X214433333Y-62426904D02*
X214700000Y-62845952D01*
X214966666Y-62426904D01*
X215042857Y-63303095D02*
X215652380Y-63303095D01*
X215842857Y-62807857D02*
X216109523Y-62807857D01*
X216223809Y-63226904D02*
X215842857Y-63226904D01*
X215842857Y-62426904D01*
X216223809Y-62426904D01*
X216566666Y-63226904D02*
X216566666Y-62426904D01*
X217023809Y-63226904D01*
X217023809Y-62426904D01*
X217861904Y-63150714D02*
X217823809Y-63188809D01*
X217709523Y-63226904D01*
X217633333Y-63226904D01*
X217519047Y-63188809D01*
X217442857Y-63112619D01*
X217404761Y-63036428D01*
X217366666Y-62884047D01*
X217366666Y-62769761D01*
X217404761Y-62617380D01*
X217442857Y-62541190D01*
X217519047Y-62465000D01*
X217633333Y-62426904D01*
X217709523Y-62426904D01*
X217823809Y-62465000D01*
X217861904Y-62503095D01*
X218357142Y-62426904D02*
X218509523Y-62426904D01*
X218585714Y-62465000D01*
X218661904Y-62541190D01*
X218700000Y-62693571D01*
X218700000Y-62960238D01*
X218661904Y-63112619D01*
X218585714Y-63188809D01*
X218509523Y-63226904D01*
X218357142Y-63226904D01*
X218280952Y-63188809D01*
X218204761Y-63112619D01*
X218166666Y-62960238D01*
X218166666Y-62693571D01*
X218204761Y-62541190D01*
X218280952Y-62465000D01*
X218357142Y-62426904D01*
X219042857Y-63226904D02*
X219042857Y-62426904D01*
X219233333Y-62426904D01*
X219347619Y-62465000D01*
X219423809Y-62541190D01*
X219461904Y-62617380D01*
X219500000Y-62769761D01*
X219500000Y-62884047D01*
X219461904Y-63036428D01*
X219423809Y-63112619D01*
X219347619Y-63188809D01*
X219233333Y-63226904D01*
X219042857Y-63226904D01*
X219842857Y-62807857D02*
X220109523Y-62807857D01*
X220223809Y-63226904D02*
X219842857Y-63226904D01*
X219842857Y-62426904D01*
X220223809Y-62426904D01*
X221023809Y-63226904D02*
X220757142Y-62845952D01*
X220566666Y-63226904D02*
X220566666Y-62426904D01*
X220871428Y-62426904D01*
X220947619Y-62465000D01*
X220985714Y-62503095D01*
X221023809Y-62579285D01*
X221023809Y-62693571D01*
X220985714Y-62769761D01*
X220947619Y-62807857D01*
X220871428Y-62845952D01*
X220566666Y-62845952D01*
X208305476Y-63188809D02*
X208419761Y-63226904D01*
X208610238Y-63226904D01*
X208686428Y-63188809D01*
X208724523Y-63150714D01*
X208762619Y-63074523D01*
X208762619Y-62998333D01*
X208724523Y-62922142D01*
X208686428Y-62884047D01*
X208610238Y-62845952D01*
X208457857Y-62807857D01*
X208381666Y-62769761D01*
X208343571Y-62731666D01*
X208305476Y-62655476D01*
X208305476Y-62579285D01*
X208343571Y-62503095D01*
X208381666Y-62465000D01*
X208457857Y-62426904D01*
X208648333Y-62426904D01*
X208762619Y-62465000D01*
X209524523Y-63226904D02*
X209067380Y-63226904D01*
X209295952Y-63226904D02*
X209295952Y-62426904D01*
X209219761Y-62541190D01*
X209143571Y-62617380D01*
X209067380Y-62655476D01*
X95872380Y-39731904D02*
X95872380Y-38931904D01*
X96139047Y-39503333D01*
X96405714Y-38931904D01*
X96405714Y-39731904D01*
X97205714Y-39731904D02*
X96748571Y-39731904D01*
X96977142Y-39731904D02*
X96977142Y-38931904D01*
X96900952Y-39046190D01*
X96824761Y-39122380D01*
X96748571Y-39160476D01*
X98635238Y-39312857D02*
X98368571Y-39312857D01*
X98368571Y-39731904D02*
X98368571Y-38931904D01*
X98749523Y-38931904D01*
X99359047Y-39693809D02*
X99282857Y-39731904D01*
X99130476Y-39731904D01*
X99054285Y-39693809D01*
X99016190Y-39617619D01*
X99016190Y-39312857D01*
X99054285Y-39236666D01*
X99130476Y-39198571D01*
X99282857Y-39198571D01*
X99359047Y-39236666D01*
X99397142Y-39312857D01*
X99397142Y-39389047D01*
X99016190Y-39465238D01*
X100082857Y-39731904D02*
X100082857Y-39312857D01*
X100044761Y-39236666D01*
X99968571Y-39198571D01*
X99816190Y-39198571D01*
X99740000Y-39236666D01*
X100082857Y-39693809D02*
X100006666Y-39731904D01*
X99816190Y-39731904D01*
X99740000Y-39693809D01*
X99701904Y-39617619D01*
X99701904Y-39541428D01*
X99740000Y-39465238D01*
X99816190Y-39427142D01*
X100006666Y-39427142D01*
X100082857Y-39389047D01*
X100349523Y-39198571D02*
X100654285Y-39198571D01*
X100463809Y-38931904D02*
X100463809Y-39617619D01*
X100501904Y-39693809D01*
X100578095Y-39731904D01*
X100654285Y-39731904D01*
X100920952Y-39731904D02*
X100920952Y-38931904D01*
X101263809Y-39731904D02*
X101263809Y-39312857D01*
X101225714Y-39236666D01*
X101149523Y-39198571D01*
X101035238Y-39198571D01*
X100959047Y-39236666D01*
X100920952Y-39274761D01*
X101949523Y-39693809D02*
X101873333Y-39731904D01*
X101720952Y-39731904D01*
X101644761Y-39693809D01*
X101606666Y-39617619D01*
X101606666Y-39312857D01*
X101644761Y-39236666D01*
X101720952Y-39198571D01*
X101873333Y-39198571D01*
X101949523Y-39236666D01*
X101987619Y-39312857D01*
X101987619Y-39389047D01*
X101606666Y-39465238D01*
X102330476Y-39731904D02*
X102330476Y-39198571D01*
X102330476Y-39350952D02*
X102368571Y-39274761D01*
X102406666Y-39236666D01*
X102482857Y-39198571D01*
X102559047Y-39198571D01*
X102635238Y-39808095D02*
X103244761Y-39808095D01*
X103435238Y-39731904D02*
X103435238Y-38931904D01*
X103701904Y-39503333D01*
X103968571Y-38931904D01*
X103968571Y-39731904D01*
X104692380Y-39198571D02*
X104692380Y-39731904D01*
X104501904Y-38893809D02*
X104311428Y-39465238D01*
X104806666Y-39465238D01*
X104920952Y-39808095D02*
X105530476Y-39808095D01*
X105720952Y-39312857D02*
X105987619Y-39312857D01*
X106101904Y-39731904D02*
X105720952Y-39731904D01*
X105720952Y-38931904D01*
X106101904Y-38931904D01*
X106368571Y-39731904D02*
X106787619Y-39198571D01*
X106368571Y-39198571D02*
X106787619Y-39731904D01*
X107092380Y-39198571D02*
X107092380Y-39998571D01*
X107092380Y-39236666D02*
X107168571Y-39198571D01*
X107320952Y-39198571D01*
X107397142Y-39236666D01*
X107435238Y-39274761D01*
X107473333Y-39350952D01*
X107473333Y-39579523D01*
X107435238Y-39655714D01*
X107397142Y-39693809D01*
X107320952Y-39731904D01*
X107168571Y-39731904D01*
X107092380Y-39693809D01*
X107816190Y-39731904D02*
X107816190Y-39198571D01*
X107816190Y-39350952D02*
X107854285Y-39274761D01*
X107892380Y-39236666D01*
X107968571Y-39198571D01*
X108044761Y-39198571D01*
X108616190Y-39693809D02*
X108540000Y-39731904D01*
X108387619Y-39731904D01*
X108311428Y-39693809D01*
X108273333Y-39617619D01*
X108273333Y-39312857D01*
X108311428Y-39236666D01*
X108387619Y-39198571D01*
X108540000Y-39198571D01*
X108616190Y-39236666D01*
X108654285Y-39312857D01*
X108654285Y-39389047D01*
X108273333Y-39465238D01*
X108959047Y-39693809D02*
X109035238Y-39731904D01*
X109187619Y-39731904D01*
X109263809Y-39693809D01*
X109301904Y-39617619D01*
X109301904Y-39579523D01*
X109263809Y-39503333D01*
X109187619Y-39465238D01*
X109073333Y-39465238D01*
X108997142Y-39427142D01*
X108959047Y-39350952D01*
X108959047Y-39312857D01*
X108997142Y-39236666D01*
X109073333Y-39198571D01*
X109187619Y-39198571D01*
X109263809Y-39236666D01*
X109606666Y-39693809D02*
X109682857Y-39731904D01*
X109835238Y-39731904D01*
X109911428Y-39693809D01*
X109949523Y-39617619D01*
X109949523Y-39579523D01*
X109911428Y-39503333D01*
X109835238Y-39465238D01*
X109720952Y-39465238D01*
X109644761Y-39427142D01*
X109606666Y-39350952D01*
X109606666Y-39312857D01*
X109644761Y-39236666D01*
X109720952Y-39198571D01*
X109835238Y-39198571D01*
X109911428Y-39236666D01*
X84195238Y-46996333D02*
X84576190Y-46996333D01*
X84119047Y-47224904D02*
X84385714Y-46424904D01*
X84652380Y-47224904D01*
X85338095Y-47224904D02*
X84880952Y-47224904D01*
X85109523Y-47224904D02*
X85109523Y-46424904D01*
X85033333Y-46539190D01*
X84957142Y-46615380D01*
X84880952Y-46653476D01*
X85604761Y-46424904D02*
X86099999Y-46424904D01*
X85833333Y-46729666D01*
X85947619Y-46729666D01*
X86023809Y-46767761D01*
X86061904Y-46805857D01*
X86099999Y-46882047D01*
X86099999Y-47072523D01*
X86061904Y-47148714D01*
X86023809Y-47186809D01*
X85947619Y-47224904D01*
X85719047Y-47224904D01*
X85642857Y-47186809D01*
X85604761Y-47148714D01*
X87052380Y-46805857D02*
X87661904Y-46805857D01*
X87661904Y-47034428D02*
X87052380Y-47034428D01*
X88804761Y-46424904D02*
X88880952Y-46424904D01*
X88957142Y-46463000D01*
X88995238Y-46501095D01*
X89033333Y-46577285D01*
X89071428Y-46729666D01*
X89071428Y-46920142D01*
X89033333Y-47072523D01*
X88995238Y-47148714D01*
X88957142Y-47186809D01*
X88880952Y-47224904D01*
X88804761Y-47224904D01*
X88728571Y-47186809D01*
X88690476Y-47148714D01*
X88652380Y-47072523D01*
X88614285Y-46920142D01*
X88614285Y-46729666D01*
X88652380Y-46577285D01*
X88690476Y-46501095D01*
X88728571Y-46463000D01*
X88804761Y-46424904D01*
X89414285Y-47148714D02*
X89452380Y-47186809D01*
X89414285Y-47224904D01*
X89376190Y-47186809D01*
X89414285Y-47148714D01*
X89414285Y-47224904D01*
X90176190Y-46424904D02*
X89795238Y-46424904D01*
X89757142Y-46805857D01*
X89795238Y-46767761D01*
X89871428Y-46729666D01*
X90061904Y-46729666D01*
X90138095Y-46767761D01*
X90176190Y-46805857D01*
X90214285Y-46882047D01*
X90214285Y-47072523D01*
X90176190Y-47148714D01*
X90138095Y-47186809D01*
X90061904Y-47224904D01*
X89871428Y-47224904D01*
X89795238Y-47186809D01*
X89757142Y-47148714D01*
X91052380Y-46424904D02*
X91319047Y-47224904D01*
X91585714Y-46424904D01*
X92119047Y-46805857D02*
X92233333Y-46843952D01*
X92271428Y-46882047D01*
X92309523Y-46958238D01*
X92309523Y-47072523D01*
X92271428Y-47148714D01*
X92233333Y-47186809D01*
X92157142Y-47224904D01*
X91852380Y-47224904D01*
X91852380Y-46424904D01*
X92119047Y-46424904D01*
X92195238Y-46463000D01*
X92233333Y-46501095D01*
X92271428Y-46577285D01*
X92271428Y-46653476D01*
X92233333Y-46729666D01*
X92195238Y-46767761D01*
X92119047Y-46805857D01*
X91852380Y-46805857D01*
X92614285Y-46996333D02*
X92995238Y-46996333D01*
X92538095Y-47224904D02*
X92804761Y-46424904D01*
X93071428Y-47224904D01*
X93223809Y-46424904D02*
X93680952Y-46424904D01*
X93452380Y-47224904D02*
X93452380Y-46424904D01*
X101435238Y-54171904D02*
X101892380Y-54171904D01*
X101663809Y-54971904D02*
X101663809Y-54171904D01*
X102311428Y-54171904D02*
X102463809Y-54171904D01*
X102540000Y-54210000D01*
X102616190Y-54286190D01*
X102654285Y-54438571D01*
X102654285Y-54705238D01*
X102616190Y-54857619D01*
X102540000Y-54933809D01*
X102463809Y-54971904D01*
X102311428Y-54971904D01*
X102235238Y-54933809D01*
X102159047Y-54857619D01*
X102120952Y-54705238D01*
X102120952Y-54438571D01*
X102159047Y-54286190D01*
X102235238Y-54210000D01*
X102311428Y-54171904D01*
X102997142Y-54971904D02*
X102997142Y-54171904D01*
X103301904Y-54171904D01*
X103378095Y-54210000D01*
X103416190Y-54248095D01*
X103454285Y-54324285D01*
X103454285Y-54438571D01*
X103416190Y-54514761D01*
X103378095Y-54552857D01*
X103301904Y-54590952D01*
X102997142Y-54590952D01*
X104292380Y-54171904D02*
X104559047Y-54971904D01*
X104825714Y-54171904D01*
X105092380Y-54971904D02*
X105092380Y-54171904D01*
X105473333Y-54552857D02*
X105740000Y-54552857D01*
X105854285Y-54971904D02*
X105473333Y-54971904D01*
X105473333Y-54171904D01*
X105854285Y-54171904D01*
X106120952Y-54171904D02*
X106311428Y-54971904D01*
X106463809Y-54400476D01*
X106616190Y-54971904D01*
X106806666Y-54171904D01*
X92850000Y-55606904D02*
X92850000Y-54806904D01*
X93307142Y-55606904D01*
X93307142Y-54806904D01*
X93992857Y-55568809D02*
X93916666Y-55606904D01*
X93764285Y-55606904D01*
X93688095Y-55568809D01*
X93650000Y-55492619D01*
X93650000Y-55187857D01*
X93688095Y-55111666D01*
X93764285Y-55073571D01*
X93916666Y-55073571D01*
X93992857Y-55111666D01*
X94030952Y-55187857D01*
X94030952Y-55264047D01*
X93650000Y-55340238D01*
X94488095Y-55606904D02*
X94411904Y-55568809D01*
X94373809Y-55530714D01*
X94335714Y-55454523D01*
X94335714Y-55225952D01*
X94373809Y-55149761D01*
X94411904Y-55111666D01*
X94488095Y-55073571D01*
X94602380Y-55073571D01*
X94678571Y-55111666D01*
X94716666Y-55149761D01*
X94754761Y-55225952D01*
X94754761Y-55454523D01*
X94716666Y-55530714D01*
X94678571Y-55568809D01*
X94602380Y-55606904D01*
X94488095Y-55606904D01*
X95097619Y-55606904D02*
X95097619Y-54806904D01*
X95402380Y-54806904D01*
X95478571Y-54845000D01*
X95516666Y-54883095D01*
X95554761Y-54959285D01*
X95554761Y-55073571D01*
X95516666Y-55149761D01*
X95478571Y-55187857D01*
X95402380Y-55225952D01*
X95097619Y-55225952D01*
X95897619Y-55606904D02*
X95897619Y-55073571D01*
X95897619Y-54806904D02*
X95859523Y-54845000D01*
X95897619Y-54883095D01*
X95935714Y-54845000D01*
X95897619Y-54806904D01*
X95897619Y-54883095D01*
X96202380Y-55606904D02*
X96621428Y-55073571D01*
X96202380Y-55073571D02*
X96621428Y-55606904D01*
X97230952Y-55568809D02*
X97154761Y-55606904D01*
X97002380Y-55606904D01*
X96926190Y-55568809D01*
X96888095Y-55492619D01*
X96888095Y-55187857D01*
X96926190Y-55111666D01*
X97002380Y-55073571D01*
X97154761Y-55073571D01*
X97230952Y-55111666D01*
X97269047Y-55187857D01*
X97269047Y-55264047D01*
X96888095Y-55340238D01*
X97726190Y-55606904D02*
X97650000Y-55568809D01*
X97611904Y-55492619D01*
X97611904Y-54806904D01*
X94659523Y-57511904D02*
X94659523Y-56711904D01*
X94850000Y-56711904D01*
X94964285Y-56750000D01*
X95040476Y-56826190D01*
X95078571Y-56902380D01*
X95116666Y-57054761D01*
X95116666Y-57169047D01*
X95078571Y-57321428D01*
X95040476Y-57397619D01*
X94964285Y-57473809D01*
X94850000Y-57511904D01*
X94659523Y-57511904D01*
X95573809Y-57054761D02*
X95497619Y-57016666D01*
X95459523Y-56978571D01*
X95421428Y-56902380D01*
X95421428Y-56864285D01*
X95459523Y-56788095D01*
X95497619Y-56750000D01*
X95573809Y-56711904D01*
X95726190Y-56711904D01*
X95802380Y-56750000D01*
X95840476Y-56788095D01*
X95878571Y-56864285D01*
X95878571Y-56902380D01*
X95840476Y-56978571D01*
X95802380Y-57016666D01*
X95726190Y-57054761D01*
X95573809Y-57054761D01*
X95497619Y-57092857D01*
X95459523Y-57130952D01*
X95421428Y-57207142D01*
X95421428Y-57359523D01*
X95459523Y-57435714D01*
X95497619Y-57473809D01*
X95573809Y-57511904D01*
X95726190Y-57511904D01*
X95802380Y-57473809D01*
X95840476Y-57435714D01*
X95878571Y-57359523D01*
X95878571Y-57207142D01*
X95840476Y-57130952D01*
X95802380Y-57092857D01*
X95726190Y-57054761D01*
X88461904Y-57511904D02*
X88195238Y-57130952D01*
X88004761Y-57511904D02*
X88004761Y-56711904D01*
X88309523Y-56711904D01*
X88385714Y-56750000D01*
X88423809Y-56788095D01*
X88461904Y-56864285D01*
X88461904Y-56978571D01*
X88423809Y-57054761D01*
X88385714Y-57092857D01*
X88309523Y-57130952D01*
X88004761Y-57130952D01*
X88766666Y-57473809D02*
X88880952Y-57511904D01*
X89071428Y-57511904D01*
X89147619Y-57473809D01*
X89185714Y-57435714D01*
X89223809Y-57359523D01*
X89223809Y-57283333D01*
X89185714Y-57207142D01*
X89147619Y-57169047D01*
X89071428Y-57130952D01*
X88919047Y-57092857D01*
X88842857Y-57054761D01*
X88804761Y-57016666D01*
X88766666Y-56940476D01*
X88766666Y-56864285D01*
X88804761Y-56788095D01*
X88842857Y-56750000D01*
X88919047Y-56711904D01*
X89109523Y-56711904D01*
X89223809Y-56750000D01*
X89452380Y-56711904D02*
X89909523Y-56711904D01*
X89680952Y-57511904D02*
X89680952Y-56711904D01*
X80708571Y-58070714D02*
X80670476Y-58108809D01*
X80556190Y-58146904D01*
X80480000Y-58146904D01*
X80365714Y-58108809D01*
X80289523Y-58032619D01*
X80251428Y-57956428D01*
X80213333Y-57804047D01*
X80213333Y-57689761D01*
X80251428Y-57537380D01*
X80289523Y-57461190D01*
X80365714Y-57385000D01*
X80480000Y-57346904D01*
X80556190Y-57346904D01*
X80670476Y-57385000D01*
X80708571Y-57423095D01*
X81051428Y-58146904D02*
X81051428Y-57346904D01*
X81051428Y-57727857D02*
X81508571Y-57727857D01*
X81508571Y-58146904D02*
X81508571Y-57346904D01*
X82308571Y-57385000D02*
X82232380Y-57346904D01*
X82118095Y-57346904D01*
X82003809Y-57385000D01*
X81927619Y-57461190D01*
X81889523Y-57537380D01*
X81851428Y-57689761D01*
X81851428Y-57804047D01*
X81889523Y-57956428D01*
X81927619Y-58032619D01*
X82003809Y-58108809D01*
X82118095Y-58146904D01*
X82194285Y-58146904D01*
X82308571Y-58108809D01*
X82346666Y-58070714D01*
X82346666Y-57804047D01*
X82194285Y-57804047D01*
X80308571Y-46716904D02*
X80308571Y-45916904D01*
X80499047Y-45916904D01*
X80613333Y-45955000D01*
X80689523Y-46031190D01*
X80727619Y-46107380D01*
X80765714Y-46259761D01*
X80765714Y-46374047D01*
X80727619Y-46526428D01*
X80689523Y-46602619D01*
X80613333Y-46678809D01*
X80499047Y-46716904D01*
X80308571Y-46716904D01*
X81527619Y-46716904D02*
X81070476Y-46716904D01*
X81299047Y-46716904D02*
X81299047Y-45916904D01*
X81222857Y-46031190D01*
X81146666Y-46107380D01*
X81070476Y-46145476D01*
X81794285Y-45916904D02*
X82289523Y-45916904D01*
X82022857Y-46221666D01*
X82137142Y-46221666D01*
X82213333Y-46259761D01*
X82251428Y-46297857D01*
X82289523Y-46374047D01*
X82289523Y-46564523D01*
X82251428Y-46640714D01*
X82213333Y-46678809D01*
X82137142Y-46716904D01*
X81908571Y-46716904D01*
X81832380Y-46678809D01*
X81794285Y-46640714D01*
X120059523Y-59797904D02*
X120059523Y-58997904D01*
X120250000Y-58997904D01*
X120364285Y-59036000D01*
X120440476Y-59112190D01*
X120478571Y-59188380D01*
X120516666Y-59340761D01*
X120516666Y-59455047D01*
X120478571Y-59607428D01*
X120440476Y-59683619D01*
X120364285Y-59759809D01*
X120250000Y-59797904D01*
X120059523Y-59797904D01*
X121278571Y-59797904D02*
X120821428Y-59797904D01*
X121050000Y-59797904D02*
X121050000Y-58997904D01*
X120973809Y-59112190D01*
X120897619Y-59188380D01*
X120821428Y-59226476D01*
X117519523Y-59797904D02*
X117519523Y-58997904D01*
X117710000Y-58997904D01*
X117824285Y-59036000D01*
X117900476Y-59112190D01*
X117938571Y-59188380D01*
X117976666Y-59340761D01*
X117976666Y-59455047D01*
X117938571Y-59607428D01*
X117900476Y-59683619D01*
X117824285Y-59759809D01*
X117710000Y-59797904D01*
X117519523Y-59797904D01*
X118471904Y-58997904D02*
X118548095Y-58997904D01*
X118624285Y-59036000D01*
X118662380Y-59074095D01*
X118700476Y-59150285D01*
X118738571Y-59302666D01*
X118738571Y-59493142D01*
X118700476Y-59645523D01*
X118662380Y-59721714D01*
X118624285Y-59759809D01*
X118548095Y-59797904D01*
X118471904Y-59797904D01*
X118395714Y-59759809D01*
X118357619Y-59721714D01*
X118319523Y-59645523D01*
X118281428Y-59493142D01*
X118281428Y-59302666D01*
X118319523Y-59150285D01*
X118357619Y-59074095D01*
X118395714Y-59036000D01*
X118471904Y-58997904D01*
X84651904Y-61067904D02*
X84385238Y-60686952D01*
X84194761Y-61067904D02*
X84194761Y-60267904D01*
X84499523Y-60267904D01*
X84575714Y-60306000D01*
X84613809Y-60344095D01*
X84651904Y-60420285D01*
X84651904Y-60534571D01*
X84613809Y-60610761D01*
X84575714Y-60648857D01*
X84499523Y-60686952D01*
X84194761Y-60686952D01*
X84956666Y-61029809D02*
X85070952Y-61067904D01*
X85261428Y-61067904D01*
X85337619Y-61029809D01*
X85375714Y-60991714D01*
X85413809Y-60915523D01*
X85413809Y-60839333D01*
X85375714Y-60763142D01*
X85337619Y-60725047D01*
X85261428Y-60686952D01*
X85109047Y-60648857D01*
X85032857Y-60610761D01*
X84994761Y-60572666D01*
X84956666Y-60496476D01*
X84956666Y-60420285D01*
X84994761Y-60344095D01*
X85032857Y-60306000D01*
X85109047Y-60267904D01*
X85299523Y-60267904D01*
X85413809Y-60306000D01*
X85642380Y-60267904D02*
X86099523Y-60267904D01*
X85870952Y-61067904D02*
X85870952Y-60267904D01*
X87020476Y-60267904D02*
X87515714Y-60267904D01*
X87249047Y-60572666D01*
X87363333Y-60572666D01*
X87439523Y-60610761D01*
X87477619Y-60648857D01*
X87515714Y-60725047D01*
X87515714Y-60915523D01*
X87477619Y-60991714D01*
X87439523Y-61029809D01*
X87363333Y-61067904D01*
X87134761Y-61067904D01*
X87058571Y-61029809D01*
X87020476Y-60991714D01*
X87744285Y-60267904D02*
X88010952Y-61067904D01*
X88277619Y-60267904D01*
X88874761Y-60839333D02*
X89255714Y-60839333D01*
X88798571Y-61067904D02*
X89065238Y-60267904D01*
X89331904Y-61067904D01*
X90055714Y-61067904D02*
X89789047Y-60686952D01*
X89598571Y-61067904D02*
X89598571Y-60267904D01*
X89903333Y-60267904D01*
X89979523Y-60306000D01*
X90017619Y-60344095D01*
X90055714Y-60420285D01*
X90055714Y-60534571D01*
X90017619Y-60610761D01*
X89979523Y-60648857D01*
X89903333Y-60686952D01*
X89598571Y-60686952D01*
X90398571Y-60648857D02*
X90665238Y-60648857D01*
X90779523Y-61067904D02*
X90398571Y-61067904D01*
X90398571Y-60267904D01*
X90779523Y-60267904D01*
X91389047Y-60648857D02*
X91122380Y-60648857D01*
X91122380Y-61067904D02*
X91122380Y-60267904D01*
X91503333Y-60267904D01*
X92100476Y-60306000D02*
X92024285Y-60267904D01*
X91910000Y-60267904D01*
X91795714Y-60306000D01*
X91719523Y-60382190D01*
X91681428Y-60458380D01*
X91643333Y-60610761D01*
X91643333Y-60725047D01*
X91681428Y-60877428D01*
X91719523Y-60953619D01*
X91795714Y-61029809D01*
X91910000Y-61067904D01*
X91986190Y-61067904D01*
X92100476Y-61029809D01*
X92138571Y-60991714D01*
X92138571Y-60725047D01*
X91986190Y-60725047D01*
X92481428Y-61067904D02*
X92481428Y-60267904D01*
X92938571Y-61067904D01*
X92938571Y-60267904D01*
X93319523Y-61067904D02*
X93319523Y-60267904D01*
X93510000Y-60267904D01*
X93624285Y-60306000D01*
X93700476Y-60382190D01*
X93738571Y-60458380D01*
X93776666Y-60610761D01*
X93776666Y-60725047D01*
X93738571Y-60877428D01*
X93700476Y-60953619D01*
X93624285Y-61029809D01*
X93510000Y-61067904D01*
X93319523Y-61067904D01*
X94316666Y-60763142D02*
X94354761Y-60725047D01*
X94430952Y-60686952D01*
X94583333Y-60763142D01*
X94659523Y-60725047D01*
X94697619Y-60686952D01*
X94964285Y-60839333D02*
X95345238Y-60839333D01*
X94888095Y-61067904D02*
X95154761Y-60267904D01*
X95421428Y-61067904D01*
X95840476Y-60267904D02*
X95916666Y-60267904D01*
X95992857Y-60306000D01*
X96030952Y-60344095D01*
X96069047Y-60420285D01*
X96107142Y-60572666D01*
X96107142Y-60763142D01*
X96069047Y-60915523D01*
X96030952Y-60991714D01*
X95992857Y-61029809D01*
X95916666Y-61067904D01*
X95840476Y-61067904D01*
X95764285Y-61029809D01*
X95726190Y-60991714D01*
X95688095Y-60915523D01*
X95650000Y-60763142D01*
X95650000Y-60572666D01*
X95688095Y-60420285D01*
X95726190Y-60344095D01*
X95764285Y-60306000D01*
X95840476Y-60267904D01*
X96856666Y-60763142D02*
X96894761Y-60725047D01*
X96970952Y-60686952D01*
X97123333Y-60763142D01*
X97199523Y-60725047D01*
X97237619Y-60686952D01*
X97504285Y-60839333D02*
X97885238Y-60839333D01*
X97428095Y-61067904D02*
X97694761Y-60267904D01*
X97961428Y-61067904D01*
X98647142Y-61067904D02*
X98190000Y-61067904D01*
X98418571Y-61067904D02*
X98418571Y-60267904D01*
X98342380Y-60382190D01*
X98266190Y-60458380D01*
X98190000Y-60496476D01*
X99758571Y-60839333D02*
X100139523Y-60839333D01*
X99682380Y-61067904D02*
X99949047Y-60267904D01*
X100215714Y-61067904D01*
X100444285Y-60344095D02*
X100482380Y-60306000D01*
X100558571Y-60267904D01*
X100749047Y-60267904D01*
X100825238Y-60306000D01*
X100863333Y-60344095D01*
X100901428Y-60420285D01*
X100901428Y-60496476D01*
X100863333Y-60610761D01*
X100406190Y-61067904D01*
X100901428Y-61067904D01*
X104838571Y-60839333D02*
X105219523Y-60839333D01*
X104762380Y-61067904D02*
X105029047Y-60267904D01*
X105295714Y-61067904D01*
X105905238Y-60534571D02*
X105905238Y-61067904D01*
X105714761Y-60229809D02*
X105524285Y-60801238D01*
X106019523Y-60801238D01*
X107378571Y-60839333D02*
X107759523Y-60839333D01*
X107302380Y-61067904D02*
X107569047Y-60267904D01*
X107835714Y-61067904D01*
X108483333Y-60267904D02*
X108102380Y-60267904D01*
X108064285Y-60648857D01*
X108102380Y-60610761D01*
X108178571Y-60572666D01*
X108369047Y-60572666D01*
X108445238Y-60610761D01*
X108483333Y-60648857D01*
X108521428Y-60725047D01*
X108521428Y-60915523D01*
X108483333Y-60991714D01*
X108445238Y-61029809D01*
X108369047Y-61067904D01*
X108178571Y-61067904D01*
X108102380Y-61029809D01*
X108064285Y-60991714D01*
X102298571Y-60839333D02*
X102679523Y-60839333D01*
X102222380Y-61067904D02*
X102489047Y-60267904D01*
X102755714Y-61067904D01*
X102946190Y-60267904D02*
X103441428Y-60267904D01*
X103174761Y-60572666D01*
X103289047Y-60572666D01*
X103365238Y-60610761D01*
X103403333Y-60648857D01*
X103441428Y-60725047D01*
X103441428Y-60915523D01*
X103403333Y-60991714D01*
X103365238Y-61029809D01*
X103289047Y-61067904D01*
X103060476Y-61067904D01*
X102984285Y-61029809D01*
X102946190Y-60991714D01*
X109461428Y-61029809D02*
X109575714Y-61067904D01*
X109766190Y-61067904D01*
X109842380Y-61029809D01*
X109880476Y-60991714D01*
X109918571Y-60915523D01*
X109918571Y-60839333D01*
X109880476Y-60763142D01*
X109842380Y-60725047D01*
X109766190Y-60686952D01*
X109613809Y-60648857D01*
X109537619Y-60610761D01*
X109499523Y-60572666D01*
X109461428Y-60496476D01*
X109461428Y-60420285D01*
X109499523Y-60344095D01*
X109537619Y-60306000D01*
X109613809Y-60267904D01*
X109804285Y-60267904D01*
X109918571Y-60306000D01*
X110718571Y-60991714D02*
X110680476Y-61029809D01*
X110566190Y-61067904D01*
X110490000Y-61067904D01*
X110375714Y-61029809D01*
X110299523Y-60953619D01*
X110261428Y-60877428D01*
X110223333Y-60725047D01*
X110223333Y-60610761D01*
X110261428Y-60458380D01*
X110299523Y-60382190D01*
X110375714Y-60306000D01*
X110490000Y-60267904D01*
X110566190Y-60267904D01*
X110680476Y-60306000D01*
X110718571Y-60344095D01*
X111061428Y-61067904D02*
X111061428Y-60267904D01*
X111518571Y-61067904D02*
X111175714Y-60610761D01*
X111518571Y-60267904D02*
X111061428Y-60725047D01*
X115112857Y-61067904D02*
X115112857Y-60267904D01*
X115379523Y-60839333D01*
X115646190Y-60267904D01*
X115646190Y-61067904D01*
X116027142Y-61067904D02*
X116027142Y-60267904D01*
X112344285Y-61067904D02*
X112344285Y-60267904D01*
X112610952Y-60839333D01*
X112877619Y-60267904D01*
X112877619Y-61067904D01*
X113410952Y-60267904D02*
X113563333Y-60267904D01*
X113639523Y-60306000D01*
X113715714Y-60382190D01*
X113753809Y-60534571D01*
X113753809Y-60801238D01*
X113715714Y-60953619D01*
X113639523Y-61029809D01*
X113563333Y-61067904D01*
X113410952Y-61067904D01*
X113334761Y-61029809D01*
X113258571Y-60953619D01*
X113220476Y-60801238D01*
X113220476Y-60534571D01*
X113258571Y-60382190D01*
X113334761Y-60306000D01*
X113410952Y-60267904D01*
X117976666Y-61067904D02*
X117710000Y-60686952D01*
X117519523Y-61067904D02*
X117519523Y-60267904D01*
X117824285Y-60267904D01*
X117900476Y-60306000D01*
X117938571Y-60344095D01*
X117976666Y-60420285D01*
X117976666Y-60534571D01*
X117938571Y-60610761D01*
X117900476Y-60648857D01*
X117824285Y-60686952D01*
X117519523Y-60686952D01*
X118243333Y-60267904D02*
X118776666Y-61067904D01*
X118776666Y-60267904D02*
X118243333Y-61067904D01*
X101898571Y-43795904D02*
X101898571Y-42995904D01*
X102089047Y-42995904D01*
X102203333Y-43034000D01*
X102279523Y-43110190D01*
X102317619Y-43186380D01*
X102355714Y-43338761D01*
X102355714Y-43453047D01*
X102317619Y-43605428D01*
X102279523Y-43681619D01*
X102203333Y-43757809D01*
X102089047Y-43795904D01*
X101898571Y-43795904D01*
X103117619Y-43795904D02*
X102660476Y-43795904D01*
X102889047Y-43795904D02*
X102889047Y-42995904D01*
X102812857Y-43110190D01*
X102736666Y-43186380D01*
X102660476Y-43224476D01*
X103384285Y-42995904D02*
X103879523Y-42995904D01*
X103612857Y-43300666D01*
X103727142Y-43300666D01*
X103803333Y-43338761D01*
X103841428Y-43376857D01*
X103879523Y-43453047D01*
X103879523Y-43643523D01*
X103841428Y-43719714D01*
X103803333Y-43757809D01*
X103727142Y-43795904D01*
X103498571Y-43795904D01*
X103422380Y-43757809D01*
X103384285Y-43719714D01*
X106978571Y-43795904D02*
X106978571Y-42995904D01*
X107169047Y-42995904D01*
X107283333Y-43034000D01*
X107359523Y-43110190D01*
X107397619Y-43186380D01*
X107435714Y-43338761D01*
X107435714Y-43453047D01*
X107397619Y-43605428D01*
X107359523Y-43681619D01*
X107283333Y-43757809D01*
X107169047Y-43795904D01*
X106978571Y-43795904D01*
X108197619Y-43795904D02*
X107740476Y-43795904D01*
X107969047Y-43795904D02*
X107969047Y-42995904D01*
X107892857Y-43110190D01*
X107816666Y-43186380D01*
X107740476Y-43224476D01*
X108959523Y-43795904D02*
X108502380Y-43795904D01*
X108730952Y-43795904D02*
X108730952Y-42995904D01*
X108654761Y-43110190D01*
X108578571Y-43186380D01*
X108502380Y-43224476D01*
X109518571Y-43795904D02*
X109518571Y-42995904D01*
X109709047Y-42995904D01*
X109823333Y-43034000D01*
X109899523Y-43110190D01*
X109937619Y-43186380D01*
X109975714Y-43338761D01*
X109975714Y-43453047D01*
X109937619Y-43605428D01*
X109899523Y-43681619D01*
X109823333Y-43757809D01*
X109709047Y-43795904D01*
X109518571Y-43795904D01*
X110737619Y-43795904D02*
X110280476Y-43795904D01*
X110509047Y-43795904D02*
X110509047Y-42995904D01*
X110432857Y-43110190D01*
X110356666Y-43186380D01*
X110280476Y-43224476D01*
X111232857Y-42995904D02*
X111309047Y-42995904D01*
X111385238Y-43034000D01*
X111423333Y-43072095D01*
X111461428Y-43148285D01*
X111499523Y-43300666D01*
X111499523Y-43491142D01*
X111461428Y-43643523D01*
X111423333Y-43719714D01*
X111385238Y-43757809D01*
X111309047Y-43795904D01*
X111232857Y-43795904D01*
X111156666Y-43757809D01*
X111118571Y-43719714D01*
X111080476Y-43643523D01*
X111042380Y-43491142D01*
X111042380Y-43300666D01*
X111080476Y-43148285D01*
X111118571Y-43072095D01*
X111156666Y-43034000D01*
X111232857Y-42995904D01*
X97199523Y-43376857D02*
X97466190Y-43376857D01*
X97580476Y-43795904D02*
X97199523Y-43795904D01*
X97199523Y-42995904D01*
X97580476Y-42995904D01*
X97923333Y-43795904D02*
X97923333Y-42995904D01*
X98380476Y-43795904D01*
X98380476Y-42995904D01*
X99320476Y-42995904D02*
X99320476Y-43643523D01*
X99358571Y-43719714D01*
X99396666Y-43757809D01*
X99472857Y-43795904D01*
X99625238Y-43795904D01*
X99701428Y-43757809D01*
X99739523Y-43719714D01*
X99777619Y-43643523D01*
X99777619Y-42995904D01*
X100120476Y-43757809D02*
X100234761Y-43795904D01*
X100425238Y-43795904D01*
X100501428Y-43757809D01*
X100539523Y-43719714D01*
X100577619Y-43643523D01*
X100577619Y-43567333D01*
X100539523Y-43491142D01*
X100501428Y-43453047D01*
X100425238Y-43414952D01*
X100272857Y-43376857D01*
X100196666Y-43338761D01*
X100158571Y-43300666D01*
X100120476Y-43224476D01*
X100120476Y-43148285D01*
X100158571Y-43072095D01*
X100196666Y-43034000D01*
X100272857Y-42995904D01*
X100463333Y-42995904D01*
X100577619Y-43034000D01*
X101187142Y-43376857D02*
X101301428Y-43414952D01*
X101339523Y-43453047D01*
X101377619Y-43529238D01*
X101377619Y-43643523D01*
X101339523Y-43719714D01*
X101301428Y-43757809D01*
X101225238Y-43795904D01*
X100920476Y-43795904D01*
X100920476Y-42995904D01*
X101187142Y-42995904D01*
X101263333Y-43034000D01*
X101301428Y-43072095D01*
X101339523Y-43148285D01*
X101339523Y-43224476D01*
X101301428Y-43300666D01*
X101263333Y-43338761D01*
X101187142Y-43376857D01*
X100920476Y-43376857D01*
X104438571Y-43795904D02*
X104438571Y-42995904D01*
X104629047Y-42995904D01*
X104743333Y-43034000D01*
X104819523Y-43110190D01*
X104857619Y-43186380D01*
X104895714Y-43338761D01*
X104895714Y-43453047D01*
X104857619Y-43605428D01*
X104819523Y-43681619D01*
X104743333Y-43757809D01*
X104629047Y-43795904D01*
X104438571Y-43795904D01*
X105657619Y-43795904D02*
X105200476Y-43795904D01*
X105429047Y-43795904D02*
X105429047Y-42995904D01*
X105352857Y-43110190D01*
X105276666Y-43186380D01*
X105200476Y-43224476D01*
X105962380Y-43072095D02*
X106000476Y-43034000D01*
X106076666Y-42995904D01*
X106267142Y-42995904D01*
X106343333Y-43034000D01*
X106381428Y-43072095D01*
X106419523Y-43148285D01*
X106419523Y-43224476D01*
X106381428Y-43338761D01*
X105924285Y-43795904D01*
X106419523Y-43795904D01*
X94659523Y-43376857D02*
X94773809Y-43414952D01*
X94811904Y-43453047D01*
X94850000Y-43529238D01*
X94850000Y-43643523D01*
X94811904Y-43719714D01*
X94773809Y-43757809D01*
X94697619Y-43795904D01*
X94392857Y-43795904D01*
X94392857Y-42995904D01*
X94659523Y-42995904D01*
X94735714Y-43034000D01*
X94773809Y-43072095D01*
X94811904Y-43148285D01*
X94811904Y-43224476D01*
X94773809Y-43300666D01*
X94735714Y-43338761D01*
X94659523Y-43376857D01*
X94392857Y-43376857D01*
X95154761Y-43567333D02*
X95535714Y-43567333D01*
X95078571Y-43795904D02*
X95345238Y-42995904D01*
X95611904Y-43795904D01*
X95764285Y-42995904D02*
X96221428Y-42995904D01*
X95992857Y-43795904D02*
X95992857Y-42995904D01*
X122218571Y-43757809D02*
X122332857Y-43795904D01*
X122523333Y-43795904D01*
X122599523Y-43757809D01*
X122637619Y-43719714D01*
X122675714Y-43643523D01*
X122675714Y-43567333D01*
X122637619Y-43491142D01*
X122599523Y-43453047D01*
X122523333Y-43414952D01*
X122370952Y-43376857D01*
X122294761Y-43338761D01*
X122256666Y-43300666D01*
X122218571Y-43224476D01*
X122218571Y-43148285D01*
X122256666Y-43072095D01*
X122294761Y-43034000D01*
X122370952Y-42995904D01*
X122561428Y-42995904D01*
X122675714Y-43034000D01*
X123018571Y-43795904D02*
X123018571Y-42995904D01*
X123209047Y-42995904D01*
X123323333Y-43034000D01*
X123399523Y-43110190D01*
X123437619Y-43186380D01*
X123475714Y-43338761D01*
X123475714Y-43453047D01*
X123437619Y-43605428D01*
X123399523Y-43681619D01*
X123323333Y-43757809D01*
X123209047Y-43795904D01*
X123018571Y-43795904D01*
X123780476Y-43567333D02*
X124161428Y-43567333D01*
X123704285Y-43795904D02*
X123970952Y-42995904D01*
X124237619Y-43795904D01*
X119697619Y-43757809D02*
X119811904Y-43795904D01*
X120002380Y-43795904D01*
X120078571Y-43757809D01*
X120116666Y-43719714D01*
X120154761Y-43643523D01*
X120154761Y-43567333D01*
X120116666Y-43491142D01*
X120078571Y-43453047D01*
X120002380Y-43414952D01*
X119850000Y-43376857D01*
X119773809Y-43338761D01*
X119735714Y-43300666D01*
X119697619Y-43224476D01*
X119697619Y-43148285D01*
X119735714Y-43072095D01*
X119773809Y-43034000D01*
X119850000Y-42995904D01*
X120040476Y-42995904D01*
X120154761Y-43034000D01*
X120954761Y-43719714D02*
X120916666Y-43757809D01*
X120802380Y-43795904D01*
X120726190Y-43795904D01*
X120611904Y-43757809D01*
X120535714Y-43681619D01*
X120497619Y-43605428D01*
X120459523Y-43453047D01*
X120459523Y-43338761D01*
X120497619Y-43186380D01*
X120535714Y-43110190D01*
X120611904Y-43034000D01*
X120726190Y-42995904D01*
X120802380Y-42995904D01*
X120916666Y-43034000D01*
X120954761Y-43072095D01*
X121678571Y-43795904D02*
X121297619Y-43795904D01*
X121297619Y-42995904D01*
X114979523Y-43795904D02*
X114979523Y-42995904D01*
X115170000Y-42995904D01*
X115284285Y-43034000D01*
X115360476Y-43110190D01*
X115398571Y-43186380D01*
X115436666Y-43338761D01*
X115436666Y-43453047D01*
X115398571Y-43605428D01*
X115360476Y-43681619D01*
X115284285Y-43757809D01*
X115170000Y-43795904D01*
X114979523Y-43795904D01*
X116122380Y-42995904D02*
X115970000Y-42995904D01*
X115893809Y-43034000D01*
X115855714Y-43072095D01*
X115779523Y-43186380D01*
X115741428Y-43338761D01*
X115741428Y-43643523D01*
X115779523Y-43719714D01*
X115817619Y-43757809D01*
X115893809Y-43795904D01*
X116046190Y-43795904D01*
X116122380Y-43757809D01*
X116160476Y-43719714D01*
X116198571Y-43643523D01*
X116198571Y-43453047D01*
X116160476Y-43376857D01*
X116122380Y-43338761D01*
X116046190Y-43300666D01*
X115893809Y-43300666D01*
X115817619Y-43338761D01*
X115779523Y-43376857D01*
X115741428Y-43453047D01*
X112439523Y-43795904D02*
X112439523Y-42995904D01*
X112630000Y-42995904D01*
X112744285Y-43034000D01*
X112820476Y-43110190D01*
X112858571Y-43186380D01*
X112896666Y-43338761D01*
X112896666Y-43453047D01*
X112858571Y-43605428D01*
X112820476Y-43681619D01*
X112744285Y-43757809D01*
X112630000Y-43795904D01*
X112439523Y-43795904D01*
X113277619Y-43795904D02*
X113430000Y-43795904D01*
X113506190Y-43757809D01*
X113544285Y-43719714D01*
X113620476Y-43605428D01*
X113658571Y-43453047D01*
X113658571Y-43148285D01*
X113620476Y-43072095D01*
X113582380Y-43034000D01*
X113506190Y-42995904D01*
X113353809Y-42995904D01*
X113277619Y-43034000D01*
X113239523Y-43072095D01*
X113201428Y-43148285D01*
X113201428Y-43338761D01*
X113239523Y-43414952D01*
X113277619Y-43453047D01*
X113353809Y-43491142D01*
X113506190Y-43491142D01*
X113582380Y-43453047D01*
X113620476Y-43414952D01*
X113658571Y-43338761D01*
X117519523Y-43795904D02*
X117519523Y-42995904D01*
X117710000Y-42995904D01*
X117824285Y-43034000D01*
X117900476Y-43110190D01*
X117938571Y-43186380D01*
X117976666Y-43338761D01*
X117976666Y-43453047D01*
X117938571Y-43605428D01*
X117900476Y-43681619D01*
X117824285Y-43757809D01*
X117710000Y-43795904D01*
X117519523Y-43795904D01*
X118700476Y-42995904D02*
X118319523Y-42995904D01*
X118281428Y-43376857D01*
X118319523Y-43338761D01*
X118395714Y-43300666D01*
X118586190Y-43300666D01*
X118662380Y-43338761D01*
X118700476Y-43376857D01*
X118738571Y-43453047D01*
X118738571Y-43643523D01*
X118700476Y-43719714D01*
X118662380Y-43757809D01*
X118586190Y-43795904D01*
X118395714Y-43795904D01*
X118319523Y-43757809D01*
X118281428Y-43719714D01*
X120040476Y-60267904D02*
X120497619Y-60267904D01*
X120269047Y-61067904D02*
X120269047Y-60267904D01*
X120688095Y-60267904D02*
X121221428Y-61067904D01*
X121221428Y-60267904D02*
X120688095Y-61067904D01*
X122599523Y-61067904D02*
X122599523Y-60267904D01*
X122790000Y-60267904D01*
X122904285Y-60306000D01*
X122980476Y-60382190D01*
X123018571Y-60458380D01*
X123056666Y-60610761D01*
X123056666Y-60725047D01*
X123018571Y-60877428D01*
X122980476Y-60953619D01*
X122904285Y-61029809D01*
X122790000Y-61067904D01*
X122599523Y-61067904D01*
X123742380Y-60534571D02*
X123742380Y-61067904D01*
X123551904Y-60229809D02*
X123361428Y-60801238D01*
X123856666Y-60801238D01*
M02*
