G04 #@! TF.GenerationSoftware,KiCad,Pcbnew,(5.1.6-0-10_14)*
G04 #@! TF.CreationDate,2020-08-03T12:58:00-07:00*
G04 #@! TF.ProjectId,Clock_MiniM4_Pelican,436c6f63-6b5f-44d6-996e-694d345f5065,v02*
G04 #@! TF.SameCoordinates,Original*
G04 #@! TF.FileFunction,Legend,Top*
G04 #@! TF.FilePolarity,Positive*
%FSLAX46Y46*%
G04 Gerber Fmt 4.6, Leading zero omitted, Abs format (unit mm)*
G04 Created by KiCad (PCBNEW (5.1.6-0-10_14)) date 2020-08-03 12:58:00*
%MOMM*%
%LPD*%
G01*
G04 APERTURE LIST*
%ADD10C,0.150000*%
%ADD11C,0.300000*%
%ADD12C,0.120000*%
%ADD13C,0.200000*%
%ADD14C,0.100000*%
G04 APERTURE END LIST*
D10*
X212217000Y-66040000D02*
X212217000Y-71120000D01*
X92583000Y-66040000D02*
X92583000Y-71120000D01*
D11*
X149860000Y-54610000D02*
X154940000Y-54610000D01*
X152400000Y-52070000D02*
X152400000Y-57150000D01*
D12*
X78373476Y-66401904D02*
X78373476Y-65601904D01*
X78640142Y-66173333D01*
X78906809Y-65601904D01*
X78906809Y-66401904D01*
X79287761Y-66401904D02*
X79287761Y-65868571D01*
X79287761Y-65601904D02*
X79249666Y-65640000D01*
X79287761Y-65678095D01*
X79325857Y-65640000D01*
X79287761Y-65601904D01*
X79287761Y-65678095D01*
X80011571Y-66363809D02*
X79935380Y-66401904D01*
X79783000Y-66401904D01*
X79706809Y-66363809D01*
X79668714Y-66325714D01*
X79630619Y-66249523D01*
X79630619Y-66020952D01*
X79668714Y-65944761D01*
X79706809Y-65906666D01*
X79783000Y-65868571D01*
X79935380Y-65868571D01*
X80011571Y-65906666D01*
X80354428Y-66401904D02*
X80354428Y-65868571D01*
X80354428Y-66020952D02*
X80392523Y-65944761D01*
X80430619Y-65906666D01*
X80506809Y-65868571D01*
X80583000Y-65868571D01*
X80963952Y-66401904D02*
X80887761Y-66363809D01*
X80849666Y-66325714D01*
X80811571Y-66249523D01*
X80811571Y-66020952D01*
X80849666Y-65944761D01*
X80887761Y-65906666D01*
X80963952Y-65868571D01*
X81078238Y-65868571D01*
X81154428Y-65906666D01*
X81192523Y-65944761D01*
X81230619Y-66020952D01*
X81230619Y-66249523D01*
X81192523Y-66325714D01*
X81154428Y-66363809D01*
X81078238Y-66401904D01*
X80963952Y-66401904D01*
X82640142Y-66325714D02*
X82602047Y-66363809D01*
X82487761Y-66401904D01*
X82411571Y-66401904D01*
X82297285Y-66363809D01*
X82221095Y-66287619D01*
X82183000Y-66211428D01*
X82144904Y-66059047D01*
X82144904Y-65944761D01*
X82183000Y-65792380D01*
X82221095Y-65716190D01*
X82297285Y-65640000D01*
X82411571Y-65601904D01*
X82487761Y-65601904D01*
X82602047Y-65640000D01*
X82640142Y-65678095D01*
X83325857Y-66401904D02*
X83325857Y-65982857D01*
X83287761Y-65906666D01*
X83211571Y-65868571D01*
X83059190Y-65868571D01*
X82983000Y-65906666D01*
X83325857Y-66363809D02*
X83249666Y-66401904D01*
X83059190Y-66401904D01*
X82983000Y-66363809D01*
X82944904Y-66287619D01*
X82944904Y-66211428D01*
X82983000Y-66135238D01*
X83059190Y-66097142D01*
X83249666Y-66097142D01*
X83325857Y-66059047D01*
X83668714Y-66363809D02*
X83744904Y-66401904D01*
X83897285Y-66401904D01*
X83973476Y-66363809D01*
X84011571Y-66287619D01*
X84011571Y-66249523D01*
X83973476Y-66173333D01*
X83897285Y-66135238D01*
X83783000Y-66135238D01*
X83706809Y-66097142D01*
X83668714Y-66020952D01*
X83668714Y-65982857D01*
X83706809Y-65906666D01*
X83783000Y-65868571D01*
X83897285Y-65868571D01*
X83973476Y-65906666D01*
X84659190Y-66363809D02*
X84583000Y-66401904D01*
X84430619Y-66401904D01*
X84354428Y-66363809D01*
X84316333Y-66287619D01*
X84316333Y-65982857D01*
X84354428Y-65906666D01*
X84430619Y-65868571D01*
X84583000Y-65868571D01*
X84659190Y-65906666D01*
X84697285Y-65982857D01*
X84697285Y-66059047D01*
X84316333Y-66135238D01*
X86068714Y-66401904D02*
X85611571Y-66401904D01*
X85840142Y-66401904D02*
X85840142Y-65601904D01*
X85763952Y-65716190D01*
X85687761Y-65792380D01*
X85611571Y-65830476D01*
X86563952Y-65601904D02*
X86640142Y-65601904D01*
X86716333Y-65640000D01*
X86754428Y-65678095D01*
X86792523Y-65754285D01*
X86830619Y-65906666D01*
X86830619Y-66097142D01*
X86792523Y-66249523D01*
X86754428Y-66325714D01*
X86716333Y-66363809D01*
X86640142Y-66401904D01*
X86563952Y-66401904D01*
X86487761Y-66363809D01*
X86449666Y-66325714D01*
X86411571Y-66249523D01*
X86373476Y-66097142D01*
X86373476Y-65906666D01*
X86411571Y-65754285D01*
X86449666Y-65678095D01*
X86487761Y-65640000D01*
X86563952Y-65601904D01*
X87516333Y-65868571D02*
X87516333Y-66401904D01*
X87325857Y-65563809D02*
X87135380Y-66135238D01*
X87630619Y-66135238D01*
X88087761Y-65601904D02*
X88163952Y-65601904D01*
X88240142Y-65640000D01*
X88278238Y-65678095D01*
X88316333Y-65754285D01*
X88354428Y-65906666D01*
X88354428Y-66097142D01*
X88316333Y-66249523D01*
X88278238Y-66325714D01*
X88240142Y-66363809D01*
X88163952Y-66401904D01*
X88087761Y-66401904D01*
X88011571Y-66363809D01*
X87973476Y-66325714D01*
X87935380Y-66249523D01*
X87897285Y-66097142D01*
X87897285Y-65906666D01*
X87935380Y-65754285D01*
X87973476Y-65678095D01*
X88011571Y-65640000D01*
X88087761Y-65601904D01*
D13*
X211645952Y-40877380D02*
X211645952Y-39877380D01*
X212026904Y-39877380D01*
X212122142Y-39925000D01*
X212169761Y-39972619D01*
X212217380Y-40067857D01*
X212217380Y-40210714D01*
X212169761Y-40305952D01*
X212122142Y-40353571D01*
X212026904Y-40401190D01*
X211645952Y-40401190D01*
X212645952Y-39877380D02*
X212645952Y-40686904D01*
X212693571Y-40782142D01*
X212741190Y-40829761D01*
X212836428Y-40877380D01*
X213026904Y-40877380D01*
X213122142Y-40829761D01*
X213169761Y-40782142D01*
X213217380Y-40686904D01*
X213217380Y-39877380D01*
X213645952Y-40829761D02*
X213788809Y-40877380D01*
X214026904Y-40877380D01*
X214122142Y-40829761D01*
X214169761Y-40782142D01*
X214217380Y-40686904D01*
X214217380Y-40591666D01*
X214169761Y-40496428D01*
X214122142Y-40448809D01*
X214026904Y-40401190D01*
X213836428Y-40353571D01*
X213741190Y-40305952D01*
X213693571Y-40258333D01*
X213645952Y-40163095D01*
X213645952Y-40067857D01*
X213693571Y-39972619D01*
X213741190Y-39925000D01*
X213836428Y-39877380D01*
X214074523Y-39877380D01*
X214217380Y-39925000D01*
X214645952Y-40877380D02*
X214645952Y-39877380D01*
X214645952Y-40353571D02*
X215217380Y-40353571D01*
X215217380Y-40877380D02*
X215217380Y-39877380D01*
X216788809Y-40353571D02*
X216455476Y-40353571D01*
X216455476Y-40877380D02*
X216455476Y-39877380D01*
X216931666Y-39877380D01*
X217503095Y-39877380D02*
X217693571Y-39877380D01*
X217788809Y-39925000D01*
X217884047Y-40020238D01*
X217931666Y-40210714D01*
X217931666Y-40544047D01*
X217884047Y-40734523D01*
X217788809Y-40829761D01*
X217693571Y-40877380D01*
X217503095Y-40877380D01*
X217407857Y-40829761D01*
X217312619Y-40734523D01*
X217265000Y-40544047D01*
X217265000Y-40210714D01*
X217312619Y-40020238D01*
X217407857Y-39925000D01*
X217503095Y-39877380D01*
X218931666Y-40877380D02*
X218598333Y-40401190D01*
X218360238Y-40877380D02*
X218360238Y-39877380D01*
X218741190Y-39877380D01*
X218836428Y-39925000D01*
X218884047Y-39972619D01*
X218931666Y-40067857D01*
X218931666Y-40210714D01*
X218884047Y-40305952D01*
X218836428Y-40353571D01*
X218741190Y-40401190D01*
X218360238Y-40401190D01*
X212026904Y-42529761D02*
X212169761Y-42577380D01*
X212407857Y-42577380D01*
X212503095Y-42529761D01*
X212550714Y-42482142D01*
X212598333Y-42386904D01*
X212598333Y-42291666D01*
X212550714Y-42196428D01*
X212503095Y-42148809D01*
X212407857Y-42101190D01*
X212217380Y-42053571D01*
X212122142Y-42005952D01*
X212074523Y-41958333D01*
X212026904Y-41863095D01*
X212026904Y-41767857D01*
X212074523Y-41672619D01*
X212122142Y-41625000D01*
X212217380Y-41577380D01*
X212455476Y-41577380D01*
X212598333Y-41625000D01*
X213026904Y-42053571D02*
X213360238Y-42053571D01*
X213503095Y-42577380D02*
X213026904Y-42577380D01*
X213026904Y-41577380D01*
X213503095Y-41577380D01*
X213788809Y-41577380D02*
X214360238Y-41577380D01*
X214074523Y-42577380D02*
X214074523Y-41577380D01*
X214550714Y-41577380D02*
X215122142Y-41577380D01*
X214836428Y-42577380D02*
X214836428Y-41577380D01*
X215455476Y-42577380D02*
X215455476Y-41577380D01*
X215931666Y-42577380D02*
X215931666Y-41577380D01*
X216503095Y-42577380D01*
X216503095Y-41577380D01*
X217503095Y-41625000D02*
X217407857Y-41577380D01*
X217265000Y-41577380D01*
X217122142Y-41625000D01*
X217026904Y-41720238D01*
X216979285Y-41815476D01*
X216931666Y-42005952D01*
X216931666Y-42148809D01*
X216979285Y-42339285D01*
X217026904Y-42434523D01*
X217122142Y-42529761D01*
X217265000Y-42577380D01*
X217360238Y-42577380D01*
X217503095Y-42529761D01*
X217550714Y-42482142D01*
X217550714Y-42148809D01*
X217360238Y-42148809D01*
X217931666Y-42529761D02*
X218074523Y-42577380D01*
X218312619Y-42577380D01*
X218407857Y-42529761D01*
X218455476Y-42482142D01*
X218503095Y-42386904D01*
X218503095Y-42291666D01*
X218455476Y-42196428D01*
X218407857Y-42148809D01*
X218312619Y-42101190D01*
X218122142Y-42053571D01*
X218026904Y-42005952D01*
X217979285Y-41958333D01*
X217931666Y-41863095D01*
X217931666Y-41767857D01*
X217979285Y-41672619D01*
X218026904Y-41625000D01*
X218122142Y-41577380D01*
X218360238Y-41577380D01*
X218503095Y-41625000D01*
D12*
X224180476Y-68180000D02*
X224104285Y-68141904D01*
X223990000Y-68141904D01*
X223875714Y-68180000D01*
X223799523Y-68256190D01*
X223761428Y-68332380D01*
X223723333Y-68484761D01*
X223723333Y-68599047D01*
X223761428Y-68751428D01*
X223799523Y-68827619D01*
X223875714Y-68903809D01*
X223990000Y-68941904D01*
X224066190Y-68941904D01*
X224180476Y-68903809D01*
X224218571Y-68865714D01*
X224218571Y-68599047D01*
X224066190Y-68599047D01*
X224561428Y-68941904D02*
X224561428Y-68141904D01*
X225018571Y-68941904D01*
X225018571Y-68141904D01*
X225399523Y-68941904D02*
X225399523Y-68141904D01*
X225590000Y-68141904D01*
X225704285Y-68180000D01*
X225780476Y-68256190D01*
X225818571Y-68332380D01*
X225856666Y-68484761D01*
X225856666Y-68599047D01*
X225818571Y-68751428D01*
X225780476Y-68827619D01*
X225704285Y-68903809D01*
X225590000Y-68941904D01*
X225399523Y-68941904D01*
X214960238Y-68637142D02*
X215569761Y-68637142D01*
X215265000Y-68941904D02*
X215265000Y-68332380D01*
X78335380Y-68853095D02*
X78373476Y-68815000D01*
X78449666Y-68776904D01*
X78640142Y-68776904D01*
X78716333Y-68815000D01*
X78754428Y-68853095D01*
X78792523Y-68929285D01*
X78792523Y-69005476D01*
X78754428Y-69119761D01*
X78297285Y-69576904D01*
X78792523Y-69576904D01*
X79287761Y-68776904D02*
X79363952Y-68776904D01*
X79440142Y-68815000D01*
X79478238Y-68853095D01*
X79516333Y-68929285D01*
X79554428Y-69081666D01*
X79554428Y-69272142D01*
X79516333Y-69424523D01*
X79478238Y-69500714D01*
X79440142Y-69538809D01*
X79363952Y-69576904D01*
X79287761Y-69576904D01*
X79211571Y-69538809D01*
X79173476Y-69500714D01*
X79135380Y-69424523D01*
X79097285Y-69272142D01*
X79097285Y-69081666D01*
X79135380Y-68929285D01*
X79173476Y-68853095D01*
X79211571Y-68815000D01*
X79287761Y-68776904D01*
X79859190Y-68853095D02*
X79897285Y-68815000D01*
X79973476Y-68776904D01*
X80163952Y-68776904D01*
X80240142Y-68815000D01*
X80278238Y-68853095D01*
X80316333Y-68929285D01*
X80316333Y-69005476D01*
X80278238Y-69119761D01*
X79821095Y-69576904D01*
X80316333Y-69576904D01*
X80811571Y-68776904D02*
X80887761Y-68776904D01*
X80963952Y-68815000D01*
X81002047Y-68853095D01*
X81040142Y-68929285D01*
X81078238Y-69081666D01*
X81078238Y-69272142D01*
X81040142Y-69424523D01*
X81002047Y-69500714D01*
X80963952Y-69538809D01*
X80887761Y-69576904D01*
X80811571Y-69576904D01*
X80735380Y-69538809D01*
X80697285Y-69500714D01*
X80659190Y-69424523D01*
X80621095Y-69272142D01*
X80621095Y-69081666D01*
X80659190Y-68929285D01*
X80697285Y-68853095D01*
X80735380Y-68815000D01*
X80811571Y-68776904D01*
X81421095Y-69272142D02*
X82030619Y-69272142D01*
X82563952Y-68776904D02*
X82640142Y-68776904D01*
X82716333Y-68815000D01*
X82754428Y-68853095D01*
X82792523Y-68929285D01*
X82830619Y-69081666D01*
X82830619Y-69272142D01*
X82792523Y-69424523D01*
X82754428Y-69500714D01*
X82716333Y-69538809D01*
X82640142Y-69576904D01*
X82563952Y-69576904D01*
X82487761Y-69538809D01*
X82449666Y-69500714D01*
X82411571Y-69424523D01*
X82373476Y-69272142D01*
X82373476Y-69081666D01*
X82411571Y-68929285D01*
X82449666Y-68853095D01*
X82487761Y-68815000D01*
X82563952Y-68776904D01*
X83097285Y-68776904D02*
X83630619Y-68776904D01*
X83287761Y-69576904D01*
X83935380Y-69272142D02*
X84544904Y-69272142D01*
X84887761Y-68853095D02*
X84925857Y-68815000D01*
X85002047Y-68776904D01*
X85192523Y-68776904D01*
X85268714Y-68815000D01*
X85306809Y-68853095D01*
X85344904Y-68929285D01*
X85344904Y-69005476D01*
X85306809Y-69119761D01*
X84849666Y-69576904D01*
X85344904Y-69576904D01*
X86030619Y-69043571D02*
X86030619Y-69576904D01*
X85840142Y-68738809D02*
X85649666Y-69310238D01*
X86144904Y-69310238D01*
X86983000Y-69043571D02*
X87173476Y-69576904D01*
X87363952Y-69043571D01*
X87821095Y-68776904D02*
X87897285Y-68776904D01*
X87973476Y-68815000D01*
X88011571Y-68853095D01*
X88049666Y-68929285D01*
X88087761Y-69081666D01*
X88087761Y-69272142D01*
X88049666Y-69424523D01*
X88011571Y-69500714D01*
X87973476Y-69538809D01*
X87897285Y-69576904D01*
X87821095Y-69576904D01*
X87744904Y-69538809D01*
X87706809Y-69500714D01*
X87668714Y-69424523D01*
X87630619Y-69272142D01*
X87630619Y-69081666D01*
X87668714Y-68929285D01*
X87706809Y-68853095D01*
X87744904Y-68815000D01*
X87821095Y-68776904D01*
X88392523Y-68853095D02*
X88430619Y-68815000D01*
X88506809Y-68776904D01*
X88697285Y-68776904D01*
X88773476Y-68815000D01*
X88811571Y-68853095D01*
X88849666Y-68929285D01*
X88849666Y-69005476D01*
X88811571Y-69119761D01*
X88354428Y-69576904D01*
X88849666Y-69576904D01*
D13*
X79044523Y-65127142D02*
X78996904Y-65174761D01*
X78854047Y-65222380D01*
X78758809Y-65222380D01*
X78615952Y-65174761D01*
X78520714Y-65079523D01*
X78473095Y-64984285D01*
X78425476Y-64793809D01*
X78425476Y-64650952D01*
X78473095Y-64460476D01*
X78520714Y-64365238D01*
X78615952Y-64270000D01*
X78758809Y-64222380D01*
X78854047Y-64222380D01*
X78996904Y-64270000D01*
X79044523Y-64317619D01*
X79615952Y-65222380D02*
X79520714Y-65174761D01*
X79473095Y-65079523D01*
X79473095Y-64222380D01*
X80139761Y-65222380D02*
X80044523Y-65174761D01*
X79996904Y-65127142D01*
X79949285Y-65031904D01*
X79949285Y-64746190D01*
X79996904Y-64650952D01*
X80044523Y-64603333D01*
X80139761Y-64555714D01*
X80282619Y-64555714D01*
X80377857Y-64603333D01*
X80425476Y-64650952D01*
X80473095Y-64746190D01*
X80473095Y-65031904D01*
X80425476Y-65127142D01*
X80377857Y-65174761D01*
X80282619Y-65222380D01*
X80139761Y-65222380D01*
X81330238Y-65174761D02*
X81235000Y-65222380D01*
X81044523Y-65222380D01*
X80949285Y-65174761D01*
X80901666Y-65127142D01*
X80854047Y-65031904D01*
X80854047Y-64746190D01*
X80901666Y-64650952D01*
X80949285Y-64603333D01*
X81044523Y-64555714D01*
X81235000Y-64555714D01*
X81330238Y-64603333D01*
X81758809Y-65222380D02*
X81758809Y-64222380D01*
X81854047Y-64841428D02*
X82139761Y-65222380D01*
X82139761Y-64555714D02*
X81758809Y-64936666D01*
X83330238Y-65222380D02*
X83330238Y-64222380D01*
X83663571Y-64936666D01*
X83996904Y-64222380D01*
X83996904Y-65222380D01*
X84473095Y-65222380D02*
X84473095Y-64555714D01*
X84473095Y-64222380D02*
X84425476Y-64270000D01*
X84473095Y-64317619D01*
X84520714Y-64270000D01*
X84473095Y-64222380D01*
X84473095Y-64317619D01*
X84949285Y-64555714D02*
X84949285Y-65222380D01*
X84949285Y-64650952D02*
X84996904Y-64603333D01*
X85092142Y-64555714D01*
X85235000Y-64555714D01*
X85330238Y-64603333D01*
X85377857Y-64698571D01*
X85377857Y-65222380D01*
X85854047Y-65222380D02*
X85854047Y-64555714D01*
X85854047Y-64222380D02*
X85806428Y-64270000D01*
X85854047Y-64317619D01*
X85901666Y-64270000D01*
X85854047Y-64222380D01*
X85854047Y-64317619D01*
X86330238Y-65222380D02*
X86330238Y-64555714D01*
X86330238Y-64650952D02*
X86377857Y-64603333D01*
X86473095Y-64555714D01*
X86615952Y-64555714D01*
X86711190Y-64603333D01*
X86758809Y-64698571D01*
X86758809Y-65222380D01*
X86758809Y-64698571D02*
X86806428Y-64603333D01*
X86901666Y-64555714D01*
X87044523Y-64555714D01*
X87139761Y-64603333D01*
X87187380Y-64698571D01*
X87187380Y-65222380D01*
X88092142Y-65222380D02*
X88092142Y-64698571D01*
X88044523Y-64603333D01*
X87949285Y-64555714D01*
X87758809Y-64555714D01*
X87663571Y-64603333D01*
X88092142Y-65174761D02*
X87996904Y-65222380D01*
X87758809Y-65222380D01*
X87663571Y-65174761D01*
X87615952Y-65079523D01*
X87615952Y-64984285D01*
X87663571Y-64889047D01*
X87758809Y-64841428D01*
X87996904Y-64841428D01*
X88092142Y-64793809D01*
X89330238Y-65222380D02*
X89330238Y-64222380D01*
X89711190Y-64222380D01*
X89806428Y-64270000D01*
X89854047Y-64317619D01*
X89901666Y-64412857D01*
X89901666Y-64555714D01*
X89854047Y-64650952D01*
X89806428Y-64698571D01*
X89711190Y-64746190D01*
X89330238Y-64746190D01*
X90711190Y-65174761D02*
X90615952Y-65222380D01*
X90425476Y-65222380D01*
X90330238Y-65174761D01*
X90282619Y-65079523D01*
X90282619Y-64698571D01*
X90330238Y-64603333D01*
X90425476Y-64555714D01*
X90615952Y-64555714D01*
X90711190Y-64603333D01*
X90758809Y-64698571D01*
X90758809Y-64793809D01*
X90282619Y-64889047D01*
X91330238Y-65222380D02*
X91235000Y-65174761D01*
X91187380Y-65079523D01*
X91187380Y-64222380D01*
X91711190Y-65222380D02*
X91711190Y-64555714D01*
X91711190Y-64222380D02*
X91663571Y-64270000D01*
X91711190Y-64317619D01*
X91758809Y-64270000D01*
X91711190Y-64222380D01*
X91711190Y-64317619D01*
X92615952Y-65174761D02*
X92520714Y-65222380D01*
X92330238Y-65222380D01*
X92235000Y-65174761D01*
X92187380Y-65127142D01*
X92139761Y-65031904D01*
X92139761Y-64746190D01*
X92187380Y-64650952D01*
X92235000Y-64603333D01*
X92330238Y-64555714D01*
X92520714Y-64555714D01*
X92615952Y-64603333D01*
X93473095Y-65222380D02*
X93473095Y-64698571D01*
X93425476Y-64603333D01*
X93330238Y-64555714D01*
X93139761Y-64555714D01*
X93044523Y-64603333D01*
X93473095Y-65174761D02*
X93377857Y-65222380D01*
X93139761Y-65222380D01*
X93044523Y-65174761D01*
X92996904Y-65079523D01*
X92996904Y-64984285D01*
X93044523Y-64889047D01*
X93139761Y-64841428D01*
X93377857Y-64841428D01*
X93473095Y-64793809D01*
X93949285Y-64555714D02*
X93949285Y-65222380D01*
X93949285Y-64650952D02*
X93996904Y-64603333D01*
X94092142Y-64555714D01*
X94235000Y-64555714D01*
X94330238Y-64603333D01*
X94377857Y-64698571D01*
X94377857Y-65222380D01*
D12*
X78830619Y-68230714D02*
X78792523Y-68268809D01*
X78678238Y-68306904D01*
X78602047Y-68306904D01*
X78487761Y-68268809D01*
X78411571Y-68192619D01*
X78373476Y-68116428D01*
X78335380Y-67964047D01*
X78335380Y-67849761D01*
X78373476Y-67697380D01*
X78411571Y-67621190D01*
X78487761Y-67545000D01*
X78602047Y-67506904D01*
X78678238Y-67506904D01*
X78792523Y-67545000D01*
X78830619Y-67583095D01*
X79478238Y-68268809D02*
X79402047Y-68306904D01*
X79249666Y-68306904D01*
X79173476Y-68268809D01*
X79135380Y-68192619D01*
X79135380Y-67887857D01*
X79173476Y-67811666D01*
X79249666Y-67773571D01*
X79402047Y-67773571D01*
X79478238Y-67811666D01*
X79516333Y-67887857D01*
X79516333Y-67964047D01*
X79135380Y-68040238D01*
X80202047Y-68306904D02*
X80202047Y-67506904D01*
X80202047Y-68268809D02*
X80125857Y-68306904D01*
X79973476Y-68306904D01*
X79897285Y-68268809D01*
X79859190Y-68230714D01*
X79821095Y-68154523D01*
X79821095Y-67925952D01*
X79859190Y-67849761D01*
X79897285Y-67811666D01*
X79973476Y-67773571D01*
X80125857Y-67773571D01*
X80202047Y-67811666D01*
X80925857Y-68306904D02*
X80925857Y-67887857D01*
X80887761Y-67811666D01*
X80811571Y-67773571D01*
X80659190Y-67773571D01*
X80583000Y-67811666D01*
X80925857Y-68268809D02*
X80849666Y-68306904D01*
X80659190Y-68306904D01*
X80583000Y-68268809D01*
X80544904Y-68192619D01*
X80544904Y-68116428D01*
X80583000Y-68040238D01*
X80659190Y-68002142D01*
X80849666Y-68002142D01*
X80925857Y-67964047D01*
X81306809Y-68306904D02*
X81306809Y-67773571D01*
X81306809Y-67925952D02*
X81344904Y-67849761D01*
X81383000Y-67811666D01*
X81459190Y-67773571D01*
X81535380Y-67773571D01*
X82830619Y-67545000D02*
X82754428Y-67506904D01*
X82640142Y-67506904D01*
X82525857Y-67545000D01*
X82449666Y-67621190D01*
X82411571Y-67697380D01*
X82373476Y-67849761D01*
X82373476Y-67964047D01*
X82411571Y-68116428D01*
X82449666Y-68192619D01*
X82525857Y-68268809D01*
X82640142Y-68306904D01*
X82716333Y-68306904D01*
X82830619Y-68268809D01*
X82868714Y-68230714D01*
X82868714Y-67964047D01*
X82716333Y-67964047D01*
X83211571Y-68306904D02*
X83211571Y-67773571D01*
X83211571Y-67925952D02*
X83249666Y-67849761D01*
X83287761Y-67811666D01*
X83363952Y-67773571D01*
X83440142Y-67773571D01*
X83821095Y-68306904D02*
X83744904Y-68268809D01*
X83706809Y-68230714D01*
X83668714Y-68154523D01*
X83668714Y-67925952D01*
X83706809Y-67849761D01*
X83744904Y-67811666D01*
X83821095Y-67773571D01*
X83935380Y-67773571D01*
X84011571Y-67811666D01*
X84049666Y-67849761D01*
X84087761Y-67925952D01*
X84087761Y-68154523D01*
X84049666Y-68230714D01*
X84011571Y-68268809D01*
X83935380Y-68306904D01*
X83821095Y-68306904D01*
X84354428Y-67773571D02*
X84544904Y-68306904D01*
X84735380Y-67773571D01*
X85344904Y-68268809D02*
X85268714Y-68306904D01*
X85116333Y-68306904D01*
X85040142Y-68268809D01*
X85002047Y-68192619D01*
X85002047Y-67887857D01*
X85040142Y-67811666D01*
X85116333Y-67773571D01*
X85268714Y-67773571D01*
X85344904Y-67811666D01*
X85383000Y-67887857D01*
X85383000Y-67964047D01*
X85002047Y-68040238D01*
X86297285Y-68268809D02*
X86411571Y-68306904D01*
X86602047Y-68306904D01*
X86678238Y-68268809D01*
X86716333Y-68230714D01*
X86754428Y-68154523D01*
X86754428Y-68078333D01*
X86716333Y-68002142D01*
X86678238Y-67964047D01*
X86602047Y-67925952D01*
X86449666Y-67887857D01*
X86373476Y-67849761D01*
X86335380Y-67811666D01*
X86297285Y-67735476D01*
X86297285Y-67659285D01*
X86335380Y-67583095D01*
X86373476Y-67545000D01*
X86449666Y-67506904D01*
X86640142Y-67506904D01*
X86754428Y-67545000D01*
X86983000Y-67773571D02*
X87287761Y-67773571D01*
X87097285Y-67506904D02*
X87097285Y-68192619D01*
X87135380Y-68268809D01*
X87211571Y-68306904D01*
X87287761Y-68306904D01*
X87897285Y-67773571D02*
X87897285Y-68306904D01*
X87554428Y-67773571D02*
X87554428Y-68192619D01*
X87592523Y-68268809D01*
X87668714Y-68306904D01*
X87783000Y-68306904D01*
X87859190Y-68268809D01*
X87897285Y-68230714D01*
X88621095Y-68306904D02*
X88621095Y-67506904D01*
X88621095Y-68268809D02*
X88544904Y-68306904D01*
X88392523Y-68306904D01*
X88316333Y-68268809D01*
X88278238Y-68230714D01*
X88240142Y-68154523D01*
X88240142Y-67925952D01*
X88278238Y-67849761D01*
X88316333Y-67811666D01*
X88392523Y-67773571D01*
X88544904Y-67773571D01*
X88621095Y-67811666D01*
X89002047Y-68306904D02*
X89002047Y-67773571D01*
X89002047Y-67506904D02*
X88963952Y-67545000D01*
X89002047Y-67583095D01*
X89040142Y-67545000D01*
X89002047Y-67506904D01*
X89002047Y-67583095D01*
X89497285Y-68306904D02*
X89421095Y-68268809D01*
X89383000Y-68230714D01*
X89344904Y-68154523D01*
X89344904Y-67925952D01*
X89383000Y-67849761D01*
X89421095Y-67811666D01*
X89497285Y-67773571D01*
X89611571Y-67773571D01*
X89687761Y-67811666D01*
X89725857Y-67849761D01*
X89763952Y-67925952D01*
X89763952Y-68154523D01*
X89725857Y-68230714D01*
X89687761Y-68268809D01*
X89611571Y-68306904D01*
X89497285Y-68306904D01*
X90068714Y-68268809D02*
X90144904Y-68306904D01*
X90297285Y-68306904D01*
X90373476Y-68268809D01*
X90411571Y-68192619D01*
X90411571Y-68154523D01*
X90373476Y-68078333D01*
X90297285Y-68040238D01*
X90183000Y-68040238D01*
X90106809Y-68002142D01*
X90068714Y-67925952D01*
X90068714Y-67887857D01*
X90106809Y-67811666D01*
X90183000Y-67773571D01*
X90297285Y-67773571D01*
X90373476Y-67811666D01*
D14*
X212217000Y-66040000D02*
X212217000Y-91440000D01*
X212217000Y-91440000D02*
X212217000Y-116840000D01*
X92583000Y-66040000D02*
X92583000Y-91440000D01*
X92583000Y-91440000D02*
X92583000Y-116840000D01*
X152400000Y-116840000D02*
X212217000Y-116840000D01*
X92583000Y-116840000D02*
X152400000Y-116840000D01*
X92583000Y-71120000D02*
X212217000Y-71120000D01*
X92583000Y-111760000D02*
X212217000Y-111760000D01*
X212217000Y-68580000D02*
X208661000Y-68580000D01*
X208661000Y-66040000D02*
X208661000Y-71120000D01*
X212217000Y-114300000D02*
X208661000Y-114300000D01*
X208661000Y-111760000D02*
X208661000Y-116840000D01*
X96139000Y-114300000D02*
X92583000Y-114300000D01*
X96139000Y-111760000D02*
X96139000Y-116840000D01*
X96139000Y-68580000D02*
X92583000Y-68580000D01*
X96139000Y-66040000D02*
X96139000Y-71120000D01*
X152400000Y-66040000D02*
X212217000Y-66040000D01*
X92583000Y-66040000D02*
X152400000Y-66040000D01*
X227000000Y-91000000D02*
G75*
G03*
X227000000Y-91000000I-6500000J0D01*
G01*
X227500000Y-91000000D02*
G75*
G03*
X227500000Y-91000000I-7000000J0D01*
G01*
X228900000Y-91000000D02*
X226450000Y-96950000D01*
X226450000Y-96950000D02*
X220500000Y-99400000D01*
X220500000Y-99400000D02*
X214550000Y-96950000D01*
X214550000Y-96950000D02*
X212100000Y-91000000D01*
X212100000Y-91000000D02*
X214550000Y-85100000D01*
X214550000Y-85100000D02*
X220500000Y-82600000D01*
X220500000Y-82600000D02*
X226450000Y-85050000D01*
X226450000Y-85050000D02*
X228900000Y-91000000D01*
X220500000Y-89000000D02*
X220500000Y-93000000D01*
X218500000Y-91000000D02*
X222500000Y-91000000D01*
D11*
X227250000Y-91000000D02*
G75*
G03*
X227250000Y-91000000I-6750000J0D01*
G01*
D14*
X223650397Y-89000000D02*
G75*
G03*
X223650397Y-89000000I-3150397J0D01*
G01*
X221504988Y-89000000D02*
G75*
G03*
X221504988Y-89000000I-1004988J0D01*
G01*
X142875000Y-47625000D02*
X144145000Y-47625000D01*
X139065000Y-47625000D02*
X137795000Y-47625000D01*
X141605000Y-47625000D02*
X140335000Y-47625000D01*
X142875000Y-47625000D02*
X141605000Y-47625000D01*
X142875000Y-48895000D02*
X144145000Y-48895000D01*
X141605000Y-48895000D02*
X142875000Y-48895000D01*
X140335000Y-48895000D02*
X141605000Y-48895000D01*
X137795000Y-48895000D02*
X139065000Y-48895000D01*
X137160000Y-45085000D02*
X137160000Y-51435000D01*
X139700000Y-45085000D02*
X139700000Y-51435000D01*
X142240000Y-45085000D02*
X142240000Y-51435000D01*
X144780000Y-45085000D02*
X144780000Y-51435000D01*
X147320000Y-48895000D02*
X147320000Y-52070000D01*
X145415000Y-48895000D02*
X147320000Y-48895000D01*
X147320000Y-47625000D02*
X145415000Y-47625000D01*
X147320000Y-44450000D02*
X147320000Y-47625000D01*
X134620000Y-44450000D02*
X134620000Y-52070000D01*
D10*
G36*
X137795000Y-46990000D02*
G01*
X136525000Y-46990000D01*
X137160000Y-48260000D01*
X137795000Y-46990000D01*
G37*
X137795000Y-46990000D02*
X136525000Y-46990000D01*
X137160000Y-48260000D01*
X137795000Y-46990000D01*
G36*
X137160000Y-48260000D02*
G01*
X137795000Y-49530000D01*
X136525000Y-49530000D01*
X137160000Y-48260000D01*
G37*
X137160000Y-48260000D02*
X137795000Y-49530000D01*
X136525000Y-49530000D01*
X137160000Y-48260000D01*
G36*
X140335000Y-46990000D02*
G01*
X139065000Y-46990000D01*
X139700000Y-48260000D01*
X140335000Y-46990000D01*
G37*
X140335000Y-46990000D02*
X139065000Y-46990000D01*
X139700000Y-48260000D01*
X140335000Y-46990000D01*
G36*
X139700000Y-48260000D02*
G01*
X140335000Y-49530000D01*
X139065000Y-49530000D01*
X139700000Y-48260000D01*
G37*
X139700000Y-48260000D02*
X140335000Y-49530000D01*
X139065000Y-49530000D01*
X139700000Y-48260000D01*
G36*
X142875000Y-46990000D02*
G01*
X141605000Y-46990000D01*
X142240000Y-48260000D01*
X142875000Y-46990000D01*
G37*
X142875000Y-46990000D02*
X141605000Y-46990000D01*
X142240000Y-48260000D01*
X142875000Y-46990000D01*
G36*
X142240000Y-48260000D02*
G01*
X142875000Y-49530000D01*
X141605000Y-49530000D01*
X142240000Y-48260000D01*
G37*
X142240000Y-48260000D02*
X142875000Y-49530000D01*
X141605000Y-49530000D01*
X142240000Y-48260000D01*
G36*
X144780000Y-48260000D02*
G01*
X145415000Y-49530000D01*
X144145000Y-49530000D01*
X144780000Y-48260000D01*
G37*
X144780000Y-48260000D02*
X145415000Y-49530000D01*
X144145000Y-49530000D01*
X144780000Y-48260000D01*
G36*
X145415000Y-46990000D02*
G01*
X144145000Y-46990000D01*
X144780000Y-48260000D01*
X145415000Y-46990000D01*
G37*
X145415000Y-46990000D02*
X144145000Y-46990000D01*
X144780000Y-48260000D01*
X145415000Y-46990000D01*
D14*
X133350000Y-40640000D02*
X148590000Y-40640000D01*
X132080000Y-54610000D02*
X132080000Y-41910000D01*
X148590000Y-55880000D02*
X133350000Y-55880000D01*
X149860000Y-41910000D02*
X149860000Y-54610000D01*
X149860000Y-54610000D02*
G75*
G02*
X148590000Y-55880000I-1270000J0D01*
G01*
X148590000Y-40640000D02*
G75*
G02*
X149860000Y-41910000I0J-1270000D01*
G01*
X132080000Y-41910000D02*
G75*
G02*
X133350000Y-40640000I1270000J0D01*
G01*
X133350000Y-55880000D02*
G75*
G02*
X132080000Y-54610000I0J1270000D01*
G01*
X166370000Y-45720000D02*
X166370000Y-40640000D01*
X158750000Y-45720000D02*
X166370000Y-45720000D01*
X158750000Y-40640000D02*
X158750000Y-45720000D01*
X156210000Y-55880000D02*
X152400000Y-55880000D01*
X156210000Y-48260000D02*
X156210000Y-55880000D01*
X152400000Y-48260000D02*
X156210000Y-48260000D01*
X163458026Y-57150000D02*
G75*
G03*
X163458026Y-57150000I-898026J0D01*
G01*
X163830000Y-55880000D02*
X161290000Y-55880000D01*
X163830000Y-58420000D02*
X163830000Y-55880000D01*
X161290000Y-58420000D02*
X163830000Y-58420000D01*
X161290000Y-55880000D02*
X161290000Y-58420000D01*
X156845000Y-43180000D02*
G75*
G03*
X156845000Y-43180000I-1905000J0D01*
G01*
X156845000Y-60960000D02*
G75*
G03*
X156845000Y-60960000I-1905000J0D01*
G01*
X201930000Y-60960000D02*
G75*
G03*
X201930000Y-60960000I-1270000J0D01*
G01*
X201930000Y-43180000D02*
G75*
G03*
X201930000Y-43180000I-1270000J0D01*
G01*
X152400000Y-63500000D02*
X152400000Y-40640000D01*
X203200000Y-63500000D02*
X152400000Y-63500000D01*
X203200000Y-40640000D02*
X203200000Y-63500000D01*
X152400000Y-40640000D02*
X203200000Y-40640000D01*
X153670000Y-45720000D02*
X156210000Y-45720000D01*
X156210000Y-45720000D02*
X156210000Y-46990000D01*
X156210000Y-46990000D02*
X153670000Y-46990000D01*
X153670000Y-46990000D02*
X153670000Y-45720000D01*
X156210000Y-57150000D02*
X156210000Y-58420000D01*
X153670000Y-57150000D02*
X156210000Y-57150000D01*
X156210000Y-58420000D02*
X153670000Y-58420000D01*
X153670000Y-58420000D02*
X153670000Y-57150000D01*
X170180000Y-58420000D02*
X170180000Y-55880000D01*
X167640000Y-58420000D02*
X170180000Y-58420000D01*
X170180000Y-55880000D02*
X167640000Y-55880000D01*
X169808026Y-57150000D02*
G75*
G03*
X169808026Y-57150000I-898026J0D01*
G01*
X167640000Y-55880000D02*
X167640000Y-58420000D01*
X193938026Y-45085000D02*
G75*
G03*
X193938026Y-45085000I-898026J0D01*
G01*
X196478026Y-45085000D02*
G75*
G03*
X196478026Y-45085000I-898026J0D01*
G01*
X199018026Y-45085000D02*
G75*
G03*
X199018026Y-45085000I-898026J0D01*
G01*
X196478026Y-59055000D02*
G75*
G03*
X196478026Y-59055000I-898026J0D01*
G01*
X193938026Y-59055000D02*
G75*
G03*
X193938026Y-59055000I-898026J0D01*
G01*
X199018026Y-59055000D02*
G75*
G03*
X199018026Y-59055000I-898026J0D01*
G01*
X202828026Y-46990000D02*
G75*
G03*
X202828026Y-46990000I-898026J0D01*
G01*
X197748026Y-46990000D02*
G75*
G03*
X197748026Y-46990000I-898026J0D01*
G01*
X200288026Y-46990000D02*
G75*
G03*
X200288026Y-46990000I-898026J0D01*
G01*
X195208026Y-46990000D02*
G75*
G03*
X195208026Y-46990000I-898026J0D01*
G01*
X192668026Y-46990000D02*
G75*
G03*
X192668026Y-46990000I-898026J0D01*
G01*
X202828026Y-49530000D02*
G75*
G03*
X202828026Y-49530000I-898026J0D01*
G01*
X200288026Y-49530000D02*
G75*
G03*
X200288026Y-49530000I-898026J0D01*
G01*
X197748026Y-49530000D02*
G75*
G03*
X197748026Y-49530000I-898026J0D01*
G01*
X192668026Y-49530000D02*
G75*
G03*
X192668026Y-49530000I-898026J0D01*
G01*
X195208026Y-49530000D02*
G75*
G03*
X195208026Y-49530000I-898026J0D01*
G01*
X202828026Y-52070000D02*
G75*
G03*
X202828026Y-52070000I-898026J0D01*
G01*
X200288026Y-52070000D02*
G75*
G03*
X200288026Y-52070000I-898026J0D01*
G01*
X197748026Y-52070000D02*
G75*
G03*
X197748026Y-52070000I-898026J0D01*
G01*
X192668026Y-52070000D02*
G75*
G03*
X192668026Y-52070000I-898026J0D01*
G01*
X202828026Y-54610000D02*
G75*
G03*
X202828026Y-54610000I-898026J0D01*
G01*
X195208026Y-52070000D02*
G75*
G03*
X195208026Y-52070000I-898026J0D01*
G01*
X192668026Y-54610000D02*
G75*
G03*
X192668026Y-54610000I-898026J0D01*
G01*
X195208026Y-54610000D02*
G75*
G03*
X195208026Y-54610000I-898026J0D01*
G01*
X197748026Y-54610000D02*
G75*
G03*
X197748026Y-54610000I-898026J0D01*
G01*
X200288026Y-54610000D02*
G75*
G03*
X200288026Y-54610000I-898026J0D01*
G01*
X202828026Y-57150000D02*
G75*
G03*
X202828026Y-57150000I-898026J0D01*
G01*
X192668026Y-57150000D02*
G75*
G03*
X192668026Y-57150000I-898026J0D01*
G01*
X195208026Y-57150000D02*
G75*
G03*
X195208026Y-57150000I-898026J0D01*
G01*
X200288026Y-57150000D02*
G75*
G03*
X200288026Y-57150000I-898026J0D01*
G01*
X197748026Y-57150000D02*
G75*
G03*
X197748026Y-57150000I-898026J0D01*
G01*
X194056000Y-45085000D02*
X194564000Y-45085000D01*
X196596000Y-45085000D02*
X197104000Y-45085000D01*
X194056000Y-59055000D02*
X194564000Y-59055000D01*
X196596000Y-59055000D02*
X197104000Y-59055000D01*
D12*
X146970000Y-59690000D02*
G75*
G03*
X146970000Y-59690000I-6000000J0D01*
G01*
X142240000Y-61020000D02*
X144840000Y-61020000D01*
X144840000Y-61020000D02*
X144840000Y-58360000D01*
X144840000Y-58360000D02*
X142240000Y-58360000D01*
X142240000Y-58360000D02*
X142240000Y-61020000D01*
X138430000Y-61020000D02*
X137100000Y-61020000D01*
X137100000Y-61020000D02*
X137100000Y-59690000D01*
X217110000Y-69910000D02*
X217110000Y-68580000D01*
X218440000Y-69910000D02*
X217110000Y-69910000D01*
X219710000Y-69910000D02*
X219710000Y-67250000D01*
X219710000Y-67250000D02*
X222310000Y-67250000D01*
X219710000Y-69910000D02*
X222310000Y-69910000D01*
X222310000Y-69910000D02*
X222310000Y-67250000D01*
D14*
X208990000Y-59195000D02*
X208040000Y-59195000D01*
X208040000Y-59195000D02*
X208040000Y-58520000D01*
X208890000Y-45545000D02*
X208040000Y-45545000D01*
X208040000Y-45545000D02*
X208040000Y-46220000D01*
X220790000Y-58620000D02*
X220790000Y-59195000D01*
X220790000Y-59195000D02*
X219990000Y-59195000D01*
X220090000Y-45545000D02*
X220790000Y-45545000D01*
X220790000Y-45545000D02*
X220790000Y-46045000D01*
X214415000Y-61170000D02*
X214415000Y-44170000D01*
X207115000Y-52370000D02*
X221715000Y-52370000D01*
X217927834Y-52370000D02*
G75*
G03*
X217927834Y-52370000I-3512834J0D01*
G01*
X92770000Y-45750000D02*
X92770000Y-40670000D01*
X85150000Y-45750000D02*
X92770000Y-45750000D01*
X85150000Y-40670000D02*
X85150000Y-45750000D01*
X82610000Y-55910000D02*
X78800000Y-55910000D01*
X82610000Y-48290000D02*
X82610000Y-55910000D01*
X78800000Y-48290000D02*
X82610000Y-48290000D01*
X89858026Y-57180000D02*
G75*
G03*
X89858026Y-57180000I-898026J0D01*
G01*
X90230000Y-55910000D02*
X87690000Y-55910000D01*
X90230000Y-58450000D02*
X90230000Y-55910000D01*
X87690000Y-58450000D02*
X90230000Y-58450000D01*
X87690000Y-55910000D02*
X87690000Y-58450000D01*
X83245000Y-43210000D02*
G75*
G03*
X83245000Y-43210000I-1905000J0D01*
G01*
X83245000Y-60990000D02*
G75*
G03*
X83245000Y-60990000I-1905000J0D01*
G01*
X128330000Y-60990000D02*
G75*
G03*
X128330000Y-60990000I-1270000J0D01*
G01*
X128330000Y-43210000D02*
G75*
G03*
X128330000Y-43210000I-1270000J0D01*
G01*
X78800000Y-63530000D02*
X78800000Y-40670000D01*
X129600000Y-63530000D02*
X78800000Y-63530000D01*
X129600000Y-40670000D02*
X129600000Y-63530000D01*
X78800000Y-40670000D02*
X129600000Y-40670000D01*
X80070000Y-45750000D02*
X82610000Y-45750000D01*
X82610000Y-45750000D02*
X82610000Y-47020000D01*
X82610000Y-47020000D02*
X80070000Y-47020000D01*
X80070000Y-47020000D02*
X80070000Y-45750000D01*
X82610000Y-57180000D02*
X82610000Y-58450000D01*
X80070000Y-57180000D02*
X82610000Y-57180000D01*
X82610000Y-58450000D02*
X80070000Y-58450000D01*
X80070000Y-58450000D02*
X80070000Y-57180000D01*
X96580000Y-58450000D02*
X96580000Y-55910000D01*
X94040000Y-58450000D02*
X96580000Y-58450000D01*
X96580000Y-55910000D02*
X94040000Y-55910000D01*
X96208026Y-57180000D02*
G75*
G03*
X96208026Y-57180000I-898026J0D01*
G01*
X94040000Y-55910000D02*
X94040000Y-58450000D01*
X120338026Y-45115000D02*
G75*
G03*
X120338026Y-45115000I-898026J0D01*
G01*
X122878026Y-45115000D02*
G75*
G03*
X122878026Y-45115000I-898026J0D01*
G01*
X125418026Y-45115000D02*
G75*
G03*
X125418026Y-45115000I-898026J0D01*
G01*
X122878026Y-59085000D02*
G75*
G03*
X122878026Y-59085000I-898026J0D01*
G01*
X120338026Y-59085000D02*
G75*
G03*
X120338026Y-59085000I-898026J0D01*
G01*
X125418026Y-59085000D02*
G75*
G03*
X125418026Y-59085000I-898026J0D01*
G01*
X129228026Y-47020000D02*
G75*
G03*
X129228026Y-47020000I-898026J0D01*
G01*
X124148026Y-47020000D02*
G75*
G03*
X124148026Y-47020000I-898026J0D01*
G01*
X126688026Y-47020000D02*
G75*
G03*
X126688026Y-47020000I-898026J0D01*
G01*
X121608026Y-47020000D02*
G75*
G03*
X121608026Y-47020000I-898026J0D01*
G01*
X119068026Y-47020000D02*
G75*
G03*
X119068026Y-47020000I-898026J0D01*
G01*
X129228026Y-49560000D02*
G75*
G03*
X129228026Y-49560000I-898026J0D01*
G01*
X126688026Y-49560000D02*
G75*
G03*
X126688026Y-49560000I-898026J0D01*
G01*
X124148026Y-49560000D02*
G75*
G03*
X124148026Y-49560000I-898026J0D01*
G01*
X119068026Y-49560000D02*
G75*
G03*
X119068026Y-49560000I-898026J0D01*
G01*
X121608026Y-49560000D02*
G75*
G03*
X121608026Y-49560000I-898026J0D01*
G01*
X129228026Y-52100000D02*
G75*
G03*
X129228026Y-52100000I-898026J0D01*
G01*
X126688026Y-52100000D02*
G75*
G03*
X126688026Y-52100000I-898026J0D01*
G01*
X124148026Y-52100000D02*
G75*
G03*
X124148026Y-52100000I-898026J0D01*
G01*
X119068026Y-52100000D02*
G75*
G03*
X119068026Y-52100000I-898026J0D01*
G01*
X129228026Y-54640000D02*
G75*
G03*
X129228026Y-54640000I-898026J0D01*
G01*
X121608026Y-52100000D02*
G75*
G03*
X121608026Y-52100000I-898026J0D01*
G01*
X119068026Y-54640000D02*
G75*
G03*
X119068026Y-54640000I-898026J0D01*
G01*
X121608026Y-54640000D02*
G75*
G03*
X121608026Y-54640000I-898026J0D01*
G01*
X124148026Y-54640000D02*
G75*
G03*
X124148026Y-54640000I-898026J0D01*
G01*
X126688026Y-54640000D02*
G75*
G03*
X126688026Y-54640000I-898026J0D01*
G01*
X129228026Y-57180000D02*
G75*
G03*
X129228026Y-57180000I-898026J0D01*
G01*
X119068026Y-57180000D02*
G75*
G03*
X119068026Y-57180000I-898026J0D01*
G01*
X121608026Y-57180000D02*
G75*
G03*
X121608026Y-57180000I-898026J0D01*
G01*
X126688026Y-57180000D02*
G75*
G03*
X126688026Y-57180000I-898026J0D01*
G01*
X124148026Y-57180000D02*
G75*
G03*
X124148026Y-57180000I-898026J0D01*
G01*
X120456000Y-45115000D02*
X120964000Y-45115000D01*
X122996000Y-45115000D02*
X123504000Y-45115000D01*
X120456000Y-59085000D02*
X120964000Y-59085000D01*
X122996000Y-59085000D02*
X123504000Y-59085000D01*
D12*
X103530476Y-68141904D02*
X103530476Y-68789523D01*
X103568571Y-68865714D01*
X103606666Y-68903809D01*
X103682857Y-68941904D01*
X103835238Y-68941904D01*
X103911428Y-68903809D01*
X103949523Y-68865714D01*
X103987619Y-68789523D01*
X103987619Y-68141904D01*
X104787619Y-68941904D02*
X104330476Y-68941904D01*
X104559047Y-68941904D02*
X104559047Y-68141904D01*
X104482857Y-68256190D01*
X104406666Y-68332380D01*
X104330476Y-68370476D01*
X105825238Y-68713333D02*
X106206190Y-68713333D01*
X105749047Y-68941904D02*
X106015714Y-68141904D01*
X106282380Y-68941904D01*
X106891904Y-68941904D02*
X106891904Y-68141904D01*
X106891904Y-68903809D02*
X106815714Y-68941904D01*
X106663333Y-68941904D01*
X106587142Y-68903809D01*
X106549047Y-68865714D01*
X106510952Y-68789523D01*
X106510952Y-68560952D01*
X106549047Y-68484761D01*
X106587142Y-68446666D01*
X106663333Y-68408571D01*
X106815714Y-68408571D01*
X106891904Y-68446666D01*
X107615714Y-68941904D02*
X107615714Y-68522857D01*
X107577619Y-68446666D01*
X107501428Y-68408571D01*
X107349047Y-68408571D01*
X107272857Y-68446666D01*
X107615714Y-68903809D02*
X107539523Y-68941904D01*
X107349047Y-68941904D01*
X107272857Y-68903809D01*
X107234761Y-68827619D01*
X107234761Y-68751428D01*
X107272857Y-68675238D01*
X107349047Y-68637142D01*
X107539523Y-68637142D01*
X107615714Y-68599047D01*
X107882380Y-68408571D02*
X108187142Y-68408571D01*
X107996666Y-68941904D02*
X107996666Y-68256190D01*
X108034761Y-68180000D01*
X108110952Y-68141904D01*
X108187142Y-68141904D01*
X108453809Y-68941904D02*
X108453809Y-68408571D01*
X108453809Y-68560952D02*
X108491904Y-68484761D01*
X108530000Y-68446666D01*
X108606190Y-68408571D01*
X108682380Y-68408571D01*
X109291904Y-68408571D02*
X109291904Y-68941904D01*
X108949047Y-68408571D02*
X108949047Y-68827619D01*
X108987142Y-68903809D01*
X109063333Y-68941904D01*
X109177619Y-68941904D01*
X109253809Y-68903809D01*
X109291904Y-68865714D01*
X109672857Y-68941904D02*
X109672857Y-68408571D01*
X109672857Y-68141904D02*
X109634761Y-68180000D01*
X109672857Y-68218095D01*
X109710952Y-68180000D01*
X109672857Y-68141904D01*
X109672857Y-68218095D01*
X109939523Y-68408571D02*
X110244285Y-68408571D01*
X110053809Y-68141904D02*
X110053809Y-68827619D01*
X110091904Y-68903809D01*
X110168095Y-68941904D01*
X110244285Y-68941904D01*
X111539523Y-68941904D02*
X111082380Y-68941904D01*
X111310952Y-68941904D02*
X111310952Y-68141904D01*
X111234761Y-68256190D01*
X111158571Y-68332380D01*
X111082380Y-68370476D01*
X111882380Y-68865714D02*
X111920476Y-68903809D01*
X111882380Y-68941904D01*
X111844285Y-68903809D01*
X111882380Y-68865714D01*
X111882380Y-68941904D01*
X112225238Y-68218095D02*
X112263333Y-68180000D01*
X112339523Y-68141904D01*
X112530000Y-68141904D01*
X112606190Y-68180000D01*
X112644285Y-68218095D01*
X112682380Y-68294285D01*
X112682380Y-68370476D01*
X112644285Y-68484761D01*
X112187142Y-68941904D01*
X112682380Y-68941904D01*
X113025238Y-68637142D02*
X113634761Y-68637142D01*
X114015714Y-68941904D02*
X114015714Y-68408571D01*
X114015714Y-68141904D02*
X113977619Y-68180000D01*
X114015714Y-68218095D01*
X114053809Y-68180000D01*
X114015714Y-68141904D01*
X114015714Y-68218095D01*
X114396666Y-68408571D02*
X114396666Y-68941904D01*
X114396666Y-68484761D02*
X114434761Y-68446666D01*
X114510952Y-68408571D01*
X114625238Y-68408571D01*
X114701428Y-68446666D01*
X114739523Y-68522857D01*
X114739523Y-68941904D01*
X115463333Y-68903809D02*
X115387142Y-68941904D01*
X115234761Y-68941904D01*
X115158571Y-68903809D01*
X115120476Y-68865714D01*
X115082380Y-68789523D01*
X115082380Y-68560952D01*
X115120476Y-68484761D01*
X115158571Y-68446666D01*
X115234761Y-68408571D01*
X115387142Y-68408571D01*
X115463333Y-68446666D01*
X115806190Y-68941904D02*
X115806190Y-68141904D01*
X116149047Y-68941904D02*
X116149047Y-68522857D01*
X116110952Y-68446666D01*
X116034761Y-68408571D01*
X115920476Y-68408571D01*
X115844285Y-68446666D01*
X115806190Y-68484761D01*
X117063333Y-68141904D02*
X117596666Y-68141904D01*
X117253809Y-68941904D01*
X117901428Y-68637142D02*
X118510952Y-68637142D01*
X118853809Y-68903809D02*
X118968095Y-68941904D01*
X119158571Y-68941904D01*
X119234761Y-68903809D01*
X119272857Y-68865714D01*
X119310952Y-68789523D01*
X119310952Y-68713333D01*
X119272857Y-68637142D01*
X119234761Y-68599047D01*
X119158571Y-68560952D01*
X119006190Y-68522857D01*
X118930000Y-68484761D01*
X118891904Y-68446666D01*
X118853809Y-68370476D01*
X118853809Y-68294285D01*
X118891904Y-68218095D01*
X118930000Y-68180000D01*
X119006190Y-68141904D01*
X119196666Y-68141904D01*
X119310952Y-68180000D01*
X119958571Y-68903809D02*
X119882380Y-68941904D01*
X119730000Y-68941904D01*
X119653809Y-68903809D01*
X119615714Y-68827619D01*
X119615714Y-68522857D01*
X119653809Y-68446666D01*
X119730000Y-68408571D01*
X119882380Y-68408571D01*
X119958571Y-68446666D01*
X119996666Y-68522857D01*
X119996666Y-68599047D01*
X119615714Y-68675238D01*
X120682380Y-68408571D02*
X120682380Y-69056190D01*
X120644285Y-69132380D01*
X120606190Y-69170476D01*
X120530000Y-69208571D01*
X120415714Y-69208571D01*
X120339523Y-69170476D01*
X120682380Y-68903809D02*
X120606190Y-68941904D01*
X120453809Y-68941904D01*
X120377619Y-68903809D01*
X120339523Y-68865714D01*
X120301428Y-68789523D01*
X120301428Y-68560952D01*
X120339523Y-68484761D01*
X120377619Y-68446666D01*
X120453809Y-68408571D01*
X120606190Y-68408571D01*
X120682380Y-68446666D01*
X121063333Y-68941904D02*
X121063333Y-68408571D01*
X121063333Y-68484761D02*
X121101428Y-68446666D01*
X121177619Y-68408571D01*
X121291904Y-68408571D01*
X121368095Y-68446666D01*
X121406190Y-68522857D01*
X121406190Y-68941904D01*
X121406190Y-68522857D02*
X121444285Y-68446666D01*
X121520476Y-68408571D01*
X121634761Y-68408571D01*
X121710952Y-68446666D01*
X121749047Y-68522857D01*
X121749047Y-68941904D01*
X122434761Y-68903809D02*
X122358571Y-68941904D01*
X122206190Y-68941904D01*
X122130000Y-68903809D01*
X122091904Y-68827619D01*
X122091904Y-68522857D01*
X122130000Y-68446666D01*
X122206190Y-68408571D01*
X122358571Y-68408571D01*
X122434761Y-68446666D01*
X122472857Y-68522857D01*
X122472857Y-68599047D01*
X122091904Y-68675238D01*
X122815714Y-68408571D02*
X122815714Y-68941904D01*
X122815714Y-68484761D02*
X122853809Y-68446666D01*
X122930000Y-68408571D01*
X123044285Y-68408571D01*
X123120476Y-68446666D01*
X123158571Y-68522857D01*
X123158571Y-68941904D01*
X123425238Y-68408571D02*
X123730000Y-68408571D01*
X123539523Y-68141904D02*
X123539523Y-68827619D01*
X123577619Y-68903809D01*
X123653809Y-68941904D01*
X123730000Y-68941904D01*
X124987142Y-68941904D02*
X124606190Y-68941904D01*
X124606190Y-68141904D01*
X125253809Y-68522857D02*
X125520476Y-68522857D01*
X125634761Y-68941904D02*
X125253809Y-68941904D01*
X125253809Y-68141904D01*
X125634761Y-68141904D01*
X125977619Y-68941904D02*
X125977619Y-68141904D01*
X126168095Y-68141904D01*
X126282380Y-68180000D01*
X126358571Y-68256190D01*
X126396666Y-68332380D01*
X126434761Y-68484761D01*
X126434761Y-68599047D01*
X126396666Y-68751428D01*
X126358571Y-68827619D01*
X126282380Y-68903809D01*
X126168095Y-68941904D01*
X125977619Y-68941904D01*
X127387142Y-68941904D02*
X127387142Y-68141904D01*
X127387142Y-68522857D02*
X127844285Y-68522857D01*
X127844285Y-68941904D02*
X127844285Y-68141904D01*
X128110952Y-68141904D02*
X128568095Y-68141904D01*
X128339523Y-68941904D02*
X128339523Y-68141904D01*
X129253809Y-68941904D02*
X128796666Y-68941904D01*
X129025238Y-68941904D02*
X129025238Y-68141904D01*
X128949047Y-68256190D01*
X128872857Y-68332380D01*
X128796666Y-68370476D01*
X129939523Y-68141904D02*
X129787142Y-68141904D01*
X129710952Y-68180000D01*
X129672857Y-68218095D01*
X129596666Y-68332380D01*
X129558571Y-68484761D01*
X129558571Y-68789523D01*
X129596666Y-68865714D01*
X129634761Y-68903809D01*
X129710952Y-68941904D01*
X129863333Y-68941904D01*
X129939523Y-68903809D01*
X129977619Y-68865714D01*
X130015714Y-68789523D01*
X130015714Y-68599047D01*
X129977619Y-68522857D01*
X129939523Y-68484761D01*
X129863333Y-68446666D01*
X129710952Y-68446666D01*
X129634761Y-68484761D01*
X129596666Y-68522857D01*
X129558571Y-68599047D01*
X130358571Y-68941904D02*
X130358571Y-68141904D01*
X130815714Y-68941904D02*
X130472857Y-68484761D01*
X130815714Y-68141904D02*
X130358571Y-68599047D01*
X131082380Y-68141904D02*
X131577619Y-68141904D01*
X131310952Y-68446666D01*
X131425238Y-68446666D01*
X131501428Y-68484761D01*
X131539523Y-68522857D01*
X131577619Y-68599047D01*
X131577619Y-68789523D01*
X131539523Y-68865714D01*
X131501428Y-68903809D01*
X131425238Y-68941904D01*
X131196666Y-68941904D01*
X131120476Y-68903809D01*
X131082380Y-68865714D01*
X131844285Y-68141904D02*
X132339523Y-68141904D01*
X132072857Y-68446666D01*
X132187142Y-68446666D01*
X132263333Y-68484761D01*
X132301428Y-68522857D01*
X132339523Y-68599047D01*
X132339523Y-68789523D01*
X132301428Y-68865714D01*
X132263333Y-68903809D01*
X132187142Y-68941904D01*
X131958571Y-68941904D01*
X131882380Y-68903809D01*
X131844285Y-68865714D01*
X133558571Y-68522857D02*
X133672857Y-68560952D01*
X133710952Y-68599047D01*
X133749047Y-68675238D01*
X133749047Y-68789523D01*
X133710952Y-68865714D01*
X133672857Y-68903809D01*
X133596666Y-68941904D01*
X133291904Y-68941904D01*
X133291904Y-68141904D01*
X133558571Y-68141904D01*
X133634761Y-68180000D01*
X133672857Y-68218095D01*
X133710952Y-68294285D01*
X133710952Y-68370476D01*
X133672857Y-68446666D01*
X133634761Y-68484761D01*
X133558571Y-68522857D01*
X133291904Y-68522857D01*
X134434761Y-68941904D02*
X134434761Y-68522857D01*
X134396666Y-68446666D01*
X134320476Y-68408571D01*
X134168095Y-68408571D01*
X134091904Y-68446666D01*
X134434761Y-68903809D02*
X134358571Y-68941904D01*
X134168095Y-68941904D01*
X134091904Y-68903809D01*
X134053809Y-68827619D01*
X134053809Y-68751428D01*
X134091904Y-68675238D01*
X134168095Y-68637142D01*
X134358571Y-68637142D01*
X134434761Y-68599047D01*
X135158571Y-68903809D02*
X135082380Y-68941904D01*
X134930000Y-68941904D01*
X134853809Y-68903809D01*
X134815714Y-68865714D01*
X134777619Y-68789523D01*
X134777619Y-68560952D01*
X134815714Y-68484761D01*
X134853809Y-68446666D01*
X134930000Y-68408571D01*
X135082380Y-68408571D01*
X135158571Y-68446666D01*
X135501428Y-68941904D02*
X135501428Y-68141904D01*
X135577619Y-68637142D02*
X135806190Y-68941904D01*
X135806190Y-68408571D02*
X135501428Y-68713333D01*
X136149047Y-68408571D02*
X136149047Y-69208571D01*
X136149047Y-68446666D02*
X136225238Y-68408571D01*
X136377619Y-68408571D01*
X136453809Y-68446666D01*
X136491904Y-68484761D01*
X136530000Y-68560952D01*
X136530000Y-68789523D01*
X136491904Y-68865714D01*
X136453809Y-68903809D01*
X136377619Y-68941904D01*
X136225238Y-68941904D01*
X136149047Y-68903809D01*
X137215714Y-68941904D02*
X137215714Y-68522857D01*
X137177619Y-68446666D01*
X137101428Y-68408571D01*
X136949047Y-68408571D01*
X136872857Y-68446666D01*
X137215714Y-68903809D02*
X137139523Y-68941904D01*
X136949047Y-68941904D01*
X136872857Y-68903809D01*
X136834761Y-68827619D01*
X136834761Y-68751428D01*
X136872857Y-68675238D01*
X136949047Y-68637142D01*
X137139523Y-68637142D01*
X137215714Y-68599047D01*
X137939523Y-68903809D02*
X137863333Y-68941904D01*
X137710952Y-68941904D01*
X137634761Y-68903809D01*
X137596666Y-68865714D01*
X137558571Y-68789523D01*
X137558571Y-68560952D01*
X137596666Y-68484761D01*
X137634761Y-68446666D01*
X137710952Y-68408571D01*
X137863333Y-68408571D01*
X137939523Y-68446666D01*
X138282380Y-68941904D02*
X138282380Y-68141904D01*
X138358571Y-68637142D02*
X138587142Y-68941904D01*
X138587142Y-68408571D02*
X138282380Y-68713333D01*
X139539523Y-68941904D02*
X139539523Y-68141904D01*
X139844285Y-68141904D01*
X139920476Y-68180000D01*
X139958571Y-68218095D01*
X139996666Y-68294285D01*
X139996666Y-68408571D01*
X139958571Y-68484761D01*
X139920476Y-68522857D01*
X139844285Y-68560952D01*
X139539523Y-68560952D01*
X140339523Y-68941904D02*
X140339523Y-68141904D01*
X140720476Y-68941904D02*
X140720476Y-68141904D01*
X140910952Y-68141904D01*
X141025238Y-68180000D01*
X141101428Y-68256190D01*
X141139523Y-68332380D01*
X141177619Y-68484761D01*
X141177619Y-68599047D01*
X141139523Y-68751428D01*
X141101428Y-68827619D01*
X141025238Y-68903809D01*
X140910952Y-68941904D01*
X140720476Y-68941904D01*
X142091904Y-68408571D02*
X142663333Y-68408571D01*
X142320476Y-68065714D02*
X142091904Y-69094285D01*
X142587142Y-68751428D02*
X142015714Y-68751428D01*
X142358571Y-69094285D02*
X142587142Y-68065714D01*
X143349047Y-68941904D02*
X142891904Y-68941904D01*
X143120476Y-68941904D02*
X143120476Y-68141904D01*
X143044285Y-68256190D01*
X142968095Y-68332380D01*
X142891904Y-68370476D01*
X143653809Y-68218095D02*
X143691904Y-68180000D01*
X143768095Y-68141904D01*
X143958571Y-68141904D01*
X144034761Y-68180000D01*
X144072857Y-68218095D01*
X144110952Y-68294285D01*
X144110952Y-68370476D01*
X144072857Y-68484761D01*
X143615714Y-68941904D01*
X144110952Y-68941904D01*
X144377619Y-68141904D02*
X144910952Y-68141904D01*
X144568095Y-68941904D01*
X145634761Y-68941904D02*
X145177619Y-68941904D01*
X145406190Y-68941904D02*
X145406190Y-68141904D01*
X145330000Y-68256190D01*
X145253809Y-68332380D01*
X145177619Y-68370476D01*
X148789535Y-66732142D02*
X149399059Y-66732142D01*
X149056202Y-67036904D02*
X149132392Y-66427380D01*
X150222869Y-66236904D02*
X149841916Y-66236904D01*
X149756202Y-66617857D01*
X149799059Y-66579761D01*
X149880011Y-66541666D01*
X150070488Y-66541666D01*
X150141916Y-66579761D01*
X150175250Y-66617857D01*
X150203821Y-66694047D01*
X150180011Y-66884523D01*
X150132392Y-66960714D01*
X150089535Y-66998809D01*
X150008583Y-67036904D01*
X149818107Y-67036904D01*
X149746678Y-66998809D01*
X149713345Y-66960714D01*
X150489535Y-66236904D02*
X150656202Y-67036904D01*
X151022869Y-66236904D01*
X151790476Y-66275000D02*
X151714285Y-66236904D01*
X151600000Y-66236904D01*
X151485714Y-66275000D01*
X151409523Y-66351190D01*
X151371428Y-66427380D01*
X151333333Y-66579761D01*
X151333333Y-66694047D01*
X151371428Y-66846428D01*
X151409523Y-66922619D01*
X151485714Y-66998809D01*
X151600000Y-67036904D01*
X151676190Y-67036904D01*
X151790476Y-66998809D01*
X151828571Y-66960714D01*
X151828571Y-66694047D01*
X151676190Y-66694047D01*
X152171428Y-67036904D02*
X152171428Y-66236904D01*
X152628571Y-67036904D01*
X152628571Y-66236904D01*
X153009523Y-67036904D02*
X153009523Y-66236904D01*
X153200000Y-66236904D01*
X153314285Y-66275000D01*
X153390476Y-66351190D01*
X153428571Y-66427380D01*
X153466666Y-66579761D01*
X153466666Y-66694047D01*
X153428571Y-66846428D01*
X153390476Y-66922619D01*
X153314285Y-66998809D01*
X153200000Y-67036904D01*
X153009523Y-67036904D01*
X153893345Y-66998809D02*
X154002869Y-67036904D01*
X154193345Y-67036904D01*
X154274297Y-66998809D01*
X154317154Y-66960714D01*
X154364773Y-66884523D01*
X154374297Y-66808333D01*
X154345726Y-66732142D01*
X154312392Y-66694047D01*
X154240964Y-66655952D01*
X154093345Y-66617857D01*
X154021916Y-66579761D01*
X153988583Y-66541666D01*
X153960011Y-66465476D01*
X153969535Y-66389285D01*
X154017154Y-66313095D01*
X154060011Y-66275000D01*
X154140964Y-66236904D01*
X154331440Y-66236904D01*
X154440964Y-66275000D01*
X154688583Y-67036904D02*
X154788583Y-66236904D01*
X154979059Y-66236904D01*
X155088583Y-66275000D01*
X155155250Y-66351190D01*
X155183821Y-66427380D01*
X155202869Y-66579761D01*
X155188583Y-66694047D01*
X155131440Y-66846428D01*
X155083821Y-66922619D01*
X154998107Y-66998809D01*
X154879059Y-67036904D01*
X154688583Y-67036904D01*
X155479059Y-66808333D02*
X155860011Y-66808333D01*
X155374297Y-67036904D02*
X155740964Y-66236904D01*
X155907630Y-67036904D01*
X146139047Y-66236904D02*
X146405714Y-67036904D01*
X146672380Y-66236904D01*
X146748571Y-67113095D02*
X147358095Y-67113095D01*
X147548571Y-67036904D02*
X147548571Y-66236904D01*
X148081904Y-66236904D02*
X148234285Y-66236904D01*
X148310476Y-66275000D01*
X148386666Y-66351190D01*
X148424761Y-66503571D01*
X148424761Y-66770238D01*
X148386666Y-66922619D01*
X148310476Y-66998809D01*
X148234285Y-67036904D01*
X148081904Y-67036904D01*
X148005714Y-66998809D01*
X147929523Y-66922619D01*
X147891428Y-66770238D01*
X147891428Y-66503571D01*
X147929523Y-66351190D01*
X148005714Y-66275000D01*
X148081904Y-66236904D01*
X156527619Y-66998809D02*
X156641904Y-67036904D01*
X156832380Y-67036904D01*
X156908571Y-66998809D01*
X156946666Y-66960714D01*
X156984761Y-66884523D01*
X156984761Y-66808333D01*
X156946666Y-66732142D01*
X156908571Y-66694047D01*
X156832380Y-66655952D01*
X156680000Y-66617857D01*
X156603809Y-66579761D01*
X156565714Y-66541666D01*
X156527619Y-66465476D01*
X156527619Y-66389285D01*
X156565714Y-66313095D01*
X156603809Y-66275000D01*
X156680000Y-66236904D01*
X156870476Y-66236904D01*
X156984761Y-66275000D01*
X157784761Y-66960714D02*
X157746666Y-66998809D01*
X157632380Y-67036904D01*
X157556190Y-67036904D01*
X157441904Y-66998809D01*
X157365714Y-66922619D01*
X157327619Y-66846428D01*
X157289523Y-66694047D01*
X157289523Y-66579761D01*
X157327619Y-66427380D01*
X157365714Y-66351190D01*
X157441904Y-66275000D01*
X157556190Y-66236904D01*
X157632380Y-66236904D01*
X157746666Y-66275000D01*
X157784761Y-66313095D01*
X158508571Y-67036904D02*
X158127619Y-67036904D01*
X158127619Y-66236904D01*
X177714285Y-69692857D02*
X177447619Y-69692857D01*
X177447619Y-70111904D02*
X177447619Y-69311904D01*
X177828571Y-69311904D01*
X178590476Y-70111904D02*
X178323809Y-69730952D01*
X178133333Y-70111904D02*
X178133333Y-69311904D01*
X178438095Y-69311904D01*
X178514285Y-69350000D01*
X178552380Y-69388095D01*
X178590476Y-69464285D01*
X178590476Y-69578571D01*
X178552380Y-69654761D01*
X178514285Y-69692857D01*
X178438095Y-69730952D01*
X178133333Y-69730952D01*
X179085714Y-69311904D02*
X179238095Y-69311904D01*
X179314285Y-69350000D01*
X179390476Y-69426190D01*
X179428571Y-69578571D01*
X179428571Y-69845238D01*
X179390476Y-69997619D01*
X179314285Y-70073809D01*
X179238095Y-70111904D01*
X179085714Y-70111904D01*
X179009523Y-70073809D01*
X178933333Y-69997619D01*
X178895238Y-69845238D01*
X178895238Y-69578571D01*
X178933333Y-69426190D01*
X179009523Y-69350000D01*
X179085714Y-69311904D01*
X179771428Y-70111904D02*
X179771428Y-69311904D01*
X180228571Y-70111904D01*
X180228571Y-69311904D01*
X180495238Y-69311904D02*
X180952380Y-69311904D01*
X180723809Y-70111904D02*
X180723809Y-69311904D01*
X182057142Y-70416666D02*
X182019047Y-70378571D01*
X181942857Y-70264285D01*
X181904761Y-70188095D01*
X181866666Y-70073809D01*
X181828571Y-69883333D01*
X181828571Y-69730952D01*
X181866666Y-69540476D01*
X181904761Y-69426190D01*
X181942857Y-69350000D01*
X182019047Y-69235714D01*
X182057142Y-69197619D01*
X182361904Y-70111904D02*
X182361904Y-69311904D01*
X182552380Y-69311904D01*
X182666666Y-69350000D01*
X182742857Y-69426190D01*
X182780952Y-69502380D01*
X182819047Y-69654761D01*
X182819047Y-69769047D01*
X182780952Y-69921428D01*
X182742857Y-69997619D01*
X182666666Y-70073809D01*
X182552380Y-70111904D01*
X182361904Y-70111904D01*
X183161904Y-70111904D02*
X183161904Y-69311904D01*
X183504761Y-70073809D02*
X183619047Y-70111904D01*
X183809523Y-70111904D01*
X183885714Y-70073809D01*
X183923809Y-70035714D01*
X183961904Y-69959523D01*
X183961904Y-69883333D01*
X183923809Y-69807142D01*
X183885714Y-69769047D01*
X183809523Y-69730952D01*
X183657142Y-69692857D01*
X183580952Y-69654761D01*
X183542857Y-69616666D01*
X183504761Y-69540476D01*
X183504761Y-69464285D01*
X183542857Y-69388095D01*
X183580952Y-69350000D01*
X183657142Y-69311904D01*
X183847619Y-69311904D01*
X183961904Y-69350000D01*
X184304761Y-70111904D02*
X184304761Y-69311904D01*
X184609523Y-69311904D01*
X184685714Y-69350000D01*
X184723809Y-69388095D01*
X184761904Y-69464285D01*
X184761904Y-69578571D01*
X184723809Y-69654761D01*
X184685714Y-69692857D01*
X184609523Y-69730952D01*
X184304761Y-69730952D01*
X185485714Y-70111904D02*
X185104761Y-70111904D01*
X185104761Y-69311904D01*
X185714285Y-69883333D02*
X186095238Y-69883333D01*
X185638095Y-70111904D02*
X185904761Y-69311904D01*
X186171428Y-70111904D01*
X186590476Y-69730952D02*
X186590476Y-70111904D01*
X186323809Y-69311904D02*
X186590476Y-69730952D01*
X186857142Y-69311904D01*
X187695238Y-70073809D02*
X187809523Y-70111904D01*
X188000000Y-70111904D01*
X188076190Y-70073809D01*
X188114285Y-70035714D01*
X188152380Y-69959523D01*
X188152380Y-69883333D01*
X188114285Y-69807142D01*
X188076190Y-69769047D01*
X188000000Y-69730952D01*
X187847619Y-69692857D01*
X187771428Y-69654761D01*
X187733333Y-69616666D01*
X187695238Y-69540476D01*
X187695238Y-69464285D01*
X187733333Y-69388095D01*
X187771428Y-69350000D01*
X187847619Y-69311904D01*
X188038095Y-69311904D01*
X188152380Y-69350000D01*
X188495238Y-70111904D02*
X188495238Y-69311904D01*
X188876190Y-70111904D02*
X188876190Y-69311904D01*
X189066666Y-69311904D01*
X189180952Y-69350000D01*
X189257142Y-69426190D01*
X189295238Y-69502380D01*
X189333333Y-69654761D01*
X189333333Y-69769047D01*
X189295238Y-69921428D01*
X189257142Y-69997619D01*
X189180952Y-70073809D01*
X189066666Y-70111904D01*
X188876190Y-70111904D01*
X189676190Y-69692857D02*
X189942857Y-69692857D01*
X190057142Y-70111904D02*
X189676190Y-70111904D01*
X189676190Y-69311904D01*
X190057142Y-69311904D01*
X190323809Y-70416666D02*
X190361904Y-70378571D01*
X190438095Y-70264285D01*
X190476190Y-70188095D01*
X190514285Y-70073809D01*
X190552380Y-69883333D01*
X190552380Y-69730952D01*
X190514285Y-69540476D01*
X190476190Y-69426190D01*
X190438095Y-69350000D01*
X190361904Y-69235714D01*
X190323809Y-69197619D01*
D13*
X127519047Y-114466666D02*
X127995238Y-114466666D01*
X127423809Y-114752380D02*
X127757142Y-113752380D01*
X128090476Y-114752380D01*
X128852380Y-114752380D02*
X128852380Y-113752380D01*
X128852380Y-114704761D02*
X128757142Y-114752380D01*
X128566666Y-114752380D01*
X128471428Y-114704761D01*
X128423809Y-114657142D01*
X128376190Y-114561904D01*
X128376190Y-114276190D01*
X128423809Y-114180952D01*
X128471428Y-114133333D01*
X128566666Y-114085714D01*
X128757142Y-114085714D01*
X128852380Y-114133333D01*
X129757142Y-114752380D02*
X129757142Y-114228571D01*
X129709523Y-114133333D01*
X129614285Y-114085714D01*
X129423809Y-114085714D01*
X129328571Y-114133333D01*
X129757142Y-114704761D02*
X129661904Y-114752380D01*
X129423809Y-114752380D01*
X129328571Y-114704761D01*
X129280952Y-114609523D01*
X129280952Y-114514285D01*
X129328571Y-114419047D01*
X129423809Y-114371428D01*
X129661904Y-114371428D01*
X129757142Y-114323809D01*
X130090476Y-114085714D02*
X130471428Y-114085714D01*
X130233333Y-114752380D02*
X130233333Y-113895238D01*
X130280952Y-113800000D01*
X130376190Y-113752380D01*
X130471428Y-113752380D01*
X130804761Y-114752380D02*
X130804761Y-114085714D01*
X130804761Y-114276190D02*
X130852380Y-114180952D01*
X130900000Y-114133333D01*
X130995238Y-114085714D01*
X131090476Y-114085714D01*
X131852380Y-114085714D02*
X131852380Y-114752380D01*
X131423809Y-114085714D02*
X131423809Y-114609523D01*
X131471428Y-114704761D01*
X131566666Y-114752380D01*
X131709523Y-114752380D01*
X131804761Y-114704761D01*
X131852380Y-114657142D01*
X132328571Y-114752380D02*
X132328571Y-114085714D01*
X132328571Y-113752380D02*
X132280952Y-113800000D01*
X132328571Y-113847619D01*
X132376190Y-113800000D01*
X132328571Y-113752380D01*
X132328571Y-113847619D01*
X132661904Y-114085714D02*
X133042857Y-114085714D01*
X132804761Y-113752380D02*
X132804761Y-114609523D01*
X132852380Y-114704761D01*
X132947619Y-114752380D01*
X133042857Y-114752380D01*
X134661904Y-114752380D02*
X134090476Y-114752380D01*
X134376190Y-114752380D02*
X134376190Y-113752380D01*
X134280952Y-113895238D01*
X134185714Y-113990476D01*
X134090476Y-114038095D01*
X135090476Y-114657142D02*
X135138095Y-114704761D01*
X135090476Y-114752380D01*
X135042857Y-114704761D01*
X135090476Y-114657142D01*
X135090476Y-114752380D01*
X135519047Y-113847619D02*
X135566666Y-113800000D01*
X135661904Y-113752380D01*
X135900000Y-113752380D01*
X135995238Y-113800000D01*
X136042857Y-113847619D01*
X136090476Y-113942857D01*
X136090476Y-114038095D01*
X136042857Y-114180952D01*
X135471428Y-114752380D01*
X136090476Y-114752380D01*
X136519047Y-114371428D02*
X137280952Y-114371428D01*
X137757142Y-114752380D02*
X137757142Y-114085714D01*
X137757142Y-113752380D02*
X137709523Y-113800000D01*
X137757142Y-113847619D01*
X137804761Y-113800000D01*
X137757142Y-113752380D01*
X137757142Y-113847619D01*
X138233333Y-114085714D02*
X138233333Y-114752380D01*
X138233333Y-114180952D02*
X138280952Y-114133333D01*
X138376190Y-114085714D01*
X138519047Y-114085714D01*
X138614285Y-114133333D01*
X138661904Y-114228571D01*
X138661904Y-114752380D01*
X139566666Y-114704761D02*
X139471428Y-114752380D01*
X139280952Y-114752380D01*
X139185714Y-114704761D01*
X139138095Y-114657142D01*
X139090476Y-114561904D01*
X139090476Y-114276190D01*
X139138095Y-114180952D01*
X139185714Y-114133333D01*
X139280952Y-114085714D01*
X139471428Y-114085714D01*
X139566666Y-114133333D01*
X139995238Y-114752380D02*
X139995238Y-113752380D01*
X140423809Y-114752380D02*
X140423809Y-114228571D01*
X140376190Y-114133333D01*
X140280952Y-114085714D01*
X140138095Y-114085714D01*
X140042857Y-114133333D01*
X139995238Y-114180952D01*
X141566666Y-113752380D02*
X142233333Y-113752380D01*
X141804761Y-114752380D01*
X142614285Y-114371428D02*
X143376190Y-114371428D01*
X143804761Y-114704761D02*
X143947619Y-114752380D01*
X144185714Y-114752380D01*
X144280952Y-114704761D01*
X144328571Y-114657142D01*
X144376190Y-114561904D01*
X144376190Y-114466666D01*
X144328571Y-114371428D01*
X144280952Y-114323809D01*
X144185714Y-114276190D01*
X143995238Y-114228571D01*
X143900000Y-114180952D01*
X143852380Y-114133333D01*
X143804761Y-114038095D01*
X143804761Y-113942857D01*
X143852380Y-113847619D01*
X143900000Y-113800000D01*
X143995238Y-113752380D01*
X144233333Y-113752380D01*
X144376190Y-113800000D01*
X145185714Y-114704761D02*
X145090476Y-114752380D01*
X144900000Y-114752380D01*
X144804761Y-114704761D01*
X144757142Y-114609523D01*
X144757142Y-114228571D01*
X144804761Y-114133333D01*
X144900000Y-114085714D01*
X145090476Y-114085714D01*
X145185714Y-114133333D01*
X145233333Y-114228571D01*
X145233333Y-114323809D01*
X144757142Y-114419047D01*
X146090476Y-114085714D02*
X146090476Y-114895238D01*
X146042857Y-114990476D01*
X145995238Y-115038095D01*
X145900000Y-115085714D01*
X145757142Y-115085714D01*
X145661904Y-115038095D01*
X146090476Y-114704761D02*
X145995238Y-114752380D01*
X145804761Y-114752380D01*
X145709523Y-114704761D01*
X145661904Y-114657142D01*
X145614285Y-114561904D01*
X145614285Y-114276190D01*
X145661904Y-114180952D01*
X145709523Y-114133333D01*
X145804761Y-114085714D01*
X145995238Y-114085714D01*
X146090476Y-114133333D01*
X146566666Y-114752380D02*
X146566666Y-114085714D01*
X146566666Y-114180952D02*
X146614285Y-114133333D01*
X146709523Y-114085714D01*
X146852380Y-114085714D01*
X146947619Y-114133333D01*
X146995238Y-114228571D01*
X146995238Y-114752380D01*
X146995238Y-114228571D02*
X147042857Y-114133333D01*
X147138095Y-114085714D01*
X147280952Y-114085714D01*
X147376190Y-114133333D01*
X147423809Y-114228571D01*
X147423809Y-114752380D01*
X148280952Y-114704761D02*
X148185714Y-114752380D01*
X147995238Y-114752380D01*
X147900000Y-114704761D01*
X147852380Y-114609523D01*
X147852380Y-114228571D01*
X147900000Y-114133333D01*
X147995238Y-114085714D01*
X148185714Y-114085714D01*
X148280952Y-114133333D01*
X148328571Y-114228571D01*
X148328571Y-114323809D01*
X147852380Y-114419047D01*
X148757142Y-114085714D02*
X148757142Y-114752380D01*
X148757142Y-114180952D02*
X148804761Y-114133333D01*
X148900000Y-114085714D01*
X149042857Y-114085714D01*
X149138095Y-114133333D01*
X149185714Y-114228571D01*
X149185714Y-114752380D01*
X149519047Y-114085714D02*
X149900000Y-114085714D01*
X149661904Y-113752380D02*
X149661904Y-114609523D01*
X149709523Y-114704761D01*
X149804761Y-114752380D01*
X149900000Y-114752380D01*
X151471428Y-114752380D02*
X150995238Y-114752380D01*
X150995238Y-113752380D01*
X151804761Y-114228571D02*
X152138095Y-114228571D01*
X152280952Y-114752380D02*
X151804761Y-114752380D01*
X151804761Y-113752380D01*
X152280952Y-113752380D01*
X152709523Y-114752380D02*
X152709523Y-113752380D01*
X152947619Y-113752380D01*
X153090476Y-113800000D01*
X153185714Y-113895238D01*
X153233333Y-113990476D01*
X153280952Y-114180952D01*
X153280952Y-114323809D01*
X153233333Y-114514285D01*
X153185714Y-114609523D01*
X153090476Y-114704761D01*
X152947619Y-114752380D01*
X152709523Y-114752380D01*
X154471428Y-114752380D02*
X154471428Y-113752380D01*
X154471428Y-114228571D02*
X155042857Y-114228571D01*
X155042857Y-114752380D02*
X155042857Y-113752380D01*
X155376190Y-113752380D02*
X155947619Y-113752380D01*
X155661904Y-114752380D02*
X155661904Y-113752380D01*
X156804761Y-114752380D02*
X156233333Y-114752380D01*
X156519047Y-114752380D02*
X156519047Y-113752380D01*
X156423809Y-113895238D01*
X156328571Y-113990476D01*
X156233333Y-114038095D01*
X157661904Y-113752380D02*
X157471428Y-113752380D01*
X157376190Y-113800000D01*
X157328571Y-113847619D01*
X157233333Y-113990476D01*
X157185714Y-114180952D01*
X157185714Y-114561904D01*
X157233333Y-114657142D01*
X157280952Y-114704761D01*
X157376190Y-114752380D01*
X157566666Y-114752380D01*
X157661904Y-114704761D01*
X157709523Y-114657142D01*
X157757142Y-114561904D01*
X157757142Y-114323809D01*
X157709523Y-114228571D01*
X157661904Y-114180952D01*
X157566666Y-114133333D01*
X157376190Y-114133333D01*
X157280952Y-114180952D01*
X157233333Y-114228571D01*
X157185714Y-114323809D01*
X158185714Y-114752380D02*
X158185714Y-113752380D01*
X158757142Y-114752380D02*
X158328571Y-114180952D01*
X158757142Y-113752380D02*
X158185714Y-114323809D01*
X159090476Y-113752380D02*
X159709523Y-113752380D01*
X159376190Y-114133333D01*
X159519047Y-114133333D01*
X159614285Y-114180952D01*
X159661904Y-114228571D01*
X159709523Y-114323809D01*
X159709523Y-114561904D01*
X159661904Y-114657142D01*
X159614285Y-114704761D01*
X159519047Y-114752380D01*
X159233333Y-114752380D01*
X159138095Y-114704761D01*
X159090476Y-114657142D01*
X160042857Y-113752380D02*
X160661904Y-113752380D01*
X160328571Y-114133333D01*
X160471428Y-114133333D01*
X160566666Y-114180952D01*
X160614285Y-114228571D01*
X160661904Y-114323809D01*
X160661904Y-114561904D01*
X160614285Y-114657142D01*
X160566666Y-114704761D01*
X160471428Y-114752380D01*
X160185714Y-114752380D01*
X160090476Y-114704761D01*
X160042857Y-114657142D01*
X162185714Y-114228571D02*
X162328571Y-114276190D01*
X162376190Y-114323809D01*
X162423809Y-114419047D01*
X162423809Y-114561904D01*
X162376190Y-114657142D01*
X162328571Y-114704761D01*
X162233333Y-114752380D01*
X161852380Y-114752380D01*
X161852380Y-113752380D01*
X162185714Y-113752380D01*
X162280952Y-113800000D01*
X162328571Y-113847619D01*
X162376190Y-113942857D01*
X162376190Y-114038095D01*
X162328571Y-114133333D01*
X162280952Y-114180952D01*
X162185714Y-114228571D01*
X161852380Y-114228571D01*
X163280952Y-114752380D02*
X163280952Y-114228571D01*
X163233333Y-114133333D01*
X163138095Y-114085714D01*
X162947619Y-114085714D01*
X162852380Y-114133333D01*
X163280952Y-114704761D02*
X163185714Y-114752380D01*
X162947619Y-114752380D01*
X162852380Y-114704761D01*
X162804761Y-114609523D01*
X162804761Y-114514285D01*
X162852380Y-114419047D01*
X162947619Y-114371428D01*
X163185714Y-114371428D01*
X163280952Y-114323809D01*
X164185714Y-114704761D02*
X164090476Y-114752380D01*
X163900000Y-114752380D01*
X163804761Y-114704761D01*
X163757142Y-114657142D01*
X163709523Y-114561904D01*
X163709523Y-114276190D01*
X163757142Y-114180952D01*
X163804761Y-114133333D01*
X163900000Y-114085714D01*
X164090476Y-114085714D01*
X164185714Y-114133333D01*
X164614285Y-114752380D02*
X164614285Y-113752380D01*
X164709523Y-114371428D02*
X164995238Y-114752380D01*
X164995238Y-114085714D02*
X164614285Y-114466666D01*
X165423809Y-114085714D02*
X165423809Y-115085714D01*
X165423809Y-114133333D02*
X165519047Y-114085714D01*
X165709523Y-114085714D01*
X165804761Y-114133333D01*
X165852380Y-114180952D01*
X165900000Y-114276190D01*
X165900000Y-114561904D01*
X165852380Y-114657142D01*
X165804761Y-114704761D01*
X165709523Y-114752380D01*
X165519047Y-114752380D01*
X165423809Y-114704761D01*
X166757142Y-114752380D02*
X166757142Y-114228571D01*
X166709523Y-114133333D01*
X166614285Y-114085714D01*
X166423809Y-114085714D01*
X166328571Y-114133333D01*
X166757142Y-114704761D02*
X166661904Y-114752380D01*
X166423809Y-114752380D01*
X166328571Y-114704761D01*
X166280952Y-114609523D01*
X166280952Y-114514285D01*
X166328571Y-114419047D01*
X166423809Y-114371428D01*
X166661904Y-114371428D01*
X166757142Y-114323809D01*
X167661904Y-114704761D02*
X167566666Y-114752380D01*
X167376190Y-114752380D01*
X167280952Y-114704761D01*
X167233333Y-114657142D01*
X167185714Y-114561904D01*
X167185714Y-114276190D01*
X167233333Y-114180952D01*
X167280952Y-114133333D01*
X167376190Y-114085714D01*
X167566666Y-114085714D01*
X167661904Y-114133333D01*
X168090476Y-114752380D02*
X168090476Y-113752380D01*
X168185714Y-114371428D02*
X168471428Y-114752380D01*
X168471428Y-114085714D02*
X168090476Y-114466666D01*
X169661904Y-114752380D02*
X169661904Y-113752380D01*
X170042857Y-113752380D01*
X170138095Y-113800000D01*
X170185714Y-113847619D01*
X170233333Y-113942857D01*
X170233333Y-114085714D01*
X170185714Y-114180952D01*
X170138095Y-114228571D01*
X170042857Y-114276190D01*
X169661904Y-114276190D01*
X170661904Y-114752380D02*
X170661904Y-113752380D01*
X171138095Y-114752380D02*
X171138095Y-113752380D01*
X171376190Y-113752380D01*
X171519047Y-113800000D01*
X171614285Y-113895238D01*
X171661904Y-113990476D01*
X171709523Y-114180952D01*
X171709523Y-114323809D01*
X171661904Y-114514285D01*
X171614285Y-114609523D01*
X171519047Y-114704761D01*
X171376190Y-114752380D01*
X171138095Y-114752380D01*
X172852380Y-114085714D02*
X173566666Y-114085714D01*
X173138095Y-113657142D02*
X172852380Y-114942857D01*
X173471428Y-114514285D02*
X172757142Y-114514285D01*
X173185714Y-114942857D02*
X173471428Y-113657142D01*
X174423809Y-114752380D02*
X173852380Y-114752380D01*
X174138095Y-114752380D02*
X174138095Y-113752380D01*
X174042857Y-113895238D01*
X173947619Y-113990476D01*
X173852380Y-114038095D01*
X174804761Y-113847619D02*
X174852380Y-113800000D01*
X174947619Y-113752380D01*
X175185714Y-113752380D01*
X175280952Y-113800000D01*
X175328571Y-113847619D01*
X175376190Y-113942857D01*
X175376190Y-114038095D01*
X175328571Y-114180952D01*
X174757142Y-114752380D01*
X175376190Y-114752380D01*
X175709523Y-113752380D02*
X176376190Y-113752380D01*
X175947619Y-114752380D01*
X177280952Y-114752380D02*
X176709523Y-114752380D01*
X176995238Y-114752380D02*
X176995238Y-113752380D01*
X176900000Y-113895238D01*
X176804761Y-113990476D01*
X176709523Y-114038095D01*
D14*
X146581904Y-70211190D02*
X146748571Y-70711190D01*
X146915238Y-70211190D01*
X146962857Y-70758809D02*
X147343809Y-70758809D01*
X147462857Y-70711190D02*
X147462857Y-70211190D01*
X147796190Y-70211190D02*
X147891428Y-70211190D01*
X147939047Y-70235000D01*
X147986666Y-70282619D01*
X148010476Y-70377857D01*
X148010476Y-70544523D01*
X147986666Y-70639761D01*
X147939047Y-70687380D01*
X147891428Y-70711190D01*
X147796190Y-70711190D01*
X147748571Y-70687380D01*
X147700952Y-70639761D01*
X147677142Y-70544523D01*
X147677142Y-70377857D01*
X147700952Y-70282619D01*
X147748571Y-70235000D01*
X147796190Y-70211190D01*
X149217142Y-70520714D02*
X149598095Y-70520714D01*
X149407619Y-70711190D02*
X149407619Y-70330238D01*
X150074285Y-70211190D02*
X149836190Y-70211190D01*
X149812380Y-70449285D01*
X149836190Y-70425476D01*
X149883809Y-70401666D01*
X150002857Y-70401666D01*
X150050476Y-70425476D01*
X150074285Y-70449285D01*
X150098095Y-70496904D01*
X150098095Y-70615952D01*
X150074285Y-70663571D01*
X150050476Y-70687380D01*
X150002857Y-70711190D01*
X149883809Y-70711190D01*
X149836190Y-70687380D01*
X149812380Y-70663571D01*
X150240952Y-70211190D02*
X150407619Y-70711190D01*
X150574285Y-70211190D01*
X156884761Y-70687380D02*
X156956190Y-70711190D01*
X157075238Y-70711190D01*
X157122857Y-70687380D01*
X157146666Y-70663571D01*
X157170476Y-70615952D01*
X157170476Y-70568333D01*
X157146666Y-70520714D01*
X157122857Y-70496904D01*
X157075238Y-70473095D01*
X156980000Y-70449285D01*
X156932380Y-70425476D01*
X156908571Y-70401666D01*
X156884761Y-70354047D01*
X156884761Y-70306428D01*
X156908571Y-70258809D01*
X156932380Y-70235000D01*
X156980000Y-70211190D01*
X157099047Y-70211190D01*
X157170476Y-70235000D01*
X157670476Y-70663571D02*
X157646666Y-70687380D01*
X157575238Y-70711190D01*
X157527619Y-70711190D01*
X157456190Y-70687380D01*
X157408571Y-70639761D01*
X157384761Y-70592142D01*
X157360952Y-70496904D01*
X157360952Y-70425476D01*
X157384761Y-70330238D01*
X157408571Y-70282619D01*
X157456190Y-70235000D01*
X157527619Y-70211190D01*
X157575238Y-70211190D01*
X157646666Y-70235000D01*
X157670476Y-70258809D01*
X158122857Y-70711190D02*
X157884761Y-70711190D01*
X157884761Y-70211190D01*
X154332857Y-70687380D02*
X154404285Y-70711190D01*
X154523333Y-70711190D01*
X154570952Y-70687380D01*
X154594761Y-70663571D01*
X154618571Y-70615952D01*
X154618571Y-70568333D01*
X154594761Y-70520714D01*
X154570952Y-70496904D01*
X154523333Y-70473095D01*
X154428095Y-70449285D01*
X154380476Y-70425476D01*
X154356666Y-70401666D01*
X154332857Y-70354047D01*
X154332857Y-70306428D01*
X154356666Y-70258809D01*
X154380476Y-70235000D01*
X154428095Y-70211190D01*
X154547142Y-70211190D01*
X154618571Y-70235000D01*
X154832857Y-70711190D02*
X154832857Y-70211190D01*
X154951904Y-70211190D01*
X155023333Y-70235000D01*
X155070952Y-70282619D01*
X155094761Y-70330238D01*
X155118571Y-70425476D01*
X155118571Y-70496904D01*
X155094761Y-70592142D01*
X155070952Y-70639761D01*
X155023333Y-70687380D01*
X154951904Y-70711190D01*
X154832857Y-70711190D01*
X155309047Y-70568333D02*
X155547142Y-70568333D01*
X155261428Y-70711190D02*
X155428095Y-70211190D01*
X155594761Y-70711190D01*
X152019047Y-70235000D02*
X151971428Y-70211190D01*
X151900000Y-70211190D01*
X151828571Y-70235000D01*
X151780952Y-70282619D01*
X151757142Y-70330238D01*
X151733333Y-70425476D01*
X151733333Y-70496904D01*
X151757142Y-70592142D01*
X151780952Y-70639761D01*
X151828571Y-70687380D01*
X151900000Y-70711190D01*
X151947619Y-70711190D01*
X152019047Y-70687380D01*
X152042857Y-70663571D01*
X152042857Y-70496904D01*
X151947619Y-70496904D01*
X152257142Y-70711190D02*
X152257142Y-70211190D01*
X152542857Y-70711190D01*
X152542857Y-70211190D01*
X152780952Y-70711190D02*
X152780952Y-70211190D01*
X152900000Y-70211190D01*
X152971428Y-70235000D01*
X153019047Y-70282619D01*
X153042857Y-70330238D01*
X153066666Y-70425476D01*
X153066666Y-70496904D01*
X153042857Y-70592142D01*
X153019047Y-70639761D01*
X152971428Y-70687380D01*
X152900000Y-70711190D01*
X152780952Y-70711190D01*
X220190476Y-80976190D02*
X220190476Y-81333333D01*
X220166666Y-81404761D01*
X220119047Y-81452380D01*
X220047619Y-81476190D01*
X220000000Y-81476190D01*
X220500000Y-80976190D02*
X220500000Y-81095238D01*
X220380952Y-81047619D02*
X220500000Y-81095238D01*
X220619047Y-81047619D01*
X220428571Y-81190476D02*
X220500000Y-81095238D01*
X220571428Y-81190476D01*
X220880952Y-80976190D02*
X220880952Y-81095238D01*
X220761904Y-81047619D02*
X220880952Y-81095238D01*
X221000000Y-81047619D01*
X220809523Y-81190476D02*
X220880952Y-81095238D01*
X220952380Y-81190476D01*
X224471428Y-92602380D02*
X224542857Y-92626190D01*
X224661904Y-92626190D01*
X224709523Y-92602380D01*
X224733333Y-92578571D01*
X224757142Y-92530952D01*
X224757142Y-92483333D01*
X224733333Y-92435714D01*
X224709523Y-92411904D01*
X224661904Y-92388095D01*
X224566666Y-92364285D01*
X224519047Y-92340476D01*
X224495238Y-92316666D01*
X224471428Y-92269047D01*
X224471428Y-92221428D01*
X224495238Y-92173809D01*
X224519047Y-92150000D01*
X224566666Y-92126190D01*
X224685714Y-92126190D01*
X224757142Y-92150000D01*
X224923809Y-92126190D02*
X225042857Y-92626190D01*
X225138095Y-92269047D01*
X225233333Y-92626190D01*
X225352380Y-92126190D01*
X221092857Y-94364285D02*
X221164285Y-94388095D01*
X221188095Y-94411904D01*
X221211904Y-94459523D01*
X221211904Y-94530952D01*
X221188095Y-94578571D01*
X221164285Y-94602380D01*
X221116666Y-94626190D01*
X220926190Y-94626190D01*
X220926190Y-94126190D01*
X221092857Y-94126190D01*
X221140476Y-94150000D01*
X221164285Y-94173809D01*
X221188095Y-94221428D01*
X221188095Y-94269047D01*
X221164285Y-94316666D01*
X221140476Y-94340476D01*
X221092857Y-94364285D01*
X220926190Y-94364285D01*
X221402380Y-94483333D02*
X221640476Y-94483333D01*
X221354761Y-94626190D02*
X221521428Y-94126190D01*
X221688095Y-94626190D01*
X222140476Y-94626190D02*
X221973809Y-94388095D01*
X221854761Y-94626190D02*
X221854761Y-94126190D01*
X222045238Y-94126190D01*
X222092857Y-94150000D01*
X222116666Y-94173809D01*
X222140476Y-94221428D01*
X222140476Y-94292857D01*
X222116666Y-94340476D01*
X222092857Y-94364285D01*
X222045238Y-94388095D01*
X221854761Y-94388095D01*
X222640476Y-94626190D02*
X222473809Y-94388095D01*
X222354761Y-94626190D02*
X222354761Y-94126190D01*
X222545238Y-94126190D01*
X222592857Y-94150000D01*
X222616666Y-94173809D01*
X222640476Y-94221428D01*
X222640476Y-94292857D01*
X222616666Y-94340476D01*
X222592857Y-94364285D01*
X222545238Y-94388095D01*
X222354761Y-94388095D01*
X222854761Y-94364285D02*
X223021428Y-94364285D01*
X223092857Y-94626190D02*
X222854761Y-94626190D01*
X222854761Y-94126190D01*
X223092857Y-94126190D01*
X223545238Y-94626190D02*
X223307142Y-94626190D01*
X223307142Y-94126190D01*
X214588095Y-89226190D02*
X214588095Y-88726190D01*
X214778571Y-88726190D01*
X214826190Y-88750000D01*
X214850000Y-88773809D01*
X214873809Y-88821428D01*
X214873809Y-88892857D01*
X214850000Y-88940476D01*
X214826190Y-88964285D01*
X214778571Y-88988095D01*
X214588095Y-88988095D01*
X215088095Y-89226190D02*
X215088095Y-88726190D01*
X215326190Y-89226190D02*
X215326190Y-88726190D01*
X215611904Y-89226190D01*
X215611904Y-88726190D01*
X218571428Y-85364285D02*
X218404761Y-85364285D01*
X218404761Y-85626190D02*
X218404761Y-85126190D01*
X218642857Y-85126190D01*
X219119047Y-85626190D02*
X218952380Y-85388095D01*
X218833333Y-85626190D02*
X218833333Y-85126190D01*
X219023809Y-85126190D01*
X219071428Y-85150000D01*
X219095238Y-85173809D01*
X219119047Y-85221428D01*
X219119047Y-85292857D01*
X219095238Y-85340476D01*
X219071428Y-85364285D01*
X219023809Y-85388095D01*
X218833333Y-85388095D01*
X219428571Y-85126190D02*
X219523809Y-85126190D01*
X219571428Y-85150000D01*
X219619047Y-85197619D01*
X219642857Y-85292857D01*
X219642857Y-85459523D01*
X219619047Y-85554761D01*
X219571428Y-85602380D01*
X219523809Y-85626190D01*
X219428571Y-85626190D01*
X219380952Y-85602380D01*
X219333333Y-85554761D01*
X219309523Y-85459523D01*
X219309523Y-85292857D01*
X219333333Y-85197619D01*
X219380952Y-85150000D01*
X219428571Y-85126190D01*
X219857142Y-85626190D02*
X219857142Y-85126190D01*
X220142857Y-85626190D01*
X220142857Y-85126190D01*
X220309523Y-85126190D02*
X220595238Y-85126190D01*
X220452380Y-85626190D02*
X220452380Y-85126190D01*
X221071428Y-85126190D02*
X221238095Y-85626190D01*
X221404761Y-85126190D01*
X221571428Y-85626190D02*
X221571428Y-85126190D01*
X221809523Y-85364285D02*
X221976190Y-85364285D01*
X222047619Y-85626190D02*
X221809523Y-85626190D01*
X221809523Y-85126190D01*
X222047619Y-85126190D01*
X222214285Y-85126190D02*
X222333333Y-85626190D01*
X222428571Y-85269047D01*
X222523809Y-85626190D01*
X222642857Y-85126190D01*
X218747619Y-96926190D02*
X218747619Y-96426190D01*
X218914285Y-96783333D01*
X219080952Y-96426190D01*
X219080952Y-96926190D01*
X219580952Y-96926190D02*
X219295238Y-96926190D01*
X219438095Y-96926190D02*
X219438095Y-96426190D01*
X219390476Y-96497619D01*
X219342857Y-96545238D01*
X219295238Y-96569047D01*
X219747619Y-96426190D02*
X220057142Y-96426190D01*
X219890476Y-96616666D01*
X219961904Y-96616666D01*
X220009523Y-96640476D01*
X220033333Y-96664285D01*
X220057142Y-96711904D01*
X220057142Y-96830952D01*
X220033333Y-96878571D01*
X220009523Y-96902380D01*
X219961904Y-96926190D01*
X219819047Y-96926190D01*
X219771428Y-96902380D01*
X219747619Y-96878571D01*
X220795238Y-97116666D02*
X220771428Y-97092857D01*
X220723809Y-97021428D01*
X220700000Y-96973809D01*
X220676190Y-96902380D01*
X220652380Y-96783333D01*
X220652380Y-96688095D01*
X220676190Y-96569047D01*
X220700000Y-96497619D01*
X220723809Y-96450000D01*
X220771428Y-96378571D01*
X220795238Y-96354761D01*
X221080952Y-96426190D02*
X221128571Y-96426190D01*
X221176190Y-96450000D01*
X221200000Y-96473809D01*
X221223809Y-96521428D01*
X221247619Y-96616666D01*
X221247619Y-96735714D01*
X221223809Y-96830952D01*
X221200000Y-96878571D01*
X221176190Y-96902380D01*
X221128571Y-96926190D01*
X221080952Y-96926190D01*
X221033333Y-96902380D01*
X221009523Y-96878571D01*
X220985714Y-96830952D01*
X220961904Y-96735714D01*
X220961904Y-96616666D01*
X220985714Y-96521428D01*
X221009523Y-96473809D01*
X221033333Y-96450000D01*
X221080952Y-96426190D01*
X221461904Y-96878571D02*
X221485714Y-96902380D01*
X221461904Y-96926190D01*
X221438095Y-96902380D01*
X221461904Y-96878571D01*
X221461904Y-96926190D01*
X221938095Y-96426190D02*
X221700000Y-96426190D01*
X221676190Y-96664285D01*
X221700000Y-96640476D01*
X221747619Y-96616666D01*
X221866666Y-96616666D01*
X221914285Y-96640476D01*
X221938095Y-96664285D01*
X221961904Y-96711904D01*
X221961904Y-96830952D01*
X221938095Y-96878571D01*
X221914285Y-96902380D01*
X221866666Y-96926190D01*
X221747619Y-96926190D01*
X221700000Y-96902380D01*
X221676190Y-96878571D01*
X222152380Y-96426190D02*
X222152380Y-96521428D01*
X222342857Y-96426190D02*
X222342857Y-96521428D01*
X222509523Y-97116666D02*
X222533333Y-97092857D01*
X222580952Y-97021428D01*
X222604761Y-96973809D01*
X222628571Y-96902380D01*
X222652380Y-96783333D01*
X222652380Y-96688095D01*
X222628571Y-96569047D01*
X222604761Y-96497619D01*
X222580952Y-96450000D01*
X222533333Y-96378571D01*
X222509523Y-96354761D01*
D12*
X131625714Y-39731904D02*
X131625714Y-38931904D01*
X131892381Y-39503333D01*
X132159048Y-38931904D01*
X132159048Y-39731904D01*
X132463810Y-38931904D02*
X132959048Y-38931904D01*
X132692381Y-39236666D01*
X132806667Y-39236666D01*
X132882857Y-39274761D01*
X132920953Y-39312857D01*
X132959048Y-39389047D01*
X132959048Y-39579523D01*
X132920953Y-39655714D01*
X132882857Y-39693809D01*
X132806667Y-39731904D01*
X132578095Y-39731904D01*
X132501905Y-39693809D01*
X132463810Y-39655714D01*
X134217381Y-39198571D02*
X134217381Y-39731904D01*
X134026905Y-38893809D02*
X133836429Y-39465238D01*
X134331667Y-39465238D01*
X134636429Y-39427142D02*
X135245953Y-39427142D01*
X135893572Y-39312857D02*
X136007857Y-39350952D01*
X136045953Y-39389047D01*
X136084048Y-39465238D01*
X136084048Y-39579523D01*
X136045953Y-39655714D01*
X136007857Y-39693809D01*
X135931667Y-39731904D01*
X135626905Y-39731904D01*
X135626905Y-38931904D01*
X135893572Y-38931904D01*
X135969762Y-38970000D01*
X136007857Y-39008095D01*
X136045953Y-39084285D01*
X136045953Y-39160476D01*
X136007857Y-39236666D01*
X135969762Y-39274761D01*
X135893572Y-39312857D01*
X135626905Y-39312857D01*
X136426905Y-39731904D02*
X136426905Y-39198571D01*
X136426905Y-38931904D02*
X136388810Y-38970000D01*
X136426905Y-39008095D01*
X136465000Y-38970000D01*
X136426905Y-38931904D01*
X136426905Y-39008095D01*
X136693572Y-39198571D02*
X136998334Y-39198571D01*
X136807857Y-38931904D02*
X136807857Y-39617619D01*
X136845953Y-39693809D01*
X136922143Y-39731904D01*
X136998334Y-39731904D01*
X137074524Y-39808095D02*
X137684048Y-39808095D01*
X138255476Y-39731904D02*
X137874524Y-39731904D01*
X137874524Y-38931904D01*
X138826905Y-39693809D02*
X138750714Y-39731904D01*
X138598334Y-39731904D01*
X138522143Y-39693809D01*
X138484048Y-39617619D01*
X138484048Y-39312857D01*
X138522143Y-39236666D01*
X138598334Y-39198571D01*
X138750714Y-39198571D01*
X138826905Y-39236666D01*
X138865000Y-39312857D01*
X138865000Y-39389047D01*
X138484048Y-39465238D01*
X139131667Y-39198571D02*
X139322143Y-39731904D01*
X139512619Y-39198571D01*
X140122143Y-39693809D02*
X140045953Y-39731904D01*
X139893572Y-39731904D01*
X139817381Y-39693809D01*
X139779286Y-39617619D01*
X139779286Y-39312857D01*
X139817381Y-39236666D01*
X139893572Y-39198571D01*
X140045953Y-39198571D01*
X140122143Y-39236666D01*
X140160238Y-39312857D01*
X140160238Y-39389047D01*
X139779286Y-39465238D01*
X140617381Y-39731904D02*
X140541191Y-39693809D01*
X140503095Y-39617619D01*
X140503095Y-38931904D01*
X140731667Y-39808095D02*
X141341191Y-39808095D01*
X141988810Y-39655714D02*
X141950714Y-39693809D01*
X141836429Y-39731904D01*
X141760238Y-39731904D01*
X141645953Y-39693809D01*
X141569762Y-39617619D01*
X141531667Y-39541428D01*
X141493572Y-39389047D01*
X141493572Y-39274761D01*
X141531667Y-39122380D01*
X141569762Y-39046190D01*
X141645953Y-38970000D01*
X141760238Y-38931904D01*
X141836429Y-38931904D01*
X141950714Y-38970000D01*
X141988810Y-39008095D01*
X142445953Y-39731904D02*
X142369762Y-39693809D01*
X142331667Y-39655714D01*
X142293572Y-39579523D01*
X142293572Y-39350952D01*
X142331667Y-39274761D01*
X142369762Y-39236666D01*
X142445953Y-39198571D01*
X142560238Y-39198571D01*
X142636429Y-39236666D01*
X142674524Y-39274761D01*
X142712619Y-39350952D01*
X142712619Y-39579523D01*
X142674524Y-39655714D01*
X142636429Y-39693809D01*
X142560238Y-39731904D01*
X142445953Y-39731904D01*
X143055476Y-39198571D02*
X143055476Y-39731904D01*
X143055476Y-39274761D02*
X143093572Y-39236666D01*
X143169762Y-39198571D01*
X143284048Y-39198571D01*
X143360238Y-39236666D01*
X143398334Y-39312857D01*
X143398334Y-39731904D01*
X143703095Y-39198571D02*
X143893572Y-39731904D01*
X144084048Y-39198571D01*
X144693572Y-39693809D02*
X144617381Y-39731904D01*
X144465000Y-39731904D01*
X144388810Y-39693809D01*
X144350714Y-39617619D01*
X144350714Y-39312857D01*
X144388810Y-39236666D01*
X144465000Y-39198571D01*
X144617381Y-39198571D01*
X144693572Y-39236666D01*
X144731667Y-39312857D01*
X144731667Y-39389047D01*
X144350714Y-39465238D01*
X145074524Y-39731904D02*
X145074524Y-39198571D01*
X145074524Y-39350952D02*
X145112619Y-39274761D01*
X145150714Y-39236666D01*
X145226905Y-39198571D01*
X145303095Y-39198571D01*
X145455476Y-39198571D02*
X145760238Y-39198571D01*
X145569762Y-38931904D02*
X145569762Y-39617619D01*
X145607857Y-39693809D01*
X145684048Y-39731904D01*
X145760238Y-39731904D01*
X146331667Y-39693809D02*
X146255476Y-39731904D01*
X146103095Y-39731904D01*
X146026905Y-39693809D01*
X145988810Y-39617619D01*
X145988810Y-39312857D01*
X146026905Y-39236666D01*
X146103095Y-39198571D01*
X146255476Y-39198571D01*
X146331667Y-39236666D01*
X146369762Y-39312857D01*
X146369762Y-39389047D01*
X145988810Y-39465238D01*
X146712619Y-39731904D02*
X146712619Y-39198571D01*
X146712619Y-39350952D02*
X146750714Y-39274761D01*
X146788810Y-39236666D01*
X146865000Y-39198571D01*
X146941191Y-39198571D01*
X147017381Y-39808095D02*
X147626905Y-39808095D01*
X147741191Y-38931904D02*
X148274524Y-38931904D01*
X147931667Y-39731904D01*
X148960238Y-38931904D02*
X148579286Y-38931904D01*
X148541191Y-39312857D01*
X148579286Y-39274761D01*
X148655476Y-39236666D01*
X148845953Y-39236666D01*
X148922143Y-39274761D01*
X148960238Y-39312857D01*
X148998334Y-39389047D01*
X148998334Y-39579523D01*
X148960238Y-39655714D01*
X148922143Y-39693809D01*
X148845953Y-39731904D01*
X148655476Y-39731904D01*
X148579286Y-39693809D01*
X148541191Y-39655714D01*
X149265000Y-38931904D02*
X149798334Y-38931904D01*
X149455476Y-39731904D01*
X148418571Y-52736190D02*
X148951904Y-52736190D01*
X148113809Y-52926666D02*
X148685238Y-53117142D01*
X148685238Y-52621904D01*
X148532857Y-51440952D02*
X148570952Y-51326666D01*
X148609047Y-51288571D01*
X148685238Y-51250476D01*
X148799523Y-51250476D01*
X148875714Y-51288571D01*
X148913809Y-51326666D01*
X148951904Y-51402857D01*
X148951904Y-51707619D01*
X148151904Y-51707619D01*
X148151904Y-51440952D01*
X148190000Y-51364761D01*
X148228095Y-51326666D01*
X148304285Y-51288571D01*
X148380476Y-51288571D01*
X148456666Y-51326666D01*
X148494761Y-51364761D01*
X148532857Y-51440952D01*
X148532857Y-51707619D01*
X148951904Y-50907619D02*
X148418571Y-50907619D01*
X148151904Y-50907619D02*
X148190000Y-50945714D01*
X148228095Y-50907619D01*
X148190000Y-50869523D01*
X148151904Y-50907619D01*
X148228095Y-50907619D01*
X148647142Y-50526666D02*
X148647142Y-49917142D01*
X148951904Y-49536190D02*
X148151904Y-49536190D01*
X148151904Y-49345714D01*
X148190000Y-49231428D01*
X148266190Y-49155238D01*
X148342380Y-49117142D01*
X148494761Y-49079047D01*
X148609047Y-49079047D01*
X148761428Y-49117142D01*
X148837619Y-49155238D01*
X148913809Y-49231428D01*
X148951904Y-49345714D01*
X148951904Y-49536190D01*
X148951904Y-48736190D02*
X148418571Y-48736190D01*
X148151904Y-48736190D02*
X148190000Y-48774285D01*
X148228095Y-48736190D01*
X148190000Y-48698095D01*
X148151904Y-48736190D01*
X148228095Y-48736190D01*
X148951904Y-48355238D02*
X148418571Y-48355238D01*
X148570952Y-48355238D02*
X148494761Y-48317142D01*
X148456666Y-48279047D01*
X148418571Y-48202857D01*
X148418571Y-48126666D01*
X148913809Y-47555238D02*
X148951904Y-47631428D01*
X148951904Y-47783809D01*
X148913809Y-47860000D01*
X148837619Y-47898095D01*
X148532857Y-47898095D01*
X148456666Y-47860000D01*
X148418571Y-47783809D01*
X148418571Y-47631428D01*
X148456666Y-47555238D01*
X148532857Y-47517142D01*
X148609047Y-47517142D01*
X148685238Y-47898095D01*
X148913809Y-46831428D02*
X148951904Y-46907619D01*
X148951904Y-47060000D01*
X148913809Y-47136190D01*
X148875714Y-47174285D01*
X148799523Y-47212380D01*
X148570952Y-47212380D01*
X148494761Y-47174285D01*
X148456666Y-47136190D01*
X148418571Y-47060000D01*
X148418571Y-46907619D01*
X148456666Y-46831428D01*
X148418571Y-46602857D02*
X148418571Y-46298095D01*
X148151904Y-46488571D02*
X148837619Y-46488571D01*
X148913809Y-46450476D01*
X148951904Y-46374285D01*
X148951904Y-46298095D01*
X148951904Y-46031428D02*
X148418571Y-46031428D01*
X148151904Y-46031428D02*
X148190000Y-46069523D01*
X148228095Y-46031428D01*
X148190000Y-45993333D01*
X148151904Y-46031428D01*
X148228095Y-46031428D01*
X148951904Y-45536190D02*
X148913809Y-45612380D01*
X148875714Y-45650476D01*
X148799523Y-45688571D01*
X148570952Y-45688571D01*
X148494761Y-45650476D01*
X148456666Y-45612380D01*
X148418571Y-45536190D01*
X148418571Y-45421904D01*
X148456666Y-45345714D01*
X148494761Y-45307619D01*
X148570952Y-45269523D01*
X148799523Y-45269523D01*
X148875714Y-45307619D01*
X148913809Y-45345714D01*
X148951904Y-45421904D01*
X148951904Y-45536190D01*
X148418571Y-44926666D02*
X148951904Y-44926666D01*
X148494761Y-44926666D02*
X148456666Y-44888571D01*
X148418571Y-44812380D01*
X148418571Y-44698095D01*
X148456666Y-44621904D01*
X148532857Y-44583809D01*
X148951904Y-44583809D01*
X148951904Y-43860000D02*
X148532857Y-43860000D01*
X148456666Y-43898095D01*
X148418571Y-43974285D01*
X148418571Y-44126666D01*
X148456666Y-44202857D01*
X148913809Y-43860000D02*
X148951904Y-43936190D01*
X148951904Y-44126666D01*
X148913809Y-44202857D01*
X148837619Y-44240952D01*
X148761428Y-44240952D01*
X148685238Y-44202857D01*
X148647142Y-44126666D01*
X148647142Y-43936190D01*
X148609047Y-43860000D01*
X148951904Y-43364761D02*
X148913809Y-43440952D01*
X148837619Y-43479047D01*
X148151904Y-43479047D01*
X133711904Y-51821904D02*
X133711904Y-52202857D01*
X132911904Y-52202857D01*
X133673809Y-51250476D02*
X133711904Y-51326666D01*
X133711904Y-51479047D01*
X133673809Y-51555238D01*
X133597619Y-51593333D01*
X133292857Y-51593333D01*
X133216666Y-51555238D01*
X133178571Y-51479047D01*
X133178571Y-51326666D01*
X133216666Y-51250476D01*
X133292857Y-51212380D01*
X133369047Y-51212380D01*
X133445238Y-51593333D01*
X133178571Y-50945714D02*
X133711904Y-50755238D01*
X133178571Y-50564761D01*
X133673809Y-49955238D02*
X133711904Y-50031428D01*
X133711904Y-50183809D01*
X133673809Y-50260000D01*
X133597619Y-50298095D01*
X133292857Y-50298095D01*
X133216666Y-50260000D01*
X133178571Y-50183809D01*
X133178571Y-50031428D01*
X133216666Y-49955238D01*
X133292857Y-49917142D01*
X133369047Y-49917142D01*
X133445238Y-50298095D01*
X133711904Y-49460000D02*
X133673809Y-49536190D01*
X133597619Y-49574285D01*
X132911904Y-49574285D01*
X133673809Y-48583809D02*
X133711904Y-48469523D01*
X133711904Y-48279047D01*
X133673809Y-48202857D01*
X133635714Y-48164761D01*
X133559523Y-48126666D01*
X133483333Y-48126666D01*
X133407142Y-48164761D01*
X133369047Y-48202857D01*
X133330952Y-48279047D01*
X133292857Y-48431428D01*
X133254761Y-48507619D01*
X133216666Y-48545714D01*
X133140476Y-48583809D01*
X133064285Y-48583809D01*
X132988095Y-48545714D01*
X132950000Y-48507619D01*
X132911904Y-48431428D01*
X132911904Y-48240952D01*
X132950000Y-48126666D01*
X133711904Y-47783809D02*
X132911904Y-47783809D01*
X133711904Y-47440952D02*
X133292857Y-47440952D01*
X133216666Y-47479047D01*
X133178571Y-47555238D01*
X133178571Y-47669523D01*
X133216666Y-47745714D01*
X133254761Y-47783809D01*
X133711904Y-47060000D02*
X133178571Y-47060000D01*
X132911904Y-47060000D02*
X132950000Y-47098095D01*
X132988095Y-47060000D01*
X132950000Y-47021904D01*
X132911904Y-47060000D01*
X132988095Y-47060000D01*
X133178571Y-46793333D02*
X133178571Y-46488571D01*
X133711904Y-46679047D02*
X133026190Y-46679047D01*
X132950000Y-46640952D01*
X132911904Y-46564761D01*
X132911904Y-46488571D01*
X133178571Y-46336190D02*
X133178571Y-46031428D01*
X132911904Y-46221904D02*
X133597619Y-46221904D01*
X133673809Y-46183809D01*
X133711904Y-46107619D01*
X133711904Y-46031428D01*
X133673809Y-45460000D02*
X133711904Y-45536190D01*
X133711904Y-45688571D01*
X133673809Y-45764761D01*
X133597619Y-45802857D01*
X133292857Y-45802857D01*
X133216666Y-45764761D01*
X133178571Y-45688571D01*
X133178571Y-45536190D01*
X133216666Y-45460000D01*
X133292857Y-45421904D01*
X133369047Y-45421904D01*
X133445238Y-45802857D01*
X133711904Y-45079047D02*
X133178571Y-45079047D01*
X133330952Y-45079047D02*
X133254761Y-45040952D01*
X133216666Y-45002857D01*
X133178571Y-44926666D01*
X133178571Y-44850476D01*
X133673809Y-44621904D02*
X133711904Y-44545714D01*
X133711904Y-44393333D01*
X133673809Y-44317142D01*
X133597619Y-44279047D01*
X133559523Y-44279047D01*
X133483333Y-44317142D01*
X133445238Y-44393333D01*
X133445238Y-44507619D01*
X133407142Y-44583809D01*
X133330952Y-44621904D01*
X133292857Y-44621904D01*
X133216666Y-44583809D01*
X133178571Y-44507619D01*
X133178571Y-44393333D01*
X133216666Y-44317142D01*
X134010476Y-40875000D02*
X133934285Y-40836904D01*
X133820000Y-40836904D01*
X133705714Y-40875000D01*
X133629523Y-40951190D01*
X133591428Y-41027380D01*
X133553333Y-41179761D01*
X133553333Y-41294047D01*
X133591428Y-41446428D01*
X133629523Y-41522619D01*
X133705714Y-41598809D01*
X133820000Y-41636904D01*
X133896190Y-41636904D01*
X134010476Y-41598809D01*
X134048571Y-41560714D01*
X134048571Y-41294047D01*
X133896190Y-41294047D01*
X134391428Y-41636904D02*
X134391428Y-40836904D01*
X134848571Y-41636904D01*
X134848571Y-40836904D01*
X135229523Y-41636904D02*
X135229523Y-40836904D01*
X135420000Y-40836904D01*
X135534285Y-40875000D01*
X135610476Y-40951190D01*
X135648571Y-41027380D01*
X135686666Y-41179761D01*
X135686666Y-41294047D01*
X135648571Y-41446428D01*
X135610476Y-41522619D01*
X135534285Y-41598809D01*
X135420000Y-41636904D01*
X135229523Y-41636904D01*
X134010476Y-54845000D02*
X133934285Y-54806904D01*
X133820000Y-54806904D01*
X133705714Y-54845000D01*
X133629523Y-54921190D01*
X133591428Y-54997380D01*
X133553333Y-55149761D01*
X133553333Y-55264047D01*
X133591428Y-55416428D01*
X133629523Y-55492619D01*
X133705714Y-55568809D01*
X133820000Y-55606904D01*
X133896190Y-55606904D01*
X134010476Y-55568809D01*
X134048571Y-55530714D01*
X134048571Y-55264047D01*
X133896190Y-55264047D01*
X134391428Y-55606904D02*
X134391428Y-54806904D01*
X134848571Y-55606904D01*
X134848571Y-54806904D01*
X135229523Y-55606904D02*
X135229523Y-54806904D01*
X135420000Y-54806904D01*
X135534285Y-54845000D01*
X135610476Y-54921190D01*
X135648571Y-54997380D01*
X135686666Y-55149761D01*
X135686666Y-55264047D01*
X135648571Y-55416428D01*
X135610476Y-55492619D01*
X135534285Y-55568809D01*
X135420000Y-55606904D01*
X135229523Y-55606904D01*
X147224761Y-41636904D02*
X146843809Y-41636904D01*
X146843809Y-40836904D01*
X147377142Y-40836904D02*
X147643809Y-41636904D01*
X147910476Y-40836904D01*
X144208571Y-41408333D02*
X144589523Y-41408333D01*
X144132380Y-41636904D02*
X144399047Y-40836904D01*
X144665714Y-41636904D01*
X145351428Y-41636904D02*
X144894285Y-41636904D01*
X145122857Y-41636904D02*
X145122857Y-40836904D01*
X145046666Y-40951190D01*
X144970476Y-41027380D01*
X144894285Y-41065476D01*
X141668571Y-41408333D02*
X142049523Y-41408333D01*
X141592380Y-41636904D02*
X141859047Y-40836904D01*
X142125714Y-41636904D01*
X142354285Y-40913095D02*
X142392380Y-40875000D01*
X142468571Y-40836904D01*
X142659047Y-40836904D01*
X142735238Y-40875000D01*
X142773333Y-40913095D01*
X142811428Y-40989285D01*
X142811428Y-41065476D01*
X142773333Y-41179761D01*
X142316190Y-41636904D01*
X142811428Y-41636904D01*
X139128571Y-41408333D02*
X139509523Y-41408333D01*
X139052380Y-41636904D02*
X139319047Y-40836904D01*
X139585714Y-41636904D01*
X139776190Y-40836904D02*
X140271428Y-40836904D01*
X140004761Y-41141666D01*
X140119047Y-41141666D01*
X140195238Y-41179761D01*
X140233333Y-41217857D01*
X140271428Y-41294047D01*
X140271428Y-41484523D01*
X140233333Y-41560714D01*
X140195238Y-41598809D01*
X140119047Y-41636904D01*
X139890476Y-41636904D01*
X139814285Y-41598809D01*
X139776190Y-41560714D01*
X136588571Y-41408333D02*
X136969523Y-41408333D01*
X136512380Y-41636904D02*
X136779047Y-40836904D01*
X137045714Y-41636904D01*
X137655238Y-41103571D02*
X137655238Y-41636904D01*
X137464761Y-40798809D02*
X137274285Y-41370238D01*
X137769523Y-41370238D01*
X136836190Y-55187857D02*
X136950476Y-55225952D01*
X136988571Y-55264047D01*
X137026666Y-55340238D01*
X137026666Y-55454523D01*
X136988571Y-55530714D01*
X136950476Y-55568809D01*
X136874285Y-55606904D01*
X136569523Y-55606904D01*
X136569523Y-54806904D01*
X136836190Y-54806904D01*
X136912380Y-54845000D01*
X136950476Y-54883095D01*
X136988571Y-54959285D01*
X136988571Y-55035476D01*
X136950476Y-55111666D01*
X136912380Y-55149761D01*
X136836190Y-55187857D01*
X136569523Y-55187857D01*
X137712380Y-55073571D02*
X137712380Y-55606904D01*
X137521904Y-54768809D02*
X137331428Y-55340238D01*
X137826666Y-55340238D01*
X139376190Y-55187857D02*
X139490476Y-55225952D01*
X139528571Y-55264047D01*
X139566666Y-55340238D01*
X139566666Y-55454523D01*
X139528571Y-55530714D01*
X139490476Y-55568809D01*
X139414285Y-55606904D01*
X139109523Y-55606904D01*
X139109523Y-54806904D01*
X139376190Y-54806904D01*
X139452380Y-54845000D01*
X139490476Y-54883095D01*
X139528571Y-54959285D01*
X139528571Y-55035476D01*
X139490476Y-55111666D01*
X139452380Y-55149761D01*
X139376190Y-55187857D01*
X139109523Y-55187857D01*
X139833333Y-54806904D02*
X140328571Y-54806904D01*
X140061904Y-55111666D01*
X140176190Y-55111666D01*
X140252380Y-55149761D01*
X140290476Y-55187857D01*
X140328571Y-55264047D01*
X140328571Y-55454523D01*
X140290476Y-55530714D01*
X140252380Y-55568809D01*
X140176190Y-55606904D01*
X139947619Y-55606904D01*
X139871428Y-55568809D01*
X139833333Y-55530714D01*
X141916190Y-55187857D02*
X142030476Y-55225952D01*
X142068571Y-55264047D01*
X142106666Y-55340238D01*
X142106666Y-55454523D01*
X142068571Y-55530714D01*
X142030476Y-55568809D01*
X141954285Y-55606904D01*
X141649523Y-55606904D01*
X141649523Y-54806904D01*
X141916190Y-54806904D01*
X141992380Y-54845000D01*
X142030476Y-54883095D01*
X142068571Y-54959285D01*
X142068571Y-55035476D01*
X142030476Y-55111666D01*
X141992380Y-55149761D01*
X141916190Y-55187857D01*
X141649523Y-55187857D01*
X142411428Y-54883095D02*
X142449523Y-54845000D01*
X142525714Y-54806904D01*
X142716190Y-54806904D01*
X142792380Y-54845000D01*
X142830476Y-54883095D01*
X142868571Y-54959285D01*
X142868571Y-55035476D01*
X142830476Y-55149761D01*
X142373333Y-55606904D01*
X142868571Y-55606904D01*
X144456190Y-55187857D02*
X144570476Y-55225952D01*
X144608571Y-55264047D01*
X144646666Y-55340238D01*
X144646666Y-55454523D01*
X144608571Y-55530714D01*
X144570476Y-55568809D01*
X144494285Y-55606904D01*
X144189523Y-55606904D01*
X144189523Y-54806904D01*
X144456190Y-54806904D01*
X144532380Y-54845000D01*
X144570476Y-54883095D01*
X144608571Y-54959285D01*
X144608571Y-55035476D01*
X144570476Y-55111666D01*
X144532380Y-55149761D01*
X144456190Y-55187857D01*
X144189523Y-55187857D01*
X145408571Y-55606904D02*
X144951428Y-55606904D01*
X145180000Y-55606904D02*
X145180000Y-54806904D01*
X145103809Y-54921190D01*
X145027619Y-54997380D01*
X144951428Y-55035476D01*
X146748571Y-55606904D02*
X146748571Y-54806904D01*
X146748571Y-55187857D02*
X147205714Y-55187857D01*
X147205714Y-55606904D02*
X147205714Y-54806904D01*
X147472380Y-54806904D02*
X147739047Y-55606904D01*
X148005714Y-54806904D01*
X166357380Y-39731904D02*
X166357380Y-38931904D01*
X166624047Y-39503333D01*
X166890714Y-38931904D01*
X166890714Y-39731904D01*
X167233571Y-39008095D02*
X167271666Y-38970000D01*
X167347857Y-38931904D01*
X167538333Y-38931904D01*
X167614523Y-38970000D01*
X167652619Y-39008095D01*
X167690714Y-39084285D01*
X167690714Y-39160476D01*
X167652619Y-39274761D01*
X167195476Y-39731904D01*
X167690714Y-39731904D01*
X172930238Y-39312857D02*
X172663571Y-39312857D01*
X172663571Y-39731904D02*
X172663571Y-38931904D01*
X173044523Y-38931904D01*
X173654047Y-39693809D02*
X173577857Y-39731904D01*
X173425476Y-39731904D01*
X173349285Y-39693809D01*
X173311190Y-39617619D01*
X173311190Y-39312857D01*
X173349285Y-39236666D01*
X173425476Y-39198571D01*
X173577857Y-39198571D01*
X173654047Y-39236666D01*
X173692142Y-39312857D01*
X173692142Y-39389047D01*
X173311190Y-39465238D01*
X174377857Y-39731904D02*
X174377857Y-39312857D01*
X174339761Y-39236666D01*
X174263571Y-39198571D01*
X174111190Y-39198571D01*
X174035000Y-39236666D01*
X174377857Y-39693809D02*
X174301666Y-39731904D01*
X174111190Y-39731904D01*
X174035000Y-39693809D01*
X173996904Y-39617619D01*
X173996904Y-39541428D01*
X174035000Y-39465238D01*
X174111190Y-39427142D01*
X174301666Y-39427142D01*
X174377857Y-39389047D01*
X174644523Y-39198571D02*
X174949285Y-39198571D01*
X174758809Y-38931904D02*
X174758809Y-39617619D01*
X174796904Y-39693809D01*
X174873095Y-39731904D01*
X174949285Y-39731904D01*
X175215952Y-39731904D02*
X175215952Y-38931904D01*
X175558809Y-39731904D02*
X175558809Y-39312857D01*
X175520714Y-39236666D01*
X175444523Y-39198571D01*
X175330238Y-39198571D01*
X175254047Y-39236666D01*
X175215952Y-39274761D01*
X176244523Y-39693809D02*
X176168333Y-39731904D01*
X176015952Y-39731904D01*
X175939761Y-39693809D01*
X175901666Y-39617619D01*
X175901666Y-39312857D01*
X175939761Y-39236666D01*
X176015952Y-39198571D01*
X176168333Y-39198571D01*
X176244523Y-39236666D01*
X176282619Y-39312857D01*
X176282619Y-39389047D01*
X175901666Y-39465238D01*
X176625476Y-39731904D02*
X176625476Y-39198571D01*
X176625476Y-39350952D02*
X176663571Y-39274761D01*
X176701666Y-39236666D01*
X176777857Y-39198571D01*
X176854047Y-39198571D01*
X176930238Y-39808095D02*
X177539761Y-39808095D01*
X177730238Y-39731904D02*
X177730238Y-38931904D01*
X177996904Y-39503333D01*
X178263571Y-38931904D01*
X178263571Y-39731904D01*
X178987380Y-39198571D02*
X178987380Y-39731904D01*
X178796904Y-38893809D02*
X178606428Y-39465238D01*
X179101666Y-39465238D01*
X179215952Y-39808095D02*
X179825476Y-39808095D01*
X180015952Y-39312857D02*
X180282619Y-39312857D01*
X180396904Y-39731904D02*
X180015952Y-39731904D01*
X180015952Y-38931904D01*
X180396904Y-38931904D01*
X180663571Y-39731904D02*
X181082619Y-39198571D01*
X180663571Y-39198571D02*
X181082619Y-39731904D01*
X181387380Y-39198571D02*
X181387380Y-39998571D01*
X181387380Y-39236666D02*
X181463571Y-39198571D01*
X181615952Y-39198571D01*
X181692142Y-39236666D01*
X181730238Y-39274761D01*
X181768333Y-39350952D01*
X181768333Y-39579523D01*
X181730238Y-39655714D01*
X181692142Y-39693809D01*
X181615952Y-39731904D01*
X181463571Y-39731904D01*
X181387380Y-39693809D01*
X182111190Y-39731904D02*
X182111190Y-39198571D01*
X182111190Y-39350952D02*
X182149285Y-39274761D01*
X182187380Y-39236666D01*
X182263571Y-39198571D01*
X182339761Y-39198571D01*
X182911190Y-39693809D02*
X182835000Y-39731904D01*
X182682619Y-39731904D01*
X182606428Y-39693809D01*
X182568333Y-39617619D01*
X182568333Y-39312857D01*
X182606428Y-39236666D01*
X182682619Y-39198571D01*
X182835000Y-39198571D01*
X182911190Y-39236666D01*
X182949285Y-39312857D01*
X182949285Y-39389047D01*
X182568333Y-39465238D01*
X183254047Y-39693809D02*
X183330238Y-39731904D01*
X183482619Y-39731904D01*
X183558809Y-39693809D01*
X183596904Y-39617619D01*
X183596904Y-39579523D01*
X183558809Y-39503333D01*
X183482619Y-39465238D01*
X183368333Y-39465238D01*
X183292142Y-39427142D01*
X183254047Y-39350952D01*
X183254047Y-39312857D01*
X183292142Y-39236666D01*
X183368333Y-39198571D01*
X183482619Y-39198571D01*
X183558809Y-39236666D01*
X183901666Y-39693809D02*
X183977857Y-39731904D01*
X184130238Y-39731904D01*
X184206428Y-39693809D01*
X184244523Y-39617619D01*
X184244523Y-39579523D01*
X184206428Y-39503333D01*
X184130238Y-39465238D01*
X184015952Y-39465238D01*
X183939761Y-39427142D01*
X183901666Y-39350952D01*
X183901666Y-39312857D01*
X183939761Y-39236666D01*
X184015952Y-39198571D01*
X184130238Y-39198571D01*
X184206428Y-39236666D01*
X175095238Y-54171904D02*
X175552380Y-54171904D01*
X175323809Y-54971904D02*
X175323809Y-54171904D01*
X175971428Y-54171904D02*
X176123809Y-54171904D01*
X176200000Y-54210000D01*
X176276190Y-54286190D01*
X176314285Y-54438571D01*
X176314285Y-54705238D01*
X176276190Y-54857619D01*
X176200000Y-54933809D01*
X176123809Y-54971904D01*
X175971428Y-54971904D01*
X175895238Y-54933809D01*
X175819047Y-54857619D01*
X175780952Y-54705238D01*
X175780952Y-54438571D01*
X175819047Y-54286190D01*
X175895238Y-54210000D01*
X175971428Y-54171904D01*
X176657142Y-54971904D02*
X176657142Y-54171904D01*
X176961904Y-54171904D01*
X177038095Y-54210000D01*
X177076190Y-54248095D01*
X177114285Y-54324285D01*
X177114285Y-54438571D01*
X177076190Y-54514761D01*
X177038095Y-54552857D01*
X176961904Y-54590952D01*
X176657142Y-54590952D01*
X177952380Y-54171904D02*
X178219047Y-54971904D01*
X178485714Y-54171904D01*
X178752380Y-54971904D02*
X178752380Y-54171904D01*
X179133333Y-54552857D02*
X179400000Y-54552857D01*
X179514285Y-54971904D02*
X179133333Y-54971904D01*
X179133333Y-54171904D01*
X179514285Y-54171904D01*
X179780952Y-54171904D02*
X179971428Y-54971904D01*
X180123809Y-54400476D01*
X180276190Y-54971904D01*
X180466666Y-54171904D01*
X160680476Y-60267904D02*
X161175714Y-60267904D01*
X160909047Y-60572666D01*
X161023333Y-60572666D01*
X161099523Y-60610761D01*
X161137619Y-60648857D01*
X161175714Y-60725047D01*
X161175714Y-60915523D01*
X161137619Y-60991714D01*
X161099523Y-61029809D01*
X161023333Y-61067904D01*
X160794761Y-61067904D01*
X160718571Y-61029809D01*
X160680476Y-60991714D01*
X161404285Y-60267904D02*
X161670952Y-61067904D01*
X161937619Y-60267904D01*
X165760476Y-60306000D02*
X165684285Y-60267904D01*
X165570000Y-60267904D01*
X165455714Y-60306000D01*
X165379523Y-60382190D01*
X165341428Y-60458380D01*
X165303333Y-60610761D01*
X165303333Y-60725047D01*
X165341428Y-60877428D01*
X165379523Y-60953619D01*
X165455714Y-61029809D01*
X165570000Y-61067904D01*
X165646190Y-61067904D01*
X165760476Y-61029809D01*
X165798571Y-60991714D01*
X165798571Y-60725047D01*
X165646190Y-60725047D01*
X166141428Y-61067904D02*
X166141428Y-60267904D01*
X166598571Y-61067904D01*
X166598571Y-60267904D01*
X166979523Y-61067904D02*
X166979523Y-60267904D01*
X167170000Y-60267904D01*
X167284285Y-60306000D01*
X167360476Y-60382190D01*
X167398571Y-60458380D01*
X167436666Y-60610761D01*
X167436666Y-60725047D01*
X167398571Y-60877428D01*
X167360476Y-60953619D01*
X167284285Y-61029809D01*
X167170000Y-61067904D01*
X166979523Y-61067904D01*
X195878571Y-43757809D02*
X195992857Y-43795904D01*
X196183333Y-43795904D01*
X196259523Y-43757809D01*
X196297619Y-43719714D01*
X196335714Y-43643523D01*
X196335714Y-43567333D01*
X196297619Y-43491142D01*
X196259523Y-43453047D01*
X196183333Y-43414952D01*
X196030952Y-43376857D01*
X195954761Y-43338761D01*
X195916666Y-43300666D01*
X195878571Y-43224476D01*
X195878571Y-43148285D01*
X195916666Y-43072095D01*
X195954761Y-43034000D01*
X196030952Y-42995904D01*
X196221428Y-42995904D01*
X196335714Y-43034000D01*
X196678571Y-43795904D02*
X196678571Y-42995904D01*
X196869047Y-42995904D01*
X196983333Y-43034000D01*
X197059523Y-43110190D01*
X197097619Y-43186380D01*
X197135714Y-43338761D01*
X197135714Y-43453047D01*
X197097619Y-43605428D01*
X197059523Y-43681619D01*
X196983333Y-43757809D01*
X196869047Y-43795904D01*
X196678571Y-43795904D01*
X197440476Y-43567333D02*
X197821428Y-43567333D01*
X197364285Y-43795904D02*
X197630952Y-42995904D01*
X197897619Y-43795904D01*
X193357619Y-43757809D02*
X193471904Y-43795904D01*
X193662380Y-43795904D01*
X193738571Y-43757809D01*
X193776666Y-43719714D01*
X193814761Y-43643523D01*
X193814761Y-43567333D01*
X193776666Y-43491142D01*
X193738571Y-43453047D01*
X193662380Y-43414952D01*
X193510000Y-43376857D01*
X193433809Y-43338761D01*
X193395714Y-43300666D01*
X193357619Y-43224476D01*
X193357619Y-43148285D01*
X193395714Y-43072095D01*
X193433809Y-43034000D01*
X193510000Y-42995904D01*
X193700476Y-42995904D01*
X193814761Y-43034000D01*
X194614761Y-43719714D02*
X194576666Y-43757809D01*
X194462380Y-43795904D01*
X194386190Y-43795904D01*
X194271904Y-43757809D01*
X194195714Y-43681619D01*
X194157619Y-43605428D01*
X194119523Y-43453047D01*
X194119523Y-43338761D01*
X194157619Y-43186380D01*
X194195714Y-43110190D01*
X194271904Y-43034000D01*
X194386190Y-42995904D01*
X194462380Y-42995904D01*
X194576666Y-43034000D01*
X194614761Y-43072095D01*
X195338571Y-43795904D02*
X194957619Y-43795904D01*
X194957619Y-42995904D01*
X140265238Y-62172857D02*
X140379523Y-62210952D01*
X140417619Y-62249047D01*
X140455714Y-62325238D01*
X140455714Y-62439523D01*
X140417619Y-62515714D01*
X140379523Y-62553809D01*
X140303333Y-62591904D01*
X139998571Y-62591904D01*
X139998571Y-61791904D01*
X140265238Y-61791904D01*
X140341428Y-61830000D01*
X140379523Y-61868095D01*
X140417619Y-61944285D01*
X140417619Y-62020476D01*
X140379523Y-62096666D01*
X140341428Y-62134761D01*
X140265238Y-62172857D01*
X139998571Y-62172857D01*
X140722380Y-61791904D02*
X141255714Y-61791904D01*
X140722380Y-62591904D01*
X141255714Y-62591904D01*
X141979523Y-62591904D02*
X141522380Y-62591904D01*
X141750952Y-62591904D02*
X141750952Y-61791904D01*
X141674761Y-61906190D01*
X141598571Y-61982380D01*
X141522380Y-62020476D01*
X136455714Y-63861904D02*
X136455714Y-63061904D01*
X136760476Y-63061904D01*
X136836666Y-63100000D01*
X136874761Y-63138095D01*
X136912857Y-63214285D01*
X136912857Y-63328571D01*
X136874761Y-63404761D01*
X136836666Y-63442857D01*
X136760476Y-63480952D01*
X136455714Y-63480952D01*
X137255714Y-63861904D02*
X137255714Y-63061904D01*
X137636666Y-63442857D02*
X137903333Y-63442857D01*
X138017619Y-63861904D02*
X137636666Y-63861904D01*
X137636666Y-63061904D01*
X138017619Y-63061904D01*
X138284285Y-63061904D02*
X138817619Y-63061904D01*
X138284285Y-63861904D01*
X138817619Y-63861904D01*
X139274761Y-63061904D02*
X139427142Y-63061904D01*
X139503333Y-63100000D01*
X139579523Y-63176190D01*
X139617619Y-63328571D01*
X139617619Y-63595238D01*
X139579523Y-63747619D01*
X139503333Y-63823809D01*
X139427142Y-63861904D01*
X139274761Y-63861904D01*
X139198571Y-63823809D01*
X139122380Y-63747619D01*
X139084285Y-63595238D01*
X139084285Y-63328571D01*
X139122380Y-63176190D01*
X139198571Y-63100000D01*
X139274761Y-63061904D01*
X139770000Y-63938095D02*
X140379523Y-63938095D01*
X140531904Y-63823809D02*
X140646190Y-63861904D01*
X140836666Y-63861904D01*
X140912857Y-63823809D01*
X140950952Y-63785714D01*
X140989047Y-63709523D01*
X140989047Y-63633333D01*
X140950952Y-63557142D01*
X140912857Y-63519047D01*
X140836666Y-63480952D01*
X140684285Y-63442857D01*
X140608095Y-63404761D01*
X140570000Y-63366666D01*
X140531904Y-63290476D01*
X140531904Y-63214285D01*
X140570000Y-63138095D01*
X140608095Y-63100000D01*
X140684285Y-63061904D01*
X140874761Y-63061904D01*
X140989047Y-63100000D01*
X141331904Y-63861904D02*
X141331904Y-63061904D01*
X141636666Y-63061904D01*
X141712857Y-63100000D01*
X141750952Y-63138095D01*
X141789047Y-63214285D01*
X141789047Y-63328571D01*
X141750952Y-63404761D01*
X141712857Y-63442857D01*
X141636666Y-63480952D01*
X141331904Y-63480952D01*
X142131904Y-63442857D02*
X142398571Y-63442857D01*
X142512857Y-63861904D02*
X142131904Y-63861904D01*
X142131904Y-63061904D01*
X142512857Y-63061904D01*
X142817619Y-63633333D02*
X143198571Y-63633333D01*
X142741428Y-63861904D02*
X143008095Y-63061904D01*
X143274761Y-63861904D01*
X143541428Y-63861904D02*
X143541428Y-63061904D01*
X143998571Y-63861904D02*
X143655714Y-63404761D01*
X143998571Y-63061904D02*
X143541428Y-63519047D01*
X144341428Y-63442857D02*
X144608095Y-63442857D01*
X144722380Y-63861904D02*
X144341428Y-63861904D01*
X144341428Y-63061904D01*
X144722380Y-63061904D01*
X145522380Y-63861904D02*
X145255714Y-63480952D01*
X145065238Y-63861904D02*
X145065238Y-63061904D01*
X145370000Y-63061904D01*
X145446190Y-63100000D01*
X145484285Y-63138095D01*
X145522380Y-63214285D01*
X145522380Y-63328571D01*
X145484285Y-63404761D01*
X145446190Y-63442857D01*
X145370000Y-63480952D01*
X145065238Y-63480952D01*
X213222047Y-64331904D02*
X213222047Y-64903333D01*
X213183952Y-65017619D01*
X213107761Y-65093809D01*
X212993476Y-65131904D01*
X212917285Y-65131904D01*
X214022047Y-65131904D02*
X213564904Y-65131904D01*
X213793476Y-65131904D02*
X213793476Y-64331904D01*
X213717285Y-64446190D01*
X213641095Y-64522380D01*
X213564904Y-64560476D01*
X213374428Y-65601904D02*
X212993476Y-65601904D01*
X212955380Y-65982857D01*
X212993476Y-65944761D01*
X213069666Y-65906666D01*
X213260142Y-65906666D01*
X213336333Y-65944761D01*
X213374428Y-65982857D01*
X213412523Y-66059047D01*
X213412523Y-66249523D01*
X213374428Y-66325714D01*
X213336333Y-66363809D01*
X213260142Y-66401904D01*
X213069666Y-66401904D01*
X212993476Y-66363809D01*
X212955380Y-66325714D01*
X213641095Y-65601904D02*
X213907761Y-66401904D01*
X214174428Y-65601904D01*
X214250619Y-66478095D02*
X214860142Y-66478095D01*
X215050619Y-66401904D02*
X215050619Y-65601904D01*
X215355380Y-65601904D01*
X215431571Y-65640000D01*
X215469666Y-65678095D01*
X215507761Y-65754285D01*
X215507761Y-65868571D01*
X215469666Y-65944761D01*
X215431571Y-65982857D01*
X215355380Y-66020952D01*
X215050619Y-66020952D01*
X216003000Y-65601904D02*
X216155380Y-65601904D01*
X216231571Y-65640000D01*
X216307761Y-65716190D01*
X216345857Y-65868571D01*
X216345857Y-66135238D01*
X216307761Y-66287619D01*
X216231571Y-66363809D01*
X216155380Y-66401904D01*
X216003000Y-66401904D01*
X215926809Y-66363809D01*
X215850619Y-66287619D01*
X215812523Y-66135238D01*
X215812523Y-65868571D01*
X215850619Y-65716190D01*
X215926809Y-65640000D01*
X216003000Y-65601904D01*
X216612523Y-65601904D02*
X216803000Y-66401904D01*
X216955380Y-65830476D01*
X217107761Y-66401904D01*
X217298238Y-65601904D01*
X217603000Y-65982857D02*
X217869666Y-65982857D01*
X217983952Y-66401904D02*
X217603000Y-66401904D01*
X217603000Y-65601904D01*
X217983952Y-65601904D01*
X218783952Y-66401904D02*
X218517285Y-66020952D01*
X218326809Y-66401904D02*
X218326809Y-65601904D01*
X218631571Y-65601904D01*
X218707761Y-65640000D01*
X218745857Y-65678095D01*
X218783952Y-65754285D01*
X218783952Y-65868571D01*
X218745857Y-65944761D01*
X218707761Y-65982857D01*
X218631571Y-66020952D01*
X218326809Y-66020952D01*
X218936333Y-66478095D02*
X219545857Y-66478095D01*
X219736333Y-66401904D02*
X219736333Y-65601904D01*
X220117285Y-66401904D02*
X220117285Y-65601904D01*
X220574428Y-66401904D01*
X220574428Y-65601904D01*
X220955380Y-66401904D02*
X220955380Y-65601904D01*
X221260142Y-65601904D01*
X221336333Y-65640000D01*
X221374428Y-65678095D01*
X221412523Y-65754285D01*
X221412523Y-65868571D01*
X221374428Y-65944761D01*
X221336333Y-65982857D01*
X221260142Y-66020952D01*
X220955380Y-66020952D01*
X221755380Y-65601904D02*
X221755380Y-66249523D01*
X221793476Y-66325714D01*
X221831571Y-66363809D01*
X221907761Y-66401904D01*
X222060142Y-66401904D01*
X222136333Y-66363809D01*
X222174428Y-66325714D01*
X222212523Y-66249523D01*
X222212523Y-65601904D01*
X222479190Y-65601904D02*
X222936333Y-65601904D01*
X222707761Y-66401904D02*
X222707761Y-65601904D01*
X210636428Y-63226904D02*
X210369761Y-62845952D01*
X210179285Y-63226904D02*
X210179285Y-62426904D01*
X210484047Y-62426904D01*
X210560238Y-62465000D01*
X210598333Y-62503095D01*
X210636428Y-62579285D01*
X210636428Y-62693571D01*
X210598333Y-62769761D01*
X210560238Y-62807857D01*
X210484047Y-62845952D01*
X210179285Y-62845952D01*
X211131666Y-62426904D02*
X211284047Y-62426904D01*
X211360238Y-62465000D01*
X211436428Y-62541190D01*
X211474523Y-62693571D01*
X211474523Y-62960238D01*
X211436428Y-63112619D01*
X211360238Y-63188809D01*
X211284047Y-63226904D01*
X211131666Y-63226904D01*
X211055476Y-63188809D01*
X210979285Y-63112619D01*
X210941190Y-62960238D01*
X210941190Y-62693571D01*
X210979285Y-62541190D01*
X211055476Y-62465000D01*
X211131666Y-62426904D01*
X211703095Y-62426904D02*
X212160238Y-62426904D01*
X211931666Y-63226904D02*
X211931666Y-62426904D01*
X212388809Y-62998333D02*
X212769761Y-62998333D01*
X212312619Y-63226904D02*
X212579285Y-62426904D01*
X212845952Y-63226904D01*
X213569761Y-63226904D02*
X213303095Y-62845952D01*
X213112619Y-63226904D02*
X213112619Y-62426904D01*
X213417380Y-62426904D01*
X213493571Y-62465000D01*
X213531666Y-62503095D01*
X213569761Y-62579285D01*
X213569761Y-62693571D01*
X213531666Y-62769761D01*
X213493571Y-62807857D01*
X213417380Y-62845952D01*
X213112619Y-62845952D01*
X214065000Y-62845952D02*
X214065000Y-63226904D01*
X213798333Y-62426904D02*
X214065000Y-62845952D01*
X214331666Y-62426904D01*
X214407857Y-63303095D02*
X215017380Y-63303095D01*
X215207857Y-62807857D02*
X215474523Y-62807857D01*
X215588809Y-63226904D02*
X215207857Y-63226904D01*
X215207857Y-62426904D01*
X215588809Y-62426904D01*
X215931666Y-63226904D02*
X215931666Y-62426904D01*
X216388809Y-63226904D01*
X216388809Y-62426904D01*
X217226904Y-63150714D02*
X217188809Y-63188809D01*
X217074523Y-63226904D01*
X216998333Y-63226904D01*
X216884047Y-63188809D01*
X216807857Y-63112619D01*
X216769761Y-63036428D01*
X216731666Y-62884047D01*
X216731666Y-62769761D01*
X216769761Y-62617380D01*
X216807857Y-62541190D01*
X216884047Y-62465000D01*
X216998333Y-62426904D01*
X217074523Y-62426904D01*
X217188809Y-62465000D01*
X217226904Y-62503095D01*
X217722142Y-62426904D02*
X217874523Y-62426904D01*
X217950714Y-62465000D01*
X218026904Y-62541190D01*
X218065000Y-62693571D01*
X218065000Y-62960238D01*
X218026904Y-63112619D01*
X217950714Y-63188809D01*
X217874523Y-63226904D01*
X217722142Y-63226904D01*
X217645952Y-63188809D01*
X217569761Y-63112619D01*
X217531666Y-62960238D01*
X217531666Y-62693571D01*
X217569761Y-62541190D01*
X217645952Y-62465000D01*
X217722142Y-62426904D01*
X218407857Y-63226904D02*
X218407857Y-62426904D01*
X218598333Y-62426904D01*
X218712619Y-62465000D01*
X218788809Y-62541190D01*
X218826904Y-62617380D01*
X218865000Y-62769761D01*
X218865000Y-62884047D01*
X218826904Y-63036428D01*
X218788809Y-63112619D01*
X218712619Y-63188809D01*
X218598333Y-63226904D01*
X218407857Y-63226904D01*
X219207857Y-62807857D02*
X219474523Y-62807857D01*
X219588809Y-63226904D02*
X219207857Y-63226904D01*
X219207857Y-62426904D01*
X219588809Y-62426904D01*
X220388809Y-63226904D02*
X220122142Y-62845952D01*
X219931666Y-63226904D02*
X219931666Y-62426904D01*
X220236428Y-62426904D01*
X220312619Y-62465000D01*
X220350714Y-62503095D01*
X220388809Y-62579285D01*
X220388809Y-62693571D01*
X220350714Y-62769761D01*
X220312619Y-62807857D01*
X220236428Y-62845952D01*
X219931666Y-62845952D01*
X207670476Y-63188809D02*
X207784761Y-63226904D01*
X207975238Y-63226904D01*
X208051428Y-63188809D01*
X208089523Y-63150714D01*
X208127619Y-63074523D01*
X208127619Y-62998333D01*
X208089523Y-62922142D01*
X208051428Y-62884047D01*
X207975238Y-62845952D01*
X207822857Y-62807857D01*
X207746666Y-62769761D01*
X207708571Y-62731666D01*
X207670476Y-62655476D01*
X207670476Y-62579285D01*
X207708571Y-62503095D01*
X207746666Y-62465000D01*
X207822857Y-62426904D01*
X208013333Y-62426904D01*
X208127619Y-62465000D01*
X208889523Y-63226904D02*
X208432380Y-63226904D01*
X208660952Y-63226904D02*
X208660952Y-62426904D01*
X208584761Y-62541190D01*
X208508571Y-62617380D01*
X208432380Y-62655476D01*
X95932380Y-39761904D02*
X95932380Y-38961904D01*
X96199047Y-39533333D01*
X96465714Y-38961904D01*
X96465714Y-39761904D01*
X97265714Y-39761904D02*
X96808571Y-39761904D01*
X97037142Y-39761904D02*
X97037142Y-38961904D01*
X96960952Y-39076190D01*
X96884761Y-39152380D01*
X96808571Y-39190476D01*
X98695238Y-39342857D02*
X98428571Y-39342857D01*
X98428571Y-39761904D02*
X98428571Y-38961904D01*
X98809523Y-38961904D01*
X99419047Y-39723809D02*
X99342857Y-39761904D01*
X99190476Y-39761904D01*
X99114285Y-39723809D01*
X99076190Y-39647619D01*
X99076190Y-39342857D01*
X99114285Y-39266666D01*
X99190476Y-39228571D01*
X99342857Y-39228571D01*
X99419047Y-39266666D01*
X99457142Y-39342857D01*
X99457142Y-39419047D01*
X99076190Y-39495238D01*
X100142857Y-39761904D02*
X100142857Y-39342857D01*
X100104761Y-39266666D01*
X100028571Y-39228571D01*
X99876190Y-39228571D01*
X99800000Y-39266666D01*
X100142857Y-39723809D02*
X100066666Y-39761904D01*
X99876190Y-39761904D01*
X99800000Y-39723809D01*
X99761904Y-39647619D01*
X99761904Y-39571428D01*
X99800000Y-39495238D01*
X99876190Y-39457142D01*
X100066666Y-39457142D01*
X100142857Y-39419047D01*
X100409523Y-39228571D02*
X100714285Y-39228571D01*
X100523809Y-38961904D02*
X100523809Y-39647619D01*
X100561904Y-39723809D01*
X100638095Y-39761904D01*
X100714285Y-39761904D01*
X100980952Y-39761904D02*
X100980952Y-38961904D01*
X101323809Y-39761904D02*
X101323809Y-39342857D01*
X101285714Y-39266666D01*
X101209523Y-39228571D01*
X101095238Y-39228571D01*
X101019047Y-39266666D01*
X100980952Y-39304761D01*
X102009523Y-39723809D02*
X101933333Y-39761904D01*
X101780952Y-39761904D01*
X101704761Y-39723809D01*
X101666666Y-39647619D01*
X101666666Y-39342857D01*
X101704761Y-39266666D01*
X101780952Y-39228571D01*
X101933333Y-39228571D01*
X102009523Y-39266666D01*
X102047619Y-39342857D01*
X102047619Y-39419047D01*
X101666666Y-39495238D01*
X102390476Y-39761904D02*
X102390476Y-39228571D01*
X102390476Y-39380952D02*
X102428571Y-39304761D01*
X102466666Y-39266666D01*
X102542857Y-39228571D01*
X102619047Y-39228571D01*
X102695238Y-39838095D02*
X103304761Y-39838095D01*
X103495238Y-39761904D02*
X103495238Y-38961904D01*
X103761904Y-39533333D01*
X104028571Y-38961904D01*
X104028571Y-39761904D01*
X104752380Y-39228571D02*
X104752380Y-39761904D01*
X104561904Y-38923809D02*
X104371428Y-39495238D01*
X104866666Y-39495238D01*
X104980952Y-39838095D02*
X105590476Y-39838095D01*
X105780952Y-39342857D02*
X106047619Y-39342857D01*
X106161904Y-39761904D02*
X105780952Y-39761904D01*
X105780952Y-38961904D01*
X106161904Y-38961904D01*
X106428571Y-39761904D02*
X106847619Y-39228571D01*
X106428571Y-39228571D02*
X106847619Y-39761904D01*
X107152380Y-39228571D02*
X107152380Y-40028571D01*
X107152380Y-39266666D02*
X107228571Y-39228571D01*
X107380952Y-39228571D01*
X107457142Y-39266666D01*
X107495238Y-39304761D01*
X107533333Y-39380952D01*
X107533333Y-39609523D01*
X107495238Y-39685714D01*
X107457142Y-39723809D01*
X107380952Y-39761904D01*
X107228571Y-39761904D01*
X107152380Y-39723809D01*
X107876190Y-39761904D02*
X107876190Y-39228571D01*
X107876190Y-39380952D02*
X107914285Y-39304761D01*
X107952380Y-39266666D01*
X108028571Y-39228571D01*
X108104761Y-39228571D01*
X108676190Y-39723809D02*
X108600000Y-39761904D01*
X108447619Y-39761904D01*
X108371428Y-39723809D01*
X108333333Y-39647619D01*
X108333333Y-39342857D01*
X108371428Y-39266666D01*
X108447619Y-39228571D01*
X108600000Y-39228571D01*
X108676190Y-39266666D01*
X108714285Y-39342857D01*
X108714285Y-39419047D01*
X108333333Y-39495238D01*
X109019047Y-39723809D02*
X109095238Y-39761904D01*
X109247619Y-39761904D01*
X109323809Y-39723809D01*
X109361904Y-39647619D01*
X109361904Y-39609523D01*
X109323809Y-39533333D01*
X109247619Y-39495238D01*
X109133333Y-39495238D01*
X109057142Y-39457142D01*
X109019047Y-39380952D01*
X109019047Y-39342857D01*
X109057142Y-39266666D01*
X109133333Y-39228571D01*
X109247619Y-39228571D01*
X109323809Y-39266666D01*
X109666666Y-39723809D02*
X109742857Y-39761904D01*
X109895238Y-39761904D01*
X109971428Y-39723809D01*
X110009523Y-39647619D01*
X110009523Y-39609523D01*
X109971428Y-39533333D01*
X109895238Y-39495238D01*
X109780952Y-39495238D01*
X109704761Y-39457142D01*
X109666666Y-39380952D01*
X109666666Y-39342857D01*
X109704761Y-39266666D01*
X109780952Y-39228571D01*
X109895238Y-39228571D01*
X109971428Y-39266666D01*
X84255238Y-47026333D02*
X84636190Y-47026333D01*
X84179047Y-47254904D02*
X84445714Y-46454904D01*
X84712380Y-47254904D01*
X85398095Y-47254904D02*
X84940952Y-47254904D01*
X85169523Y-47254904D02*
X85169523Y-46454904D01*
X85093333Y-46569190D01*
X85017142Y-46645380D01*
X84940952Y-46683476D01*
X85664761Y-46454904D02*
X86159999Y-46454904D01*
X85893333Y-46759666D01*
X86007619Y-46759666D01*
X86083809Y-46797761D01*
X86121904Y-46835857D01*
X86159999Y-46912047D01*
X86159999Y-47102523D01*
X86121904Y-47178714D01*
X86083809Y-47216809D01*
X86007619Y-47254904D01*
X85779047Y-47254904D01*
X85702857Y-47216809D01*
X85664761Y-47178714D01*
X87112380Y-46835857D02*
X87721904Y-46835857D01*
X87721904Y-47064428D02*
X87112380Y-47064428D01*
X88864761Y-46454904D02*
X88940952Y-46454904D01*
X89017142Y-46493000D01*
X89055238Y-46531095D01*
X89093333Y-46607285D01*
X89131428Y-46759666D01*
X89131428Y-46950142D01*
X89093333Y-47102523D01*
X89055238Y-47178714D01*
X89017142Y-47216809D01*
X88940952Y-47254904D01*
X88864761Y-47254904D01*
X88788571Y-47216809D01*
X88750476Y-47178714D01*
X88712380Y-47102523D01*
X88674285Y-46950142D01*
X88674285Y-46759666D01*
X88712380Y-46607285D01*
X88750476Y-46531095D01*
X88788571Y-46493000D01*
X88864761Y-46454904D01*
X89474285Y-47178714D02*
X89512380Y-47216809D01*
X89474285Y-47254904D01*
X89436190Y-47216809D01*
X89474285Y-47178714D01*
X89474285Y-47254904D01*
X90236190Y-46454904D02*
X89855238Y-46454904D01*
X89817142Y-46835857D01*
X89855238Y-46797761D01*
X89931428Y-46759666D01*
X90121904Y-46759666D01*
X90198095Y-46797761D01*
X90236190Y-46835857D01*
X90274285Y-46912047D01*
X90274285Y-47102523D01*
X90236190Y-47178714D01*
X90198095Y-47216809D01*
X90121904Y-47254904D01*
X89931428Y-47254904D01*
X89855238Y-47216809D01*
X89817142Y-47178714D01*
X91112380Y-46454904D02*
X91379047Y-47254904D01*
X91645714Y-46454904D01*
X92179047Y-46835857D02*
X92293333Y-46873952D01*
X92331428Y-46912047D01*
X92369523Y-46988238D01*
X92369523Y-47102523D01*
X92331428Y-47178714D01*
X92293333Y-47216809D01*
X92217142Y-47254904D01*
X91912380Y-47254904D01*
X91912380Y-46454904D01*
X92179047Y-46454904D01*
X92255238Y-46493000D01*
X92293333Y-46531095D01*
X92331428Y-46607285D01*
X92331428Y-46683476D01*
X92293333Y-46759666D01*
X92255238Y-46797761D01*
X92179047Y-46835857D01*
X91912380Y-46835857D01*
X92674285Y-47026333D02*
X93055238Y-47026333D01*
X92598095Y-47254904D02*
X92864761Y-46454904D01*
X93131428Y-47254904D01*
X93283809Y-46454904D02*
X93740952Y-46454904D01*
X93512380Y-47254904D02*
X93512380Y-46454904D01*
X101495238Y-54201904D02*
X101952380Y-54201904D01*
X101723809Y-55001904D02*
X101723809Y-54201904D01*
X102371428Y-54201904D02*
X102523809Y-54201904D01*
X102600000Y-54240000D01*
X102676190Y-54316190D01*
X102714285Y-54468571D01*
X102714285Y-54735238D01*
X102676190Y-54887619D01*
X102600000Y-54963809D01*
X102523809Y-55001904D01*
X102371428Y-55001904D01*
X102295238Y-54963809D01*
X102219047Y-54887619D01*
X102180952Y-54735238D01*
X102180952Y-54468571D01*
X102219047Y-54316190D01*
X102295238Y-54240000D01*
X102371428Y-54201904D01*
X103057142Y-55001904D02*
X103057142Y-54201904D01*
X103361904Y-54201904D01*
X103438095Y-54240000D01*
X103476190Y-54278095D01*
X103514285Y-54354285D01*
X103514285Y-54468571D01*
X103476190Y-54544761D01*
X103438095Y-54582857D01*
X103361904Y-54620952D01*
X103057142Y-54620952D01*
X104352380Y-54201904D02*
X104619047Y-55001904D01*
X104885714Y-54201904D01*
X105152380Y-55001904D02*
X105152380Y-54201904D01*
X105533333Y-54582857D02*
X105800000Y-54582857D01*
X105914285Y-55001904D02*
X105533333Y-55001904D01*
X105533333Y-54201904D01*
X105914285Y-54201904D01*
X106180952Y-54201904D02*
X106371428Y-55001904D01*
X106523809Y-54430476D01*
X106676190Y-55001904D01*
X106866666Y-54201904D01*
X92910000Y-55636904D02*
X92910000Y-54836904D01*
X93367142Y-55636904D01*
X93367142Y-54836904D01*
X94052857Y-55598809D02*
X93976666Y-55636904D01*
X93824285Y-55636904D01*
X93748095Y-55598809D01*
X93710000Y-55522619D01*
X93710000Y-55217857D01*
X93748095Y-55141666D01*
X93824285Y-55103571D01*
X93976666Y-55103571D01*
X94052857Y-55141666D01*
X94090952Y-55217857D01*
X94090952Y-55294047D01*
X93710000Y-55370238D01*
X94548095Y-55636904D02*
X94471904Y-55598809D01*
X94433809Y-55560714D01*
X94395714Y-55484523D01*
X94395714Y-55255952D01*
X94433809Y-55179761D01*
X94471904Y-55141666D01*
X94548095Y-55103571D01*
X94662380Y-55103571D01*
X94738571Y-55141666D01*
X94776666Y-55179761D01*
X94814761Y-55255952D01*
X94814761Y-55484523D01*
X94776666Y-55560714D01*
X94738571Y-55598809D01*
X94662380Y-55636904D01*
X94548095Y-55636904D01*
X95157619Y-55636904D02*
X95157619Y-54836904D01*
X95462380Y-54836904D01*
X95538571Y-54875000D01*
X95576666Y-54913095D01*
X95614761Y-54989285D01*
X95614761Y-55103571D01*
X95576666Y-55179761D01*
X95538571Y-55217857D01*
X95462380Y-55255952D01*
X95157619Y-55255952D01*
X95957619Y-55636904D02*
X95957619Y-55103571D01*
X95957619Y-54836904D02*
X95919523Y-54875000D01*
X95957619Y-54913095D01*
X95995714Y-54875000D01*
X95957619Y-54836904D01*
X95957619Y-54913095D01*
X96262380Y-55636904D02*
X96681428Y-55103571D01*
X96262380Y-55103571D02*
X96681428Y-55636904D01*
X97290952Y-55598809D02*
X97214761Y-55636904D01*
X97062380Y-55636904D01*
X96986190Y-55598809D01*
X96948095Y-55522619D01*
X96948095Y-55217857D01*
X96986190Y-55141666D01*
X97062380Y-55103571D01*
X97214761Y-55103571D01*
X97290952Y-55141666D01*
X97329047Y-55217857D01*
X97329047Y-55294047D01*
X96948095Y-55370238D01*
X97786190Y-55636904D02*
X97710000Y-55598809D01*
X97671904Y-55522619D01*
X97671904Y-54836904D01*
X94719523Y-57541904D02*
X94719523Y-56741904D01*
X94910000Y-56741904D01*
X95024285Y-56780000D01*
X95100476Y-56856190D01*
X95138571Y-56932380D01*
X95176666Y-57084761D01*
X95176666Y-57199047D01*
X95138571Y-57351428D01*
X95100476Y-57427619D01*
X95024285Y-57503809D01*
X94910000Y-57541904D01*
X94719523Y-57541904D01*
X95633809Y-57084761D02*
X95557619Y-57046666D01*
X95519523Y-57008571D01*
X95481428Y-56932380D01*
X95481428Y-56894285D01*
X95519523Y-56818095D01*
X95557619Y-56780000D01*
X95633809Y-56741904D01*
X95786190Y-56741904D01*
X95862380Y-56780000D01*
X95900476Y-56818095D01*
X95938571Y-56894285D01*
X95938571Y-56932380D01*
X95900476Y-57008571D01*
X95862380Y-57046666D01*
X95786190Y-57084761D01*
X95633809Y-57084761D01*
X95557619Y-57122857D01*
X95519523Y-57160952D01*
X95481428Y-57237142D01*
X95481428Y-57389523D01*
X95519523Y-57465714D01*
X95557619Y-57503809D01*
X95633809Y-57541904D01*
X95786190Y-57541904D01*
X95862380Y-57503809D01*
X95900476Y-57465714D01*
X95938571Y-57389523D01*
X95938571Y-57237142D01*
X95900476Y-57160952D01*
X95862380Y-57122857D01*
X95786190Y-57084761D01*
X88521904Y-57541904D02*
X88255238Y-57160952D01*
X88064761Y-57541904D02*
X88064761Y-56741904D01*
X88369523Y-56741904D01*
X88445714Y-56780000D01*
X88483809Y-56818095D01*
X88521904Y-56894285D01*
X88521904Y-57008571D01*
X88483809Y-57084761D01*
X88445714Y-57122857D01*
X88369523Y-57160952D01*
X88064761Y-57160952D01*
X88826666Y-57503809D02*
X88940952Y-57541904D01*
X89131428Y-57541904D01*
X89207619Y-57503809D01*
X89245714Y-57465714D01*
X89283809Y-57389523D01*
X89283809Y-57313333D01*
X89245714Y-57237142D01*
X89207619Y-57199047D01*
X89131428Y-57160952D01*
X88979047Y-57122857D01*
X88902857Y-57084761D01*
X88864761Y-57046666D01*
X88826666Y-56970476D01*
X88826666Y-56894285D01*
X88864761Y-56818095D01*
X88902857Y-56780000D01*
X88979047Y-56741904D01*
X89169523Y-56741904D01*
X89283809Y-56780000D01*
X89512380Y-56741904D02*
X89969523Y-56741904D01*
X89740952Y-57541904D02*
X89740952Y-56741904D01*
X80768571Y-58100714D02*
X80730476Y-58138809D01*
X80616190Y-58176904D01*
X80540000Y-58176904D01*
X80425714Y-58138809D01*
X80349523Y-58062619D01*
X80311428Y-57986428D01*
X80273333Y-57834047D01*
X80273333Y-57719761D01*
X80311428Y-57567380D01*
X80349523Y-57491190D01*
X80425714Y-57415000D01*
X80540000Y-57376904D01*
X80616190Y-57376904D01*
X80730476Y-57415000D01*
X80768571Y-57453095D01*
X81111428Y-58176904D02*
X81111428Y-57376904D01*
X81111428Y-57757857D02*
X81568571Y-57757857D01*
X81568571Y-58176904D02*
X81568571Y-57376904D01*
X82368571Y-57415000D02*
X82292380Y-57376904D01*
X82178095Y-57376904D01*
X82063809Y-57415000D01*
X81987619Y-57491190D01*
X81949523Y-57567380D01*
X81911428Y-57719761D01*
X81911428Y-57834047D01*
X81949523Y-57986428D01*
X81987619Y-58062619D01*
X82063809Y-58138809D01*
X82178095Y-58176904D01*
X82254285Y-58176904D01*
X82368571Y-58138809D01*
X82406666Y-58100714D01*
X82406666Y-57834047D01*
X82254285Y-57834047D01*
X80368571Y-46746904D02*
X80368571Y-45946904D01*
X80559047Y-45946904D01*
X80673333Y-45985000D01*
X80749523Y-46061190D01*
X80787619Y-46137380D01*
X80825714Y-46289761D01*
X80825714Y-46404047D01*
X80787619Y-46556428D01*
X80749523Y-46632619D01*
X80673333Y-46708809D01*
X80559047Y-46746904D01*
X80368571Y-46746904D01*
X81587619Y-46746904D02*
X81130476Y-46746904D01*
X81359047Y-46746904D02*
X81359047Y-45946904D01*
X81282857Y-46061190D01*
X81206666Y-46137380D01*
X81130476Y-46175476D01*
X81854285Y-45946904D02*
X82349523Y-45946904D01*
X82082857Y-46251666D01*
X82197142Y-46251666D01*
X82273333Y-46289761D01*
X82311428Y-46327857D01*
X82349523Y-46404047D01*
X82349523Y-46594523D01*
X82311428Y-46670714D01*
X82273333Y-46708809D01*
X82197142Y-46746904D01*
X81968571Y-46746904D01*
X81892380Y-46708809D01*
X81854285Y-46670714D01*
X120119523Y-59827904D02*
X120119523Y-59027904D01*
X120310000Y-59027904D01*
X120424285Y-59066000D01*
X120500476Y-59142190D01*
X120538571Y-59218380D01*
X120576666Y-59370761D01*
X120576666Y-59485047D01*
X120538571Y-59637428D01*
X120500476Y-59713619D01*
X120424285Y-59789809D01*
X120310000Y-59827904D01*
X120119523Y-59827904D01*
X121338571Y-59827904D02*
X120881428Y-59827904D01*
X121110000Y-59827904D02*
X121110000Y-59027904D01*
X121033809Y-59142190D01*
X120957619Y-59218380D01*
X120881428Y-59256476D01*
X117579523Y-59827904D02*
X117579523Y-59027904D01*
X117770000Y-59027904D01*
X117884285Y-59066000D01*
X117960476Y-59142190D01*
X117998571Y-59218380D01*
X118036666Y-59370761D01*
X118036666Y-59485047D01*
X117998571Y-59637428D01*
X117960476Y-59713619D01*
X117884285Y-59789809D01*
X117770000Y-59827904D01*
X117579523Y-59827904D01*
X118531904Y-59027904D02*
X118608095Y-59027904D01*
X118684285Y-59066000D01*
X118722380Y-59104095D01*
X118760476Y-59180285D01*
X118798571Y-59332666D01*
X118798571Y-59523142D01*
X118760476Y-59675523D01*
X118722380Y-59751714D01*
X118684285Y-59789809D01*
X118608095Y-59827904D01*
X118531904Y-59827904D01*
X118455714Y-59789809D01*
X118417619Y-59751714D01*
X118379523Y-59675523D01*
X118341428Y-59523142D01*
X118341428Y-59332666D01*
X118379523Y-59180285D01*
X118417619Y-59104095D01*
X118455714Y-59066000D01*
X118531904Y-59027904D01*
X84711904Y-61097904D02*
X84445238Y-60716952D01*
X84254761Y-61097904D02*
X84254761Y-60297904D01*
X84559523Y-60297904D01*
X84635714Y-60336000D01*
X84673809Y-60374095D01*
X84711904Y-60450285D01*
X84711904Y-60564571D01*
X84673809Y-60640761D01*
X84635714Y-60678857D01*
X84559523Y-60716952D01*
X84254761Y-60716952D01*
X85016666Y-61059809D02*
X85130952Y-61097904D01*
X85321428Y-61097904D01*
X85397619Y-61059809D01*
X85435714Y-61021714D01*
X85473809Y-60945523D01*
X85473809Y-60869333D01*
X85435714Y-60793142D01*
X85397619Y-60755047D01*
X85321428Y-60716952D01*
X85169047Y-60678857D01*
X85092857Y-60640761D01*
X85054761Y-60602666D01*
X85016666Y-60526476D01*
X85016666Y-60450285D01*
X85054761Y-60374095D01*
X85092857Y-60336000D01*
X85169047Y-60297904D01*
X85359523Y-60297904D01*
X85473809Y-60336000D01*
X85702380Y-60297904D02*
X86159523Y-60297904D01*
X85930952Y-61097904D02*
X85930952Y-60297904D01*
X87080476Y-60297904D02*
X87575714Y-60297904D01*
X87309047Y-60602666D01*
X87423333Y-60602666D01*
X87499523Y-60640761D01*
X87537619Y-60678857D01*
X87575714Y-60755047D01*
X87575714Y-60945523D01*
X87537619Y-61021714D01*
X87499523Y-61059809D01*
X87423333Y-61097904D01*
X87194761Y-61097904D01*
X87118571Y-61059809D01*
X87080476Y-61021714D01*
X87804285Y-60297904D02*
X88070952Y-61097904D01*
X88337619Y-60297904D01*
X88934761Y-60869333D02*
X89315714Y-60869333D01*
X88858571Y-61097904D02*
X89125238Y-60297904D01*
X89391904Y-61097904D01*
X90115714Y-61097904D02*
X89849047Y-60716952D01*
X89658571Y-61097904D02*
X89658571Y-60297904D01*
X89963333Y-60297904D01*
X90039523Y-60336000D01*
X90077619Y-60374095D01*
X90115714Y-60450285D01*
X90115714Y-60564571D01*
X90077619Y-60640761D01*
X90039523Y-60678857D01*
X89963333Y-60716952D01*
X89658571Y-60716952D01*
X90458571Y-60678857D02*
X90725238Y-60678857D01*
X90839523Y-61097904D02*
X90458571Y-61097904D01*
X90458571Y-60297904D01*
X90839523Y-60297904D01*
X91449047Y-60678857D02*
X91182380Y-60678857D01*
X91182380Y-61097904D02*
X91182380Y-60297904D01*
X91563333Y-60297904D01*
X92160476Y-60336000D02*
X92084285Y-60297904D01*
X91970000Y-60297904D01*
X91855714Y-60336000D01*
X91779523Y-60412190D01*
X91741428Y-60488380D01*
X91703333Y-60640761D01*
X91703333Y-60755047D01*
X91741428Y-60907428D01*
X91779523Y-60983619D01*
X91855714Y-61059809D01*
X91970000Y-61097904D01*
X92046190Y-61097904D01*
X92160476Y-61059809D01*
X92198571Y-61021714D01*
X92198571Y-60755047D01*
X92046190Y-60755047D01*
X92541428Y-61097904D02*
X92541428Y-60297904D01*
X92998571Y-61097904D01*
X92998571Y-60297904D01*
X93379523Y-61097904D02*
X93379523Y-60297904D01*
X93570000Y-60297904D01*
X93684285Y-60336000D01*
X93760476Y-60412190D01*
X93798571Y-60488380D01*
X93836666Y-60640761D01*
X93836666Y-60755047D01*
X93798571Y-60907428D01*
X93760476Y-60983619D01*
X93684285Y-61059809D01*
X93570000Y-61097904D01*
X93379523Y-61097904D01*
X94376666Y-60793142D02*
X94414761Y-60755047D01*
X94490952Y-60716952D01*
X94643333Y-60793142D01*
X94719523Y-60755047D01*
X94757619Y-60716952D01*
X95024285Y-60869333D02*
X95405238Y-60869333D01*
X94948095Y-61097904D02*
X95214761Y-60297904D01*
X95481428Y-61097904D01*
X95900476Y-60297904D02*
X95976666Y-60297904D01*
X96052857Y-60336000D01*
X96090952Y-60374095D01*
X96129047Y-60450285D01*
X96167142Y-60602666D01*
X96167142Y-60793142D01*
X96129047Y-60945523D01*
X96090952Y-61021714D01*
X96052857Y-61059809D01*
X95976666Y-61097904D01*
X95900476Y-61097904D01*
X95824285Y-61059809D01*
X95786190Y-61021714D01*
X95748095Y-60945523D01*
X95710000Y-60793142D01*
X95710000Y-60602666D01*
X95748095Y-60450285D01*
X95786190Y-60374095D01*
X95824285Y-60336000D01*
X95900476Y-60297904D01*
X96916666Y-60793142D02*
X96954761Y-60755047D01*
X97030952Y-60716952D01*
X97183333Y-60793142D01*
X97259523Y-60755047D01*
X97297619Y-60716952D01*
X97564285Y-60869333D02*
X97945238Y-60869333D01*
X97488095Y-61097904D02*
X97754761Y-60297904D01*
X98021428Y-61097904D01*
X98707142Y-61097904D02*
X98250000Y-61097904D01*
X98478571Y-61097904D02*
X98478571Y-60297904D01*
X98402380Y-60412190D01*
X98326190Y-60488380D01*
X98250000Y-60526476D01*
X99818571Y-60869333D02*
X100199523Y-60869333D01*
X99742380Y-61097904D02*
X100009047Y-60297904D01*
X100275714Y-61097904D01*
X100504285Y-60374095D02*
X100542380Y-60336000D01*
X100618571Y-60297904D01*
X100809047Y-60297904D01*
X100885238Y-60336000D01*
X100923333Y-60374095D01*
X100961428Y-60450285D01*
X100961428Y-60526476D01*
X100923333Y-60640761D01*
X100466190Y-61097904D01*
X100961428Y-61097904D01*
X104898571Y-60869333D02*
X105279523Y-60869333D01*
X104822380Y-61097904D02*
X105089047Y-60297904D01*
X105355714Y-61097904D01*
X105965238Y-60564571D02*
X105965238Y-61097904D01*
X105774761Y-60259809D02*
X105584285Y-60831238D01*
X106079523Y-60831238D01*
X107438571Y-60869333D02*
X107819523Y-60869333D01*
X107362380Y-61097904D02*
X107629047Y-60297904D01*
X107895714Y-61097904D01*
X108543333Y-60297904D02*
X108162380Y-60297904D01*
X108124285Y-60678857D01*
X108162380Y-60640761D01*
X108238571Y-60602666D01*
X108429047Y-60602666D01*
X108505238Y-60640761D01*
X108543333Y-60678857D01*
X108581428Y-60755047D01*
X108581428Y-60945523D01*
X108543333Y-61021714D01*
X108505238Y-61059809D01*
X108429047Y-61097904D01*
X108238571Y-61097904D01*
X108162380Y-61059809D01*
X108124285Y-61021714D01*
X102358571Y-60869333D02*
X102739523Y-60869333D01*
X102282380Y-61097904D02*
X102549047Y-60297904D01*
X102815714Y-61097904D01*
X103006190Y-60297904D02*
X103501428Y-60297904D01*
X103234761Y-60602666D01*
X103349047Y-60602666D01*
X103425238Y-60640761D01*
X103463333Y-60678857D01*
X103501428Y-60755047D01*
X103501428Y-60945523D01*
X103463333Y-61021714D01*
X103425238Y-61059809D01*
X103349047Y-61097904D01*
X103120476Y-61097904D01*
X103044285Y-61059809D01*
X103006190Y-61021714D01*
X109521428Y-61059809D02*
X109635714Y-61097904D01*
X109826190Y-61097904D01*
X109902380Y-61059809D01*
X109940476Y-61021714D01*
X109978571Y-60945523D01*
X109978571Y-60869333D01*
X109940476Y-60793142D01*
X109902380Y-60755047D01*
X109826190Y-60716952D01*
X109673809Y-60678857D01*
X109597619Y-60640761D01*
X109559523Y-60602666D01*
X109521428Y-60526476D01*
X109521428Y-60450285D01*
X109559523Y-60374095D01*
X109597619Y-60336000D01*
X109673809Y-60297904D01*
X109864285Y-60297904D01*
X109978571Y-60336000D01*
X110778571Y-61021714D02*
X110740476Y-61059809D01*
X110626190Y-61097904D01*
X110550000Y-61097904D01*
X110435714Y-61059809D01*
X110359523Y-60983619D01*
X110321428Y-60907428D01*
X110283333Y-60755047D01*
X110283333Y-60640761D01*
X110321428Y-60488380D01*
X110359523Y-60412190D01*
X110435714Y-60336000D01*
X110550000Y-60297904D01*
X110626190Y-60297904D01*
X110740476Y-60336000D01*
X110778571Y-60374095D01*
X111121428Y-61097904D02*
X111121428Y-60297904D01*
X111578571Y-61097904D02*
X111235714Y-60640761D01*
X111578571Y-60297904D02*
X111121428Y-60755047D01*
X115172857Y-61097904D02*
X115172857Y-60297904D01*
X115439523Y-60869333D01*
X115706190Y-60297904D01*
X115706190Y-61097904D01*
X116087142Y-61097904D02*
X116087142Y-60297904D01*
X112404285Y-61097904D02*
X112404285Y-60297904D01*
X112670952Y-60869333D01*
X112937619Y-60297904D01*
X112937619Y-61097904D01*
X113470952Y-60297904D02*
X113623333Y-60297904D01*
X113699523Y-60336000D01*
X113775714Y-60412190D01*
X113813809Y-60564571D01*
X113813809Y-60831238D01*
X113775714Y-60983619D01*
X113699523Y-61059809D01*
X113623333Y-61097904D01*
X113470952Y-61097904D01*
X113394761Y-61059809D01*
X113318571Y-60983619D01*
X113280476Y-60831238D01*
X113280476Y-60564571D01*
X113318571Y-60412190D01*
X113394761Y-60336000D01*
X113470952Y-60297904D01*
X118036666Y-61097904D02*
X117770000Y-60716952D01*
X117579523Y-61097904D02*
X117579523Y-60297904D01*
X117884285Y-60297904D01*
X117960476Y-60336000D01*
X117998571Y-60374095D01*
X118036666Y-60450285D01*
X118036666Y-60564571D01*
X117998571Y-60640761D01*
X117960476Y-60678857D01*
X117884285Y-60716952D01*
X117579523Y-60716952D01*
X118303333Y-60297904D02*
X118836666Y-61097904D01*
X118836666Y-60297904D02*
X118303333Y-61097904D01*
X101958571Y-43825904D02*
X101958571Y-43025904D01*
X102149047Y-43025904D01*
X102263333Y-43064000D01*
X102339523Y-43140190D01*
X102377619Y-43216380D01*
X102415714Y-43368761D01*
X102415714Y-43483047D01*
X102377619Y-43635428D01*
X102339523Y-43711619D01*
X102263333Y-43787809D01*
X102149047Y-43825904D01*
X101958571Y-43825904D01*
X103177619Y-43825904D02*
X102720476Y-43825904D01*
X102949047Y-43825904D02*
X102949047Y-43025904D01*
X102872857Y-43140190D01*
X102796666Y-43216380D01*
X102720476Y-43254476D01*
X103444285Y-43025904D02*
X103939523Y-43025904D01*
X103672857Y-43330666D01*
X103787142Y-43330666D01*
X103863333Y-43368761D01*
X103901428Y-43406857D01*
X103939523Y-43483047D01*
X103939523Y-43673523D01*
X103901428Y-43749714D01*
X103863333Y-43787809D01*
X103787142Y-43825904D01*
X103558571Y-43825904D01*
X103482380Y-43787809D01*
X103444285Y-43749714D01*
X107038571Y-43825904D02*
X107038571Y-43025904D01*
X107229047Y-43025904D01*
X107343333Y-43064000D01*
X107419523Y-43140190D01*
X107457619Y-43216380D01*
X107495714Y-43368761D01*
X107495714Y-43483047D01*
X107457619Y-43635428D01*
X107419523Y-43711619D01*
X107343333Y-43787809D01*
X107229047Y-43825904D01*
X107038571Y-43825904D01*
X108257619Y-43825904D02*
X107800476Y-43825904D01*
X108029047Y-43825904D02*
X108029047Y-43025904D01*
X107952857Y-43140190D01*
X107876666Y-43216380D01*
X107800476Y-43254476D01*
X109019523Y-43825904D02*
X108562380Y-43825904D01*
X108790952Y-43825904D02*
X108790952Y-43025904D01*
X108714761Y-43140190D01*
X108638571Y-43216380D01*
X108562380Y-43254476D01*
X109578571Y-43825904D02*
X109578571Y-43025904D01*
X109769047Y-43025904D01*
X109883333Y-43064000D01*
X109959523Y-43140190D01*
X109997619Y-43216380D01*
X110035714Y-43368761D01*
X110035714Y-43483047D01*
X109997619Y-43635428D01*
X109959523Y-43711619D01*
X109883333Y-43787809D01*
X109769047Y-43825904D01*
X109578571Y-43825904D01*
X110797619Y-43825904D02*
X110340476Y-43825904D01*
X110569047Y-43825904D02*
X110569047Y-43025904D01*
X110492857Y-43140190D01*
X110416666Y-43216380D01*
X110340476Y-43254476D01*
X111292857Y-43025904D02*
X111369047Y-43025904D01*
X111445238Y-43064000D01*
X111483333Y-43102095D01*
X111521428Y-43178285D01*
X111559523Y-43330666D01*
X111559523Y-43521142D01*
X111521428Y-43673523D01*
X111483333Y-43749714D01*
X111445238Y-43787809D01*
X111369047Y-43825904D01*
X111292857Y-43825904D01*
X111216666Y-43787809D01*
X111178571Y-43749714D01*
X111140476Y-43673523D01*
X111102380Y-43521142D01*
X111102380Y-43330666D01*
X111140476Y-43178285D01*
X111178571Y-43102095D01*
X111216666Y-43064000D01*
X111292857Y-43025904D01*
X97259523Y-43406857D02*
X97526190Y-43406857D01*
X97640476Y-43825904D02*
X97259523Y-43825904D01*
X97259523Y-43025904D01*
X97640476Y-43025904D01*
X97983333Y-43825904D02*
X97983333Y-43025904D01*
X98440476Y-43825904D01*
X98440476Y-43025904D01*
X99380476Y-43025904D02*
X99380476Y-43673523D01*
X99418571Y-43749714D01*
X99456666Y-43787809D01*
X99532857Y-43825904D01*
X99685238Y-43825904D01*
X99761428Y-43787809D01*
X99799523Y-43749714D01*
X99837619Y-43673523D01*
X99837619Y-43025904D01*
X100180476Y-43787809D02*
X100294761Y-43825904D01*
X100485238Y-43825904D01*
X100561428Y-43787809D01*
X100599523Y-43749714D01*
X100637619Y-43673523D01*
X100637619Y-43597333D01*
X100599523Y-43521142D01*
X100561428Y-43483047D01*
X100485238Y-43444952D01*
X100332857Y-43406857D01*
X100256666Y-43368761D01*
X100218571Y-43330666D01*
X100180476Y-43254476D01*
X100180476Y-43178285D01*
X100218571Y-43102095D01*
X100256666Y-43064000D01*
X100332857Y-43025904D01*
X100523333Y-43025904D01*
X100637619Y-43064000D01*
X101247142Y-43406857D02*
X101361428Y-43444952D01*
X101399523Y-43483047D01*
X101437619Y-43559238D01*
X101437619Y-43673523D01*
X101399523Y-43749714D01*
X101361428Y-43787809D01*
X101285238Y-43825904D01*
X100980476Y-43825904D01*
X100980476Y-43025904D01*
X101247142Y-43025904D01*
X101323333Y-43064000D01*
X101361428Y-43102095D01*
X101399523Y-43178285D01*
X101399523Y-43254476D01*
X101361428Y-43330666D01*
X101323333Y-43368761D01*
X101247142Y-43406857D01*
X100980476Y-43406857D01*
X104498571Y-43825904D02*
X104498571Y-43025904D01*
X104689047Y-43025904D01*
X104803333Y-43064000D01*
X104879523Y-43140190D01*
X104917619Y-43216380D01*
X104955714Y-43368761D01*
X104955714Y-43483047D01*
X104917619Y-43635428D01*
X104879523Y-43711619D01*
X104803333Y-43787809D01*
X104689047Y-43825904D01*
X104498571Y-43825904D01*
X105717619Y-43825904D02*
X105260476Y-43825904D01*
X105489047Y-43825904D02*
X105489047Y-43025904D01*
X105412857Y-43140190D01*
X105336666Y-43216380D01*
X105260476Y-43254476D01*
X106022380Y-43102095D02*
X106060476Y-43064000D01*
X106136666Y-43025904D01*
X106327142Y-43025904D01*
X106403333Y-43064000D01*
X106441428Y-43102095D01*
X106479523Y-43178285D01*
X106479523Y-43254476D01*
X106441428Y-43368761D01*
X105984285Y-43825904D01*
X106479523Y-43825904D01*
X94719523Y-43406857D02*
X94833809Y-43444952D01*
X94871904Y-43483047D01*
X94910000Y-43559238D01*
X94910000Y-43673523D01*
X94871904Y-43749714D01*
X94833809Y-43787809D01*
X94757619Y-43825904D01*
X94452857Y-43825904D01*
X94452857Y-43025904D01*
X94719523Y-43025904D01*
X94795714Y-43064000D01*
X94833809Y-43102095D01*
X94871904Y-43178285D01*
X94871904Y-43254476D01*
X94833809Y-43330666D01*
X94795714Y-43368761D01*
X94719523Y-43406857D01*
X94452857Y-43406857D01*
X95214761Y-43597333D02*
X95595714Y-43597333D01*
X95138571Y-43825904D02*
X95405238Y-43025904D01*
X95671904Y-43825904D01*
X95824285Y-43025904D02*
X96281428Y-43025904D01*
X96052857Y-43825904D02*
X96052857Y-43025904D01*
X122278571Y-43787809D02*
X122392857Y-43825904D01*
X122583333Y-43825904D01*
X122659523Y-43787809D01*
X122697619Y-43749714D01*
X122735714Y-43673523D01*
X122735714Y-43597333D01*
X122697619Y-43521142D01*
X122659523Y-43483047D01*
X122583333Y-43444952D01*
X122430952Y-43406857D01*
X122354761Y-43368761D01*
X122316666Y-43330666D01*
X122278571Y-43254476D01*
X122278571Y-43178285D01*
X122316666Y-43102095D01*
X122354761Y-43064000D01*
X122430952Y-43025904D01*
X122621428Y-43025904D01*
X122735714Y-43064000D01*
X123078571Y-43825904D02*
X123078571Y-43025904D01*
X123269047Y-43025904D01*
X123383333Y-43064000D01*
X123459523Y-43140190D01*
X123497619Y-43216380D01*
X123535714Y-43368761D01*
X123535714Y-43483047D01*
X123497619Y-43635428D01*
X123459523Y-43711619D01*
X123383333Y-43787809D01*
X123269047Y-43825904D01*
X123078571Y-43825904D01*
X123840476Y-43597333D02*
X124221428Y-43597333D01*
X123764285Y-43825904D02*
X124030952Y-43025904D01*
X124297619Y-43825904D01*
X119757619Y-43787809D02*
X119871904Y-43825904D01*
X120062380Y-43825904D01*
X120138571Y-43787809D01*
X120176666Y-43749714D01*
X120214761Y-43673523D01*
X120214761Y-43597333D01*
X120176666Y-43521142D01*
X120138571Y-43483047D01*
X120062380Y-43444952D01*
X119910000Y-43406857D01*
X119833809Y-43368761D01*
X119795714Y-43330666D01*
X119757619Y-43254476D01*
X119757619Y-43178285D01*
X119795714Y-43102095D01*
X119833809Y-43064000D01*
X119910000Y-43025904D01*
X120100476Y-43025904D01*
X120214761Y-43064000D01*
X121014761Y-43749714D02*
X120976666Y-43787809D01*
X120862380Y-43825904D01*
X120786190Y-43825904D01*
X120671904Y-43787809D01*
X120595714Y-43711619D01*
X120557619Y-43635428D01*
X120519523Y-43483047D01*
X120519523Y-43368761D01*
X120557619Y-43216380D01*
X120595714Y-43140190D01*
X120671904Y-43064000D01*
X120786190Y-43025904D01*
X120862380Y-43025904D01*
X120976666Y-43064000D01*
X121014761Y-43102095D01*
X121738571Y-43825904D02*
X121357619Y-43825904D01*
X121357619Y-43025904D01*
X115039523Y-43825904D02*
X115039523Y-43025904D01*
X115230000Y-43025904D01*
X115344285Y-43064000D01*
X115420476Y-43140190D01*
X115458571Y-43216380D01*
X115496666Y-43368761D01*
X115496666Y-43483047D01*
X115458571Y-43635428D01*
X115420476Y-43711619D01*
X115344285Y-43787809D01*
X115230000Y-43825904D01*
X115039523Y-43825904D01*
X116182380Y-43025904D02*
X116030000Y-43025904D01*
X115953809Y-43064000D01*
X115915714Y-43102095D01*
X115839523Y-43216380D01*
X115801428Y-43368761D01*
X115801428Y-43673523D01*
X115839523Y-43749714D01*
X115877619Y-43787809D01*
X115953809Y-43825904D01*
X116106190Y-43825904D01*
X116182380Y-43787809D01*
X116220476Y-43749714D01*
X116258571Y-43673523D01*
X116258571Y-43483047D01*
X116220476Y-43406857D01*
X116182380Y-43368761D01*
X116106190Y-43330666D01*
X115953809Y-43330666D01*
X115877619Y-43368761D01*
X115839523Y-43406857D01*
X115801428Y-43483047D01*
X112499523Y-43825904D02*
X112499523Y-43025904D01*
X112690000Y-43025904D01*
X112804285Y-43064000D01*
X112880476Y-43140190D01*
X112918571Y-43216380D01*
X112956666Y-43368761D01*
X112956666Y-43483047D01*
X112918571Y-43635428D01*
X112880476Y-43711619D01*
X112804285Y-43787809D01*
X112690000Y-43825904D01*
X112499523Y-43825904D01*
X113337619Y-43825904D02*
X113490000Y-43825904D01*
X113566190Y-43787809D01*
X113604285Y-43749714D01*
X113680476Y-43635428D01*
X113718571Y-43483047D01*
X113718571Y-43178285D01*
X113680476Y-43102095D01*
X113642380Y-43064000D01*
X113566190Y-43025904D01*
X113413809Y-43025904D01*
X113337619Y-43064000D01*
X113299523Y-43102095D01*
X113261428Y-43178285D01*
X113261428Y-43368761D01*
X113299523Y-43444952D01*
X113337619Y-43483047D01*
X113413809Y-43521142D01*
X113566190Y-43521142D01*
X113642380Y-43483047D01*
X113680476Y-43444952D01*
X113718571Y-43368761D01*
X117579523Y-43825904D02*
X117579523Y-43025904D01*
X117770000Y-43025904D01*
X117884285Y-43064000D01*
X117960476Y-43140190D01*
X117998571Y-43216380D01*
X118036666Y-43368761D01*
X118036666Y-43483047D01*
X117998571Y-43635428D01*
X117960476Y-43711619D01*
X117884285Y-43787809D01*
X117770000Y-43825904D01*
X117579523Y-43825904D01*
X118760476Y-43025904D02*
X118379523Y-43025904D01*
X118341428Y-43406857D01*
X118379523Y-43368761D01*
X118455714Y-43330666D01*
X118646190Y-43330666D01*
X118722380Y-43368761D01*
X118760476Y-43406857D01*
X118798571Y-43483047D01*
X118798571Y-43673523D01*
X118760476Y-43749714D01*
X118722380Y-43787809D01*
X118646190Y-43825904D01*
X118455714Y-43825904D01*
X118379523Y-43787809D01*
X118341428Y-43749714D01*
X120100476Y-60297904D02*
X120557619Y-60297904D01*
X120329047Y-61097904D02*
X120329047Y-60297904D01*
X120748095Y-60297904D02*
X121281428Y-61097904D01*
X121281428Y-60297904D02*
X120748095Y-61097904D01*
X122659523Y-61097904D02*
X122659523Y-60297904D01*
X122850000Y-60297904D01*
X122964285Y-60336000D01*
X123040476Y-60412190D01*
X123078571Y-60488380D01*
X123116666Y-60640761D01*
X123116666Y-60755047D01*
X123078571Y-60907428D01*
X123040476Y-60983619D01*
X122964285Y-61059809D01*
X122850000Y-61097904D01*
X122659523Y-61097904D01*
X123802380Y-60564571D02*
X123802380Y-61097904D01*
X123611904Y-60259809D02*
X123421428Y-60831238D01*
X123916666Y-60831238D01*
M02*
