G04 #@! TF.GenerationSoftware,KiCad,Pcbnew,(5.1.6-0-10_14)*
G04 #@! TF.CreationDate,2020-08-03T12:58:00-07:00*
G04 #@! TF.ProjectId,Clock_MiniM4_Pelican,436c6f63-6b5f-44d6-996e-694d345f5065,v02*
G04 #@! TF.SameCoordinates,Original*
G04 #@! TF.FileFunction,Soldermask,Top*
G04 #@! TF.FilePolarity,Negative*
%FSLAX46Y46*%
G04 Gerber Fmt 4.6, Leading zero omitted, Abs format (unit mm)*
G04 Created by KiCad (PCBNEW (5.1.6-0-10_14)) date 2020-08-03 12:58:00*
%MOMM*%
%LPD*%
G01*
G04 APERTURE LIST*
%ADD10C,3.101600*%
%ADD11R,1.625600X1.625600*%
%ADD12C,1.625600*%
%ADD13O,4.101600X1.901600*%
%ADD14O,1.901600X4.101600*%
%ADD15C,2.801600*%
%ADD16C,1.901600*%
%ADD17C,1.801600*%
%ADD18C,2.601600*%
%ADD19O,1.801600X1.801600*%
%ADD20R,1.801600X1.801600*%
%ADD21C,2.101600*%
%ADD22R,2.901600X3.701600*%
G04 APERTURE END LIST*
D10*
X96139000Y-68580000D03*
X96139000Y-114300000D03*
X208661000Y-114300000D03*
X208661000Y-68580000D03*
D11*
X157480000Y-68580000D03*
D12*
X154940000Y-68580000D03*
X149860000Y-68580000D03*
X147320000Y-68580000D03*
X152400000Y-68580000D03*
D13*
X218600000Y-94300000D03*
X222000000Y-92400000D03*
D14*
X216800000Y-89000000D03*
D15*
X224790000Y-60960000D03*
X224790000Y-43180000D03*
D16*
X147320000Y-43180000D03*
X144780000Y-43180000D03*
X142240000Y-43180000D03*
X139700000Y-43180000D03*
X137160000Y-43180000D03*
X134620000Y-43180000D03*
X134620000Y-53340000D03*
X137160000Y-53340000D03*
X139700000Y-53340000D03*
X142240000Y-53340000D03*
X144780000Y-53340000D03*
X147320000Y-53340000D03*
D17*
X158750000Y-62230000D03*
X161290000Y-62230000D03*
X163830000Y-62230000D03*
X166370000Y-62230000D03*
X168910000Y-62230000D03*
X171450000Y-62230000D03*
X173990000Y-62230000D03*
X176530000Y-62230000D03*
X179070000Y-62230000D03*
X181610000Y-62230000D03*
X184150000Y-62230000D03*
X186690000Y-62230000D03*
X189230000Y-62230000D03*
X191770000Y-62230000D03*
X194310000Y-62230000D03*
X196850000Y-62230000D03*
X168910000Y-41910000D03*
X171450000Y-41910000D03*
X173990000Y-41910000D03*
X176530000Y-41910000D03*
X179070000Y-41910000D03*
X181610000Y-41910000D03*
X184150000Y-41910000D03*
X186690000Y-41910000D03*
X189230000Y-41910000D03*
X191770000Y-41910000D03*
X194310000Y-41910000D03*
X196850000Y-41910000D03*
D18*
X200660000Y-43180000D03*
X200660000Y-60960000D03*
D10*
X154940000Y-60960000D03*
X154940000Y-43180000D03*
D19*
X143510000Y-59690000D03*
D20*
X138430000Y-59690000D03*
D19*
X220980000Y-68580000D03*
D20*
X218440000Y-68580000D03*
D21*
X216915000Y-59870000D03*
X214415000Y-59870000D03*
X211915000Y-59870000D03*
X216915000Y-45370000D03*
X211915000Y-45370000D03*
D22*
X220115000Y-52370000D03*
X208715000Y-52370000D03*
D17*
X85150000Y-62260000D03*
X87690000Y-62260000D03*
X90230000Y-62260000D03*
X92770000Y-62260000D03*
X95310000Y-62260000D03*
X97850000Y-62260000D03*
X100390000Y-62260000D03*
X102930000Y-62260000D03*
X105470000Y-62260000D03*
X108010000Y-62260000D03*
X110550000Y-62260000D03*
X113090000Y-62260000D03*
X115630000Y-62260000D03*
X118170000Y-62260000D03*
X120710000Y-62260000D03*
X123250000Y-62260000D03*
X95310000Y-41940000D03*
X97850000Y-41940000D03*
X100390000Y-41940000D03*
X102930000Y-41940000D03*
X105470000Y-41940000D03*
X108010000Y-41940000D03*
X110550000Y-41940000D03*
X113090000Y-41940000D03*
X115630000Y-41940000D03*
X118170000Y-41940000D03*
X120710000Y-41940000D03*
X123250000Y-41940000D03*
D18*
X127060000Y-43210000D03*
X127060000Y-60990000D03*
D10*
X81340000Y-60990000D03*
X81340000Y-43210000D03*
M02*
